<svg width="26" height="27" viewBox="0 0 26 27" fill="none" xmlns="http://www.w3.org/2000/svg">
<g clip-path="url(#clip0_73_3350)">
<path d="M18.1019 19.331L19.3089 20.1188C19.3376 20.1373 19.3712 20.1466 19.4053 20.1457C19.4393 20.1448 19.4724 20.1336 19.5 20.1136C19.5277 20.0935 19.5486 20.0654 19.5599 20.0332C19.5713 20.0009 19.5726 19.9659 19.5637 19.9329L19.2563 18.7974L19.0717 19.2823L18.1019 19.331Z" fill="black"/>
<path d="M19.0716 19.283L19.2562 18.7981L18.9676 17.7314L18.616 18.6544L17.1756 18.7266L18.1018 19.3311L19.0716 19.283Z" fill="black"/>
<path d="M25.0367 19.1152C25.0092 19.0285 24.9558 18.9523 24.8836 18.897C24.8114 18.8416 24.7239 18.8098 24.633 18.8058L21.6086 18.6543L20.5322 15.8281C20.5 15.7433 20.4424 15.6704 20.3673 15.6196C20.2921 15.5687 20.203 15.5423 20.1123 15.5441C20.0221 15.5424 19.9335 15.5685 19.8587 15.6189C19.7838 15.6692 19.7262 15.7414 19.6937 15.8255L19.1646 17.2139L18.7739 15.7696L22.0636 13.1183C22.1415 13.0554 22.1985 12.9703 22.2272 12.8744C22.2558 12.7784 22.2548 12.6761 22.2241 12.5807C22.193 12.4859 22.1338 12.4027 22.0545 12.3421C21.9751 12.2815 21.8793 12.2464 21.7795 12.2414L17.5578 12.0302L16.0543 8.08273C16.0452 8.05738 16.0283 8.03853 16.0147 8.01708L17.002 7.22148C17.0866 7.1528 17.1484 7.06012 17.1793 6.95566C17.2101 6.85119 17.2087 6.73982 17.175 6.6362C17.1414 6.53259 17.0772 6.44157 16.9909 6.37514C16.9045 6.30871 16.8001 6.26998 16.6913 6.26403L11.2729 5.99298L9.34244 0.926881C9.30328 0.825591 9.23384 0.738844 9.14357 0.678472C9.0533 0.618099 8.94661 0.587041 8.83804 0.589531C8.72992 0.586735 8.62357 0.617388 8.53352 0.677302C8.44348 0.737217 8.37413 0.823471 8.33494 0.924281L6.40314 5.99233L0.98474 6.26338C0.875484 6.26821 0.770342 6.30645 0.683512 6.37294C0.596681 6.43943 0.532345 6.53096 0.49919 6.63518C0.465895 6.73921 0.464838 6.85087 0.496159 6.9555C0.527481 7.06014 0.589715 7.15286 0.67469 7.22148L4.89774 10.6242L3.48139 15.8593C3.45282 15.9649 3.45691 16.0766 3.49312 16.1797C3.52932 16.2829 3.59594 16.3727 3.68419 16.4372C3.77313 16.5001 3.87875 16.5351 3.98765 16.5379C4.09654 16.5407 4.20381 16.5111 4.29584 16.4528L8.83674 13.4875L12.3994 15.8138L11.3087 19.8458C11.2816 19.9425 11.2847 20.0451 11.3178 20.1399C11.3508 20.2348 11.412 20.3172 11.4933 20.3762C11.5745 20.4343 11.6713 20.4668 11.7712 20.4694C11.871 20.4721 11.9694 20.4448 12.0536 20.3911L15.5915 18.0804L16.6224 18.7538L15.5902 18.8058C15.4997 18.8107 15.4127 18.8429 15.3408 18.8983C15.269 18.9536 15.2156 19.0295 15.1877 19.1158C15.1598 19.2021 15.1587 19.2948 15.1847 19.3818C15.2106 19.4687 15.2622 19.5457 15.3328 19.6027L17.6897 21.502L16.9 24.4237C16.8764 24.5116 16.88 24.6045 16.9103 24.6902C16.9405 24.776 16.9961 24.8506 17.0696 24.9041C17.1434 24.9565 17.2311 24.9857 17.3215 24.988C17.4119 24.9903 17.501 24.9656 17.5773 24.9171L20.1116 23.2615L22.646 24.9164C22.7221 24.9656 22.8113 24.9906 22.9019 24.9881C22.9925 24.9857 23.0802 24.9559 23.1535 24.9027C23.2269 24.8494 23.2824 24.7753 23.3128 24.6899C23.3432 24.6045 23.3471 24.512 23.3239 24.4244L22.5335 21.502L24.8911 19.602C24.9615 19.545 25.0131 19.468 25.0391 19.3811C25.0651 19.2942 25.0642 19.2016 25.0367 19.1152ZM12.7777 10.6242L14.7758 9.01418L13.6266 12.0302L13.1638 12.0536L12.7777 10.6242ZM15.5922 17.3043L12.0425 19.6222L12.9714 16.1869L13.3809 16.4541C13.4683 16.5104 13.5701 16.5404 13.674 16.5405C13.7568 16.5402 13.8383 16.5209 13.9124 16.484C13.9864 16.4472 14.051 16.3938 14.1012 16.3281C14.1514 16.2623 14.1858 16.1859 14.2018 16.1048C14.2178 16.0236 14.2149 15.9399 14.1934 15.86L13.3373 12.6951L14.0822 12.6581L15.5915 8.69633L17.1008 12.6581L21.3356 12.8693L18.0342 15.5298L19.1418 19.6228L15.5922 17.3043ZM21.7951 21.2621L22.5589 24.0831L20.1116 22.4848L17.665 24.0831L18.4275 21.2621L16.1531 19.4291L17.5493 19.3596L19.1295 20.3911C19.2133 20.4467 19.3122 20.4751 19.4128 20.4727C19.5133 20.4703 19.6107 20.437 19.6917 20.3775C19.7721 20.3184 19.8328 20.2364 19.8659 20.1422C19.8989 20.048 19.9028 19.9461 19.877 19.8497L19.4532 18.2825L20.1123 16.5535L21.1529 19.2835L24.0714 19.4298L21.7951 21.2621Z" fill="black"/>
</g>
<defs>
<clipPath id="clip0_73_3350">
<rect width="26" height="26" fill="white" transform="translate(0 0.264648)"/>
</clipPath>
</defs>
</svg>
