<svg width="39" height="32" viewBox="0 0 39 32" fill="none" xmlns="http://www.w3.org/2000/svg">
<path d="M32.6966 26.7149C32.6966 27.1874 32.3858 27.5274 31.9386 27.5274C31.4779 27.5274 31.1805 27.1662 31.1805 26.7149C31.1805 26.2637 31.4779 25.9024 31.9386 25.9024C32.3858 25.9024 32.6966 26.2637 32.6966 26.7149ZM11.6525 25.9024C11.1711 25.9024 10.8944 26.2637 10.8944 26.7149C10.8944 27.1662 11.1723 27.5274 11.6525 27.5274C12.0924 27.5274 12.3898 27.1874 12.3898 26.7149C12.3825 26.2637 12.0924 25.9024 11.6525 25.9024ZM19.6085 25.8824C19.2428 25.8824 19.0186 26.1249 18.965 26.4862H20.2581C20.1971 26.0899 19.9607 25.8824 19.6085 25.8824ZM26.9076 25.9024C26.4469 25.9024 26.1702 26.2637 26.1702 26.7149C26.1702 27.1662 26.4481 27.5274 26.9076 27.5274C27.3682 27.5274 27.6656 27.1874 27.6656 26.7149C27.6656 26.2637 27.367 25.9024 26.9076 25.9024ZM34.0775 27.7149C34.0775 27.7362 34.0982 27.7499 34.0982 27.7912C34.0982 27.8124 34.0775 27.8262 34.0775 27.8674C34.0567 27.8887 34.0567 27.9024 34.0433 27.9224C34.0226 27.9437 34.0092 27.9574 33.969 27.9574C33.9483 27.9787 33.9349 27.9787 33.8947 27.9787C33.8739 27.9787 33.8605 27.9787 33.8203 27.9574C33.7996 27.9574 33.7862 27.9362 33.7667 27.9224C33.746 27.9012 33.7326 27.8874 33.7326 27.8674C33.7118 27.8324 33.7118 27.8124 33.7118 27.7912C33.7118 27.7562 33.7118 27.7362 33.7326 27.7149C33.7326 27.6799 33.7533 27.6599 33.7667 27.6387C33.7874 27.6174 33.8008 27.6174 33.8203 27.6037C33.8544 27.5824 33.8739 27.5824 33.8947 27.5824C33.9288 27.5824 33.9483 27.5824 33.969 27.6037C34.0031 27.6237 34.0226 27.6237 34.0433 27.6387C34.0641 27.6537 34.0567 27.6799 34.0775 27.7149ZM33.9288 27.8124C33.9629 27.8124 33.9629 27.7912 33.9824 27.7912C34.0031 27.7699 34.0031 27.7562 34.0031 27.7362C34.0031 27.7162 34.0031 27.7012 33.9824 27.6812C33.9629 27.6812 33.9483 27.6599 33.9081 27.6599H33.7996V27.9024H33.8532V27.8049H33.8739L33.9483 27.9024H34.0019L33.9288 27.8124ZM39 3.84742V28.2924C38.9997 29.1765 38.6571 30.0242 38.0476 30.6494C37.4381 31.2745 36.6116 31.6258 35.7496 31.6262H3.24919C2.38722 31.6258 1.56066 31.2745 0.951158 30.6494C0.341659 30.0242 -0.000897689 29.1765 -0.0012207 28.2924V3.84742C-0.000897689 2.96336 0.341659 2.1156 0.951158 1.49047C1.56066 0.865343 2.38722 0.514003 3.24919 0.513672H35.7496C36.6116 0.514003 37.4381 0.865343 38.0476 1.49047C38.6571 2.1156 38.9997 2.96336 39 3.84742ZM4.33387 13.5412C4.33387 18.8537 8.53856 23.1587 13.7109 23.1587C15.553 23.1533 17.3534 22.5958 18.8906 21.5549C13.9547 17.4374 13.9888 9.66617 18.8906 5.54742C17.3549 4.50321 15.5535 3.94547 13.7109 3.94367C8.53856 3.93742 4.33387 8.24867 4.33387 13.5412ZM19.5 21.0974C24.2738 17.2774 24.2531 9.83367 19.5 5.99367C14.7469 9.83367 14.7262 17.2849 19.5 21.0974ZM9.86456 26.3962C9.86456 25.7924 9.47822 25.3962 8.86884 25.3749C8.55684 25.3749 8.22534 25.4724 8.00231 25.8262C7.84022 25.5412 7.56234 25.3749 7.176 25.3749C7.03561 25.3727 6.89683 25.4057 6.77172 25.4711C6.64661 25.5364 6.53896 25.6322 6.45815 25.7499V25.4449H5.90362V27.9937H6.45815C6.45815 26.6812 6.28875 25.8962 7.06753 25.8962C7.75856 25.8962 7.62328 26.6049 7.62328 27.9937H8.15831C8.15831 26.7224 7.9889 25.8962 8.76768 25.8962C9.45872 25.8962 9.32222 26.5912 9.32222 27.9937H9.87797V26.3962H9.86456ZM12.9053 25.4449H12.3703V25.7499C12.2756 25.6288 12.1548 25.5318 12.0173 25.4667C11.8798 25.4017 11.7295 25.3702 11.5781 25.3749C10.881 25.3749 10.346 25.9449 10.346 26.7149C10.346 27.4924 10.881 28.0549 11.5781 28.0549C11.9303 28.0549 12.1875 27.9224 12.3703 27.6799V27.9999H12.9053V25.4449ZM15.6475 27.2224C15.6475 26.1812 14.0973 26.6524 14.0973 26.1662C14.0973 25.7699 14.9029 25.8337 15.3502 26.0899L15.5732 25.6387C14.937 25.2149 13.5281 25.2224 13.5281 26.2087C13.5281 27.2012 15.0784 26.7849 15.0784 27.2499C15.0784 27.6874 14.1643 27.6524 13.6768 27.3049L13.4404 27.7424C14.1984 28.2699 15.6475 28.1587 15.6475 27.2212V27.2224ZM18.0448 27.8674L17.8961 27.3949C17.639 27.5399 17.0698 27.6999 17.0698 27.1099V25.9574H17.9571V25.4437H17.0698V24.6662H16.5141V25.4437H15.9997V25.9512H16.5141V27.1112C16.5141 28.3337 17.6853 28.1112 18.0448 27.8674ZM18.9442 26.9374H20.8065C20.8065 25.8124 20.3056 25.3674 19.628 25.3674C18.9101 25.3674 18.3958 25.9162 18.3958 26.7074C18.3958 28.1312 19.9266 28.3674 20.6846 27.6937L20.4275 27.2774C19.8997 27.7224 19.1002 27.6799 18.9442 26.9374ZM22.9466 25.4449C22.6358 25.3062 22.1617 25.3199 21.918 25.7499V25.4449H21.3622V27.9937H21.918V26.5562C21.918 25.7499 22.5615 25.8549 22.7845 25.9724L22.9466 25.4449ZM23.6645 26.7149C23.6645 25.9224 24.4506 25.6662 25.066 26.1312L25.3232 25.6799C24.5371 25.0487 23.1087 25.3949 23.1087 26.7212C23.1087 28.0962 24.6248 28.3737 25.3232 27.7624L25.066 27.3112C24.4432 27.7624 23.6645 27.4924 23.6645 26.7137V26.7149ZM28.1799 25.4449H27.6242V25.7499C27.0623 24.9862 25.5998 25.4174 25.5998 26.7149C25.5998 28.0487 27.116 28.4299 27.6242 27.6799V27.9999H28.1799V25.4449ZM30.4614 25.4449C30.2993 25.3612 29.7168 25.2437 29.4328 25.7499V25.4449H28.8978V27.9937H29.4328V26.5562C29.4328 25.7924 30.0422 25.8412 30.2993 25.9724L30.4614 25.4449ZM33.1902 24.4099H32.6552V25.7499C32.0994 24.9937 30.6308 25.3962 30.6308 26.7149C30.6308 28.0624 32.1543 28.4224 32.6552 27.6799V27.9999H33.1902V24.4099ZM33.7057 19.1949V19.5149H33.7594V19.1949H33.8873V19.1399H33.5753V19.1949H33.7057ZM34.1518 27.7912C34.1518 27.7562 34.1518 27.7149 34.1323 27.6799C34.1116 27.6587 34.0982 27.6249 34.0787 27.6037C34.0592 27.5824 34.0251 27.5687 34.0043 27.5487C33.9702 27.5487 33.93 27.5274 33.8959 27.5274C33.8752 27.5274 33.8422 27.5487 33.8008 27.5487C33.7741 27.5641 33.7491 27.5825 33.7265 27.6037C33.6923 27.6237 33.6728 27.6587 33.6728 27.6799C33.6521 27.7149 33.6521 27.7562 33.6521 27.7912C33.6521 27.8124 33.6521 27.8462 33.6728 27.8887C33.6728 27.9099 33.6936 27.9437 33.7265 27.9649C33.747 27.9886 33.7724 28.0074 33.8008 28.0199C33.8349 28.0399 33.8752 28.0399 33.8959 28.0399C33.93 28.0399 33.9702 28.0399 34.0043 28.0199C34.0251 27.9987 34.058 27.9849 34.0787 27.9649C34.0994 27.9449 34.1128 27.9099 34.1323 27.8887C34.1518 27.8474 34.1518 27.8124 34.1518 27.7912ZM34.3687 19.1324H34.2737L34.1652 19.3749L34.0567 19.1324H33.9617V19.5074H34.0153V19.2224L34.1238 19.4649H34.1981L34.2932 19.2224V19.5074H34.3675L34.3687 19.1324ZM34.6661 13.5412C34.6661 8.24867 30.4614 3.93742 25.2891 3.93742C23.4469 3.94216 21.6464 4.49965 20.1094 5.54117C24.9917 9.65992 25.066 17.4512 20.1094 21.5487C21.646 22.5911 23.4468 23.1486 25.2891 23.1524C30.4614 23.1599 34.6661 18.8537 34.6661 13.5412Z" fill="#B49571"/>
</svg>
