<svg width="16" height="15" viewBox="0 0 16 15" fill="none" xmlns="http://www.w3.org/2000/svg">
<path d="M14.0339 0.500001H9.89684C9.76821 0.499907 9.64476 0.550724 9.55349 0.641347L1.28276 8.9101C1.10166 9.09204 1 9.33827 1 9.59495C1 9.85163 1.10166 10.0979 1.28276 10.2798L5.2212 14.2173C5.40319 14.3984 5.64949 14.5 5.90622 14.5C6.16296 14.5 6.40926 14.3984 6.59124 14.2173L14.8586 5.95192C14.9493 5.86067 15.0001 5.73726 15 5.60865V1.46923C15.0006 1.34206 14.9761 1.21602 14.9278 1.09837C14.8795 0.980714 14.8084 0.87377 14.7186 0.783688C14.6288 0.693607 14.5221 0.622167 14.4046 0.573481C14.2871 0.524794 14.1611 0.499822 14.0339 0.500001Z" stroke="black" stroke-linecap="round" stroke-linejoin="round"/>
<path d="M12.6667 4.00008C12.4359 4.00008 12.2104 3.93166 12.0185 3.80346C11.8266 3.67527 11.6771 3.49306 11.5888 3.27988C11.5005 3.0667 11.4774 2.83212 11.5224 2.60581C11.5674 2.3795 11.6785 2.17162 11.8417 2.00846C12.0049 1.8453 12.2128 1.73418 12.4391 1.68917C12.6654 1.64415 12.9 1.66725 13.1131 1.75556C13.3263 1.84386 13.5085 1.99339 13.6367 2.18525C13.7649 2.37711 13.8333 2.60267 13.8333 2.83342C13.8333 3.14283 13.7104 3.43958 13.4916 3.65837C13.2728 3.87717 12.9761 4.00008 12.6667 4.00008Z" fill="black"/>
</svg>
