<svg width="18" height="17" viewBox="0 0 18 17" fill="none" xmlns="http://www.w3.org/2000/svg">
<path d="M17 8.49957H6.3146M2.54292 8.49957H1M2.54292 8.49957C2.54292 8.00611 2.74156 7.53286 3.09514 7.18393C3.44872 6.835 3.92828 6.63898 4.42832 6.63898C4.92837 6.63898 5.40793 6.835 5.76151 7.18393C6.11509 7.53286 6.31373 8.00611 6.31373 8.49957C6.31373 8.99303 6.11509 9.46628 5.76151 9.81521C5.40793 10.1641 4.92837 10.3602 4.42832 10.3602C3.92828 10.3602 3.44872 10.1641 3.09514 9.81521C2.74156 9.46628 2.54292 8.99303 2.54292 8.49957ZM17 14.1385H12.0288M12.0288 14.1385C12.0288 14.6321 11.8296 15.1059 11.476 15.4549C11.1223 15.8039 10.6426 16 10.1425 16C9.64245 16 9.16289 15.8031 8.8093 15.4542C8.45572 15.1053 8.25708 14.632 8.25708 14.1385M12.0288 14.1385C12.0288 13.645 11.8296 13.172 11.476 12.823C11.1223 12.474 10.6426 12.278 10.1425 12.278C9.64245 12.278 9.16289 12.474 8.8093 12.8229C8.45572 13.1718 8.25708 13.6451 8.25708 14.1385M8.25708 14.1385H1M17 2.8606H14.3146M10.5429 2.8606H1M10.5429 2.8606C10.5429 2.36714 10.7416 1.89389 11.0951 1.54496C11.4487 1.19603 11.9283 1 12.4283 1C12.6759 1 12.9211 1.04813 13.1498 1.14163C13.3786 1.23513 13.5864 1.37218 13.7615 1.54496C13.9366 1.71773 14.0755 1.92284 14.1702 2.14858C14.265 2.37432 14.3137 2.61626 14.3137 2.8606C14.3137 3.10493 14.265 3.34688 14.1702 3.57262C14.0755 3.79836 13.9366 4.00347 13.7615 4.17624C13.5864 4.34901 13.3786 4.48606 13.1498 4.57957C12.9211 4.67307 12.6759 4.72119 12.4283 4.72119C11.9283 4.72119 11.4487 4.52517 11.0951 4.17624C10.7416 3.82731 10.5429 3.35406 10.5429 2.8606Z" stroke="black" stroke-miterlimit="10" stroke-linecap="round"/>
</svg>
