<svg width="52" height="52" viewBox="0 0 52 52" fill="none" xmlns="http://www.w3.org/2000/svg">
<rect x="0.5" y="0.5" width="51" height="51" rx="25.5" fill="white"/>
<rect x="0.5" y="0.5" width="51" height="51" rx="25.5" stroke="black"/>
<path d="M40.6875 26C40.6875 26.2486 40.5887 26.4871 40.4129 26.6629C40.2371 26.8387 39.9986 26.9375 39.75 26.9375H26.9375V39.75C26.9375 39.9986 26.8387 40.2371 26.6629 40.4129C26.4871 40.5887 26.2486 40.6875 26 40.6875C25.7514 40.6875 25.5129 40.5887 25.3371 40.4129C25.1613 40.2371 25.0625 39.9986 25.0625 39.75V26.9375H12.25C12.0014 26.9375 11.7629 26.8387 11.5871 26.6629C11.4113 26.4871 11.3125 26.2486 11.3125 26C11.3125 25.7514 11.4113 25.5129 11.5871 25.3371C11.7629 25.1613 12.0014 25.0625 12.25 25.0625H25.0625V12.25C25.0625 12.0014 25.1613 11.7629 25.3371 11.5871C25.5129 11.4113 25.7514 11.3125 26 11.3125C26.2486 11.3125 26.4871 11.4113 26.6629 11.5871C26.8387 11.7629 26.9375 12.0014 26.9375 12.25V25.0625H39.75C39.9986 25.0625 40.2371 25.1613 40.4129 25.3371C40.5887 25.5129 40.6875 25.7514 40.6875 26Z" fill="black"/>
</svg>
