<svg width="24" height="24" viewBox="0 0 24 24" fill="none" xmlns="http://www.w3.org/2000/svg">
<path d="M19.2979 9.566H4.70186C4.40653 9.56662 4.11514 9.63384 3.84937 9.76265C3.58361 9.89146 3.35032 10.0786 3.16686 10.31C2.98463 10.5412 2.85727 10.8107 2.79439 11.0982C2.73151 11.3858 2.73475 11.6839 2.80386 11.97L4.36886 18.378C4.59504 19.2038 5.08709 19.932 5.76886 20.45C6.45086 20.969 7.28586 21.25 8.14486 21.25H15.8529C16.7119 21.25 17.5469 20.969 18.2289 20.45C18.9106 19.932 19.4027 19.2038 19.6289 18.378L21.1939 11.971C21.2992 11.5391 21.253 11.084 21.0629 10.6821C20.8729 10.2802 20.5505 9.95568 20.1499 9.763C19.8837 9.63385 19.5917 9.5665 19.2959 9.566M8.08686 13.46V17.355M11.9999 13.46V17.355M15.9129 13.46V17.355M18.8479 9.566C18.8475 8.67005 18.6701 7.78299 18.3259 6.95582C17.9816 6.12864 17.4773 5.37765 16.8419 4.746C15.5551 3.46687 13.8142 2.74924 11.9999 2.75C10.1855 2.74924 8.44463 3.46687 7.15786 4.746C6.52263 5.37773 6.01848 6.12876 5.6744 6.95593C5.33032 7.7831 5.15308 8.67012 5.15286 9.566" stroke="#B49571" stroke-width="1.5" stroke-linecap="round" stroke-linejoin="round"/>
</svg>
