<svg width="28" height="28" viewBox="0 0 28 28" fill="none" xmlns="http://www.w3.org/2000/svg">
<g clip-path="url(#clip0_73_3236)">
<path d="M20.5333 6.53311H22.4M8.40002 0.933105H19.6C21.5803 0.933105 23.4795 1.71977 24.8797 3.12004C26.28 4.52031 27.0667 6.41949 27.0667 8.39977V19.5998C27.0667 21.5801 26.28 23.4792 24.8797 24.8795C23.4795 26.2798 21.5803 27.0664 19.6 27.0664H8.40002C6.41973 27.0664 4.52056 26.2798 3.12029 24.8795C1.72001 23.4792 0.93335 21.5801 0.93335 19.5998V8.39977C0.93335 6.41949 1.72001 4.52031 3.12029 3.12004C4.52056 1.71977 6.41973 0.933105 8.40002 0.933105ZM14 19.5998C12.5148 19.5998 11.0904 19.0098 10.0402 17.9596C8.99001 16.9094 8.40002 15.485 8.40002 13.9998C8.40002 12.5146 8.99001 11.0902 10.0402 10.04C11.0904 8.98977 12.5148 8.39977 14 8.39977C15.4852 8.39977 16.9096 8.98977 17.9598 10.04C19.01 11.0902 19.6 12.5146 19.6 13.9998C19.6 15.485 19.01 16.9094 17.9598 17.9596C16.9096 19.0098 15.4852 19.5998 14 19.5998Z" stroke="black" stroke-width="1.5"/>
</g>
<defs>
<clipPath id="clip0_73_3236">
<rect width="28" height="28" fill="white"/>
</clipPath>
</defs>
</svg>
