<svg width="31" height="22" viewBox="0 0 31 22" fill="none" xmlns="http://www.w3.org/2000/svg">
<g clip-path="url(#clip0_213_3510)">
<path d="M28.9333 22H2.06667C1.51855 22 0.992888 21.7682 0.605313 21.3556C0.217737 20.9431 0 20.3835 0 19.8L0 2.2C0 1.61652 0.217737 1.05695 0.605313 0.644365C0.992888 0.231785 1.51855 0 2.06667 0L28.9333 0C29.4814 0 30.0071 0.231785 30.3947 0.644365C30.7823 1.05695 31 1.61652 31 2.2V19.8C31 20.3835 30.7823 20.9431 30.3947 21.3556C30.0071 21.7682 29.4814 22 28.9333 22ZM16.4576 8.8C15.8697 8.8 15.3059 9.04859 14.8903 9.49108C14.4746 9.93357 14.2411 10.5337 14.2411 11.1595C14.2411 11.7853 14.4746 12.3854 14.8903 12.8279C15.3059 13.2704 15.8697 13.519 16.4576 13.519C17.0454 13.519 17.6092 13.2704 18.0249 12.8279C18.4405 12.3854 18.6741 11.7853 18.6741 11.1595C18.6741 10.5337 18.4405 9.93357 18.0249 9.49108C17.6092 9.04859 17.0454 8.8 16.4576 8.8ZM18.4674 8.932L20.2189 13.4365H20.6512L22.4337 8.932H21.5614L20.4454 11.88L19.3431 8.92925H18.4657L18.4674 8.932ZM8.15128 12.0606L7.63289 12.5941C7.91619 13.0983 8.42683 13.431 9.00981 13.431L9.06492 13.4301H9.06233C9.24442 13.4437 9.42718 13.4172 9.59925 13.3524C9.77132 13.2875 9.92902 13.1857 10.0625 13.0532C10.196 12.9207 10.3025 12.7604 10.3753 12.5822C10.4481 12.404 10.4857 12.2118 10.4858 12.0175V11.9863V11.9882C10.4858 11.2915 10.2102 10.9716 9.29828 10.6178C8.81606 10.4262 8.67311 10.3024 8.67311 10.0659C8.67311 9.78817 8.93144 9.57825 9.27331 9.57825C9.39933 9.58154 9.52304 9.61497 9.63529 9.67606C9.74753 9.73715 9.84543 9.82434 9.92172 9.93117L9.92344 9.933L10.3437 9.34633C10.0155 9.03164 9.58927 8.85786 9.14758 8.85867H9.13036H9.13122C8.96859 8.84763 8.80554 8.87168 8.65186 8.92938C8.49817 8.98707 8.35702 9.07722 8.23688 9.19442C8.11673 9.31162 8.02006 9.45345 7.95267 9.6114C7.88529 9.76934 7.84857 9.94016 7.84472 10.1136V10.1154C7.84472 10.7259 8.10133 11.0303 8.85911 11.3217C9.07439 11.3951 9.25867 11.4794 9.43261 11.5812L9.41539 11.572C9.48906 11.6188 9.55008 11.6851 9.59249 11.7644C9.6349 11.8438 9.65725 11.9335 9.65736 12.0248V12.0267C9.65668 12.1913 9.5948 12.3491 9.48525 12.4653C9.3757 12.5816 9.22737 12.647 9.07267 12.6473L9.03047 12.6454H9.0322H9.021C8.63953 12.6454 8.31058 12.408 8.15558 12.0652L8.153 12.0588L8.15128 12.0606ZM12.9347 8.83392H12.9218C12.3446 8.83298 11.7902 9.07404 11.3787 9.50492C11.0758 9.82427 10.8688 10.2323 10.7841 10.6771C10.6994 11.1219 10.7408 11.5835 10.903 12.0032C11.0652 12.423 11.341 12.7819 11.6952 13.0345C12.0494 13.2871 12.4662 13.4219 12.8926 13.4218H12.9184C13.2861 13.4218 13.6322 13.3274 13.9388 13.1597L13.9259 13.1661V12.1605C13.6899 12.4538 13.3429 12.639 12.9546 12.6408L12.9106 12.6418C12.727 12.6417 12.5454 12.6017 12.3769 12.5242C12.2084 12.4466 12.0565 12.3331 11.9308 12.1908C11.805 12.0484 11.708 11.8801 11.6456 11.6963C11.5832 11.5125 11.5569 11.317 11.5682 11.1219V11.1256L11.5673 11.0752C11.5673 10.2777 12.1692 9.62958 12.9158 9.61858H12.9167C13.3188 9.62133 13.6788 9.81108 13.9242 10.1108L13.9259 10.1127V9.10433C13.6249 8.92727 13.2864 8.83483 12.9425 8.83575H12.9356L12.9347 8.83392ZM26.4172 11.5601H26.5222L27.6356 13.3256H28.6259L27.3256 11.4757C27.602 11.4325 27.8527 11.2794 28.0272 11.0472C28.2017 10.815 28.287 10.521 28.266 10.2245V10.2282C28.266 9.405 27.7338 8.932 26.8064 8.932H25.6138V13.3247H26.418L26.4172 11.5601ZM22.8022 8.932V13.3247H25.0824V12.5813H23.6031V11.3951H25.0247V10.6508H23.6031V9.67633H25.0824V8.93292L22.8022 8.932ZM6.52808 8.932V13.3247H7.3315V8.932H6.52808ZM2.75556 8.932V13.3247H3.93269C4.46719 13.3569 4.99368 13.1751 5.40864 12.815L5.40433 12.8187C5.6368 12.6125 5.82426 12.3549 5.95364 12.0638C6.08303 11.7726 6.15123 11.455 6.1535 11.1329V11.1082C6.15354 10.806 6.09467 10.5072 5.98062 10.2305C5.86657 9.95381 5.69982 9.70534 5.49092 9.5008C5.28202 9.29626 5.03552 9.14009 4.767 9.04219C4.49849 8.94428 4.21381 8.90676 3.93097 8.932L3.93872 8.93108L2.75556 8.932ZM3.77683 12.5813H3.56069V9.67542H3.77683C3.97403 9.65294 4.17347 9.6731 4.36317 9.73469C4.55287 9.79628 4.72893 9.89803 4.88078 10.0338L4.87819 10.032C5.15203 10.3024 5.32253 10.6874 5.32253 11.1146V11.1256V11.1247V11.1338C5.32253 11.5656 5.15203 11.9552 4.87906 12.2302L4.87819 12.2311C4.56662 12.4988 4.16829 12.6247 3.76994 12.5813L3.77597 12.5822L3.77683 12.5813ZM26.6523 10.9542H26.418V9.62317H26.6652C27.1715 9.62317 27.4393 9.84867 27.4393 10.2749C27.4393 10.7186 27.1672 10.9542 26.6523 10.9542Z" fill="#6B6B6B"/>
</g>
<defs>
<clipPath id="clip0_213_3510">
<rect width="31" height="22" fill="white"/>
</clipPath>
</defs>
</svg>
