<svg width="44" height="44" viewBox="0 0 44 44" fill="none" xmlns="http://www.w3.org/2000/svg">
<g clip-path="url(#clip0_73_2947)">
<path d="M37.1556 21.5111C34.9556 19.1889 32.0222 17.6 28.9667 16.9889C27.6222 16.6222 26.2778 16.3778 24.9333 16.2555C28.3556 12.2222 27.7445 6.1111 23.7111 2.68888C19.6778 -0.73334 13.5667 -0.122229 10.1445 3.9111C6.72223 7.94444 7.33334 14.0555 11.3667 17.4778C12.1 18.0889 12.8333 18.5778 13.5667 18.8222V21.5111L11.6111 19.6778C9.90001 17.9667 7.0889 17.9667 5.25557 19.6778C3.54445 21.3889 3.42223 24.0778 5.13334 25.7889L10.7556 32.3889C11 34.1 11.6111 35.6889 12.4667 37.1555C13.0778 38.2556 13.9333 39.3555 14.7889 40.2111V42.5333C14.7889 43.2667 15.2778 43.7555 16.0111 43.7555H32.6333C33.2445 43.7555 33.8556 43.1444 33.8556 42.5333V39.3555C36.1778 36.5444 37.4 33 37.4 29.4555V22.3667C37.5222 21.8778 37.4 21.6333 37.1556 21.5111ZM10.2667 10.0222C10.2667 5.98888 13.5667 2.8111 17.6 2.93333C21.6333 2.93333 24.8111 6.23333 24.6889 10.2667C24.6889 12.4667 23.7111 14.4222 22 15.7667V9.65555C21.9376 8.59634 21.4724 7.60112 20.6997 6.87391C19.9271 6.1467 18.9055 5.7426 17.8445 5.74444C15.6445 5.62221 13.6889 7.45555 13.6889 9.65555V16.0111C11.6111 14.7889 10.3889 12.4667 10.2667 10.0222ZM35.0778 29.3333C35.2 32.5111 34.1 35.5667 32.0222 38.0111C31.7778 38.2556 31.5333 38.5 31.5333 38.8667V41.4333H17.3556V39.7222C17.3556 39.3555 17.1111 38.9889 16.8667 38.7444C16.0111 38.0111 15.2778 37.1555 14.6667 36.0555C13.9333 34.8333 13.4445 33.3667 13.2 31.9C13.2 31.6556 13.0778 31.4111 12.9556 31.1667L7.0889 24.2C6.72223 23.8333 6.47779 23.3444 6.47779 22.7333C6.47779 22.2444 6.72223 21.6333 7.0889 21.2667C7.94445 20.5333 9.16668 20.5333 10.0222 21.2667L13.5667 24.8111V28.4778L15.8889 27.2555V9.65555C16.0111 8.79999 16.7445 8.06666 17.7222 8.18888C18.5778 8.18888 19.4333 8.79999 19.4333 9.65555V23.7111L21.8778 24.2V18.5778C22 18.4555 22.1222 18.4555 22.2445 18.3333C23.1 18.3333 23.9556 18.4555 24.8111 18.5778V24.8111L26.7667 25.1778V18.8222L28.2333 19.1889C28.8445 19.3111 29.4556 19.5555 30.0667 19.8V25.9111L32.0222 26.2778V20.6555C33.1222 21.1444 34.1 21.8778 34.9556 22.7333L35.0778 29.3333Z" fill="#B49571"/>
</g>
<defs>
<clipPath id="clip0_73_2947">
<rect width="44" height="44" fill="white"/>
</clipPath>
</defs>
</svg>
