<svg width="15" height="17" viewBox="0 0 15 17" fill="none" xmlns="http://www.w3.org/2000/svg">
<path d="M5.37491 1.59375C5.37491 1.45285 5.43088 1.31773 5.53051 1.2181C5.63014 1.11847 5.76526 1.0625 5.90616 1.0625C6.04706 1.0625 6.18218 1.11847 6.28181 1.2181C6.38144 1.31773 6.43741 1.45285 6.43741 1.59375V14.6551C6.43739 14.7601 6.40626 14.8627 6.34795 14.95C6.28964 15.0373 6.20677 15.1054 6.10979 15.1456C6.01282 15.1859 5.9061 15.1965 5.8031 15.1761C5.70011 15.1557 5.60545 15.1053 5.5311 15.0312L0.592598 10.0938C0.543125 10.0444 0.503873 9.98578 0.477091 9.92124C0.450309 9.85669 0.436523 9.7875 0.436523 9.71762C0.436523 9.64775 0.450309 9.57856 0.477091 9.51401C0.503873 9.44947 0.543125 9.39085 0.592598 9.3415H0.594723C0.694304 9.24223 0.829177 9.18649 0.969786 9.18649C1.11039 9.18649 1.24527 9.24223 1.34485 9.3415L5.37491 13.3748V1.59375ZM8.56241 2.34494C8.56264 2.24004 8.59393 2.13755 8.65232 2.05041C8.71071 1.96326 8.79359 1.89535 8.89052 1.85523C8.98745 1.81512 9.09408 1.8046 9.19698 1.82501C9.29988 1.84541 9.39443 1.89581 9.46872 1.96987L14.4072 6.90625C14.4567 6.9556 14.4959 7.01422 14.5227 7.07876C14.5495 7.14331 14.5633 7.2125 14.5633 7.28238C14.5633 7.35225 14.5495 7.42144 14.5227 7.48599C14.4959 7.55053 14.4567 7.60915 14.4072 7.6585H14.4051C14.3055 7.75777 14.1706 7.81351 14.03 7.81351C13.8894 7.81351 13.7546 7.75777 13.655 7.6585L9.62491 3.62738V15.4062C9.62491 15.5471 9.56894 15.6823 9.46931 15.7819C9.36968 15.8815 9.23456 15.9375 9.09366 15.9375C8.95276 15.9375 8.81764 15.8815 8.71801 15.7819C8.61838 15.6823 8.56241 15.5471 8.56241 15.4062V2.34494Z" fill="black"/>
</svg>
