<svg width="45" height="30" viewBox="0 0 45 30" fill="none" xmlns="http://www.w3.org/2000/svg">
<g clip-path="url(#clip0_73_3230)">
<path d="M42 30H3C2.20435 30 1.44129 29.6839 0.87868 29.1213C0.316071 28.5587 0 27.7957 0 27L0 3C0 2.20435 0.316071 1.44129 0.87868 0.87868C1.44129 0.316071 2.20435 0 3 0L42 0C42.7956 0 43.5587 0.316071 44.1213 0.87868C44.6839 1.44129 45 2.20435 45 3V27C45 27.7957 44.6839 28.5587 44.1213 29.1213C43.5587 29.6839 42.7956 30 42 30ZM23.89 12C23.0367 12 22.2183 12.339 21.6149 12.9424C21.0115 13.5458 20.6725 14.3642 20.6725 15.2175C20.6725 16.0708 21.0115 16.8892 21.6149 17.4926C22.2183 18.096 23.0367 18.435 23.89 18.435C24.7433 18.435 25.5617 18.096 26.1651 17.4926C26.7685 16.8892 27.1075 16.0708 27.1075 15.2175C27.1075 14.3642 26.7685 13.5458 26.1651 12.9424C25.5617 12.339 24.7433 12 23.89 12ZM26.8075 12.18L29.35 18.3225H29.9775L32.565 12.18H31.2987L29.6787 16.2L28.0787 12.1763H26.805L26.8075 12.18ZM11.8325 16.4462L11.08 17.1737C11.4913 17.8612 12.2325 18.315 13.0788 18.315L13.1588 18.3137H13.155C13.4193 18.3323 13.6846 18.2962 13.9344 18.2078C14.1842 18.1194 14.4131 17.9805 14.6069 17.7998C14.8007 17.6192 14.9553 17.4005 15.061 17.1576C15.1667 16.9146 15.2212 16.6525 15.2213 16.3875V16.345V16.3475C15.2213 15.3975 14.8213 14.9613 13.4975 14.4788C12.7975 14.2175 12.59 14.0487 12.59 13.7262C12.59 13.3475 12.965 13.0613 13.4613 13.0613C13.6442 13.0657 13.8238 13.1113 13.9867 13.1946C14.1496 13.2779 14.2917 13.3968 14.4025 13.5425L14.405 13.545L15.015 12.745C14.5386 12.3159 13.9199 12.0789 13.2788 12.08H13.2537H13.255C13.0189 12.0649 12.7822 12.0977 12.5591 12.1764C12.3361 12.2551 12.1312 12.378 11.9568 12.5378C11.7823 12.6977 11.642 12.8911 11.5442 13.1065C11.4464 13.3218 11.3931 13.5548 11.3875 13.7913V13.7937C11.3875 14.6263 11.76 15.0413 12.86 15.4387C13.1725 15.5387 13.44 15.6537 13.6925 15.7925L13.6675 15.78C13.7744 15.8438 13.863 15.9342 13.9246 16.0424C13.9861 16.1506 14.0186 16.273 14.0188 16.3975V16.4C14.0178 16.6246 13.9279 16.8396 13.7689 16.9982C13.6099 17.1567 13.3946 17.2459 13.17 17.2463L13.1088 17.2437H13.1112H13.095C12.5413 17.2437 12.0637 16.92 11.8387 16.4525L11.835 16.4438L11.8325 16.4462ZM18.7762 12.0463H18.7575C17.9196 12.045 17.1149 12.3737 16.5175 12.9613C16.0777 13.3967 15.7773 13.9531 15.6543 14.5597C15.5314 15.1662 15.5914 15.7957 15.8269 16.368C16.0624 16.9404 16.4627 17.4299 16.9769 17.7743C17.4911 18.1187 18.0961 18.3026 18.715 18.3025H18.7525C19.2862 18.3025 19.7887 18.1737 20.2337 17.945L20.215 17.9538V16.5825C19.8725 16.9825 19.3687 17.235 18.805 17.2375L18.7412 17.2388C18.4747 17.2387 18.2111 17.1842 17.9664 17.0784C17.7218 16.9726 17.5014 16.8179 17.3189 16.6238C17.1363 16.4296 16.9954 16.2001 16.9049 15.9495C16.8144 15.6988 16.7761 15.4323 16.7925 15.1663V15.1713L16.7913 15.1025C16.7913 14.015 17.665 13.1313 18.7487 13.1163H18.75C19.3337 13.12 19.8563 13.3787 20.2125 13.7875L20.215 13.79V12.415C19.778 12.1735 19.2867 12.0475 18.7875 12.0487H18.7775L18.7762 12.0463ZM38.3475 15.7638H38.5L40.1162 18.1712H41.5537L39.6662 15.6488C40.0674 15.5898 40.4313 15.381 40.6846 15.0643C40.938 14.7477 41.0618 14.3468 41.0312 13.9425V13.9475C41.0312 12.825 40.2587 12.18 38.9125 12.18H37.1813V18.17H38.3488L38.3475 15.7638ZM33.1 12.18V18.17H36.41V17.1562H34.2625V15.5387H36.3263V14.5238H34.2625V13.195H36.41V12.1812L33.1 12.18ZM9.47625 12.18V18.17H10.6425V12.18H9.47625ZM4 12.18V18.17H5.70875C6.48464 18.2139 7.24889 17.966 7.85125 17.475L7.845 17.48C8.18246 17.1989 8.45457 16.8476 8.64239 16.4506C8.8302 16.0536 8.92921 15.6204 8.9325 15.1813V15.1475C8.93256 14.7355 8.8471 14.328 8.68155 13.9507C8.51599 13.5734 8.27394 13.2346 7.9707 12.9556C7.66745 12.6767 7.30963 12.4638 6.91985 12.3303C6.53007 12.1967 6.11682 12.1456 5.70625 12.18L5.7175 12.1788L4 12.18ZM5.4825 17.1562H5.16875V13.1938H5.4825C5.76876 13.1631 6.05826 13.1906 6.33363 13.2746C6.609 13.3586 6.86457 13.4973 7.085 13.6825L7.08125 13.68C7.47875 14.0487 7.72625 14.5737 7.72625 15.1562V15.1713V15.17V15.1825C7.72625 15.7712 7.47875 16.3025 7.0825 16.6775L7.08125 16.6788C6.62896 17.0439 6.05074 17.2155 5.4725 17.1562L5.48125 17.1575L5.4825 17.1562ZM38.6888 14.9375H38.3488V13.1225H38.7075C39.4425 13.1225 39.8312 13.43 39.8312 14.0112C39.8312 14.6162 39.4362 14.9375 38.6888 14.9375Z" fill="#B49571"/>
</g>
<defs>
<clipPath id="clip0_73_3230">
<rect width="45" height="30" fill="white"/>
</clipPath>
</defs>
</svg>
