<svg width="23.000000" height="24.000000" viewBox="0 0 23 24" fill="none" xmlns="http://www.w3.org/2000/svg" xmlns:xlink="http://www.w3.org/1999/xlink">
	<desc>
			Created with Pixso.
	</desc>
	<defs>
		<clipPath id="clip4_1">
			<rect id="icon-1-1" width="23.000000" height="24.000000" fill="white" fill-opacity="0"/>
		</clipPath>
	</defs>
	<g clip-path="url(#clip4_1)">
		<path id="path" d="M15.46 9.55C15.48 9.4 15.45 9.25 15.36 9.13C15.27 9.01 15.14 8.93 14.99 8.9C14.84 8.88 14.69 8.91 14.57 9C14.44 9.08 14.36 9.21 14.33 9.36C14.23 9.95 13.95 10.49 13.53 10.91C13.11 11.34 12.57 11.62 11.98 11.72C11.83 11.74 11.69 11.83 11.6 11.95C11.51 12.08 11.48 12.23 11.5 12.38C11.53 12.53 11.61 12.67 11.74 12.76C11.86 12.84 12.02 12.88 12.17 12.85C12.99 12.71 13.75 12.32 14.35 11.73C14.94 11.13 15.33 10.37 15.46 9.55ZM6.32 2.56C6.17 2.56 6.02 2.62 5.91 2.73C5.81 2.84 5.75 2.98 5.75 3.13L5.75 9.46C5.74 10.89 6.27 12.26 7.23 13.32C8.19 14.37 9.5 15.04 10.92 15.18L10.92 19.81L8.62 19.81C8.47 19.81 8.32 19.87 8.21 19.98C8.11 20.09 8.04 20.23 8.04 20.38C8.04 20.54 8.11 20.68 8.21 20.79C8.32 20.9 8.47 20.96 8.62 20.96L14.37 20.96C14.52 20.96 14.67 20.9 14.78 20.79C14.88 20.68 14.95 20.54 14.95 20.38C14.95 20.23 14.88 20.09 14.78 19.98C14.67 19.87 14.52 19.81 14.37 19.81L12.07 19.81L12.07 15.18C13.49 15.04 14.8 14.37 15.76 13.32C16.72 12.26 17.25 10.89 17.25 9.46L17.25 3.13C17.25 2.98 17.18 2.84 17.08 2.73C16.97 2.62 16.82 2.56 16.67 2.56L6.32 2.56ZM6.89 6.58L6.89 3.71L16.1 3.71L16.1 6.58L6.89 6.58ZM6.89 7.73L16.1 7.73L16.1 9.46C16.1 10.68 15.61 11.85 14.75 12.71C13.89 13.58 12.72 14.06 11.5 14.06C10.28 14.06 9.1 13.58 8.24 12.71C7.38 11.85 6.89 10.68 6.89 9.46L6.89 7.73Z" fill="#000000" fill-opacity="1.000000" fill-rule="nonzero"/>
	</g>
</svg>
