<svg width="24" height="24" viewBox="0 0 24 24" fill="none" xmlns="http://www.w3.org/2000/svg">
<path d="M20.9683 18.448C20.9586 18.7932 20.8796 19.1329 20.7361 19.4469C20.5925 19.7609 20.3874 20.0429 20.1327 20.2761C19.8781 20.5093 19.5791 20.689 19.2537 20.8044C18.9283 20.9198 18.583 20.9687 18.2383 20.948C16.0853 20.96 13.9323 20.948 11.7793 20.948C11.6467 20.948 11.5195 20.8953 11.4257 20.8016C11.332 20.7078 11.2793 20.5806 11.2793 20.448C11.2793 20.3154 11.332 20.1882 11.4257 20.0945C11.5195 20.0007 11.6467 19.948 11.7793 19.948C13.9793 19.948 16.1793 19.98 18.3793 19.948C19.4863 19.932 19.9683 19.1 19.9683 18.11V5.64701C19.9755 5.3324 19.8867 5.02305 19.7138 4.76011C19.5409 4.49718 19.292 4.2931 19.0003 4.17501C18.6551 4.08031 18.2958 4.04813 17.9393 4.08001H11.7793C11.6467 4.08001 11.5195 4.02734 11.4257 3.93357C11.332 3.8398 11.2793 3.71262 11.2793 3.58001C11.2793 3.44741 11.332 3.32023 11.4257 3.22646C11.5195 3.13269 11.6467 3.08001 11.7793 3.08001C14.0033 3.08001 16.2443 2.99501 18.4663 3.08001C18.8066 3.08862 19.1417 3.16481 19.4523 3.30416C19.7628 3.4435 20.0426 3.64322 20.2752 3.89168C20.5079 4.14015 20.6888 4.4324 20.8074 4.75144C20.9261 5.07047 20.9801 5.40991 20.9663 5.75001L20.9683 18.448Z" fill="black"/>
<path d="M3.17666 11.6629C3.09261 11.7451 3.04322 11.8564 3.03866 11.9739C3.04 11.9879 3.038 12.0022 3.03266 12.0169C3.02466 12.0389 3.03266 12.0439 3.03866 12.0579C3.04297 12.1757 3.09237 12.2874 3.17666 12.3699L6.84566 16.0389C6.93996 16.13 7.06627 16.1804 7.19736 16.1792C7.32846 16.1781 7.45387 16.1255 7.54657 16.0328C7.63928 15.9401 7.69186 15.8147 7.693 15.6836C7.69414 15.5525 7.64374 15.4262 7.55266 15.3319L4.73766 12.5159H15.4797C15.6123 12.5159 15.7394 12.4632 15.8332 12.3694C15.927 12.2757 15.9797 12.1485 15.9797 12.0159C15.9797 11.8833 15.927 11.7561 15.8332 11.6623C15.7394 11.5686 15.6123 11.5159 15.4797 11.5159H4.73766L7.55266 8.69989C7.64374 8.60559 7.69414 8.47929 7.693 8.34819C7.69186 8.2171 7.63928 8.09169 7.54657 7.99899C7.45387 7.90628 7.32846 7.8537 7.19736 7.85256C7.06627 7.85142 6.93996 7.90182 6.84566 7.99289L3.17666 11.6629Z" fill="black"/>
</svg>
