<svg width="24" height="24" viewBox="0 0 24 24" fill="none" xmlns="http://www.w3.org/2000/svg">
<path d="M15.371 19.827L18.211 17.031L17.585 16.404L15.371 18.587L14.416 17.612L13.789 18.244L15.371 19.827ZM4.77 8.731H15.232V7.731H4.769L4.77 8.731ZM16 22.116C14.886 22.116 13.941 21.7277 13.165 20.951C12.3883 20.175 12 19.23 12 18.116C12 17.002 12.3883 16.0567 13.165 15.28C13.9417 14.5033 14.8867 14.1153 16 14.116C17.1133 14.1167 18.0587 14.5047 18.836 15.28C19.6133 16.0553 20.0013 17.0007 20 18.116C20 19.2293 19.612 20.1743 18.836 20.951C18.0587 21.7277 17.1133 22.116 16 22.116ZM2 20.769V5.616C2 5.168 2.15733 4.78667 2.472 4.472C2.78667 4.15733 3.168 4 3.616 4H16.385C16.8317 4 17.2127 4.15733 17.528 4.472C17.8427 4.78667 18 5.168 18 5.616V11.56C17.8373 11.5 17.676 11.4487 17.516 11.406C17.3553 11.3633 17.1833 11.33 17 11.306V5.616C17 5.462 16.936 5.32067 16.808 5.192C16.68 5.06333 16.5387 4.99933 16.384 5H3.616C3.462 5 3.32067 5.064 3.192 5.192C3.06333 5.32 2.99933 5.46133 3 5.616V19.05H9.344C9.38933 19.3233 9.448 19.5907 9.52 19.852C9.59267 20.1133 9.69367 20.3627 9.823 20.6L9.789 20.634L8.654 19.808L7.308 20.769L5.962 19.808L4.616 20.769L3.269 19.808L2 20.769ZM4.77 16.269H9.479C9.51633 16.0857 9.56233 15.914 9.617 15.754C9.67167 15.594 9.73567 15.4323 9.809 15.269H4.77V16.269ZM4.77 12.5H12.08C12.4067 12.242 12.7567 12.027 13.13 11.855C13.5033 11.6823 13.9023 11.564 14.327 11.5H4.769L4.77 12.5Z" fill="black"/>
</svg>
