<svg width="31" height="22" viewBox="0 0 31 22" fill="none" xmlns="http://www.w3.org/2000/svg">
<path d="M6.71226 8.33861C6.71807 7.75878 6.71226 7.18425 6.71226 6.6053V4.872C6.71226 4.80836 6.73357 4.77388 6.78782 4.73941C7.40683 4.34697 8.08494 4.14544 8.84344 4.19405C9.51573 4.23825 10.065 4.53789 10.3556 5.26002C10.5329 5.69666 10.5765 6.15364 10.5765 6.62033C10.5765 7.04725 10.5387 7.46975 10.3934 7.87722C10.0863 8.75139 9.38689 9.08992 8.47242 9.05102C7.84276 9.02628 7.29349 8.8053 6.78298 8.4765C6.73454 8.43761 6.70645 8.39783 6.71226 8.33861ZM15.0481 9.05544C15.2951 9.14383 15.548 9.15356 15.8066 9.12881C16.4314 9.06959 16.9855 8.84861 17.4912 8.51539C17.5396 8.48622 17.561 8.45175 17.561 8.39253C17.5551 8.20072 17.561 8.0045 17.561 7.81358C17.561 7.61736 17.5551 7.42113 17.561 7.22403C17.561 7.15508 17.5396 7.12591 17.4641 7.11619C17.0872 7.072 16.7162 7.00836 16.3394 6.97388C15.9626 6.94472 15.5857 6.95886 15.2196 7.06669C14.8592 7.17453 14.5899 7.37163 14.4824 7.71016C14.3961 7.97533 14.3961 8.2405 14.4872 8.50567C14.5247 8.63183 14.5953 8.74779 14.6929 8.84356C14.7904 8.93933 14.912 9.01204 15.0471 9.05544H15.0481ZM31 2.35733V19.6427C30.9997 20.2678 30.7275 20.8673 30.243 21.3093C29.7585 21.7513 29.1016 21.9998 28.4164 22H2.58358C1.89845 21.9998 1.24145 21.7513 0.756995 21.3093C0.272536 20.8673 0.000256747 20.2678 0 19.6427V2.35733C0.000256747 1.7322 0.272536 1.13274 0.756995 0.690705C1.24145 0.248671 1.89845 0.000234263 2.58358 0H28.4164C29.1016 0.000234263 29.7585 0.248671 30.243 0.690705C30.7275 1.13274 30.9997 1.7322 31 2.35733ZM19.8326 3.53114C19.8539 3.61511 19.881 3.69819 19.9188 3.78128C20.8071 5.77533 21.6896 7.7738 22.5828 9.76697C22.6584 9.93845 22.6739 10.0816 22.5935 10.2531C22.4423 10.5572 22.33 10.8718 22.174 11.1715C22.0335 11.4419 21.8136 11.6382 21.4901 11.7213C21.2631 11.7727 21.0281 11.7877 20.7955 11.7654C20.6822 11.7557 20.5698 11.731 20.4565 11.7266C20.3053 11.7168 20.2307 11.7805 20.2249 11.9228C20.2191 12.0586 20.2191 12.1945 20.2249 12.3303C20.2298 12.5556 20.3111 12.6591 20.5582 12.6988C20.811 12.7377 21.0638 12.7775 21.3225 12.7819C22.0917 12.7969 22.7058 12.5168 23.104 11.9025C23.2599 11.662 23.4052 11.4066 23.5186 11.1467C24.5842 8.68686 25.6439 6.2217 26.7047 3.75653C26.7367 3.68317 26.7638 3.60892 26.7744 3.53025C26.7958 3.4127 26.7367 3.35348 26.6078 3.34906C26.3066 3.34464 26.0101 3.34906 25.7089 3.34906C25.5422 3.34906 25.424 3.418 25.365 3.56031C25.3436 3.61422 25.3165 3.67344 25.2952 3.72736L23.7288 7.83744C23.6154 8.13708 23.5031 8.43142 23.3791 8.7505L23.3365 8.65769L21.5928 4.24797C21.5004 4.01465 21.4054 3.78217 21.308 3.55058C21.2595 3.42772 21.1627 3.35436 21.0173 3.35436C20.6729 3.34773 20.3283 3.34596 19.9837 3.34906C19.8655 3.34906 19.8064 3.42772 19.8326 3.53025V3.53114ZM13.0467 8.54456C13.1387 9.11908 13.4555 9.56633 14.0154 9.85094C14.5482 10.1214 15.1295 10.155 15.7214 10.0763C16.4053 9.98353 17.0078 9.71748 17.5406 9.31531C17.5619 9.30028 17.5832 9.28614 17.6162 9.26581C17.6433 9.42314 17.6646 9.56987 17.6966 9.71748C17.7237 9.84564 17.8099 9.92873 17.9388 9.93403C18.1858 9.93845 18.428 9.93845 18.6759 9.93403C18.7999 9.92873 18.8803 9.85536 18.891 9.74223C18.8968 9.70333 18.8968 9.66356 18.8968 9.62909V5.26886C18.8968 5.09208 18.8862 4.91531 18.859 4.73853C18.7728 4.2082 18.5258 3.77155 18.0037 3.49136C17.7013 3.33677 17.3685 3.23824 17.0243 3.20145C16.8625 3.182 16.7017 3.16697 16.5341 3.14753H15.9955C15.9529 3.15195 15.9093 3.16167 15.8608 3.16167C15.4215 3.17685 14.985 3.23433 14.5589 3.33315C14.2847 3.39679 14.0203 3.49048 13.7519 3.57356C13.5902 3.62306 13.5098 3.7309 13.5156 3.89265C13.5204 4.03053 13.5098 4.16754 13.5156 4.30012C13.5204 4.50165 13.6124 4.55556 13.8227 4.50165C14.1724 4.41856 14.5279 4.33017 14.8824 4.26565C15.4365 4.17284 15.9965 4.13307 16.5564 4.20643C16.847 4.24532 17.1212 4.32399 17.3149 4.55026C17.4815 4.74648 17.5406 4.98248 17.5522 5.2229C17.5687 5.56143 17.5629 5.90526 17.5687 6.24468C17.5687 6.26412 17.5639 6.27915 17.558 6.3039C17.5367 6.3039 17.5154 6.3039 17.499 6.29948C17.0258 6.19288 16.543 6.12543 16.0565 6.09795C15.545 6.0732 15.0394 6.10325 14.555 6.25528C13.9738 6.44178 13.5059 6.76087 13.2308 7.27706C13.0099 7.68453 12.9828 8.11145 13.0477 8.54367L13.0467 8.54456ZM5.31246 3.67875V12.2869C5.31246 12.3258 5.31246 12.37 5.31827 12.4098C5.32893 12.5327 5.40933 12.6113 5.53914 12.6157C5.85688 12.6211 6.17462 12.6211 6.49236 12.6157C6.62701 12.6157 6.70742 12.5327 6.71323 12.4142C6.71904 12.3753 6.71904 12.3311 6.71904 12.2914V9.31089C6.76748 9.34536 6.7946 9.37011 6.82076 9.38955C7.6277 10.003 8.55379 10.2045 9.57095 10.0233C10.4912 9.85625 11.1257 9.34094 11.5462 8.58963C11.8581 8.02041 11.9928 7.40611 12.0141 6.77236C12.0412 6.07055 11.9598 5.37758 11.6479 4.72439C11.2662 3.91916 10.6307 3.38353 9.67267 3.20675C9.52736 3.17758 9.37624 3.16697 9.23093 3.14753H8.8541C8.78919 3.15725 8.72526 3.16167 8.66035 3.17228C8.04064 3.24153 7.45121 3.45623 6.94959 3.79542C6.84207 3.86436 6.73938 3.94303 6.63186 4.01639C6.62701 3.99164 6.61539 3.9775 6.61054 3.95717C6.58923 3.84403 6.57276 3.7309 6.55145 3.61864C6.51948 3.42684 6.4168 3.34817 6.20756 3.34375H5.68542C5.36768 3.33845 5.3144 3.39325 5.3144 3.67786L5.31246 3.67875ZM26.5652 15.0756C26.4199 15.0411 26.2911 15.0756 26.1564 15.1251C23.0745 16.3021 19.7816 16.9514 16.4421 17.0405C15.0103 17.0736 13.5779 17.003 12.1584 16.8292C11.1994 16.7114 10.2475 16.5491 9.30649 16.3431C7.31842 15.9113 5.39151 15.2719 3.56392 14.4374C3.09022 14.2218 2.62717 13.9805 2.15928 13.7498C1.95488 13.6464 1.82507 13.6764 1.71754 13.8532V13.9363C1.78244 14.0149 1.83572 14.1033 1.9171 14.1723C3.85454 15.7536 6.039 16.9468 8.48308 17.752C9.66201 18.1401 10.8729 18.4247 12.1051 18.6112C12.8588 18.7243 13.6124 18.7977 14.3768 18.8321C14.5385 18.8374 14.6994 18.8419 14.8611 18.8516C14.8989 18.8516 14.9367 18.8613 14.9745 18.8666H15.9267C15.9645 18.8622 16.0023 18.8516 16.0401 18.8516C16.8422 18.8321 17.6443 18.7632 18.4405 18.6554C19.5885 18.4991 20.7205 18.2576 21.8253 17.9332C23.4188 17.4621 24.931 16.8337 26.3133 15.9639C26.4645 15.8702 26.6204 15.7774 26.7434 15.659C26.975 15.4433 26.8674 15.1481 26.5662 15.0747L26.5652 15.0756ZM29.2776 13.7153C29.235 13.5094 29.0626 13.4307 28.8688 13.3715C28.5614 13.2827 28.2432 13.2283 27.9214 13.2097C27.3318 13.1646 26.7383 13.1911 26.1564 13.2884C25.5103 13.3962 24.8971 13.588 24.3536 13.9319C24.2866 13.969 24.2297 14.0195 24.187 14.0795C24.1566 14.1305 24.147 14.1897 24.1599 14.2465C24.1763 14.3102 24.2519 14.3252 24.3216 14.3199C24.3536 14.3199 24.3865 14.3199 24.4185 14.3146L25.4676 14.2112C25.984 14.167 26.5013 14.1378 27.0176 14.1723C27.2385 14.1873 27.4535 14.2315 27.6637 14.2801C27.8953 14.334 27.997 14.4958 28.0076 14.707C28.0241 15.0358 27.9427 15.3505 27.8517 15.6643C27.6637 16.298 27.4051 16.9115 27.1358 17.5205C27.1193 17.5593 27.098 17.6035 27.0932 17.6433C27.0718 17.7662 27.1474 17.8395 27.2762 17.8148C27.3568 17.7986 27.4311 17.7629 27.4913 17.7114C27.6909 17.5346 27.8953 17.3578 28.0619 17.1616C28.6383 16.4836 28.9763 15.7076 29.1759 14.8732C29.2137 14.7256 29.2408 14.5736 29.267 14.4268C29.2776 14.1961 29.2776 13.9557 29.2776 13.7144V13.7153Z" fill="#6B6B6B"/>
</svg>
