<svg width="38.000000" height="107.000000" viewBox="0 0 38 107" fill="none" xmlns="http://www.w3.org/2000/svg" xmlns:xlink="http://www.w3.org/1999/xlink">
	<desc>
			Created with Pixso.
	</desc>
	<defs>
		<clipPath id="clip7_82">
			<rect id="img-1-6" width="38.000000" height="107.000000" fill="white" fill-opacity="0"/>
		</clipPath>
	</defs>
	<g clip-path="url(#clip7_82)">
		<path id="path" d="M2.42 107C1.08 107 0 105.9 0 104.55L0 94.67C0 93.54 0.78 92.59 1.83 92.32L3.34 46.83C2.43 46.41 1.83 45.45 1.93 44.39L2.86 34.5C2.98 33.25 4.03 32.3 5.28 32.3L6.88 32.3C9.5 32.3 11.71 30.59 12.48 28.24C12.67 27.7 12.77 27.12 12.78 26.53L13.23 9.33L13.32 5.69L24.67 5.69L24.76 9.33L25.21 26.53C25.21 27.12 25.32 27.7 25.51 28.24C26.28 30.59 28.5 32.3 31.11 32.3L32.71 32.3C33.96 32.3 35.01 33.25 35.13 34.5L36.06 44.39C36.16 45.45 35.56 46.41 34.65 46.83L36.16 92.32C37.21 92.59 38 93.54 38 94.67L38 104.55C38 105.9 36.91 107 35.57 107L2.42 107Z" fill="#B49571" fill-opacity="1.000000" fill-rule="nonzero"/>
		<path id="path" d="M3.96 34.68L3.05 44.5C2.99 45.06 3.3 45.58 3.81 45.82L4.49 46.13L2.92 93.21L2.11 93.43C1.53 93.57 1.11 94.1 1.11 94.69L1.11 104.58C1.11 105.3 1.69 105.9 2.42 105.9C8.02 103.32 13.55 102.08 19 102.07C24.44 102.07 29.97 103.32 35.57 105.9C36.29 105.9 36.88 105.3 36.88 104.58L36.88 94.69C36.88 94.1 36.46 93.57 35.88 93.43L35.07 93.21L33.5 46.13L34.18 45.82C34.69 45.58 35 45.06 34.94 44.5L34.03 34.68L3.96 34.68Z" fill="#FFF7ED" fill-opacity="1.000000" fill-rule="nonzero"/>
		<path id="path" d="M13.17 9.33C12.64 9.33 12.19 8.89 12.19 8.34C12.19 7.8 12.62 7.36 13.17 7.36L24.82 7.36C25.35 7.36 25.79 7.79 25.79 8.34C25.79 8.88 25.35 9.33 24.82 9.33L13.17 9.33Z" fill="#B49571" fill-opacity="1.000000" fill-rule="nonzero"/>
		<path id="path" d="M14.2 0C13.3 0 12.57 0.85 12.57 1.9L12.57 6.63L25.42 6.63L25.42 1.9C25.42 0.85 24.7 0 23.79 0L14.2 0Z" fill="#B49571" fill-opacity="1.000000" fill-rule="nonzero"/>
		<path id="path" d="M12.48 28.24C12.64 27.8 12.73 27.34 12.76 26.87C12.76 26.75 12.78 26.64 12.78 26.53L12.81 25.39L12.98 18.78L13.17 11.54L13.21 10.07L13.23 9.33L24.76 9.33L24.78 10.07L24.82 11.54L25.01 18.78L25.18 25.39L25.21 26.53C25.21 26.64 25.21 26.75 25.23 26.87C25.27 27.34 25.35 27.8 25.51 28.24L12.48 28.24Z" fill="#B49571" fill-opacity="1.000000" fill-rule="nonzero"/>
		<path id="path" d="M13.17 11.54L13.21 10.07L24.78 10.07L24.82 11.54L13.17 11.54Z" fill="#F6F6F6" fill-opacity="1.000000" fill-rule="nonzero"/>
		<path id="path" d="M12.76 26.87C12.76 26.75 12.78 26.64 12.78 26.53L12.81 25.39L25.18 25.39L25.21 26.53C25.21 26.64 25.21 26.75 25.23 26.87L12.76 26.87Z" fill="#F6F6F6" fill-opacity="1.000000" fill-rule="nonzero"/>
		<path id="path" d="M12.98 18.78L13.17 11.54L24.82 11.54L25.01 18.78L12.98 18.78Z" fill="#B49571" fill-opacity="1.000000" fill-rule="nonzero"/>
		<path id="path" d="M8.11 92.05C6.64 92.05 5.47 90.85 5.5 89.38L6.02 65.35L6.19 57.6L6.37 49.43C6.4 48.01 7.56 46.86 8.98 46.86L29.01 46.86C30.43 46.86 31.59 48.01 31.62 49.43L31.8 57.6L31.97 65.35L32.49 89.38C32.52 90.85 31.35 92.05 29.88 92.05L8.11 92.05Z" fill="#B49571" fill-opacity="1.000000" fill-rule="nonzero"/>
		<g opacity="0.500000">
			<path id="path" d="M8.11 90.38C7.85 90.38 7.62 90.28 7.44 90.1C7.26 89.92 7.17 89.67 7.17 89.43L8.03 49.47C8.04 48.97 8.47 48.55 8.97 48.55L29.01 48.55C29.51 48.55 29.94 48.97 29.95 49.47L30.81 89.43C30.81 89.68 30.72 89.92 30.54 90.1C30.36 90.28 30.13 90.38 29.87 90.38L8.11 90.38Z" fill="#F6F6F6" fill-opacity="1.000000" fill-rule="nonzero"/>
		</g>
		<path id="path" d="M8.3 89.26L9.16 49.66L28.83 49.66L29.69 89.26L8.3 89.26Z" fill="#B49571" fill-opacity="1.000000" fill-rule="nonzero"/>
		<path id="path" d="M6.02 65.35L6.03 64.63L6.04 64.16L6.16 58.73L6.18 58.26L6.19 57.6L31.8 57.6L31.81 58.26L31.83 58.73L31.95 64.16L31.96 64.63L31.97 65.35L6.02 65.35Z" fill="#B49571" fill-opacity="1.000000" fill-rule="nonzero"/>
		<path id="path" d="M6.16 58.73L6.18 58.26L31.81 58.26L31.83 58.73L6.16 58.73Z" fill="#F6F6F6" fill-opacity="1.000000" fill-rule="nonzero"/>
		<path id="path" d="M6.03 64.63L6.04 64.16L31.95 64.16L31.96 64.63L6.03 64.63Z" fill="#F6F6F6" fill-opacity="1.000000" fill-rule="nonzero"/>
		<g opacity="0.500000">
			<path id="path" d="M17.98 72.75C18.21 72.8 18.48 72.67 18.57 72.49C18.76 72.12 18.5 71.91 18.49 71.96C18.44 71.99 18.49 72.17 18.35 72.33C18.22 72.5 17.92 72.39 17.5 72.18C17.06 72.04 16.71 71.84 16.32 71.88C16.13 71.9 16 72.04 15.98 72.14C15.96 72.25 16 72.31 16.01 72.3C16.07 72.3 16.11 72.12 16.34 72.15C16.55 72.16 16.93 72.4 17.33 72.54C17.53 72.61 17.73 72.73 17.98 72.75Z" fill="#F6F6F6" fill-opacity="1.000000" fill-rule="nonzero"/>
		</g>
		<g opacity="0.500000">
			<path id="path" d="M20.01 72.75C19.78 72.8 19.51 72.67 19.42 72.49C19.23 72.12 19.49 71.91 19.5 71.96C19.55 71.99 19.5 72.17 19.64 72.33C19.77 72.5 20.07 72.39 20.49 72.18C20.93 72.04 21.28 71.84 21.67 71.88C21.86 71.9 21.99 72.04 22.01 72.14C22.04 72.25 21.99 72.31 21.98 72.3C21.92 72.3 21.88 72.12 21.66 72.15C21.44 72.16 21.06 72.4 20.66 72.54C20.46 72.61 20.26 72.73 20.01 72.75Z" fill="#F6F6F6" fill-opacity="1.000000" fill-rule="nonzero"/>
		</g>
		<g opacity="0.500000">
			<path id="path" d="M19 71.15C18.65 71.11 18.24 71.07 17.97 71.12C17.69 71.18 17.53 71.26 17.55 71.31C17.56 71.37 17.73 71.38 17.98 71.4C18.24 71.42 18.55 71.49 19 71.55C19.45 71.48 19.76 71.42 20.01 71.4C20.26 71.38 20.43 71.38 20.44 71.31C20.45 71.26 20.3 71.16 20.02 71.12C19.76 71.07 19.34 71.11 19 71.15Z" fill="#F6F6F6" fill-opacity="1.000000" fill-rule="nonzero"/>
		</g>
		<g opacity="0.500000">
			<path id="path" d="M19 70.31C18.28 70.36 17.72 70.49 17.73 70.59C17.74 70.7 18.31 70.75 19 70.7C19.68 70.75 20.24 70.7 20.26 70.59C20.27 70.48 19.71 70.36 19 70.31Z" fill="#F6F6F6" fill-opacity="1.000000" fill-rule="nonzero"/>
		</g>
		<g opacity="0.500000">
			<path id="path" d="M19 69.57C18.59 69.57 18.27 69.67 18.28 69.79C18.28 69.9 18.6 69.98 19 69.97C19.37 69.97 19.7 69.89 19.71 69.79C19.71 69.67 19.4 69.58 19 69.57Z" fill="#F6F6F6" fill-opacity="1.000000" fill-rule="nonzero"/>
		</g>
		<g opacity="0.500000">
			<path id="path" d="M19 75.13C18.83 75.11 18.48 74.66 18.1 74.68C17.96 74.68 17.87 74.76 17.81 74.83C17.81 74.74 17.79 74.64 17.81 74.55C17.83 74.42 17.93 74.32 17.98 74.23C18.01 74.37 18.07 74.45 18.11 74.44C18.24 74.41 18.27 74.09 18.37 73.72C18.48 73.35 18.6 73.05 18.51 72.97C18.44 72.9 18.12 73.15 17.99 73.61C17.94 73.8 17.94 73.95 17.97 74.1C17.88 74.03 17.56 74.07 17.43 74.45C17.36 74.84 17.62 75.01 17.74 75.01C17.8 75.01 17.9 74.92 18.09 74.96C18.18 75 18.28 75.05 18.39 75.16C18.54 75.29 18.64 75.46 19 75.53C19.35 75.44 19.45 75.28 19.6 75.16C19.71 75.05 19.81 75 19.9 74.96C20.09 74.93 20.17 75.05 20.21 75.05C20.34 75.05 20.63 74.84 20.56 74.45C20.43 74.07 20.12 74.04 20.02 74.1C20.05 73.97 20.05 73.8 20 73.61C19.87 73.15 19.55 72.9 19.48 72.97C19.39 73.05 19.51 73.35 19.62 73.72C19.71 74.09 19.76 74.41 19.88 74.44C19.92 74.44 19.98 74.37 20.01 74.23C20.06 74.32 20.16 74.42 20.18 74.55C20.2 74.64 20.18 74.74 20.18 74.83C20.12 74.76 20.03 74.68 19.89 74.68C19.51 74.66 19.16 75.11 19 75.13Z" fill="#F6F6F6" fill-opacity="1.000000" fill-rule="nonzero"/>
		</g>
		<g opacity="0.500000">
			<path id="path" d="M17.69 72.99C17.64 72.89 17.36 72.91 17.15 72.75C16.93 72.61 16.87 72.36 16.76 72.34C16.66 72.28 16.5 72.77 16.94 73.08C17.39 73.35 17.75 73.07 17.69 72.99Z" fill="#F6F6F6" fill-opacity="1.000000" fill-rule="nonzero"/>
		</g>
		<g opacity="0.500000">
			<path id="path" d="M20.3 72.99C20.35 72.89 20.63 72.91 20.84 72.75C21.06 72.61 21.12 72.36 21.23 72.34C21.33 72.28 21.49 72.77 21.05 73.08C20.6 73.35 20.24 73.07 20.3 72.99Z" fill="#F6F6F6" fill-opacity="1.000000" fill-rule="nonzero"/>
		</g>
		<g opacity="0.500000">
			<path id="path" d="M18.1 78.08C17.7 77.81 17.16 77.39 16.82 76.79C16.45 76.18 16.44 75.49 16.36 75.02C16.34 74.79 16.32 74.6 16.3 74.47C16.59 74.64 16.85 74.65 16.85 74.6C16.92 74.48 16.32 74.22 16.06 73.65C15.81 73.06 15.84 72.4 15.71 72.41C15.64 72.41 15.39 73.01 15.7 73.81C15.83 74.07 16 74.25 16.17 74.37C16.13 74.5 16.11 74.73 16.09 75.02C16.1 75.28 16.07 75.58 16.13 75.91C16.03 76.03 15.93 76.28 15.82 76.53C15.6 77.01 15.58 77.95 16.16 78.6C16.67 79.29 17.22 79.69 17.29 80.18C17.4 80.65 17.16 80.91 17.22 80.96C17.22 81.01 17.62 80.75 17.56 80.15C17.56 79.53 16.91 78.96 16.48 78.38C15.97 77.82 15.97 77.09 16.09 76.63C16.12 76.5 16.17 76.39 16.21 76.28C16.21 76.34 16.23 76.4 16.25 76.45C16.32 76.63 16.4 76.81 16.49 76.99C16.89 77.71 17.53 78.11 17.98 78.32C18.43 78.55 18.73 78.63 18.75 78.58C18.77 78.53 18.5 78.36 18.1 78.08Z" fill="#F6F6F6" fill-opacity="1.000000" fill-rule="nonzero"/>
		</g>
		<g opacity="0.500000">
			<path id="path" d="M19.89 78.08C20.29 77.81 20.83 77.39 21.17 76.79C21.54 76.18 21.55 75.49 21.63 75.02C21.66 74.79 21.67 74.6 21.69 74.47C21.4 74.64 21.14 74.65 21.14 74.6C21.07 74.48 21.67 74.22 21.93 73.65C22.18 73.06 22.15 72.4 22.28 72.41C22.35 72.41 22.61 73.01 22.29 73.81C22.16 74.07 21.99 74.25 21.82 74.37C21.86 74.5 21.88 74.73 21.9 75.02C21.89 75.28 21.92 75.58 21.86 75.91C21.96 76.03 22.06 76.28 22.17 76.53C22.39 77.01 22.42 77.95 21.83 78.6C21.32 79.29 20.77 79.69 20.71 80.18C20.59 80.65 20.83 80.91 20.77 80.96C20.77 81.01 20.37 80.75 20.43 80.15C20.43 79.53 21.09 78.96 21.51 78.38C22.02 77.82 22.02 77.09 21.9 76.63C21.87 76.5 21.82 76.39 21.78 76.28C21.78 76.34 21.76 76.4 21.74 76.45C21.67 76.63 21.59 76.81 21.5 76.99C21.1 77.71 20.46 78.11 20.01 78.32C19.57 78.55 19.26 78.63 19.24 78.58C19.22 78.53 19.49 78.36 19.89 78.08Z" fill="#F6F6F6" fill-opacity="1.000000" fill-rule="nonzero"/>
		</g>
		<g opacity="0.500000">
			<path id="path" d="M19 76.17C18.18 76.18 17.52 76.28 17.52 76.4C17.52 76.51 18.18 76.59 19 76.56C19.81 76.58 20.46 76.5 20.47 76.4C20.48 76.3 19.81 76.18 19 76.17Z" fill="#F6F6F6" fill-opacity="1.000000" fill-rule="nonzero"/>
		</g>
		<g opacity="0.500000">
			<path id="path" d="M19 76.81C18.74 76.84 18.55 76.92 18.56 77.02C18.56 77.11 18.75 77.19 19 77.19C19.24 77.19 19.43 77.11 19.43 77.02C19.43 76.93 19.24 76.84 19 76.81Z" fill="#F6F6F6" fill-opacity="1.000000" fill-rule="nonzero"/>
		</g>
		<g opacity="0.500000">
			<path id="path" d="M16.31 69.48C15.99 69.77 15.89 70.17 15.82 70.48C15.78 70.81 15.73 71.09 15.72 71.33C15.73 71.83 15.77 72.12 15.82 72.12C15.88 72.12 15.94 71.83 16 71.37C16.13 70.94 16.15 70.19 16.58 69.79C17.04 69.34 17.73 69.45 18.17 69.48C18.63 69.56 18.92 69.61 18.94 69.55C18.95 69.51 18.69 69.36 18.24 69.2C17.79 69.1 16.97 68.89 16.31 69.48Z" fill="#F6F6F6" fill-opacity="1.000000" fill-rule="nonzero"/>
		</g>
		<g opacity="0.500000">
			<path id="path" d="M21.68 69.48C22 69.77 22.1 70.17 22.17 70.48C22.21 70.81 22.26 71.09 22.27 71.33C22.26 71.83 22.23 72.12 22.17 72.12C22.11 72.12 22.05 71.83 21.99 71.37C21.86 70.94 21.85 70.19 21.41 69.79C20.95 69.34 20.26 69.45 19.82 69.48C19.36 69.56 19.07 69.61 19.05 69.55C19.04 69.51 19.3 69.36 19.76 69.2C20.2 69.1 21.02 68.89 21.68 69.48Z" fill="#F6F6F6" fill-opacity="1.000000" fill-rule="nonzero"/>
		</g>
		<g opacity="0.500000">
			<path id="path" d="M14.47 76.71C14.42 75.97 14.74 75.32 14.9 74.84C15.01 74.63 15.07 74.46 15.13 74.32C15.15 74.37 15.17 74.42 15.21 74.47C15.44 74.78 15.71 74.83 15.71 74.78C15.74 74.73 15.56 74.6 15.44 74.32C15.3 74.05 15.3 73.6 15.27 73.08C15.25 72.54 15.14 72.06 15.35 71.97C15.44 71.9 15.52 71.95 15.56 71.99C15.62 72.04 15.61 72.09 15.64 72.11C15.64 72.13 15.73 72.06 15.7 71.93C15.7 71.81 15.52 71.67 15.32 71.7C15.34 71.56 15.33 71.25 15.32 70.83C15.35 70.25 15.32 69.39 15.8 68.67C16.25 67.94 17.06 67.65 17.62 67.61C18.19 67.57 18.55 67.7 18.57 67.63C18.59 67.6 18.26 67.37 17.61 67.33C16.99 67.3 16.01 67.58 15.46 68.45C15.3 68.72 15.2 68.99 15.13 69.26C15.02 69.38 14.84 69.6 14.63 69.93C14.28 70.44 13.91 71.31 13.93 72.28C13.93 73.25 14.04 74.07 13.99 74.66C13.95 75.25 13.78 75.59 13.84 75.63C13.87 75.66 14.14 75.33 14.26 74.7C14.39 74.08 14.33 73.2 14.32 72.28C14.31 71.37 14.59 70.6 14.87 70.07C14.94 69.93 14.99 69.82 15.05 69.72C15.01 70.14 15.03 70.54 15.05 70.85C15.12 71.29 15.26 71.57 15.32 71.7C15.07 71.78 14.87 72.11 14.87 72.35C14.87 72.61 14.87 72.83 14.89 73.1C14.92 73.47 14.95 73.86 15.06 74.17C14.97 74.28 14.84 74.47 14.67 74.73C14.44 75.19 14.04 75.87 14.09 76.74C14.12 77.17 14.27 77.58 14.49 77.88C14.71 78.17 14.89 78.39 15.02 78.59C15.13 78.79 15.12 78.98 15.11 79.11C15.06 79.22 15.04 79.31 15.05 79.32C15.07 79.34 15.14 79.3 15.25 79.16C15.32 79.02 15.39 78.76 15.27 78.48C15.05 77.93 14.48 77.46 14.47 76.71Z" fill="#F6F6F6" fill-opacity="1.000000" fill-rule="nonzero"/>
		</g>
		<g opacity="0.500000">
			<path id="path" d="M23.52 76.71C23.57 75.97 23.25 75.32 23.09 74.84C22.99 74.63 22.92 74.46 22.86 74.32C22.84 74.37 22.82 74.42 22.78 74.47C22.55 74.78 22.28 74.83 22.28 74.78C22.25 74.73 22.43 74.6 22.55 74.32C22.69 74.05 22.69 73.6 22.72 73.08C22.74 72.54 22.85 72.06 22.64 71.97C22.55 71.9 22.47 71.95 22.43 71.99C22.37 72.04 22.38 72.09 22.35 72.11C22.35 72.13 22.26 72.06 22.29 71.93C22.29 71.81 22.47 71.67 22.67 71.7C22.65 71.56 22.66 71.25 22.67 70.83C22.64 70.25 22.67 69.39 22.19 68.67C21.74 67.94 20.93 67.65 20.37 67.61C19.8 67.57 19.44 67.7 19.42 67.63C19.4 67.6 19.73 67.37 20.38 67.33C21 67.3 21.98 67.58 22.53 68.45C22.69 68.72 22.8 68.99 22.86 69.26C22.97 69.38 23.15 69.6 23.37 69.93C23.71 70.44 24.08 71.31 24.06 72.28C24.06 73.25 23.95 74.07 24 74.66C24.04 75.25 24.21 75.59 24.15 75.63C24.13 75.66 23.85 75.33 23.73 74.7C23.6 74.08 23.66 73.2 23.67 72.28C23.68 71.37 23.4 70.6 23.12 70.07C23.05 69.93 23 69.82 22.94 69.72C22.99 70.14 22.96 70.54 22.94 70.85C22.87 71.29 22.73 71.57 22.67 71.7C22.92 71.78 23.12 72.11 23.12 72.35C23.12 72.61 23.12 72.83 23.1 73.1C23.07 73.47 23.04 73.86 22.93 74.17C23.02 74.28 23.15 74.47 23.32 74.73C23.56 75.19 23.95 75.87 23.9 76.74C23.87 77.17 23.72 77.58 23.5 77.88C23.28 78.17 23.1 78.39 22.97 78.59C22.86 78.79 22.87 78.98 22.88 79.11C22.93 79.22 22.95 79.31 22.94 79.32C22.92 79.34 22.85 79.3 22.74 79.16C22.67 79.02 22.61 78.76 22.72 78.48C22.94 77.93 23.51 77.46 23.52 76.71Z" fill="#F6F6F6" fill-opacity="1.000000" fill-rule="nonzero"/>
		</g>
		<g opacity="0.500000">
			<path id="path" d="M15.27 76.09C15.41 75.68 15.51 75.4 15.46 75.37C15.43 75.33 15.23 75.57 15 76.02C14.87 76.47 14.71 77.23 15.09 77.93C15.43 78.61 15.92 79.06 16 79.48C16.11 79.89 15.94 80.15 16 80.18C16.01 80.23 16.32 79.97 16.27 79.43C16.23 78.88 15.73 78.36 15.45 77.76C15.13 77.17 15.22 76.53 15.27 76.09Z" fill="#F6F6F6" fill-opacity="1.000000" fill-rule="nonzero"/>
		</g>
		<g opacity="0.500000">
			<path id="path" d="M22.72 76.09C22.58 75.68 22.48 75.4 22.53 75.37C22.56 75.33 22.76 75.57 22.99 76.02C23.12 76.47 23.28 77.23 22.9 77.93C22.56 78.61 22.07 79.06 21.99 79.48C21.88 79.89 22.05 80.15 21.99 80.18C21.98 80.23 21.67 79.97 21.72 79.43C21.76 78.88 22.26 78.36 22.54 77.76C22.86 77.17 22.77 76.53 22.72 76.09Z" fill="#F6F6F6" fill-opacity="1.000000" fill-rule="nonzero"/>
		</g>
		<g opacity="0.500000">
			<path id="path" d="M19 82.02C14.9 82.13 11.62 82.74 11.56 82.51C11.54 82.42 12.36 82.21 13.7 81.94C15.03 81.6 16.92 81.51 19 81.37C21.07 81.51 22.96 81.61 24.29 81.94C25.63 82.21 26.44 82.42 26.43 82.51C26.38 82.74 23.09 82.13 19 82.02Z" fill="#F6F6F6" fill-opacity="1.000000" fill-rule="nonzero"/>
		</g>
		<g opacity="0.500000">
			<path id="path" d="M19 84.25C15.73 84.27 13.19 84.55 13.17 84.34C13.15 84.21 15.7 83.65 19 83.59C22.29 83.65 24.84 84.21 24.82 84.34C24.8 84.54 22.25 84.27 19 84.25Z" fill="#F6F6F6" fill-opacity="1.000000" fill-rule="nonzero"/>
		</g>
		<g opacity="0.500000">
			<path id="path" d="M19 86.39C16.63 86.49 14.84 86.65 14.82 86.47C14.8 86.33 16.58 85.91 19 85.75C21.41 85.92 23.19 86.33 23.18 86.47C23.15 86.65 21.36 86.49 19 86.39Z" fill="#F6F6F6" fill-opacity="1.000000" fill-rule="nonzero"/>
		</g>
		<g opacity="0.600000">
			<path id="path" d="M19 55.65C17.73 55.62 16.68 56.05 16.11 56.63C15.53 57.19 15.43 57.73 15.32 57.71C15.25 57.71 15.17 57.08 15.77 56.32C16.31 55.56 17.61 54.95 18.98 55C20.36 54.95 21.66 55.56 22.2 56.32C22.78 57.08 22.72 57.71 22.65 57.71C22.55 57.73 22.44 57.19 21.86 56.63C21.3 56.06 20.26 55.62 19 55.65Z" fill="#F6F6F6" fill-opacity="1.000000" fill-rule="nonzero"/>
		</g>
		<g opacity="0.600000">
			<path id="path" d="M17.78 52.28C17.94 52.23 18.22 52.7 18.39 53.35C18.48 54.01 18.4 54.56 18.22 54.57C18.04 54.57 17.83 54.09 17.74 53.48C17.59 52.89 17.61 52.34 17.78 52.28Z" fill="#F6F6F6" fill-opacity="1.000000" fill-rule="nonzero"/>
		</g>
		<g opacity="0.600000">
			<path id="path" d="M20.21 52.28C20.05 52.23 19.77 52.7 19.6 53.35C19.51 54.01 19.59 54.56 19.77 54.57C19.95 54.57 20.16 54.09 20.25 53.48C20.4 52.89 20.38 52.34 20.21 52.28Z" fill="#F6F6F6" fill-opacity="1.000000" fill-rule="nonzero"/>
		</g>
		<g opacity="0.600000">
			<path id="path" d="M15.91 52.9C16.04 52.78 16.48 53.13 16.89 53.7C17.18 54.34 17.27 54.9 17.11 54.94C16.93 55 16.58 54.58 16.34 54.02C15.97 53.53 15.78 53.02 15.91 52.9Z" fill="#F6F6F6" fill-opacity="1.000000" fill-rule="nonzero"/>
		</g>
		<g opacity="0.600000">
			<path id="path" d="M22.08 52.9C21.95 52.78 21.51 53.13 21.1 53.7C20.81 54.34 20.72 54.9 20.88 54.94C21.06 55 21.41 54.58 21.66 54.02C22.02 53.53 22.21 53.02 22.08 52.9Z" fill="#F6F6F6" fill-opacity="1.000000" fill-rule="nonzero"/>
		</g>
		<g opacity="0.600000">
			<path id="path" d="M14.2 53.76C14.31 53.62 14.83 53.9 15.34 54.39C15.78 54.96 16.01 55.5 15.85 55.59C15.7 55.68 15.25 55.34 14.86 54.83C14.39 54.38 14.09 53.91 14.2 53.76Z" fill="#F6F6F6" fill-opacity="1.000000" fill-rule="nonzero"/>
		</g>
		<g opacity="0.600000">
			<path id="path" d="M23.79 53.76C23.68 53.62 23.16 53.9 22.65 54.39C22.21 54.96 21.98 55.5 22.14 55.59C22.29 55.68 22.74 55.34 23.14 54.83C23.61 54.38 23.9 53.91 23.79 53.76Z" fill="#F6F6F6" fill-opacity="1.000000" fill-rule="nonzero"/>
		</g>
		<g opacity="0.600000">
			<path id="path" d="M12.87 55.27C12.95 55.1 13.5 55.24 14.08 55.58C14.64 55.96 14.99 56.4 14.88 56.53C14.77 56.68 14.26 56.5 13.73 56.13C13.17 55.81 12.79 55.43 12.87 55.27Z" fill="#F6F6F6" fill-opacity="1.000000" fill-rule="nonzero"/>
		</g>
		<g opacity="0.600000">
			<path id="path" d="M25.12 55.27C25.04 55.1 24.49 55.24 23.91 55.58C23.35 55.96 23 56.4 23.11 56.53C23.22 56.68 23.73 56.5 24.26 56.13C24.82 55.81 25.2 55.43 25.12 55.27Z" fill="#F6F6F6" fill-opacity="1.000000" fill-rule="nonzero"/>
		</g>
		<g opacity="0.600000">
			<path id="path" d="M12.38 57.26C12.4 57.08 12.96 56.98 13.64 57.05C14.32 57.11 14.86 57.3 14.85 57.49C14.83 57.67 14.27 57.78 13.59 57.71C12.9 57.64 12.37 57.45 12.38 57.26Z" fill="#F6F6F6" fill-opacity="1.000000" fill-rule="nonzero"/>
		</g>
		<g opacity="0.600000">
			<path id="path" d="M25.61 57.26C25.59 57.08 25.03 56.98 24.35 57.05C23.67 57.11 23.13 57.3 23.14 57.49C23.15 57.69 23.72 57.78 24.4 57.71C25.09 57.64 25.62 57.45 25.61 57.26Z" fill="#F6F6F6" fill-opacity="1.000000" fill-rule="nonzero"/>
		</g>
		<g opacity="0.600000">
			<path id="path" d="M19 22.38L18.25 22.12C18.06 22.06 17.89 21.93 17.71 21.84C17.36 21.65 17.06 21.38 16.79 21.13C16.25 20.59 15.9 19.92 15.69 19.26C15.46 18.58 15.5 17.89 15.6 17.27C15.75 16.67 15.98 16.14 16.29 15.73C16.89 14.9 17.61 14.45 18.15 14.29C18.67 14.12 18.98 14.16 19 14.22C19.01 14.15 19.32 14.12 19.84 14.29C20.37 14.46 21.1 14.9 21.7 15.73C22.01 16.14 22.24 16.67 22.39 17.27C22.48 17.88 22.53 18.58 22.3 19.26C22.09 19.92 21.74 20.6 21.2 21.13C20.93 21.4 20.63 21.65 20.28 21.84C20.1 21.93 19.95 22.06 19.74 22.12L19 22.38ZM19 14.22C18.92 14.44 17.82 14.84 17.07 16.22C16.87 16.58 16.75 17 16.67 17.45C16.65 17.91 16.65 18.39 16.84 18.87C17.02 19.34 17.29 19.84 17.7 20.21C17.9 20.4 18.11 20.59 18.37 20.71C18.49 20.77 18.62 20.87 18.75 20.9L18.95 20.97L19.22 20.9C19.35 20.87 19.46 20.77 19.6 20.71C19.84 20.59 20.07 20.4 20.27 20.21C20.68 19.83 20.95 19.34 21.13 18.87C21.33 18.39 21.32 17.91 21.3 17.45C21.22 17 21.1 16.57 20.9 16.22C20.15 14.84 19.07 14.44 19 14.22Z" fill="#F6F6F6" fill-opacity="1.000000" fill-rule="nonzero"/>
		</g>
		<g opacity="0.600000">
			<path id="path" d="M19 19.08C18.73 18.92 18.49 18.46 18.44 17.89C18.36 17.17 18.59 16.55 18.95 16.51C19.31 16.54 19.63 17.16 19.55 17.89C19.5 18.45 19.26 18.92 19 19.08Z" fill="#F6F6F6" fill-opacity="1.000000" fill-rule="nonzero"/>
		</g>
		<g opacity="0.400000">
			<path id="path" d="M16.46 13.96C16.64 13.96 16.78 15.27 16.87 17.62C16.92 18.8 16.96 20.24 16.98 21.91C16.98 22.75 17.01 23.65 17.02 24.59C17.02 25.55 17.07 26.48 16.95 27.69C16.83 28.82 16.56 30.03 15.91 31.21C15.27 32.36 14.32 33.36 13.22 34.17C12.11 34.96 10.86 35.59 9.53 36.05C9.19 36.16 8.86 36.27 8.51 36.36L8 36.5L7.74 36.57C7.51 36.66 7.19 36.94 7.19 37.2C7.18 37.2 7.17 37.29 7.16 37.38L7.14 37.64L7.09 38.17C7.06 38.52 7.04 38.87 7 39.23C6.95 39.94 6.88 40.67 6.82 41.38C6.77 42.01 6.72 42.64 6.67 43.28L6.94 43.44C7.09 43.55 7.22 43.67 7.34 43.81C7.6 44.08 7.76 44.42 7.89 44.77C7.95 44.94 7.96 45.13 7.99 45.32C8.01 45.51 8.02 45.71 8.01 45.76L8.01 46.34L7.96 47.49C7.94 48.26 7.92 49.04 7.9 49.82C7.85 51.39 7.8 52.97 7.74 54.57C7.32 67.41 6.78 79.04 6.27 87.44C6.12 89.54 6 91.44 5.89 93.11C5.87 93.33 5.85 93.53 5.84 93.73C5.82 93.93 5.83 94.1 5.74 94.45C5.68 94.76 5.51 95 5.3 95.24C5.18 95.37 5.04 95.47 4.9 95.56C4.78 95.63 4.72 95.63 4.62 95.68L4.34 95.79C4.34 95.79 4.26 95.81 4.22 95.82C4.16 95.88 4.05 95.94 4.04 95.97C4.02 96 3.94 96 3.92 96.21L3.9 96.32L3.87 96.42C3.88 96.25 3.9 96.35 3.9 96.32L3.87 96.56C3.71 98.92 3.53 100.22 3.35 100.22C3.17 100.22 2.99 98.92 2.83 96.56L2.83 96.34L2.85 96.03C2.83 95.91 2.92 95.63 3.07 95.38C3.2 95.13 3.38 94.98 3.58 94.82C3.76 94.73 3.94 94.63 4.13 94.54C4.2 94.5 4.32 94.46 4.34 94.41C4.34 94.36 4.43 94.22 4.41 94.14C4.42 94.11 4.43 93.89 4.42 93.68C4.42 93.48 4.42 93.28 4.42 93.07C4.42 91.39 4.42 89.48 4.42 87.38C4.47 78.95 4.7 67.32 5.13 54.47C5.24 51.41 5.34 48.42 5.44 45.53L5.18 45.37C5.02 45.28 4.88 45.18 4.76 45.05C4.62 44.94 4.51 44.8 4.41 44.65C4.22 44.35 4.13 44.01 4.13 43.66C4.12 43.48 4.13 43.3 4.15 43.12L4.19 42.81L4.24 42.26C4.28 41.89 4.32 41.53 4.35 41.16C4.43 40.43 4.5 39.71 4.58 39.01C4.61 38.65 4.66 38.3 4.69 37.95L4.75 37.43L4.77 37.17C4.77 37.09 4.79 36.99 4.82 36.85C4.97 35.71 5.83 34.76 6.85 34.41L7.23 34.28L7.46 34.22L7.92 34.11C8.22 34.03 8.52 33.95 8.81 33.87C9.99 33.51 11.06 33 11.98 32.4C12.89 31.78 13.64 31.03 14.17 30.2C14.68 29.38 14.96 28.4 15.12 27.47C15.27 26.58 15.28 25.51 15.35 24.58C15.41 23.64 15.46 22.74 15.52 21.9C15.63 20.23 15.74 18.78 15.85 17.62C16.07 15.27 16.28 13.94 16.46 13.96Z" fill="#FFFFFF" fill-opacity="1.000000" fill-rule="nonzero"/>
		</g>
	</g>
</svg>
