<svg width="55" height="102" viewBox="0 0 55 102" fill="none" xmlns="http://www.w3.org/2000/svg">
<path d="M2.08111 67.8442C1.60063 76.9733 1.6727 84.4088 1.80483 91.58C1.84087 93.562 28.4356 93.562 28.4716 91.58C28.6038 84.4088 28.6758 76.9733 28.1954 67.8442C27.883 61.9823 2.39343 61.9823 2.08111 67.8442ZM24.1713 85.7782C14.8379 89.0815 6.21326 85.7782 6.21326 85.7782V82.4509H24.1713V85.7782ZM21.0962 71.8322C21.0962 73.4658 20.4356 74.9433 19.3665 76.0244H26.4536V81.1656H3.93097V76.0244H10.922C9.85292 74.9433 9.19226 73.4658 9.19226 71.8322C9.19226 68.5409 11.8589 65.8862 15.1382 65.8862C18.4175 65.8862 21.0842 68.5529 21.0842 71.8322H21.0962Z" fill="#4D4D4D"/>
<path d="M10.6456 71.8082C10.6456 74.2947 12.6637 76.3128 15.1502 76.3128C17.6367 76.3128 19.6547 74.2947 19.6547 71.8082C19.6547 69.3217 17.6367 67.3037 15.1502 67.3037C12.6637 67.3037 10.6456 69.3217 10.6456 71.8082ZM18.2252 71.8683C18.2252 73.574 16.8439 74.9434 15.1502 74.9434C13.4565 74.9434 12.0751 73.562 12.0751 71.8683C12.0751 70.1746 13.4565 68.7932 15.1502 68.7932C16.8439 68.7932 18.2252 70.1746 18.2252 71.8683Z" fill="#4D4D4D"/>
<path d="M15.1382 33.8979C13.4325 33.8979 12.0631 36.3364 12.0631 39.3394C12.0631 42.3424 13.4445 44.7809 15.1382 44.7809C16.8319 44.7809 18.2133 42.3424 18.2133 39.3394C18.2133 36.3364 16.8319 33.8979 15.1382 33.8979ZM15.1382 43.0271C13.9971 43.0271 13.0841 41.4055 13.0841 39.3875C13.0841 37.3694 14.0091 35.7478 15.1382 35.7478C16.2673 35.7478 17.1923 37.3694 17.1923 39.3875C17.1923 41.4055 16.2673 43.0271 15.1382 43.0271Z" fill="#4D4D4D"/>
<path d="M10.7898 40.0723C10.9099 43.8801 12.8198 46.9192 15.1502 46.9192C17.4805 46.9192 19.4385 43.796 19.5106 39.9161C20.8679 39.1594 21.6487 37.9702 21.1922 36.3605C20.0511 32.3365 19.3184 25.838 19.4265 13.5496H20.1952C20.8439 13.5496 21.3604 13.0932 21.3604 12.5166V2.45045C21.3604 1.09309 20.1232 0 18.5976 0H11.6907C10.1652 0 8.92792 1.09309 8.92792 2.45045V12.5166C8.92792 13.0811 9.45646 13.5496 10.0931 13.5496H10.8619C10.97 26.1383 10.2012 32.6488 9.01201 36.6488C8.54354 38.2224 9.37237 39.3636 10.7898 40.0723ZM19.0301 39.3395C19.0301 42.8471 17.3244 45.5978 15.1382 45.5978C12.952 45.5978 11.2463 42.8471 11.2463 39.3395C11.2463 35.832 12.952 33.0812 15.1382 33.0812C17.3244 33.0812 19.0301 35.832 19.0301 39.3395ZM10.7297 3.00302L10.021 7.48352V2.25827C10.021 1.60961 10.5375 1.09309 11.1862 1.09309H17.8289L11.8348 1.92193C11.2703 2.00601 10.8258 2.43845 10.7297 3.00302ZM11.6907 15.3634H13.1321C13.1321 31.3275 9.88889 37.8981 9.88889 37.8981C9.88889 37.8981 12.0511 27.6157 11.7027 15.3634H11.6907Z" fill="#4D4D4D"/>
<path d="M50.3936 39.3276L36.2073 39.3637C36.1593 40.0244 36.1232 40.7331 36.0752 41.4898H50.5137C50.4777 40.721 50.4296 39.9883 50.3816 39.3276H50.3936Z" fill="#4D4D4D"/>
<path d="M44.6278 100.144C44.6278 100.144 43.1864 80.3365 44.1233 74.0782C55.0423 72.2524 50.8141 33.8018 50.8141 33.8018H35.787C35.787 33.8018 31.5587 72.2524 42.4777 74.0782C43.4026 80.3245 41.9732 100.144 41.9732 100.144C41.9732 100.144 41.2765 101.117 32.0392 101.117V101.49H54.5618V101.117C45.3245 101.117 44.6278 100.144 44.6278 100.144ZM42.5858 100.697C42.4176 100.877 40.1954 100.901 40.1954 100.901C40.1954 100.901 42.0092 100.565 42.2374 100.325C42.4536 100.084 42.5858 96.4567 42.5858 96.4567C42.5858 96.4567 42.766 100.517 42.5978 100.697H42.5858ZM36.1593 34.4264H50.4417C50.4417 34.4264 54.6579 72.7689 43.3065 72.7689C31.9551 72.7689 36.1713 34.4264 36.1713 34.4264H36.1593ZM44.2435 100.697C42.9101 92.2285 43.6428 74.1263 43.6428 74.1263C43.6428 74.1263 43.3065 74.1263 42.802 73.9341C43.2104 74.0182 43.6789 73.9701 43.8831 73.9341C43.9191 73.9341 43.9552 73.9581 43.9552 73.9941C43.6789 75.2554 43.5948 88.6248 43.7149 91.5438C43.8951 95.712 44.4356 100.301 44.6398 100.457C45.0122 100.757 46.6579 100.985 46.6579 100.985C46.6579 100.985 44.4597 100.961 44.2435 100.697Z" fill="#4D4D4D"/>
<path d="M49.8411 38.655C50.0934 38.6309 50.2495 38.1024 50.1895 37.4778C50.1414 36.8411 49.8892 36.3486 49.6489 36.3727C49.4087 36.3967 49.2405 36.9252 49.3006 37.5498C49.3486 38.1865 49.6009 38.679 49.8411 38.655Z" fill="#4D4D4D"/>
<path d="M50.1173 36.3725C50.2374 36.3725 50.3215 36.0962 50.2975 35.7839C50.2735 35.4716 50.1533 35.2194 50.0212 35.2314C49.9011 35.2314 49.817 35.5076 49.841 35.8199C49.865 36.1323 49.9852 36.3845 50.1173 36.3725Z" fill="#4D4D4D"/>
<path d="M22.0932 38.823C21.7929 39.4717 21.3004 40.0603 20.6158 40.5407C20.3275 44.793 17.9971 48.0483 15.1383 48.0483C12.2794 48.0483 10.0211 44.9492 9.68477 40.7449C9.39649 40.5648 9.15624 40.3606 8.92801 40.1443C8.92801 43.0392 6.63371 44.7209 4.94001 51.5438C4.48355 53.3816 4.00306 56.4928 3.54661 60.6369C3.53459 60.7691 2.40546 61.3096 1.93699 61.7901C2.3454 57.3096 2.90997 53.2855 3.66673 50.3786C5.27634 44.6609 7.58266 44.7089 8.94003 40.1443C8.59167 39.808 8.30338 39.4356 8.11119 39.0272C6.50157 42.5107 4.45952 43.7359 2.77783 48.6609C-0.153113 57.2375 0.447489 89.3578 0.68773 98.8353C0.723767 100.313 1.93699 101.478 3.41447 101.478H26.8981C28.3756 101.478 29.5888 100.313 29.6248 98.8353C29.8651 89.3578 30.4657 57.2375 27.5347 48.6609C25.817 43.6519 23.7389 42.4747 22.1053 38.823H22.0932ZM25.2885 45.1173C25.5167 45.0453 25.877 45.4897 26.0813 46.1143C26.2855 46.739 26.2734 47.3035 26.0452 47.3876C25.817 47.4717 25.4566 47.0152 25.2524 46.3906C25.0482 45.766 25.0602 45.2014 25.2885 45.1173ZM26.1293 49.2855C25.9852 49.3336 25.7689 49.0573 25.6368 48.6729C25.5047 48.2885 25.5167 47.9402 25.6608 47.8921C25.805 47.8441 26.0212 48.1203 26.1533 48.5047C26.2855 48.8891 26.2734 49.2375 26.1293 49.2855ZM2.58564 98.1266C2.23729 97.8143 1.949 96.481 1.72077 94.4629C1.74479 94.559 3.35441 94.8473 3.37844 94.9314C3.55862 95.6761 3.69075 96.0365 3.93099 96.565C5.78085 98.8834 26.0813 99.2437 26.0813 99.2437C26.0813 99.2437 4.54361 99.8804 2.58564 98.1266ZM29.0122 64.0484C29.5167 73.7541 29.4446 85.598 29.3125 93.2137C29.2765 94.9434 10.2614 95.2557 3.41447 94.1386C3.33039 94.1266 2.00906 93.8503 1.63669 93.7302C1.21626 93.574 0.976022 93.4059 0.976022 93.2137C0.843889 85.598 0.759805 73.7541 1.27632 64.0484C1.30035 63.5438 1.51657 63.0874 1.86492 62.667C2.65771 61.8982 3.58264 61.3697 3.6427 61.3456C10.2974 58.0183 28.7479 58.9072 29.0242 64.0484H29.0122Z" fill="#4D4D4D"/>
<path d="M50.5619 41.8862H36.0393C35.4747 52.565 35.4146 71.8203 43.3066 71.8203C51.1985 71.8203 51.1384 52.565 50.5619 41.8862ZM44.0513 67.0996C43.9192 67.0996 43.8111 66.9915 43.8111 66.8593C43.8111 66.7272 43.9192 66.6191 44.0513 66.6191C44.1835 66.6191 44.2916 66.7272 44.2916 66.8593C44.2916 66.9915 44.1835 67.0996 44.0513 67.0996ZM45.3126 57.0695C45.0603 57.0695 44.8561 56.8653 44.8561 56.613C44.8561 56.3608 45.0603 56.1566 45.3126 56.1566C45.5648 56.1566 45.769 56.3608 45.769 56.613C45.769 56.8653 45.5648 57.0695 45.3126 57.0695ZM48.4718 54.607C48.2676 54.607 48.1114 54.4389 48.1114 54.2467C48.1114 54.0545 48.2796 53.8863 48.4718 53.8863C48.664 53.8863 48.8321 54.0545 48.8321 54.2467C48.8321 54.4389 48.664 54.607 48.4718 54.607ZM48.5318 51.0755C48.8441 51.0755 49.0964 51.3277 49.0964 51.64C49.0964 51.9523 48.8441 52.2046 48.5318 52.2046C48.2195 52.2046 47.9673 51.9523 47.9673 51.64C47.9673 51.3277 48.2195 51.0755 48.5318 51.0755ZM47.4147 59.6761C47.667 59.6761 47.8712 59.8803 47.8712 60.1326C47.8712 60.3848 47.667 60.589 47.4147 60.589C47.1624 60.589 46.9582 60.3848 46.9582 60.1326C46.9582 59.8803 47.1624 59.6761 47.4147 59.6761ZM46.5618 65.3818C46.718 65.3818 46.8381 65.502 46.8381 65.6581C46.8381 65.8143 46.718 65.9344 46.5618 65.9344C46.4057 65.9344 46.2856 65.8143 46.2856 65.6581C46.2856 65.502 46.4057 65.3818 46.5618 65.3818ZM45.5889 45.1896C45.9012 45.1896 46.1534 45.4418 46.1534 45.7541C46.1534 46.0664 45.9012 46.3187 45.5889 46.3187C45.2765 46.3187 45.0243 46.0664 45.0243 45.7541C45.0243 45.4418 45.2765 45.1896 45.5889 45.1896ZM45.0003 47.592C45.2045 47.592 45.3726 47.7601 45.3726 47.9643C45.3726 48.1685 45.2045 48.3367 45.0003 48.3367C44.7961 48.3367 44.6279 48.1685 44.6279 47.9643C44.6279 47.7601 44.7961 47.592 45.0003 47.592ZM44.2315 51.4839C44.4357 51.4839 44.5919 51.6521 44.5919 51.8442C44.5919 52.0364 44.4237 52.2046 44.2315 52.2046C44.0393 52.2046 43.8711 52.0364 43.8711 51.8442C43.8711 51.6521 44.0393 51.4839 44.2315 51.4839ZM43.8591 61.4539C44.1114 61.4539 44.3276 61.6581 44.3276 61.9224C44.3276 62.1866 44.1234 62.3908 43.8591 62.3908C43.5949 62.3908 43.3907 62.1866 43.3907 61.9224C43.3907 61.6581 43.5949 61.4539 43.8591 61.4539ZM41.757 58.6311C41.757 58.7872 41.6249 58.9194 41.4687 58.9194C41.3126 58.9194 41.1804 58.7872 41.1804 58.6311C41.1804 58.4749 41.3126 58.3428 41.4687 58.3428C41.6249 58.3428 41.757 58.4749 41.757 58.6311ZM40.8081 46.4508C41.1204 46.4508 41.3726 46.7031 41.3726 47.0154C41.3726 47.3277 41.1204 47.58 40.8081 47.58C40.4957 47.58 40.2435 47.3277 40.2435 47.0154C40.2435 46.7031 40.4957 46.4508 40.8081 46.4508ZM40.8321 54.0424C40.8321 54.2827 40.6399 54.4749 40.3996 54.4749C40.1594 54.4749 39.9672 54.2827 39.9672 54.0424C39.9672 53.8022 40.1594 53.61 40.3996 53.61C40.6399 53.61 40.8321 53.8022 40.8321 54.0424ZM39.6789 50.1505C39.9912 50.1505 40.2435 50.4028 40.2435 50.7151C40.2435 51.0274 39.9912 51.2797 39.6789 51.2797C39.3666 51.2797 39.1144 51.0274 39.1144 50.7151C39.1144 50.4028 39.3666 50.1505 39.6789 50.1505ZM37.2525 42.5229H38.9462C36.9642 63.8323 42.8141 71.3759 42.8141 71.3759C42.8141 71.3759 35.5227 69.1536 37.2525 42.5229ZM42.754 54.9554C42.754 54.7271 42.9342 54.547 43.1624 54.547C43.3907 54.547 43.5708 54.7271 43.5708 54.9554C43.5708 55.1836 43.3907 55.3638 43.1624 55.3638C42.9342 55.3638 42.754 55.1836 42.754 54.9554Z" fill="#4D4D4D"/>
</svg>
