<svg width="57" height="102" viewBox="0 0 57 102" fill="none" xmlns="http://www.w3.org/2000/svg">
<path d="M33.4242 90.2417C33.4829 90.5585 33.7761 90.7696 34.0929 90.7227L37.765 90.0657L34.175 90.406C33.9639 90.406 33.7762 90.2769 33.7175 90.0657L32.8259 86.5344L33.4359 90.2417H33.4242Z" fill="#4D4D4D"/>
<path d="M47.3969 72.6909H28.2035V101.61H56.7707V72.6909H47.3969ZM28.5085 101.153V90.0424L29.0599 100.472L36.8968 101.153H28.5202H28.5085ZM37.7063 84.282C37.7063 84.282 37.7415 84.2938 37.765 84.2938C37.765 84.6692 37.765 85.0446 37.765 85.42C37.6125 85.1033 37.2723 84.9038 36.8968 84.9742L33.0488 85.6312C32.8259 85.6664 32.6382 85.7837 32.5091 85.9714C32.3801 86.1474 32.3331 86.3703 32.3683 86.5932L33.0253 90.4413C33.0957 90.8402 33.4359 91.1335 33.8348 91.1335C33.8817 91.1335 33.9287 91.1335 33.9756 91.1217L37.7885 90.4765L33.8817 91.1452C33.4007 91.2273 32.9432 90.8988 32.8611 90.4178L32.0516 85.6547C31.9694 85.1737 32.2979 84.7161 32.7789 84.634L37.5421 83.8245C37.6125 83.8128 37.6829 83.8245 37.765 83.8245C37.765 83.8714 37.765 83.9183 37.765 83.9653L32.8024 84.634L37.7063 84.2938V84.282ZM36.7091 85.7955C36.9203 85.7955 37.108 85.9245 37.1667 86.1357L37.7767 88.2709C37.7767 88.9279 37.7767 89.5849 37.7885 90.2301L33.9404 90.8871C33.6119 90.9458 33.3069 90.7229 33.2482 90.3944L32.5912 86.5463C32.5677 86.3938 32.5912 86.2295 32.6968 86.1005C32.7906 85.9714 32.9315 85.8776 33.084 85.8541L36.932 85.1971C36.932 85.1971 37.0024 85.1971 37.0376 85.1971C37.3309 85.1971 37.5773 85.4083 37.6242 85.7016L37.765 86.5228C37.765 86.8865 37.765 87.2385 37.765 87.6022L37.4482 85.9597C37.3896 85.643 37.0963 85.4318 36.7795 85.4787L33.0722 85.9245L36.6974 85.8072L36.7091 85.7955ZM37.6477 83.5899L32.603 84.4463C32.0985 84.5284 31.7465 85.0211 31.8404 85.5256L32.6968 90.5703C32.7789 91.0748 33.2717 91.4268 33.7761 91.3329L37.7885 90.6525C37.7885 91.0279 37.7885 91.4033 37.7885 91.7787L33.9521 92.4357C33.8348 92.4592 33.7175 92.4709 33.6119 92.4709C32.6147 92.4709 31.7583 91.7553 31.594 90.7698L30.7376 85.7251C30.6437 85.1854 30.7728 84.6457 31.0895 84.1999C31.4063 83.7541 31.8756 83.4608 32.4152 83.367L37.46 82.5105C37.5656 82.4988 37.6594 82.4988 37.7533 82.4871C37.7533 82.8625 37.7533 83.2262 37.7533 83.6016C37.7181 83.6016 37.6829 83.6016 37.6477 83.6016V83.5899ZM37.7533 81.6658H30.0219V96.3424H37.8589C37.8589 96.5888 37.8589 96.8235 37.8589 97.0464H29.4119V73.3714H37.8823C37.7885 75.2133 37.7533 78.2518 37.7415 81.6541L37.7533 81.6658ZM38.0114 97.0581C38.0114 96.8234 38.0114 96.5888 38.0114 96.3542H47.3148C47.3148 96.6005 47.3148 96.8352 47.3148 97.0581H37.9996H38.0114ZM38.0935 89.2212C38.0935 88.9513 38.0935 88.6932 38.0935 88.4234L38.2812 89.5379C38.3047 89.6904 38.2812 89.8547 38.1756 89.9837C38.1521 90.0189 38.117 90.0424 38.0818 90.0776C38.0818 89.843 38.0818 89.5966 38.0818 89.3502L38.1639 89.6318L38.0818 89.2094L38.0935 89.2212ZM38.3633 90.1128C38.4924 89.9368 38.5393 89.7139 38.5041 89.491L38.0935 87.0977C38.0935 86.253 38.0935 85.3848 38.0935 84.5167C38.1169 84.5519 38.1521 84.5753 38.1639 84.6105L39.3605 89.2798L38.4455 84.4346C38.4103 84.2351 38.2695 84.0826 38.0935 84.0122C38.0935 83.977 38.0935 83.9536 38.0935 83.9184C38.3281 84.0474 38.5041 84.2586 38.551 84.5401L39.3605 89.3033C39.4427 89.7843 39.1142 90.2418 38.6332 90.324L38.07 90.4178C38.07 90.4178 38.07 90.3826 38.07 90.3592C38.1756 90.3005 38.2812 90.2184 38.3516 90.1128H38.3633ZM38.8208 90.4765C39.3253 90.3944 39.6773 89.9016 39.5835 89.3972L38.727 84.3524C38.6683 84.0005 38.4102 83.7424 38.0935 83.6368C38.0935 83.2614 38.0935 82.8742 38.0935 82.4988C38.9616 82.6278 39.6656 83.2848 39.8181 84.1765L40.6745 89.2212C40.8622 90.3357 40.1114 91.3916 38.9969 91.5793L38.0583 91.7435C38.0583 91.3681 38.0583 90.9927 38.0583 90.6173L38.7974 90.4882L38.8208 90.4765ZM47.2326 86.8748C47.2326 88.8458 47.2561 90.805 47.2796 92.6234L44.3583 91.6849C44.1119 91.591 43.9712 91.3447 44.0064 91.0865L44.6985 86.6871L43.6075 91.1452C43.5254 91.5206 43.7483 91.9078 44.1237 92.0134L47.303 92.7408C47.303 92.8111 47.303 92.8698 47.303 92.9402L43.8773 92.119C43.4784 92.0251 43.2438 91.6262 43.3376 91.2391L44.4522 86.5932C44.5343 86.2647 44.8276 86.0301 45.1678 86.0301C45.2265 86.0301 45.2852 86.0301 45.3438 86.0536L47.2561 86.5111C47.2561 86.5698 47.2561 86.6284 47.2561 86.6871L45.3086 86.124L47.2561 86.8748H47.2326ZM45.379 85.7837C44.8393 85.6547 44.2879 85.9949 44.1589 86.5346L43.0443 91.1804C42.9153 91.7201 43.2555 92.2715 43.7952 92.4005L47.2796 93.2335L43.6779 92.377C43.103 92.2363 42.7393 91.6497 42.8801 91.0748L44.2527 85.3262C44.3935 84.7396 44.9801 84.3876 45.555 84.5284H45.5784L47.2209 85.1033C47.2209 85.4787 47.2209 85.8541 47.2209 86.2295L45.3673 85.7837H45.379ZM45.5784 84.5284L47.2209 84.9156C47.2209 84.9156 47.2209 84.9625 47.2209 84.9742L45.5784 84.5167V84.5284ZM45.4377 84.2468C44.8276 84.0943 44.2058 84.4815 44.0533 85.0915L42.5985 91.1804C42.446 91.7905 42.8332 92.4122 43.4432 92.5648L47.2796 93.4798C47.2796 93.867 47.2796 94.2542 47.2913 94.6296L43.1851 93.6441C42.5985 93.5033 42.1058 93.1396 41.789 92.6234C41.4723 92.1072 41.3784 91.5089 41.5192 90.9223L42.974 84.8334C43.2555 83.6485 44.4874 82.8742 45.6958 83.1675L47.2092 83.5312C47.2092 83.9066 47.2092 84.2938 47.2092 84.6692L45.4259 84.2468H45.4377ZM47.2209 81.6658H38.0935C38.0817 78.7798 38.0348 75.9289 37.9644 73.3831H47.3617C47.2678 75.225 47.2326 78.2636 47.2209 81.6658ZM47.5259 92.7056C47.5377 90.934 47.5611 89.01 47.5611 87.0039L49.4148 87.7195C49.6611 87.8134 49.8019 88.0597 49.7667 88.3178L49.2036 92.7525L50.1774 88.2592C50.2595 87.8837 50.0366 87.4966 49.6611 87.391L47.5611 86.7809C47.5611 86.7223 47.5611 86.6519 47.5611 86.5932L49.9544 87.1681C50.3533 87.262 50.588 87.6608 50.4941 88.048L49.3796 92.6938C49.2857 93.081 48.8868 93.3273 48.4997 93.2335L47.5142 92.9989C47.5142 92.9285 47.5142 92.8581 47.5142 92.7994L48.5466 93.034L47.5259 92.7056ZM48.441 93.5033C48.5231 93.5268 48.5936 93.5268 48.6757 93.5268C49.145 93.5268 49.5556 93.21 49.6611 92.7525L50.7757 88.1066C50.9047 87.567 50.5645 87.0156 50.0248 86.8865L47.5611 86.2999C47.5611 85.9362 47.5611 85.5726 47.5611 85.2089L51.2567 86.4994C51.503 86.5932 51.6438 86.8396 51.6087 87.0977L50.7053 92.9284L52.0075 87.039C52.0897 86.6636 51.8667 86.2765 51.4913 86.1709L47.5494 85.0798V85.0094L51.2919 85.9011C51.8667 86.0418 52.2304 86.6284 52.0897 87.2033L50.717 92.9519C50.5762 93.5385 49.9896 93.8905 49.4148 93.7497L47.5025 93.2922L48.4176 93.515L48.441 93.5033ZM49.5438 94.0078C50.1539 94.1603 50.7757 93.7732 50.9282 93.1631L52.383 87.0742C52.5355 86.4642 52.1483 85.8424 51.5383 85.6899L47.5729 84.7396C47.5729 84.3642 47.5729 83.977 47.5729 83.6016L51.7964 84.6105C53.0048 84.9038 53.7556 86.124 53.4623 87.3323L52.0075 93.4212C51.7612 94.4419 50.8578 95.1575 49.8137 95.1575C49.6377 95.1575 49.4617 95.1341 49.2857 95.0989L47.5025 94.6765C47.5025 94.3011 47.5025 93.9257 47.5142 93.5385L49.5438 94.0195V94.0078ZM54.964 96.3424V81.6658H47.5494C47.5377 78.7798 47.4907 75.9289 47.4204 73.3831H55.5623V97.0581H47.4673C47.4673 96.8234 47.4673 96.5888 47.4673 96.3542H54.9405L54.964 96.3424ZM56.4187 98.9235V101.153H47.9952V101.07L55.8908 100.472L56.4187 79.4485V98.9235Z" fill="#4D4D4D"/>
<path d="M17.3984 1.07933C17.3984 0.481006 16.9174 0 16.3191 0H10.0542C9.45591 0 8.9749 0.481006 8.9749 1.07933V5.26762H17.3984V1.07933ZM10.9107 0.926821C10.6408 0.950285 10.4297 1.18492 10.4297 1.45475L10.3945 4.95086H9.60841V0.844698C9.60841 0.621792 9.78439 0.445809 9.99557 0.445809L16.5185 0.305023L10.9107 0.926821Z" fill="#4D4D4D"/>
<path d="M17.3984 5.53735H8.9749V16.1782H17.3984V5.53735ZM10.3593 15.5564H9.60841V5.87757H10.3593V15.5564Z" fill="#4D4D4D"/>
<path d="M24.3202 53.3333H1.83017V54.2718H24.3202V53.3333Z" fill="#4D4D4D"/>
<path d="M24.3202 86.2764H1.83017V87.2149H24.3202V86.2764Z" fill="#4D4D4D"/>
<path d="M23.4286 69.8049C23.4286 62.6015 18.818 56.7473 13.128 56.7473C7.43801 56.7473 2.82738 62.5898 2.82738 69.8049C2.82738 77.02 7.43801 82.8625 13.128 82.8625C18.818 82.8625 23.4286 77.02 23.4286 69.8049ZM6.20617 78.3223V72.4094H3.7894V67.7401H6.20617V62.0736H19.7096V67.7401H22.1264V72.4094H19.7096V78.3223H6.20617Z" fill="#4D4D4D"/>
<path d="M18.29 63.3406H7.53188V66.7898H18.29V63.3406Z" fill="#4D4D4D"/>
<path d="M21.2817 68.3501H4.58716V71.7993H21.2817V68.3501Z" fill="#4D4D4D"/>
<path d="M18.29 72.8201H7.53188V74.838H18.29V72.8201Z" fill="#4D4D4D"/>
<path d="M17.3515 75.354H8.48216V77.0199H17.3515V75.354Z" fill="#4D4D4D"/>
<path d="M18.1258 36.6151C18.6185 32.4621 18.8649 21.9033 16.9057 16.8704H9.46764C7.52014 21.9033 7.76652 32.4269 8.24753 36.6034C8.57602 39.947 0 40.6157 0 45.6839V97.7618C0 98.8294 0.868154 99.6976 1.93576 99.6976H24.4258C25.4934 99.6976 26.3616 98.8294 26.3616 97.7618V45.6839C26.3616 40.6275 17.8325 39.947 18.114 36.6269L18.1258 36.6151ZM10.3006 18.0436C10.2185 18.5832 9.32686 22.4547 9.32686 27.9101C9.32686 33.3654 9.58495 36.0638 9.73746 37.7766C9.17433 37.7766 8.71679 33.3654 8.71679 27.9101C8.71679 22.4547 9.73748 18.0436 10.3006 18.0436ZM2.54582 44.8509C4.79835 41.4252 6.59332 41.9414 9.08048 39.4895C8.72852 41.2023 5.33801 42.4928 4.05923 45.5783C3.85979 46.0593 3.7894 48.3353 3.7894 51.6789H1.75979C1.88884 48.0303 2.1352 45.4727 2.54582 44.8509ZM1.86537 99.1227C1.14972 98.9702 0.774303 98.2546 0.950281 97.5507C1.47822 98.9702 21.6923 99.1227 21.6923 99.1227H1.86537ZM2.1352 88.916H4.55197C4.58716 91.016 4.61063 92.9635 4.61063 94.6529C4.61063 95.3451 20.2962 95.4037 20.2962 96.0138L3.16761 95.8143C2.7218 95.8143 2.3581 95.4624 2.33464 95.0166C2.29944 93.9255 2.21732 91.7551 2.1352 88.916ZM25.3057 88.3059H4.54024C4.54024 88.3059 4.54024 88.3411 4.54024 88.3528H2.11173C2.11173 88.3528 2.11173 88.3177 2.11173 88.3059H0.950281V52.3359H1.73632C1.73632 52.3359 1.73632 52.2772 1.73632 52.2421H3.7894C3.7894 52.2421 3.7894 52.3007 3.7894 52.3359H25.294V88.3059H25.3057ZM25.6459 47.3264C25.5052 47.3733 25.294 47.1035 25.1649 46.7281C25.0359 46.3526 25.0476 46.0124 25.1884 45.9655C25.3292 45.9185 25.5403 46.1884 25.6694 46.5638C25.7984 46.9392 25.7867 47.2795 25.6459 47.3264ZM25.5873 44.2292C25.7867 44.8392 25.775 45.3906 25.5521 45.4727C25.3292 45.5549 24.9772 45.109 24.7778 44.499C24.5783 43.8889 24.5901 43.3375 24.813 43.2554C25.0359 43.185 25.3878 43.6191 25.5873 44.2292Z" fill="#4D4D4D"/>
</svg>
