<svg width="83.000000" height="98.000000" viewBox="0 0 83 98" fill="none" xmlns="http://www.w3.org/2000/svg" xmlns:xlink="http://www.w3.org/1999/xlink">
	<desc>
			Created with Pixso.
	</desc>
	<defs>
		<clipPath id="clip7_205">
			<rect id="img-1-12" width="83.000000" height="98.000000" fill="white" fill-opacity="0"/>
		</clipPath>
	</defs>
	<g clip-path="url(#clip7_205)">
		<path id="path" d="M2.8 62.29L2.57 62.46L2.57 77.25C2.57 79.78 4.63 81.85 7.17 81.85L22.3 81.85C24.83 81.85 26.91 79.79 26.91 77.25L26.91 62.46L26.68 62.29C26.48 62.13 21.5 58.32 14.74 58.32C7.99 58.32 3.01 62.13 2.8 62.29ZM25.71 77.25C25.71 79.13 24.17 80.65 22.3 80.65L7.17 80.65C5.28 80.65 3.76 79.12 3.76 77.25L3.76 63.07C4.8 62.34 9.19 59.52 14.73 59.52C20.27 59.52 24.67 62.34 25.69 63.07L25.71 77.25Z" fill="#B49571" fill-opacity="1.000000" fill-rule="nonzero"/>
		<path id="path" d="M8.89 68.52C8.89 70.12 9.52 71.56 10.55 72.64C9.44 72.84 8.3 73.11 7.13 73.51L7.13 74.87C5.85 75.21 5.11 75.51 5.11 75.51L6.31 76.59L5.18 78.6C5.18 78.6 6.79 77.9 9.4 77.48L9.37 75.96C13.92 74.9 17.82 75.41 20.11 75.95L20.08 77.48C22.69 77.9 24.31 78.6 24.31 78.6L23.18 76.59L24.38 75.51C24.38 75.51 23.6 75.18 22.28 74.84L22.28 73.51C22.28 73.51 21.11 73.04 19.18 72.68C20.22 71.6 20.86 70.15 20.86 68.53C20.86 65.24 18.19 62.54 14.88 62.54C11.57 62.54 8.89 65.21 8.89 68.52ZM14.88 65.33C17.23 65.33 19.13 67.24 19.13 69.58C19.13 70.7 18.68 71.72 17.97 72.47C16.26 72.25 14.12 72.14 11.74 72.45C11.04 71.69 10.61 70.68 10.61 69.58C10.61 67.23 12.54 65.33 14.88 65.33Z" fill="#B49571" fill-opacity="1.000000" fill-rule="nonzero"/>
		<path id="path" d="M19.79 34.56C20.04 20.27 19.41 12.37 19.08 9.21C18.95 8.04 18.86 7.57 18.86 7.56C19.63 7.48 20.23 6.84 20.23 6.05L20.23 3.71L9.24 3.71L9.24 6.05C9.24 6.83 9.83 7.45 10.57 7.54C10.57 7.56 10.52 7.68 10.52 7.7C10.52 7.76 10.5 7.83 10.49 7.92C10.49 7.97 10.48 8.05 10.46 8.12C10.46 8.22 10.44 8.3 10.42 8.4C10.42 8.5 10.4 8.63 10.38 8.75C10.38 8.86 10.36 8.97 10.34 9.09C10.34 9.13 10.34 9.16 10.34 9.2C9.99 12.37 9.36 20.27 9.63 34.57C4.32 36.7 0.53 42.08 0.53 48.4L0.53 94.63C0.53 96.05 1.62 97.2 2.97 97.2L26.56 97.2C27.9 97.2 28.99 96.06 28.99 94.63L28.99 48.4C28.99 42.04 25.14 36.66 19.79 34.56ZM11.69 9.72C12.2 9.72 12.62 15.14 12.62 21.83C12.62 28.52 12.2 33.94 11.69 33.94C11.18 33.94 10.76 28.52 10.76 21.83C10.76 15.14 11.18 9.72 11.69 9.72ZM2.15 47.7C2.15 47.7 2.54 38.62 10.77 35.89C5.39 38.7 5.08 48.04 5.08 48.04L5.12 56.89L2.16 58.48L2.15 47.7ZM4.68 94.97L2.14 94.97L2.14 83.36C2.14 83.36 2.67 84.19 4.76 84.56C4.76 84.05 4.68 93.85 4.68 93.85L19.29 94.97L4.68 94.97ZM28.49 78.27C28.49 80.9 26.37 83.04 23.73 83.04L5.73 83.04C3.1 83.04 0.97 80.91 0.97 78.27L0.97 61.02C0.97 61.02 6.83 56.45 14.73 56.45C22.63 56.45 28.49 61.02 28.49 61.02L28.49 78.27ZM25.86 42.28C26.02 42.24 26.23 42.51 26.34 42.9C26.45 43.29 26.41 43.64 26.25 43.68C26.09 43.72 25.87 43.45 25.76 43.06C25.65 42.67 25.69 42.32 25.86 42.28ZM25.43 40.56C25.64 41.34 25.56 42.04 25.25 42.13C24.93 42.23 24.5 41.66 24.28 40.88C24.07 40.1 24.15 39.4 24.46 39.31C24.78 39.21 25.21 39.78 25.43 40.56Z" fill="#B49571" fill-opacity="1.000000" fill-rule="nonzero"/>
		<path id="path" d="M20.64 2.69C20.64 1.19 19.43 0 17.95 0L11.47 0C9.98 0 8.78 1.21 8.78 2.69L20.64 2.69Z" fill="#B49571" fill-opacity="1.000000" fill-rule="nonzero"/>
		<path id="path" d="M63.64 48.12L36.51 48.07L36.51 57.27L63.64 57.3L63.64 48.12ZM63.15 56.84L37 56.81L37 48.36L63.15 48.42L63.15 56.84Z" fill="#B49571" fill-opacity="1.000000" fill-rule="nonzero"/>
		<path id="path" d="M36.51 58.16C36.4 67.25 36.07 81.22 34.98 90.17L65.32 90.17C64.2 81.52 63.8 67.39 63.65 58.2L36.51 58.16ZM44.5 89.08L38.07 89.08C39.35 80.25 39.61 67.66 39.59 58.83L44.73 58.83C44.72 68.01 44.92 81.26 44.5 89.08Z" fill="#B49571" fill-opacity="1.000000" fill-rule="nonzero"/>
		<path id="path" d="M74.74 52.09L66.7 52.09C66.74 48.59 66.83 46.44 66.83 46.44L64.81 46.44C64.81 45.15 64.47 42.98 62.29 42.24C60.25 41.54 56.94 43.12 53.32 42.82C49.7 42.52 44.76 40.56 39.65 41.23C35.77 41.74 35.3 44.93 35.3 46.44L33.26 46.44C33.26 46.44 34.41 79.62 30.36 97.37L69.72 97.37C68.7 92.9 68.01 87.45 67.55 81.8L74.74 81.8C78.75 81.8 82.02 78.74 82.02 74.99L82.02 58.91C82.02 55.16 78.75 52.09 74.74 52.09ZM39.84 43.02C43.79 42.5 47.63 44.03 50.42 44.26C53.22 44.49 55.78 43.26 57.37 43.82C59.04 44.38 59.3 45.66 59.3 46.45L36.49 46.45C36.49 45.5 36.81 43.43 39.84 43.02ZM33.65 91.8C35.53 76.38 35.36 47.23 35.36 47.23L64.73 47.45C64.73 50.05 64.79 77.57 66.64 91.8L33.65 91.8ZM78.54 74.99C78.54 76.83 76.84 78.33 74.74 78.33L67.3 78.33C66.76 70.03 66.65 61.66 66.68 55.56L74.74 55.56C76.84 55.56 78.54 57.06 78.54 58.9L78.54 74.99ZM78.73 75.53L78.73 58.41L79.31 75.29L78.73 75.53ZM81.28 75.53C81.28 75.53 81.21 59.07 80.59 57.88C79.66 54.88 78.34 54.28 76.75 53.57C75.17 52.86 66.87 52.52 66.87 52.52C66.87 52.52 76.08 52.52 77.09 53.01C80.63 54.55 81.33 58.02 81.33 58.02C81.33 58.02 81.75 60.45 81.28 75.53Z" fill="#B49571" fill-opacity="1.000000" fill-rule="nonzero"/>
	</g>
</svg>
