<svg width="73.000000" height="71.000000" viewBox="0 0 73 71" fill="none" xmlns="http://www.w3.org/2000/svg" xmlns:xlink="http://www.w3.org/1999/xlink">
	<desc>
			Created with Pixso.
	</desc>
	<defs>
		<clipPath id="clip7_213">
			<rect id="img-1-13" width="73.000000" height="71.000000" fill="white" fill-opacity="0"/>
		</clipPath>
	</defs>
	<g clip-path="url(#clip7_213)">
		<mask id="mask7_216" mask-type="alpha" maskUnits="userSpaceOnUse" x="0.000000" y="0.000000" width="73.000000" height="71.000000">
			<rect id="rect" width="73.000000" height="71.000000" fill="#000000" fill-opacity="1.000000"/>
		</mask>
		<g mask="url(#mask7_216)">
			<path id="path" d="M13.56 55.53L3.37 55.53C3.37 55.53 4.28 65.91 4.28 65.92C4.45 67.88 5.39 69.59 7.32 70.28C9.13 70.93 11.16 71 13.08 70.99C15 71 17.03 70.93 18.84 70.28C20.77 69.59 21.71 67.87 21.88 65.92C21.88 65.91 22.79 55.53 22.79 55.53L13.56 55.53Z" fill="#FFFFFF" fill-opacity="1.000000" fill-rule="nonzero"/>
			<path id="path" d="M13.73 49.2L0 49.2C0 49.2 1.22 63.2 1.22 63.2C1.45 65.84 2.71 68.16 5.32 69.09C7.76 69.96 10.49 70.06 13.08 70.04C15.67 70.06 18.4 69.96 20.85 69.09C23.45 68.16 24.71 65.84 24.94 63.2C24.94 63.2 26.17 49.2 26.17 49.2L13.73 49.2Z" fill="#B49571" fill-opacity="1.000000" fill-rule="nonzero"/>
			<g style="mix-blend-mode:multiply">
				<path id="path" d="M0 49.2C0 49.2 0 49.31 0.02 49.51C0.28 49.72 0.55 49.91 0.84 50.08C1.42 50.42 2.04 50.69 2.67 50.93C4.44 51.61 6.28 52.09 8.14 52.41C9.1 52.57 10.07 52.69 11.05 52.76C11.77 52.82 12.49 52.82 13.22 52.8C13.98 52.78 14.75 52.74 15.52 52.76C16.23 52.79 20.46 52.43 20.82 52.97C21.19 53.52 20.35 63.63 20.09 65.28C19.97 66.05 19.77 66.84 19.39 67.53C19.02 68.22 18.47 68.78 17.82 69.2C17.35 69.5 16.85 69.75 16.33 69.96C17.88 69.84 19.41 69.6 20.84 69.09C23.45 68.16 24.71 65.84 24.94 63.2C24.94 63.2 26.17 49.2 26.17 49.2L0 49.2Z" fill="#B49571" fill-opacity="1.000000" fill-rule="nonzero"/>
			</g>
			<g style="mix-blend-mode:screen">
				<path id="path" d="M0.92 51.19L2.36 63.91C2.36 63.91 3.09 67.76 6.2 68.58C6.2 68.58 4.94 66.35 4.76 62.07C4.57 57.79 4.28 52.32 4.28 52.32L0.92 51.19Z" fill="#FFF7ED" fill-opacity="1.000000" fill-rule="nonzero"/>
			</g>
			<path id="path" d="M13.08 50.34C20.31 50.34 26.16 49.83 26.16 49.2C26.16 48.57 20.31 48.07 13.08 48.07C5.85 48.07 0 48.57 0 49.2C0 49.83 5.85 50.34 13.08 50.34Z" fill="#B49571" fill-opacity="1.000000" fill-rule="nonzero"/>
			<path id="path" d="M71.57 41.77C70.32 35.94 68.22 30.35 65.44 25.08C63.88 22.12 61.65 19.19 60.68 15.97C59.06 10.62 61.22 6.53 62.99 4.24C64.76 1.94 64.45 0.97 64.45 0.97L42.06 0.97C42.06 0.97 41.75 1.94 43.52 4.24C45.29 6.53 47.45 10.62 45.83 15.97C44.86 19.19 42.64 22.12 41.08 25.08C38.29 30.35 36.19 35.94 34.94 41.77C34.02 46.09 33.5 50.5 33.52 54.92C33.53 58.52 33.44 63.37 35.2 66.63C36.31 68.69 39.87 70.18 46.35 70.74C46.59 70.76 46.83 70.79 47.06 70.8C48.9 70.94 50.96 71.01 53.25 71C55.55 71.01 57.61 70.94 59.45 70.8C59.68 70.79 59.92 70.78 60.16 70.76C66.64 70.19 70.2 68.69 71.31 66.63C73.07 63.37 72.97 58.52 72.99 54.92C73.01 50.5 72.49 46.09 71.57 41.77Z" fill="#B49571" fill-opacity="1.000000" fill-rule="nonzero"/>
			<g style="mix-blend-mode:multiply">
				<path id="path" d="M38.38 58.27C38.18 53.15 38.13 48.01 38.5 42.9C38.68 40.41 38.96 37.92 39.39 35.45C39.75 33.33 40.18 31.23 41.01 29.23C42.46 25.69 44.67 22.5 46 18.91C46.63 17.22 47.04 15.42 46.92 13.6C46.86 12.67 46.65 11.76 46.34 10.9C46.5 12.42 46.4 14.12 45.84 15.97C44.86 19.19 42.64 22.12 41.08 25.08C38.29 30.35 36.2 35.94 34.95 41.77C34.02 46.09 33.5 50.5 33.52 54.92C33.54 58.52 33.44 63.37 35.2 66.63C35.77 67.69 37 68.59 38.92 69.3C38.74 65.63 38.52 61.95 38.38 58.27Z" fill="#B49571" fill-opacity="1.000000" fill-rule="nonzero"/>
			</g>
			<g style="mix-blend-mode:multiply">
				<path id="path" d="M71.57 41.77C70.32 35.94 68.22 30.35 65.44 25.08C63.88 22.12 61.65 19.19 60.68 15.97C59.06 10.62 61.22 6.53 62.99 4.24C64.76 1.94 64.45 0.97 64.45 0.97L42.54 0.97C43.88 1.51 45.28 1.88 46.69 2.21C47.44 2.39 48.18 2.56 48.94 2.64C49.65 2.71 50.36 2.73 51.08 2.75C52.48 2.79 53.93 2.8 55.29 3.17C56.05 3.37 56.69 3.65 56.99 4.41C57.3 5.19 57.23 6.1 57.13 6.91C57 7.96 56.75 8.99 56.48 10.01C56.23 10.99 55.94 11.96 55.7 12.95C55.42 14.15 55.43 15.35 55.57 16.58C55.97 19.93 57.38 23.05 58.59 26.17C59.87 29.43 60.7 32.86 61.25 36.31C61.8 39.72 62.07 43.16 62.24 46.6C62.42 50.29 62.53 53.98 62.63 57.66C62.74 61.92 62.83 66.17 62.93 70.42C67.67 69.7 70.37 68.37 71.31 66.63C73.08 63.37 72.98 58.51 72.99 54.91C73.01 50.5 72.49 46.09 71.57 41.77Z" fill="#B49571" fill-opacity="1.000000" fill-rule="nonzero"/>
			</g>
			<path id="path" d="M64.48 0.97C64.48 1.51 59.46 1.94 53.27 1.94C47.08 1.94 42.06 1.51 42.06 0.97C42.06 0.43 47.08 0 53.27 0C59.46 0 64.48 0.43 64.48 0.97Z" fill="#B49571" fill-opacity="1.000000" fill-rule="nonzero"/>
			<g style="mix-blend-mode:screen">
				<path id="path" d="M44.52 42.19C43.55 42.06 42.56 41.98 41.58 41.92C40.93 41.88 40.27 41.84 39.62 41.79C39.59 42.18 39.55 42.56 39.53 42.95C38.98 53.32 39.66 68.35 39.66 68.35C39.66 68.35 42.25 69.73 45.26 69.84L44.49 43.48C44.49 43.48 44.5 43 44.52 42.19Z" fill="#FFF7ED" fill-opacity="1.000000" fill-rule="nonzero"/>
			</g>
			<g style="mix-blend-mode:screen">
				<path id="path" d="M49.3 13.56L48.26 13.56C48.26 13.56 48.03 19.17 46.42 22.16C46.42 22.16 41.41 30.4 39.91 39.53C40.16 39.56 40.42 39.59 40.67 39.61C41.77 39.71 42.88 39.7 43.98 39.69C44.2 39.69 44.42 39.69 44.64 39.68C44.92 35.3 45.71 28.19 47.92 24.11C51.27 17.92 49.3 13.56 49.3 13.56Z" fill="#FFF7ED" fill-opacity="1.000000" fill-rule="nonzero"/>
			</g>
			<g style="mix-blend-mode:multiply">
				<path id="path" d="M65.44 25.08C63.88 22.12 61.65 19.19 60.68 15.97C60.03 13.81 59.99 11.86 60.29 10.15C58.93 11.04 57.37 11.66 55.76 11.89C54.71 12.04 53.65 12.04 52.61 11.92C51.69 11.82 50.78 11.69 49.9 11.41C49.19 11.17 48.51 10.85 47.89 10.42C47.31 10.03 46.79 9.55 46.32 9.04C46.14 8.85 45.97 8.66 45.8 8.46C46.48 10.54 46.71 13.06 45.84 15.96C44.86 19.19 42.64 22.11 41.08 25.07C40.72 25.75 40.38 26.43 40.04 27.12C40.74 26.38 41.51 25.71 42.36 25.15C45.64 22.99 49.82 22.9 53.61 23.2C56.69 23.44 59.76 24.19 62.45 25.73C64.76 27.05 66.68 28.91 68.23 31.04C67.4 29.01 66.47 27.03 65.44 25.08Z" fill="#B49571" fill-opacity="1.000000" fill-rule="nonzero"/>
			</g>
		</g>
	</g>
</svg>
