<svg width="71.000000" height="101.000000" viewBox="0 0 71 101" fill="none" xmlns="http://www.w3.org/2000/svg" xmlns:xlink="http://www.w3.org/1999/xlink">
	<desc>
			Created with Pixso.
	</desc>
	<defs>
		<clipPath id="clip7_1">
			<rect id="img-1-2" width="71.000000" height="101.000000" fill="white" fill-opacity="0"/>
		</clipPath>
	</defs>
	<g clip-path="url(#clip7_1)">
		<path id="path" d="M61.13 59.38C61.52 60.59 60.99 61.95 59.81 62.54C59.44 62.73 59.04 62.83 58.62 62.83C58.16 62.83 57.71 62.71 57.31 62.48C57.73 63.95 57.29 65.37 56.18 65.93C55.33 66.36 54.22 66.16 53.34 65.42L51.32 67.11C51.21 67.19 51.08 67.24 50.96 67.24C50.81 67.24 50.64 67.17 50.53 67.04C50.33 66.8 50.36 66.46 50.59 66.25L52.56 64.53C52.46 64.39 52.38 64.24 52.29 64.09C51.9 63.31 51.75 62.45 51.88 61.68C52.02 60.84 52.46 60.19 53.11 59.86C53.98 59.42 55.11 59.65 55.98 60.39C55.96 60.06 55.99 59.71 56.11 59.38L35.45 59.38L49.81 72.06C50.05 72.23 50.39 72.23 50.63 72.06L64.87 59.38L61.13 59.38ZM39.62 59.93L43.72 59.96L49.88 71.49L39.62 59.93Z" fill="#B49571" fill-opacity="1.000000" fill-rule="nonzero"/>
		<path id="path" d="M50.93 73.18L70.28 56.34L63.33 56.34L64.88 55.05L64.59 54.72L62.75 56.34L30.03 56.34L49.38 73.18L49.4 98.8C46.54 99.76 38.89 100.32 38.89 100.32L38.89 100.5L61.42 100.5L61.42 100.32C61.42 100.32 53.84 99.76 50.94 98.81L50.93 73.18ZM50 99.43C50 99.43 47.85 99.55 46.92 99.58C49.8 99.16 49.65 98.87 49.65 98.87L49.65 73.36L50.11 73.36L50 99.43ZM49.8 72.75L31.69 56.8L62.23 56.8L60.06 58.7C59.44 58.11 58.5 57.94 57.69 58.35C56.67 58.87 56.25 60.12 56.77 61.14C56.81 61.25 56.89 61.34 56.96 61.43L56.46 61.85C55.73 60.52 54.38 59.86 53.38 60.36C52.35 60.88 52.09 62.43 52.79 63.83C52.94 64.11 53.13 64.38 53.32 64.6L50.95 66.67L53.32 64.6C54.07 65.42 55.14 65.81 55.93 65.42C56.94 64.91 57.21 63.39 56.54 62.01L57.08 61.57C57.68 62.26 58.7 62.48 59.56 62.04C60.58 61.52 61 60.27 60.49 59.25C60.43 59.12 60.35 59.01 60.26 58.9L62.78 56.8L68.6 56.8L50.65 72.75C50.41 72.96 50.05 72.96 49.8 72.75ZM60.3 61.3C59.68 62.22 58.43 62.48 57.5 61.87C57.35 61.77 57.19 61.69 57.08 61.57C57.03 61.52 56.99 61.47 56.96 61.43C56.48 60.77 56.47 59.81 56.94 59.08C56.89 60.2 57.25 60.78 57.61 61.1C57.8 61.28 58 61.39 58.12 61.47C58.5 61.69 59.26 61.72 60.3 61.3ZM53.35 63.94C53.44 64.09 53.52 64.22 53.6 64.35C54.27 65.29 55.16 65.35 55.87 65.32C55.11 65.7 54.15 65.37 53.44 64.6C53.42 64.58 53.33 64.63 53.32 64.6C53.13 64.39 52.94 64.11 52.79 63.83C52.12 62.48 52.45 60.96 53.44 60.47C52.59 61.59 52.67 62.59 53.35 63.94ZM56.56 99.91C55.87 99.94 50.51 99.49 50.51 99.49L50.34 73.36L50.57 73.36L50.75 98.91C50.75 98.91 52.1 99.53 56.56 99.91Z" fill="#B49571" fill-opacity="1.000000" fill-rule="nonzero"/>
		<path id="path" d="M20.04 50.17L14.5 46.96L8.94 50.17L8.94 51.49L20.04 51.49L20.04 50.17Z" fill="#B49571" fill-opacity="1.000000" fill-rule="nonzero"/>
		<path id="path" d="M19.95 57.49L19.95 56.17L8.86 56.17L8.86 57.49L14.4 60.7L19.95 57.49Z" fill="#B49571" fill-opacity="1.000000" fill-rule="nonzero"/>
		<path id="path" d="M4.3 55.68L6.23 55.68L4.9 77.33C4.81 78.59 5.24 79.78 6.09 80.68C6.91 81.56 8.04 82.04 9.26 82.04L19.63 82.04C20.86 82.04 21.98 81.55 22.81 80.68C23.65 79.78 24.07 78.59 24 77.33L22.67 55.68L24.52 55.68L24.52 51.92L4.31 51.92L4.3 55.68ZM23.71 77.35C23.78 78.54 23.39 79.65 22.61 80.49C21.83 81.31 20.79 81.76 19.65 81.76L9.27 81.76C8.13 81.76 7.07 81.31 6.31 80.49C5.53 79.65 5.12 78.53 5.21 77.35L6.54 55.68L7.6 55.68L6.48 73.52C6.41 74.59 6.78 75.6 7.49 76.36C8.19 77.11 9.14 77.52 10.19 77.52L18.74 77.52C19.78 77.52 20.74 77.1 21.44 76.36C22.16 75.6 22.51 74.59 22.45 73.52L21.33 55.68L22.39 55.68L23.71 77.35ZM7.8 55.68L21.08 55.68L20.86 55.68L21.98 73.56C22.04 74.51 21.72 75.4 21.08 76.07C20.47 76.72 19.63 77.08 18.72 77.08L10.17 77.08C9.25 77.08 8.42 76.72 7.8 76.07C7.17 75.4 6.85 74.51 6.91 73.56L8.03 55.69L7.8 55.68ZM4.9 52.33L23.99 52.33L23.99 55.23L4.9 55.23L4.9 52.33Z" fill="#B49571" fill-opacity="1.000000" fill-rule="nonzero"/>
		<path id="path" d="M20.5 66.49L8.42 66.49L8.42 68.51L20.5 68.51L20.5 66.49Z" fill="#B49571" fill-opacity="1.000000" fill-rule="nonzero"/>
		<path id="path" d="M19.72 69.32L9.19 69.32L9.19 71.08L19.72 71.08L19.72 69.32Z" fill="#B49571" fill-opacity="1.000000" fill-rule="nonzero"/>
		<path id="path" d="M10.2 65.77L18.43 65.77C18.43 63.5 16.59 61.65 14.32 61.65C12.05 61.65 10.2 63.5 10.2 65.77Z" fill="#B49571" fill-opacity="1.000000" fill-rule="nonzero"/>
		<path id="path" d="M18.3 0.98C18.3 0.44 17.86 0 17.31 0L11.57 0C11.02 0 10.58 0.44 10.58 0.98L10.58 4.82L18.31 4.82L18.3 0.98ZM12.07 0.85C11.82 0.88 11.63 1.09 11.63 1.34L11.59 4.55L11.07 4.55L11.07 0.78C11.07 0.58 11.23 0.41 11.43 0.41L17.41 0.28L12.07 0.85Z" fill="#B49571" fill-opacity="1.000000" fill-rule="nonzero"/>
		<path id="path" d="M18.3 5.07L10.57 5.07L10.57 17.15L18.3 17.15L18.3 5.07ZM12.14 16.57L11.07 16.57L11.07 5.38L12.14 5.38L12.14 16.57Z" fill="#B49571" fill-opacity="1.000000" fill-rule="nonzero"/>
		<path id="path" d="M27.9 43.28C27.9 35.09 19.8 30.31 18.1 17.89L10.77 17.89C9.01 30.19 0.97 35.13 0.97 43.28C0.97 52.41 5.16 65.49 0.07 97.68C0.07 97.68 -0.56 100.82 1.86 100.82L27 100.82C29.43 100.82 28.79 97.68 28.79 97.68C23.7 65.49 27.9 52.4 27.9 43.28ZM24.65 36.02C24.87 35.93 25.26 36.33 25.52 36.92C25.78 37.52 25.82 38.08 25.6 38.17C25.39 38.27 25 37.86 24.74 37.27C24.47 36.68 24.44 36.12 24.65 36.02ZM25.88 56.92L23.7 56.92L24.97 77.27C25.07 78.78 24.53 80.28 23.52 81.36C22.51 82.44 21.13 83.04 19.63 83.04L9.26 83.04C7.76 83.04 6.38 82.44 5.37 81.37C5.23 81.22 5.12 81.05 5 80.88C4.34 85.82 3.55 91.05 2.99 94.49C2.84 96.04 2.59 97.48 10.05 97.96C11.34 98.01 13.1 98.17 14.45 98.2C16.97 98.2 19.72 98.45 23.49 98.21C23.74 98.61 19.1 98.65 14.12 98.55C12.59 98.55 11.26 98.5 10.12 98.43C7.92 98.34 5.88 98.24 4.46 98.12C3.24 98.02 2.36 96.95 2.51 95.75C2.91 92.4 3.68 85.74 4.31 79.66C4.02 78.91 3.87 78.1 3.92 77.28L4.87 62.03C4.73 60.46 4.55 58.73 4.39 56.93L2.97 56.93L2.97 50.67L3.8 50.67C3.38 45.62 3.13 41.02 3.58 39.23C4.61 35.09 11.27 25.73 11.8 18.32C13.52 24.78 6.31 32.3 4.75 39.87C4.18 42.67 4.26 46.58 4.56 50.67L7.82 50.67L7.82 49.96L14.5 46.11L21.17 49.96L21.17 50.67L25.88 50.67L25.88 56.92ZM25.87 40.05C25.74 40.11 25.5 39.86 25.33 39.49C25.16 39.13 25.15 38.78 25.28 38.72C25.41 38.66 25.65 38.91 25.82 39.28C25.99 39.65 26 39.99 25.87 40.05Z" fill="#B49571" fill-opacity="1.000000" fill-rule="nonzero"/>
	</g>
</svg>
