<svg width="27.000000" height="107.000000" viewBox="0 0 27 107" fill="none" xmlns="http://www.w3.org/2000/svg" xmlns:xlink="http://www.w3.org/1999/xlink">
	<desc>
			Created with Pixso.
	</desc>
	<defs>
		<clipPath id="clip7_38">
			<rect id="img-1-4" width="27.000000" height="107.000000" fill="white" fill-opacity="0"/>
		</clipPath>
	</defs>
	<g clip-path="url(#clip7_38)">
		<mask id="mask7_41" mask-type="alpha" maskUnits="userSpaceOnUse" x="0.000000" y="0.000000" width="27.000000" height="107.000000">
			<rect id="rect" width="27.000000" height="107.000000" fill="#000000" fill-opacity="1.000000"/>
		</mask>
		<g mask="url(#mask7_41)">
			<path id="path" d="M17.89 6.47L17.89 9.27L9.1 9.27L9.1 6.48L17.89 6.47Z" fill="#B2B2B2" fill-opacity="1.000000" fill-rule="nonzero"/>
			<path id="path" d="M27 48.54L27 103.99C27 105.65 25.67 107 24.01 107L2.98 107C1.32 107 0 105.65 0 103.99L0 48.54C0 44.17 1.3 39.9 3.76 36.29L5.18 34.21L5.45 33.81C5.57 33.62 5.7 33.44 5.81 33.24C6.62 31.97 7.23 30.6 7.67 29.16C7.78 28.78 7.89 28.4 7.98 28.01C8.28 26.75 8.43 25.46 8.43 24.15L8.43 8.55L18.56 8.55L18.56 24.15C18.56 25.46 18.71 26.75 19.01 28.01C19.1 28.4 19.21 28.78 19.32 29.16C19.74 30.58 20.37 31.95 21.19 33.23C21.29 33.43 21.42 33.62 21.54 33.81L21.81 34.21L23.23 36.29C25.69 39.9 27 44.17 27 48.54Z" fill="#B49571" fill-opacity="1.000000" fill-rule="nonzero"/>
			<path id="path" d="M6.02 35.02L4.7 36.95C2.37 40.38 1.13 44.39 1.13 48.54L1.13 103.99C1.13 105.02 1.95 105.84 2.97 105.84C6.47 104 9.97 103.15 13.49 103.18C17.01 103.15 20.51 104 24.01 105.84C25.02 105.84 25.85 105.02 25.85 103.99L25.85 48.54C25.85 44.39 24.61 40.38 22.28 36.95L20.96 35.02L6.02 35.02Z" fill="#FFF7ED" fill-opacity="1.000000" fill-rule="nonzero"/>
			<path id="path" d="M18.56 7.41L8.43 7.41C7.88 4.97 7.88 2.44 8.43 0L18.56 0C19.1 2.44 19.1 4.97 18.56 7.41Z" fill="#FFF7ED" fill-opacity="1.000000" fill-rule="nonzero"/>
			<path id="path" d="M0.5 90.56L0.5 55.85L26.5 55.85L26.5 90.56L0.5 90.56Z" fill="#FFF7ED" fill-opacity="1.000000" fill-rule="nonzero"/>
			<path id="path" d="M0.5 55.85L26.5 55.85L26.5 90.56L0.5 90.56L0.5 55.85Z" stroke="#B49571" stroke-opacity="1.000000" stroke-width="1.000000"/>
			<path id="path" d="M25.85 60.86L1.14 60.86L1.14 85.55L25.85 85.55L25.85 60.86Z" fill="#F6F6F6" fill-opacity="1.000000" fill-rule="nonzero"/>
			<path id="path" d="M27 56.76L0 56.76L0 60.86L27 60.86L27 56.76Z" fill="#B49571" fill-opacity="1.000000" fill-rule="nonzero"/>
			<path id="path" d="M27 85.26L0 85.26L0 89.36L27 89.36L27 85.26Z" fill="#B49571" fill-opacity="1.000000" fill-rule="nonzero"/>
			<path id="path" d="M23.48 62.88L3.52 62.88L3.52 63.74L23.48 63.74L23.48 62.88Z" fill="#B2B2B2" fill-opacity="1.000000" fill-rule="nonzero"/>
			<path id="path" d="M23.48 61.73L3.52 61.73L3.52 62.08L23.48 62.08L23.48 61.73Z" fill="#B2B2B2" fill-opacity="1.000000" fill-rule="nonzero"/>
			<path id="path" d="M23.48 82.82L3.52 82.82L3.52 83.17L23.48 83.17L23.48 82.82Z" fill="#B2B2B2" fill-opacity="1.000000" fill-rule="nonzero"/>
			<path id="path" d="M23.48 83.97L3.52 83.97L3.52 84.33L23.48 84.33L23.48 83.97Z" fill="#B2B2B2" fill-opacity="1.000000" fill-rule="nonzero"/>
			<path id="path" d="M8.46 82.16C9.24 82.16 9.88 81.52 9.88 80.73C9.88 79.95 9.24 79.31 8.46 79.31C7.68 79.31 7.04 79.95 7.04 80.73C7.04 81.52 7.68 82.16 8.46 82.16Z" fill="#FFF7ED" fill-opacity="1.000000" fill-rule="nonzero"/>
			<path id="path" d="M18.53 82.16C19.31 82.16 19.95 81.52 19.95 80.73C19.95 79.95 19.31 79.31 18.53 79.31C17.75 79.31 17.11 79.95 17.11 80.73C17.11 81.52 17.75 82.16 18.53 82.16Z" fill="#FFF7ED" fill-opacity="1.000000" fill-rule="nonzero"/>
			<path id="path" d="M13.21 80.73C13.21 81.52 12.58 82.16 11.79 82.16C11 82.16 10.37 81.53 10.37 80.73C10.37 79.94 11 79.31 11.79 79.31C12.58 79.31 13.21 79.94 13.21 80.73Z" fill="#FFF7ED" fill-opacity="1.000000" fill-rule="nonzero"/>
			<path id="path" d="M15.2 82.16C15.98 82.16 16.62 81.52 16.62 80.73C16.62 79.95 15.98 79.31 15.2 79.31C14.41 79.31 13.78 79.95 13.78 80.73C13.78 81.52 14.41 82.16 15.2 82.16Z" fill="#FFF7ED" fill-opacity="1.000000" fill-rule="nonzero"/>
			<path id="path" d="M8.88 76.62L3.95 76.62L5.31 74.92L3.95 73.21L8.88 73.21L8.88 76.62Z" fill="#B49571" fill-opacity="1.000000" fill-rule="nonzero"/>
			<path id="path" d="M18.09 76.62L23.04 76.62L21.68 74.92L23.04 73.21L18.09 73.21L18.09 76.62Z" fill="#B49571" fill-opacity="1.000000" fill-rule="nonzero"/>
			<path id="path" d="M20.47 74.76L6.52 74.76L6.52 78.07L20.47 78.07L20.47 74.76Z" fill="#FFF7ED" fill-opacity="1.000000" fill-rule="nonzero"/>
			<path id="path" d="M13.48 74.07C10.97 74.02 8.94 71.94 8.94 69.42C8.94 66.9 10.98 64.81 13.48 64.77C15.99 64.81 18.04 66.9 18.04 69.42C18.04 71.94 15.98 74.02 13.48 74.07ZM13.49 65.92C11.62 65.95 10.09 67.53 10.09 69.42C10.09 71.31 11.61 72.87 13.49 72.92C15.37 72.87 16.89 71.31 16.89 69.42C16.89 67.53 15.35 65.95 13.49 65.92Z" fill="#B49571" fill-opacity="1.000000" fill-rule="nonzero"/>
			<path id="path" d="M21.81 34.21C16.26 37.01 10.73 37.01 5.18 34.21L5.45 33.81C5.57 33.62 5.7 33.44 5.81 33.24C6.62 31.97 7.23 30.6 7.67 29.16C7.78 28.78 7.89 28.4 7.98 28.01L19.01 28.01C19.1 28.4 19.21 28.78 19.32 29.16C19.74 30.58 20.37 31.95 21.19 33.23C21.29 33.43 21.42 33.62 21.54 33.81L21.81 34.21Z" fill="#FFF7ED" fill-opacity="1.000000" fill-rule="nonzero"/>
			<path id="path" d="M21.19 33.23C18.61 34.51 16.03 35.16 13.49 35.16C10.95 35.16 8.37 34.51 5.81 33.24C6.62 31.97 7.23 30.6 7.67 29.16L19.32 29.16C19.74 30.58 20.37 31.95 21.19 33.23Z" fill="#B49571" fill-opacity="1.000000" fill-rule="nonzero"/>
			<path id="path" d="M15.76 32.05C15.76 33.3 14.75 34.31 13.5 34.31C12.25 34.31 11.24 33.3 11.24 32.05C11.24 30.79 12.25 29.78 13.5 29.78C14.75 29.78 15.76 30.79 15.76 32.05Z" fill="#FFF7ED" fill-opacity="1.000000" fill-rule="nonzero"/>
			<path id="path" d="M17.89 6.91L17.39 6.91L17.39 7.41L17.39 8.55L17.39 9.05L17.89 9.05L18.06 9.05L18.06 18.07L8.93 18.07L8.93 9.05L9.1 9.05L9.6 9.05L9.6 8.55L9.6 7.41L9.6 6.91L9.1 6.91L8.83 6.91C8.41 4.79 8.41 2.61 8.83 0.5L18.16 0.5C18.57 2.61 18.57 4.79 18.16 6.91L17.89 6.91Z" fill="#FFF7ED" fill-opacity="1.000000" fill-rule="nonzero"/>
			<path id="path" d="M17.39 6.91L17.39 7.41L17.39 8.55L17.39 9.05L17.89 9.05L18.06 9.05L18.06 18.07L8.93 18.07L8.93 9.05L9.1 9.05L9.6 9.05L9.6 8.55L9.6 7.41L9.6 6.91L9.1 6.91L8.83 6.91C8.41 4.79 8.41 2.61 8.83 0.5L18.16 0.5C18.57 2.61 18.57 4.79 18.16 6.91L17.89 6.91L17.39 6.91Z" stroke="#B49571" stroke-opacity="1.000000" stroke-width="1.000000"/>
			<path id="path" d="M17.89 7.41L9.1 7.41L9.1 8.55L17.89 8.55L17.89 7.41Z" fill="#FFF7ED" fill-opacity="1.000000" fill-rule="nonzero"/>
			<g opacity="0.400000">
				<path id="path" d="M11.86 19.14C12.05 19.14 12.23 20.32 12.39 22.46C12.56 24.51 12.79 27.91 11.42 31.66C11.26 32.13 11.08 32.61 10.91 33.11C10.68 33.58 10.44 34.05 10.2 34.53C9.74 35.52 9.11 36.5 8.52 37.42C8.21 37.9 7.9 38.38 7.58 38.86C7.31 39.33 7.05 39.82 6.78 40.31L6.36 41.05C6.24 41.3 6.16 41.58 6.05 41.84C5.85 42.39 5.65 42.93 5.45 43.47C4.84 45.78 4.67 48.1 4.76 50.93C4.76 53.67 4.78 56.51 4.78 59.42C4.78 71.06 4.63 81.61 4.39 89.24C4.15 96.88 3.81 101.6 3.44 101.6C3.08 101.6 2.73 96.88 2.49 89.24C2.25 81.61 2.1 71.06 2.1 59.42C2.1 56.51 2.13 53.67 2.13 50.93C2.13 50.24 2.13 49.56 2.14 48.89C2.14 48.22 2.24 47.47 2.29 46.78L2.38 45.74C2.42 45.39 2.53 45.06 2.6 44.72C2.76 44.05 2.9 43.39 3.09 42.73C3.34 42.11 3.59 41.49 3.84 40.88C3.98 40.58 4.07 40.27 4.23 39.98C4.39 39.7 4.57 39.43 4.73 39.15C5.06 38.61 5.38 38.08 5.7 37.55C6.03 37.08 6.36 36.62 6.68 36.17C7.35 35.24 7.93 34.42 8.39 33.54C8.64 33.12 8.88 32.69 9.11 32.28C9.3 31.84 9.47 31.41 9.64 30.99C9.81 30.56 10 30.16 10.14 29.76C10.27 29.34 10.4 28.94 10.51 28.54C10.67 27.73 10.88 26.97 10.99 26.26C11.07 25.53 11.15 24.85 11.22 24.23C11.27 23.58 11.3 23 11.35 22.46C11.51 20.33 11.67 19.14 11.86 19.14Z" fill="#FFF7ED" fill-opacity="1.000000" fill-rule="nonzero"/>
			</g>
		</g>
	</g>
</svg>
