<svg width="55.000000" height="88.000000" viewBox="0 0 55 88" fill="none" xmlns="http://www.w3.org/2000/svg" xmlns:xlink="http://www.w3.org/1999/xlink">
	<desc>
			Created with Pixso.
	</desc>
	<defs>
		<clipPath id="clip7_155">
			<rect id="img-1-8" width="55.000000" height="88.000000" fill="white" fill-opacity="0"/>
		</clipPath>
	</defs>
	<g clip-path="url(#clip7_155)">
		<path id="path" d="M32.91 29.91C33.66 26.21 32.37 13.66 32.37 13.66L23.04 13.66C23.04 13.66 21.75 26.21 22.49 29.91C23.47 30.06 6.6 34.22 4.82 36.41C3.25 38.32 1.77 75.88 0.86 85.37C0.74 86.53 1.66 87.53 2.83 87.53L52.58 87.53C53.74 87.53 54.66 86.53 54.55 85.37C53.64 75.88 52.15 38.31 50.59 36.41C48.8 34.22 31.93 30.06 32.91 29.91ZM31.51 40.97L42.42 40.97L42.42 79.47L31.51 79.47C30.17 80.11 28.76 80.47 27.28 80.47C25.81 80.47 24.39 80.11 23.06 79.47L12.15 79.47L12.15 40.97L23.06 40.97C24.39 40.32 25.81 39.97 27.28 39.97C28.76 39.97 30.17 40.32 31.51 40.97ZM24.35 16.52C24.55 16.84 24.07 19.96 24.07 24.21C24.07 28.46 24.24 30.98 24.35 31.9C23.69 31.44 23.4 28.46 23.4 24.21C23.4 19.96 23.62 17.32 24.35 16.52ZM7.85 38.06C9.51 36.08 23.4 32.59 23.4 32.59C23.4 32.59 12.88 35.54 9.25 38.59C5.81 42.95 4.86 80.78 6.38 82.27C7.9 83.77 31.66 84.3 31.66 84.3C31.66 84.3 5.75 84.55 4.67 83.53C3.59 82.5 6.2 40.04 7.85 38.06ZM30.95 86.96L3.08 86.96C1.76 86.96 1.36 85.18 1.89 84.98C2.02 86.44 18.18 86.86 30.95 86.96L46.23 86.96C46.23 86.96 39.32 87.03 30.95 86.96ZM47.48 41.56C47.27 41.6 47.02 41.24 46.93 40.77C46.84 40.3 46.93 39.89 47.14 39.84C47.34 39.79 47.6 40.15 47.69 40.62C47.78 41.09 47.69 41.52 47.48 41.56ZM47.92 39.37C47.62 39.43 47.26 38.93 47.12 38.25C46.99 37.57 47.12 36.97 47.42 36.92C47.72 36.86 48.08 37.35 48.22 38.03C48.36 38.71 48.22 39.31 47.92 39.37Z" fill="#B49571" fill-opacity="1.000000" fill-rule="nonzero"/>
		<path id="path" d="M32.91 1.05C32.91 0.47 32.31 0 31.58 0L23.83 0C23.09 0 22.49 0.47 22.49 1.05L22.49 5.16L32.91 5.16L32.91 1.05ZM32.13 4.86L31.43 4.86L31.38 1.43C31.38 1.17 31.11 0.94 30.78 0.92L23.58 0.31L31.64 0.44C31.91 0.44 32.13 0.63 32.13 0.84L32.13 4.86Z" fill="#B49571" fill-opacity="1.000000" fill-rule="nonzero"/>
		<path id="path" d="M32.91 5.43L22.49 5.43L22.49 13.07L32.91 13.07L32.91 5.43ZM24.46 12.46L23.02 12.46L23.02 5.76L24.46 5.76L24.46 12.46ZM32.13 12.46L31.47 12.46L31.47 5.76L32.13 5.76L32.13 12.46Z" fill="#B49571" fill-opacity="1.000000" fill-rule="nonzero"/>
		<path id="path" d="M40.9 60.21L40.9 42.67L34.07 42.67C38.15 46.17 40.9 52.71 40.9 60.21Z" fill="#B49571" fill-opacity="1.000000" fill-rule="nonzero"/>
		<path id="path" d="M20.5 42.67L13.68 42.67L13.68 60.21C13.68 52.71 16.43 46.17 20.5 42.67Z" fill="#B49571" fill-opacity="1.000000" fill-rule="nonzero"/>
		<path id="path" d="M13.68 77.3L20.01 77.3C16.21 73.71 13.68 67.4 13.68 60.21L13.68 77.3Z" fill="#B49571" fill-opacity="1.000000" fill-rule="nonzero"/>
		<path id="path" d="M40.9 77.3L40.9 60.21C40.9 67.4 38.37 73.71 34.57 77.3L40.9 77.3Z" fill="#B49571" fill-opacity="1.000000" fill-rule="nonzero"/>
		<path id="path" d="M27.28 43.22C22.11 43.22 17.93 49.46 17.93 57.16L36.65 57.16C36.65 49.46 32.45 43.22 27.28 43.22ZM27.28 48.01C30.36 48.01 32.84 51.72 32.84 56.29L21.72 56.29C21.72 51.72 24.21 48.01 27.28 48.01Z" fill="#B49571" fill-opacity="1.000000" fill-rule="nonzero"/>
		<path id="path" d="M27.28 77.54C32.45 77.54 36.64 71.31 36.64 63.61L17.91 63.61C17.91 71.31 22.11 77.54 27.28 77.54ZM27.28 72.91C24.16 72.91 21.64 69.14 21.64 64.52L32.92 64.52C32.92 69.15 30.4 72.91 27.28 72.91Z" fill="#B49571" fill-opacity="1.000000" fill-rule="nonzero"/>
		<path id="path" d="M37.71 57.82L16.63 57.82L16.63 62.88L37.71 62.88L37.71 57.82Z" fill="#B49571" fill-opacity="1.000000" fill-rule="nonzero"/>
		<path id="path" d="M14.94 60.32C14.94 70.55 20.48 78.87 27.28 78.87C34.08 78.87 39.62 70.55 39.62 60.32C39.62 50.08 34.08 41.76 27.28 41.76C20.48 41.76 14.94 50.08 14.94 60.32ZM27.28 42.29C33.8 42.29 39.09 50.37 39.09 60.32C39.09 70.26 33.8 78.34 27.28 78.34C20.77 78.34 15.47 70.26 15.47 60.32C15.47 50.37 20.77 42.29 27.28 42.29Z" fill="#B49571" fill-opacity="1.000000" fill-rule="nonzero"/>
	</g>
</svg>
