<svg width="82.000000" height="89.000000" viewBox="0 0 82 89" fill="none" xmlns="http://www.w3.org/2000/svg" xmlns:xlink="http://www.w3.org/1999/xlink">
	<desc>
			Created with Pixso.
	</desc>
	<defs>
		<clipPath id="clip6_1">
			<rect id="Group" width="82.000000" height="89.000000" fill="white" fill-opacity="0"/>
		</clipPath>
	</defs>
	<g clip-path="url(#clip6_1)">
		<path id="path" d="M34.94 54.88L12.33 54.88L12.33 61.76L34.94 61.76L34.94 54.88Z" fill="#000000" fill-opacity="1.000000" fill-rule="nonzero"/>
		<path id="path" d="M30.93 62.91L16.35 62.91L16.35 65.12L30.93 65.12L30.93 62.91Z" fill="#000000" fill-opacity="1.000000" fill-rule="nonzero"/>
		<path id="path" d="M27.43 37.56L20.59 37.56C17.21 37.95 14.99 38.65 13.98 39.66C6.69 46.98 8.66 68.17 9.99 72.73C10.23 74.34 13.47 77.41 24.03 77.41C36.15 77.41 38.03 72.86 38.04 72.81C39.19 69.39 41.32 46.92 34.08 39.66C33.07 38.65 30.86 37.94 27.43 37.56ZM37.2 72.52C37.2 72.52 35.16 76.51 24.04 76.51C13.78 76.51 11.05 73.62 10.89 72.53C9.61 68.18 7.71 47.24 14.62 40.3C15.47 39.45 17.57 38.82 20.64 38.46L27.37 38.46C30.49 38.82 32.59 39.45 33.44 40.3C40.42 47.31 38.31 69.18 37.2 72.52Z" fill="#000000" fill-opacity="1.000000" fill-rule="nonzero"/>
		<path id="path" d="M23.98 51.69C26.82 51.69 29.13 49.38 29.13 46.54C29.13 43.69 26.82 41.39 23.98 41.39C21.14 41.39 18.83 43.69 18.83 46.54C18.83 49.38 21.14 51.69 23.98 51.69ZM23.98 43.01C26.03 43.01 27.69 44.68 27.69 46.73C27.69 48.77 26.03 50.44 23.98 50.44C21.94 50.44 20.27 48.77 20.27 46.73C20.27 44.68 21.94 43.01 23.98 43.01Z" fill="#000000" fill-opacity="1.000000" fill-rule="nonzero"/>
		<path id="path" d="M18.9 11.71L18.5 18.53L29.57 18.53L29.17 11.71C29.44 11.71 29.65 11.5 29.65 11.22L29.65 0.95C29.65 0.42 29.23 0 28.7 0L19.34 0C18.82 0 18.39 0.42 18.39 0.95L18.39 11.22C18.39 11.5 18.63 11.71 18.9 11.71ZM22.83 4.31L29.31 4.31L29.31 6.87L22.83 6.87L22.83 4.31ZM22.83 7.11L29.31 7.11L29.31 7.46L22.83 7.46L22.83 7.11ZM19.54 10.47L25.87 11.08L18.97 11.08L18.8 6.3L19.54 10.47Z" fill="#000000" fill-opacity="1.000000" fill-rule="nonzero"/>
		<path id="path" d="M65.35 71.31C65.43 71.31 65.5 71.31 65.59 71.31C65.67 71.31 65.74 71.31 65.82 71.31C81.94 71.07 80.62 59.13 78.03 51.4L53.14 51.4C50.52 59.09 49.05 71.08 65.35 71.31ZM54.55 51.99L56.89 51.99C51.68 66.36 62.09 70.58 62.09 70.58C62.09 70.58 48.57 69.48 54.55 51.99Z" fill="#000000" fill-opacity="1.000000" fill-rule="nonzero"/>
		<path id="path" d="M75.08 47.61C75.3 47.53 75.35 47.05 75.17 46.51C74.99 45.98 74.66 45.6 74.43 45.67C74.21 45.74 74.16 46.23 74.34 46.76C74.52 47.3 74.85 47.68 75.08 47.61Z" fill="#000000" fill-opacity="1.000000" fill-rule="nonzero"/>
		<path id="path" d="M75.83 48.58C75.96 48.55 75.97 48.27 75.87 47.97C75.78 47.68 75.59 47.47 75.47 47.51C75.34 47.55 75.33 47.82 75.42 48.12C75.52 48.42 75.71 48.62 75.83 48.58Z" fill="#000000" fill-opacity="1.000000" fill-rule="nonzero"/>
		<path id="path" d="M67.61 86.83C67.61 86.83 65.63 81.43 66.95 73.3C91.86 72.14 76.23 44.42 76.23 44.42L54.93 44.42C54.93 44.42 39.11 72.48 64.67 73.31C65.99 81.44 64.02 86.83 64.02 86.83C64.02 86.83 63.08 88.15 50.61 88.15L50.61 88.65L81 88.65L81 88.15C68.54 88.15 67.61 86.83 67.61 86.83ZM55.52 44.79L75.65 44.79C75.65 44.79 90.85 71.75 65.84 72.09C65.75 72.09 65.67 72.09 65.59 72.09C65.5 72.09 65.42 72.09 65.34 72.09C40.31 71.74 55.52 44.79 55.52 44.79ZM64.91 87.32C64.68 87.56 62.06 87.76 62.06 87.76C62.06 87.76 63.91 87.32 64.22 86.99C64.51 86.65 65.31 81.85 65.31 81.85C65.31 81.85 65.13 87.07 64.91 87.32ZM66.74 87.52C64.84 82.64 66.28 73.62 66.28 73.62C66.28 73.62 65.82 73.62 65.15 73.36C65.92 73.52 66.91 73.3 66.7 73.36C66.7 73.36 66.05 76.47 66.23 80.73C66.47 86.34 67.33 87.04 67.62 87.25C68.12 87.65 70.33 87.96 70.33 87.96C70.33 87.96 67.01 87.88 66.74 87.52Z" fill="#000000" fill-opacity="1.000000" fill-rule="nonzero"/>
		<path id="path" d="M29.95 27.36L29.51 19.24L18.58 19.29L18.14 27.36C14.38 27.83 10.3 28.73 8.57 30.47C-2.91 41.9 0.07 76.39 1.17 86.08C1.34 87.54 2.56 88.64 4.04 88.64L44.06 88.64C45.52 88.64 46.76 87.53 46.92 86.08C48.02 76.39 50.99 41.9 39.53 30.47C37.79 28.73 33.71 27.84 29.95 27.36ZM38.65 31.95C38.78 31.91 38.98 32.08 39.09 32.36C39.21 32.63 39.18 32.9 39.05 32.95C38.92 33 38.72 32.82 38.61 32.55C38.49 32.27 38.52 32 38.65 31.95ZM37.23 30.41C37.44 30.28 37.83 30.54 38.1 30.98C38.37 31.42 38.42 31.88 38.22 32.01C38 32.14 37.62 31.88 37.35 31.44C37.08 31 37.03 30.54 37.23 30.41ZM19.82 20.46L21.45 20.46L20.64 28L19.83 28L19.82 20.46ZM9.76 31.63C11.86 29.18 19.25 28.43 19.25 28.43C19.25 28.43 12.38 30.47 10.54 32.81C4.4 39.98 4.52 47.44 3.39 49.71C4.29 43.07 6.18 36.58 9.76 31.63ZM3.04 56.05C2.95 60.21 3.01 74.47 7.23 79.75C12.19 85.96 29.99 84.81 29.99 84.81C29.99 84.81 10.92 86.76 5.49 79.98C2.76 76.67 2.93 60.53 3.04 56.05ZM3.75 87.97C2.82 87.97 2.31 86.8 2.08 86.06C1.86 85.32 1.37 81.92 1.06 78.42C2.87 86.06 2.98 85.83 2.98 85.83C2.98 85.83 2.98 86.51 4.38 86.7C5.4 86.84 39.68 88.27 39.68 88.27C39.68 88.27 4.4 87.97 3.75 87.97ZM45.44 86.25C46.16 85 47.47 69.78 47.47 69.78C47.47 69.78 46.75 86.25 45.93 87.12C45.12 88 42.19 87.96 42.19 87.96C42.19 87.96 44.71 87.5 45.44 86.25ZM39.24 74.46C38.94 75.33 35.73 79.27 24.04 79.27C11.23 79.27 8.97 75.37 8.84 74.46C7.29 69.2 5.31 45.76 13.15 37.9C14.41 36.64 17.49 36.01 20.23 35.69L27.82 35.69C30.57 36 33.65 36.63 34.91 37.9C42.76 45.76 40.64 70.32 39.24 74.46Z" fill="#000000" fill-opacity="1.000000" fill-rule="nonzero"/>
	</g>
</svg>
