<svg width="39" height="103" viewBox="0 0 39 103" fill="none" xmlns="http://www.w3.org/2000/svg">
<g clip-path="url(#clip0_351_4272)">
<path d="M38.4837 93.96L39 96.8524C39 100.494 36.7942 103 34.0605 103H4.93953C2.20578 103 0 100.494 0 96.8524L0.516245 93.96V55.2941L0 54.451C0 51.1488 1.5018 48.0339 4.08303 45.973L10.1606 41.1368C11.0758 40.4108 11.5451 39.2632 11.3809 38.104C11.1697 36.4178 11.0289 34.6261 10.9937 32.7877C10.9585 31.7572 10.9467 30.7268 10.9819 29.6729C11.0406 27.448 11.2049 25.188 11.4865 22.9514C11.4982 22.8694 11.4982 22.7758 11.5099 22.6821C11.6038 21.9912 11.6977 21.312 11.815 20.6328C11.815 20.5743 11.8267 20.5157 11.8384 20.4572C12.1083 18.7827 12.4368 17.1433 12.824 15.5508C12.9296 15.1175 12.7536 14.6608 12.3899 14.3798C12.0144 14.0987 11.8032 13.6421 11.8384 13.162L12.3899 6.19458H26.6101L27.1616 13.162C27.1967 13.6421 26.9856 14.0987 26.6101 14.3798C26.2464 14.6608 26.0704 15.1175 26.176 15.5508C26.3051 16.066 26.4224 16.5929 26.528 17.1199C26.6805 17.8108 26.8096 18.5134 26.9386 19.216C27.0208 19.6141 27.0912 20.0239 27.1616 20.4455C27.1733 20.5157 27.185 20.5743 27.185 20.6328C27.2437 20.9724 27.3023 21.312 27.3375 21.6633C27.3845 22.0029 27.4431 22.3425 27.4901 22.6821C27.4901 22.7875 27.5135 22.8694 27.5135 22.9514C27.6074 23.7711 27.7013 24.6025 27.7717 25.4222C27.8069 25.8086 27.8421 26.2067 27.8773 26.5932L27.9477 27.893C27.9828 28.4902 28.0063 29.0757 28.018 29.6729C28.0532 30.7268 28.0415 31.7572 28.0063 32.7877C27.9711 34.6261 27.8303 36.4178 27.6191 38.104C27.4549 39.2632 27.9242 40.4108 28.8393 41.1368L34.917 45.973C37.4982 48.0339 39 51.1488 39 54.451L38.4837 55.2941V93.96Z" fill="#404040"/>
<path d="M26.3637 0H12.6246C12.158 0 11.7798 0.377473 11.7798 0.843111V5.3397C11.7798 5.80534 12.158 6.18281 12.6246 6.18281H26.3637C26.8303 6.18281 27.2085 5.80534 27.2085 5.3397V0.843111C27.2085 0.377473 26.8303 0 26.3637 0Z" fill="#404040"/>
<path d="M28.018 29.6729H10.9819C11.0406 27.448 11.2049 25.188 11.4865 22.9514C11.4982 22.8694 11.4982 22.7758 11.5099 22.6821C11.6038 21.9912 11.6977 21.312 11.815 20.6328C11.815 20.5743 11.8267 20.5157 11.8384 20.4572C12.1083 18.7827 12.4368 17.1433 12.824 15.5508C12.9296 15.1175 12.7536 14.6608 12.3899 14.3798C12.0144 14.0987 11.8032 13.6421 11.8384 13.162L12.3899 6.19458H26.6101L27.1616 13.162C27.1968 13.6421 26.9856 14.0987 26.6101 14.3798C26.2464 14.6608 26.0704 15.1175 26.176 15.5508C26.3051 16.066 26.4224 16.5929 26.528 17.1199C26.6805 17.8108 26.8096 18.5134 26.9386 19.216C27.0208 19.6141 27.0912 20.0239 27.1616 20.4455C27.1733 20.5157 27.185 20.5743 27.185 20.6328C27.2437 20.9724 27.3023 21.312 27.3375 21.6633C27.3845 22.0029 27.4431 22.3425 27.4901 22.6821C27.4901 22.7875 27.5135 22.8694 27.5135 22.9514C27.6074 23.7711 27.7013 24.6025 27.7717 25.4222C27.8069 25.8086 27.8421 26.2067 27.8773 26.5932L27.9477 27.893C27.9829 28.4902 28.0063 29.0757 28.018 29.6729Z" fill="#404040"/>
<path d="M19.5 57.1909L2.00631 56.7342L1.09115 54.2517L1.03249 54.158C1.11462 51.2657 2.45216 48.5959 4.72833 46.7808L9.48014 42.9985H29.5081L34.2599 46.7808C36.5361 48.5959 37.8736 51.2657 37.9558 54.158L37.8971 54.2517L36.9819 56.7342L19.4883 57.1909H19.5Z" fill="#FFF7ED"/>
<path d="M19.5 99.6979C14.6191 99.6862 9.77346 100.436 4.93953 101.97C2.73375 101.97 1.06769 99.815 1.04422 96.9461L1.95938 91.8406L19.5117 93.398L37.0641 91.8406L37.9792 96.9461C37.944 99.815 36.278 101.97 34.0839 101.97C29.25 100.436 24.3926 99.6862 19.5235 99.6979H19.5Z" fill="#FFF7ED"/>
<path d="M38.4838 55.2939H0.516251V93.9716H38.4838V55.2939Z" fill="#404040"/>
<path d="M16.555 59.4276C16.555 59.4276 16.6372 59.5447 16.5785 59.7672C16.5198 59.9896 16.2617 60.2707 15.8276 60.3761C15.6164 60.4346 15.3466 60.4346 15.065 60.3175C14.7717 60.1887 14.5605 59.9194 14.4431 59.5915C14.2319 58.9592 14.4783 58.0458 15.3114 57.6594C16.0857 57.2964 17.1182 57.472 17.7987 58.1746C18.4792 58.8187 18.8547 59.9896 18.3736 61.0084C17.9747 62.0154 16.7662 62.7532 15.6282 62.6361C15.065 62.6126 14.5135 62.437 14.0442 62.2028C13.528 61.992 13.1173 61.711 12.6832 61.43C11.0054 60.3409 9.48014 59.1699 8.01353 58.643C6.53519 58.1161 5.05685 58.5493 4.48194 59.5095C3.83664 60.4463 4.35288 61.4182 4.86913 61.793C5.39711 62.1794 5.81949 62.1091 5.83122 62.2262C5.86642 62.2731 5.39711 62.5541 4.62274 62.2028C4.25902 62.0154 3.84837 61.6759 3.60198 61.1021C3.35559 60.54 3.36732 59.7437 3.74277 59.0763C4.41155 57.6477 6.55866 56.9568 8.35378 57.5774C10.1724 58.1746 11.7094 59.3573 13.3637 60.4229C13.7744 60.6805 14.1733 60.9498 14.5605 61.1138C14.9476 61.3246 15.3348 61.4417 15.7103 61.4651C16.4729 61.5353 17.0713 61.1489 17.3646 60.5751C17.6697 60.0131 17.4819 59.3222 17.0948 58.9006C16.731 58.4556 16.0975 58.3268 15.6751 58.4791C15.2644 58.6079 15.0532 59.088 15.1236 59.4393C15.194 59.7906 15.4756 59.9545 15.7807 59.9311C16.4143 59.896 16.4964 59.4276 16.5902 59.451L16.555 59.4276Z" fill="#FFF7ED"/>
<path d="M22.4449 59.4276C22.4449 59.4276 22.3628 59.5447 22.4215 59.7672C22.4801 59.9896 22.7383 60.2707 23.1724 60.3761C23.3836 60.4346 23.6534 60.4346 23.935 60.3175C24.2283 60.1887 24.4395 59.9194 24.5569 59.5915C24.768 58.9592 24.5217 58.0458 23.6886 57.6594C22.9143 57.2964 21.8818 57.472 21.2013 58.1746C20.5208 58.8187 20.1453 59.9896 20.6264 61.0084C21.0253 62.0154 22.2338 62.7532 23.3718 62.6361C23.935 62.6126 24.4865 62.437 24.9558 62.2028C25.472 61.992 25.8827 61.711 26.3168 61.43C27.9946 60.3409 29.5199 59.1699 30.9865 58.643C32.4648 58.1161 33.9431 58.5493 34.518 59.5095C35.1634 60.4463 34.6471 61.4182 34.1309 61.793C33.6029 62.1794 33.1805 62.1091 33.1688 62.2262C33.1336 62.2731 33.6029 62.5541 34.3773 62.2028C34.741 62.0154 35.1516 61.6759 35.398 61.1021C35.6444 60.54 35.6327 59.7437 35.2572 59.0763C34.5884 57.6477 32.4413 56.9568 30.6462 57.5774C28.8276 58.1746 27.2906 59.3573 25.6363 60.4229C25.2256 60.6805 24.8267 60.9498 24.4395 61.1138C24.0523 61.3246 23.6652 61.4417 23.2897 61.4651C22.5271 61.5353 21.9287 61.1489 21.6354 60.5751C21.3303 60.0131 21.518 59.3222 21.9052 58.9006C22.269 58.4556 22.9025 58.3268 23.3249 58.4791C23.7356 58.6079 23.9468 59.088 23.8764 59.4393C23.806 59.7906 23.5244 59.9545 23.2193 59.9311C22.5857 59.896 22.5036 59.4276 22.4097 59.451L22.4449 59.4276Z" fill="#FFF7ED"/>
<path d="M19.5 89.4165C16.4025 89.4165 13.3989 90.6929 10.1489 90.6812C8.52978 90.728 6.89891 90.283 5.56136 89.3697C4.20035 88.4914 3.32039 86.8637 3.29692 85.318C3.24999 83.7606 3.70757 82.3672 4.22382 81.1259C4.74007 79.873 5.29151 78.7371 5.6083 77.5895C6.40613 75.271 5.3971 73.21 4.29422 71.4067C3.20306 69.6268 2.27617 67.6479 2.62815 65.7977C2.79241 64.9077 3.26173 64.0881 3.94223 63.6431C4.29422 63.444 4.6462 63.2684 5.03339 63.2332C5.40884 63.2098 5.76082 63.2918 6.07761 63.4206C6.67599 63.7016 7.09837 64.2637 7.0749 64.8258C7.05144 65.3527 6.79331 65.7391 6.52346 65.9499C5.94855 66.3832 5.52617 66.149 5.56136 66.149C5.56136 66.0787 5.93682 66.1841 6.3592 65.7743C6.55866 65.5752 6.73465 65.2356 6.71118 64.8492C6.71118 64.4628 6.37093 64.0646 5.88988 63.8773C5.64349 63.7953 5.37364 63.7485 5.09205 63.7836C4.8222 63.8187 4.55234 63.9827 4.28248 64.1349C3.76624 64.5096 3.41425 65.1771 3.29692 65.9382C3.1796 66.6994 3.32039 67.5425 3.63718 68.3973C3.95396 69.2521 4.45848 70.0952 5.02165 70.9969C5.30324 71.4419 5.5731 71.9337 5.85469 72.4255C5.97201 72.6831 6.10108 72.9524 6.23014 73.2218C6.3592 73.4911 6.48826 73.7604 6.54692 74.0766C6.98104 75.2593 6.91064 76.641 6.57039 77.894C5.93682 80.4116 4.28248 82.7185 4.41155 85.318C4.45848 86.571 5.10378 87.742 6.2184 88.468C7.32129 89.2057 8.70577 89.6039 10.1489 89.5453C13.0469 89.5687 16.0857 88.2806 19.5 88.2572C22.9143 88.2689 25.9531 89.5687 28.8511 89.5453C30.2825 89.6039 31.6787 89.2057 32.7816 88.468C33.8962 87.742 34.5415 86.571 34.5884 85.318C34.7058 82.7185 33.0632 80.4233 32.4296 77.894C32.0893 76.641 32.0189 75.2593 32.4531 74.0766C32.5117 73.7604 32.6408 73.4911 32.7698 73.2218C32.8989 72.9524 33.0162 72.6831 33.1453 72.4255C33.4269 71.9454 33.7085 71.4419 33.9783 70.9969C34.5415 70.0952 35.046 69.2638 35.3628 68.3973C35.6796 67.5425 35.8204 66.6994 35.7031 65.9382C35.5975 65.1888 35.2337 64.5096 34.7175 64.1349C34.4594 63.971 34.1895 63.8187 33.9079 63.7836C33.6263 63.7485 33.3565 63.7953 33.1101 63.8773C32.6408 64.0646 32.3005 64.4628 32.2888 64.8492C32.2653 65.2356 32.4413 65.5869 32.6408 65.7743C33.0514 66.1841 33.4386 66.0787 33.4386 66.149C33.4738 66.149 33.0514 66.3832 32.4765 65.9499C32.2067 65.7391 31.9485 65.3644 31.9251 64.8258C31.9016 64.2754 32.3123 63.7133 32.9224 63.4206C33.2274 63.2918 33.5794 63.2098 33.9666 63.2332C34.3538 63.2567 34.7058 63.444 35.0578 63.6431C35.75 64.0881 36.2076 64.9077 36.3718 65.7977C36.7355 67.6479 35.7969 69.6268 34.7058 71.4067C33.6146 73.21 32.6056 75.2827 33.3917 77.5895C33.7085 78.7371 34.2599 79.873 34.7762 81.1259C35.2807 82.3789 35.75 83.7723 35.7031 85.318C35.6796 86.8637 34.7996 88.4914 33.4386 89.3697C32.1011 90.283 30.4702 90.728 28.8511 90.6812C25.6011 90.6812 22.5975 89.4048 19.5 89.4165Z" fill="#FFF7ED"/>
<path d="M17.306 26.3354C17.306 26.3354 17.2473 26.3354 17.1652 26.2886C17.083 26.2418 16.954 26.1481 16.8836 25.9724C16.8366 25.8905 16.778 25.7968 16.778 25.6797C16.7545 25.5626 16.7311 25.4338 16.778 25.2933C16.8014 25.1527 16.8366 25.0005 16.954 24.8717C17.0361 24.7195 17.1886 24.6258 17.3412 24.5321C17.6462 24.3799 18.1273 24.2979 18.5144 24.5672C18.9016 24.8249 19.0894 25.305 19.0776 25.7851C19.0776 26.2652 18.7726 26.7804 18.3267 27.0497C17.8809 27.3191 17.3529 27.3893 16.8366 27.3308C15.7924 27.1434 15.065 26.4877 14.4901 25.9607C13.9386 25.4338 13.3168 25.1059 12.9061 25.3869C12.4955 25.6328 12.4486 26.1364 12.5894 26.394C12.7184 26.6633 12.8944 26.757 12.8592 26.8155C12.8592 26.839 12.6246 26.8155 12.3782 26.5228C12.12 26.2652 12.0379 25.4923 12.6598 25.0356C12.9648 24.8014 13.4224 24.7663 13.8096 24.9068C14.1968 25.0356 14.5253 25.2815 14.8421 25.5392C15.4404 26.0544 16.1209 26.5931 16.907 26.7336C17.2942 26.7804 17.7049 26.7336 17.9982 26.5462C18.3033 26.3589 18.4675 26.0895 18.491 25.7734C18.5144 25.4572 18.3971 25.141 18.1977 25.0005C17.9982 24.8366 17.7166 24.8717 17.5054 24.942C17.0478 25.141 16.9892 25.6328 17.0948 25.9022C17.1652 26.1949 17.3412 26.3003 17.2942 26.3589L17.306 26.3354Z" fill="#FFF7ED"/>
<path d="M21.694 26.3354C21.694 26.3354 21.7527 26.3354 21.8348 26.2886C21.917 26.2418 22.046 26.1481 22.1164 25.9724C22.1634 25.8905 22.222 25.7968 22.222 25.6797C22.2455 25.5626 22.2689 25.4338 22.222 25.2933C22.1986 25.1527 22.1634 25.0005 22.046 24.8717C21.9639 24.7195 21.8114 24.6258 21.6588 24.5321C21.3538 24.3799 20.8727 24.2979 20.4856 24.5672C20.0984 24.8249 19.9106 25.305 19.9224 25.7851C19.9224 26.2652 20.2274 26.7804 20.6733 27.0497C21.1191 27.3191 21.6471 27.3893 22.1634 27.3308C23.2076 27.1434 23.935 26.4877 24.5099 25.9607C25.0614 25.4338 25.6832 25.1059 26.0939 25.3869C26.5045 25.6328 26.5514 26.1364 26.4106 26.394C26.2816 26.6633 26.1056 26.757 26.1408 26.8155C26.1408 26.839 26.3754 26.8155 26.6218 26.5228C26.88 26.2652 26.9621 25.4923 26.3402 25.0356C26.0352 24.8014 25.5776 24.7663 25.1904 24.9068C24.8032 25.0356 24.4747 25.2815 24.1579 25.5392C23.5596 26.0544 22.8791 26.5931 22.093 26.7336C21.7058 26.7804 21.2951 26.7336 21.0018 26.5462C20.6967 26.3589 20.5325 26.0895 20.509 25.7734C20.4856 25.4572 20.6029 25.141 20.8023 25.0005C21.0018 24.8366 21.2834 24.8717 21.4946 24.942C21.9522 25.141 22.0108 25.6328 21.9052 25.9022C21.8348 26.1949 21.6588 26.3003 21.7058 26.3589L21.694 26.3354Z" fill="#FFF7ED"/>
<path d="M27.5135 22.9513C27.5135 22.9513 27.3962 22.8811 27.3258 22.8576C27.1264 22.7874 26.88 22.7991 26.5984 22.9045C26.3051 22.9982 26 23.1972 25.5776 23.3612C25.1904 23.5368 24.5217 23.5368 24.0876 23.2089C23.6534 22.9279 23.2545 22.5649 22.8908 22.6351C22.5036 22.6469 22.0812 23.2323 21.3186 23.3143C20.6029 23.3729 19.9576 23.0099 19.5 22.963C19.0424 23.0099 18.3971 23.3729 17.6814 23.3143C16.9188 23.2323 16.4964 22.6469 16.1092 22.6351C15.7455 22.5649 15.3466 22.9279 14.9125 23.2089C14.4783 23.5368 13.8096 23.5368 13.4224 23.3612C13 23.1972 12.6949 22.9982 12.4016 22.9045C12.12 22.7991 11.8736 22.7874 11.6742 22.8576C11.6038 22.8811 11.5334 22.9162 11.4865 22.9513C11.4982 22.8693 11.4982 22.7757 11.5099 22.682C11.5334 22.682 11.5569 22.6469 11.5921 22.6351C11.815 22.5063 12.167 22.4829 12.5072 22.5766C12.8475 22.6586 13.1995 22.8459 13.5632 22.9513C13.9386 23.0567 14.2789 23.0567 14.6426 22.7874C14.8421 22.6351 15.0415 22.4946 15.2527 22.3307C15.4756 22.1785 15.8159 22.0379 16.1796 22.0731C16.907 22.2019 17.2708 22.7288 17.7401 22.7171C18.2211 22.764 18.7139 22.4712 19.5 22.3424C20.2861 22.4712 20.7789 22.764 21.2599 22.7171C21.7292 22.7288 22.093 22.2019 22.8204 22.0731C23.1841 22.0379 23.5244 22.1785 23.7473 22.3307C23.9585 22.4946 24.1579 22.6351 24.3574 22.7874C24.7211 23.0567 25.0614 23.0567 25.4368 22.9513C25.8005 22.8459 26.1525 22.6586 26.4928 22.5766C26.833 22.4829 27.185 22.5063 27.4079 22.6351C27.4431 22.6469 27.4666 22.6703 27.4901 22.682C27.4901 22.7874 27.5135 22.8693 27.5135 22.9513Z" fill="#FFF7ED"/>
<path d="M27.185 20.6328L27.1733 20.6445C27.1264 20.6913 27.0677 20.7265 26.9973 20.7733C26.8096 20.8904 26.5514 20.9607 26.2581 21.0778C25.9648 21.148 25.6011 21.2183 25.2022 21.1949C24.3809 21.2534 23.5361 20.6445 22.6913 20.8436C22.2572 20.9373 21.7644 21.1597 21.1426 21.2066C20.8376 21.2066 20.5442 21.1715 20.2509 21.1129C20.0045 21.0544 19.7581 20.9841 19.5 20.9255C19.2419 20.9841 18.9955 21.0544 18.7491 21.1129C18.4558 21.1715 18.1625 21.2183 17.8574 21.2066C17.2356 21.1597 16.7428 20.9373 16.3087 20.8436C15.4639 20.6445 14.6191 21.2534 13.7978 21.1949C13.3989 21.2183 13.0352 21.148 12.7419 21.0778C12.4486 20.9607 12.1904 20.8904 12.0027 20.7733C11.9323 20.7265 11.8619 20.6796 11.815 20.6328C11.815 20.5742 11.8267 20.5157 11.8385 20.4571C12.2022 20.6094 12.8475 20.867 13.7626 20.7733C13.9386 20.7382 14.1264 20.7148 14.3024 20.6796C14.5018 20.6211 14.6895 20.5508 14.9007 20.4923C15.2996 20.3518 15.8511 20.1761 16.4025 20.2932C16.9305 20.3869 17.4116 20.586 17.8809 20.6094C18.1155 20.6094 18.3619 20.5742 18.62 20.5274C18.9016 20.4454 19.2067 20.3635 19.5 20.2932C19.7933 20.3635 20.0984 20.4454 20.38 20.5274C20.6381 20.5742 20.8845 20.6094 21.1191 20.6094C21.5885 20.586 22.0695 20.3869 22.5975 20.2932C23.1489 20.1761 23.7004 20.3518 24.0993 20.4923C24.3105 20.5508 24.4982 20.6211 24.6977 20.6796C24.8737 20.7148 25.0614 20.7382 25.2374 20.7733C26.1525 20.867 26.7978 20.6094 27.1616 20.4571C27.1733 20.5157 27.185 20.5742 27.185 20.6328Z" fill="#FFF7ED"/>
<path d="M19.5 71.8634C15.898 71.8634 12.296 72.285 8.77617 73.1281C8.31859 71.2077 7.84927 69.2873 7.39169 67.3668C11.3691 66.4183 15.4404 65.9382 19.5 65.9382C23.5596 65.9382 27.6309 66.4183 31.6083 67.3668C31.1507 69.2873 30.6814 71.2077 30.2238 73.1281C26.6922 72.285 23.102 71.8634 19.5 71.8634Z" fill="#FFF7ED"/>
<path d="M26.8917 75.7863C26.7978 76.161 23.5009 75.5521 19.5 75.3179C15.4991 75.5404 12.2022 76.161 12.1083 75.7863C12.0379 75.517 15.2292 74.346 19.5 74.1001C23.7708 74.346 26.9621 75.517 26.8917 75.7863Z" fill="#FFF7ED"/>
<path d="M26.5162 79.2056C26.4341 79.5803 23.3249 79.2056 19.5 79.1353C15.6751 79.2056 12.5659 79.5803 12.4837 79.2056C12.4133 78.9245 15.5226 77.9877 19.5 77.9175C23.4774 77.9877 26.5866 78.9245 26.5162 79.2056Z" fill="#FFF7ED"/>
<path d="M28.1354 82.9879C28.0767 83.1635 27.0911 82.9644 25.5541 82.66C24.0054 82.3906 21.8583 82.0862 19.4883 82.0276C17.1182 82.0862 14.9711 82.3906 13.4224 82.66C11.8854 82.9644 10.9115 83.1518 10.8411 82.9879C10.7825 82.8473 11.6742 82.3555 13.2112 81.8286C14.7599 81.325 16.9774 80.8801 19.4883 80.8098C21.9991 80.8684 24.2166 81.325 25.7653 81.8286C27.3023 82.3555 28.1823 82.8473 28.1354 82.9879Z" fill="#FFF7ED"/>
<path d="M28.4756 86.3017C28.417 86.4773 27.3962 86.3017 25.7888 85.9855C24.1931 85.7045 21.9052 85.3649 19.5 85.1893C17.0948 85.3532 14.8069 85.7045 13.2112 85.9855C11.6038 86.29 10.583 86.4656 10.5244 86.3017C10.4774 86.1495 11.4043 85.6811 13 85.1541C14.6191 84.6506 16.8484 84.1588 19.5 83.9714C22.1399 84.1588 24.3809 84.6389 26 85.1541C27.5957 85.6811 28.5343 86.1495 28.4756 86.3017Z" fill="#FFF7ED"/>
<path opacity="0.4" d="M6.30054 99.534C6.30054 99.6276 6.07761 99.7096 5.6083 99.7447C5.16245 99.7213 4.34115 99.5457 3.73104 98.7611C2.46389 97.2388 2.53429 94.487 2.45216 91.8406C2.00631 86.0442 2.17057 78.0815 2.18231 69.3693C2.14711 67.203 2.12364 65.0718 2.08844 63.0343C2.02978 60.9968 1.90072 58.9827 1.95938 57.0154C2.01805 55.0482 2.22924 53.1395 2.79241 51.3713C2.95667 50.938 3.09747 50.5047 3.27346 50.0949C3.50812 49.6851 3.73104 49.2869 3.95397 48.9005C4.47021 48.1979 5.02166 47.5304 5.6083 47.0503C6.75812 46.0199 7.81407 45.3056 8.7175 44.6147C9.15162 44.2751 9.55054 43.9472 9.92599 43.6545C10.278 43.3383 10.5948 43.0456 10.8881 42.7879C12.0027 41.6989 12.5893 41.0198 12.7771 41.1369C12.9179 41.2188 12.6363 42.1088 11.6976 43.4905C11.4513 43.8184 11.1814 44.2048 10.8529 44.5913C10.5009 44.966 10.1254 45.3641 9.72653 45.7857C8.90523 46.5936 7.88447 47.4602 6.98104 48.4438C6.05415 49.4509 5.31498 50.5047 4.97472 52.027C4.59927 53.5142 4.47021 55.2121 4.48194 57.0389C4.48194 58.8656 4.66967 60.8328 4.76353 62.9172C4.81046 65.0016 4.8574 67.1562 4.91606 69.3576C4.90433 78.1752 4.43501 86.0676 4.37635 91.7469C4.34115 93.3277 4.14169 94.5104 4.16516 95.6112C4.15342 96.6885 4.30595 97.5667 4.59927 98.1522C4.89259 98.7494 5.35018 99.007 5.70216 99.1944C6.06588 99.3115 6.2888 99.4286 6.2888 99.5223L6.30054 99.534Z" fill="white"/>
<path opacity="0.3" d="M14.6191 12.9277C14.8421 12.834 15.6516 14.2861 15.5226 16.792C15.4874 18.0215 15.2644 19.4501 14.9946 20.9724C14.7482 22.4947 14.5722 24.1458 14.2906 25.8788C14.232 26.7571 14.185 27.6119 14.1264 28.4316C14.0794 29.263 13.9621 30.0593 14.009 30.8204C14.0442 32.3427 13.9504 33.7245 14.009 34.8837C14.1381 37.1906 14.0794 38.6777 13.7978 38.7246C13.5162 38.7831 13.0587 37.3779 12.5542 35.0242C12.3078 33.8533 12.2491 32.4247 12.1083 30.8321C12.0144 30.0358 12.0848 29.2044 12.1083 28.3379C12.1552 27.4714 12.1904 26.5814 12.2374 25.6564C12.519 23.8413 12.7653 22.0966 13.1291 20.5743C13.5045 19.052 13.8682 17.7405 14.0677 16.628C14.537 14.4149 14.3023 13.0097 14.6074 12.916L14.6191 12.9277Z" fill="white"/>
</g>
<defs>
<clipPath id="clip0_351_4272">
<rect width="39" height="103" fill="white"/>
</clipPath>
</defs>
</svg>
