<svg width="73" height="71" viewBox="0 0 73 71" fill="none" xmlns="http://www.w3.org/2000/svg">
<g clip-path="url(#clip0_361_4545)">
<path d="M13.5664 55.5327H3.37488C3.37488 55.5327 4.28272 65.918 4.28272 65.9202C4.45448 67.8804 5.39132 69.5995 7.32299 70.2876C9.13645 70.9336 11.1618 71.0089 13.0846 70.9978C15.0073 71.0066 17.0327 70.9314 18.8461 70.2876C20.7778 69.5995 21.7147 67.8782 21.8864 65.9202C21.8864 65.918 22.7943 55.5327 22.7943 55.5327H13.5641H13.5664Z" fill="white"/>
<path d="M13.7336 49.2073H0C0 49.2073 1.22459 63.2011 1.22459 63.2055C1.45656 65.845 2.71684 68.1636 5.32215 69.0906C7.76686 69.9601 10.4949 70.0619 13.0868 70.0486C15.6787 70.0619 18.4067 69.9601 20.8514 69.0906C23.4567 68.1636 24.717 65.845 24.949 63.2055C24.949 63.2011 26.1736 49.2073 26.1736 49.2073H13.7381H13.7336Z" fill="#404040"/>
<g style="mix-blend-mode:multiply">
<path d="M0 49.2073C0 49.2073 0.0089223 49.3179 0.0267669 49.517C0.283283 49.7294 0.559874 49.9175 0.843157 50.0834C1.42534 50.4263 2.04767 50.6985 2.67669 50.9396C4.44107 51.6122 6.28353 52.0967 8.14606 52.4153C9.10743 52.5791 10.0777 52.6963 11.0525 52.7671C11.7774 52.8202 12.4957 52.8291 13.2228 52.8047C13.9879 52.7804 14.7552 52.7428 15.5203 52.7693C16.2363 52.7937 20.4677 52.433 20.8291 52.9773C21.1927 53.526 20.3562 63.6391 20.0952 65.2896C19.9726 66.0574 19.7718 66.8494 19.3971 67.5375C19.0246 68.2211 18.4758 68.7831 17.8201 69.2035C17.3561 69.5022 16.8542 69.7522 16.3367 69.9623C17.8825 69.8495 19.4149 69.6039 20.8492 69.0929C23.4545 68.1658 24.7148 65.8472 24.9467 63.2077C24.9467 63.2033 26.1713 49.2095 26.1713 49.2095H0V49.2073Z" fill="#404040"/>
</g>
<g style="mix-blend-mode:screen">
<path d="M0.923462 51.1919L2.36218 63.918C2.36218 63.918 3.09827 67.7632 6.20769 68.5885C6.20769 68.5885 4.94073 66.3561 4.76005 62.0728C4.57937 57.7917 4.28048 52.3203 4.28048 52.3203L0.923462 51.1897V51.1919Z" fill="#FFF7ED"/>
</g>
<path d="M13.0845 50.3445C20.3109 50.3445 26.1691 49.8353 26.1691 49.2073C26.1691 48.5792 20.3109 48.0701 13.0845 48.0701C5.85815 48.0701 0 48.5792 0 49.2073C0 49.8353 5.85815 50.3445 13.0845 50.3445Z" fill="#404040"/>
<path d="M71.5746 41.7778C70.3277 35.9457 68.2288 30.3593 65.4428 25.0825C63.8814 22.1223 61.6597 19.1974 60.685 15.9716C59.0678 10.6219 61.2248 6.5333 62.9959 4.24119C64.7669 1.94908 64.4591 0.973389 64.4591 0.973389H42.0641C42.0641 0.973389 41.7563 1.94687 43.5274 4.24119C45.2985 6.5333 47.4577 10.6219 45.8383 15.9716C44.8635 19.1952 42.6441 22.1223 41.0805 25.0825C38.2945 30.3593 36.1955 35.9457 34.9486 41.7778C34.0252 46.0965 33.5054 50.5059 33.5233 54.922C33.5389 58.5216 33.443 63.3758 35.2051 66.6392C36.3137 68.6901 39.8782 70.1813 46.3535 70.7499V70.7676C46.5922 70.7809 46.8309 70.7964 47.0673 70.8074C48.9075 70.9446 50.9686 71.0132 53.2594 71.0021C55.5524 71.0132 57.6135 70.9468 59.4515 70.8074C59.6879 70.7942 59.9266 70.7809 60.1675 70.7676V70.7499C66.6406 70.1813 70.2051 68.6923 71.3137 66.6392C73.0758 63.3758 72.9799 58.5216 72.9955 54.922C73.0134 50.5059 72.4936 46.0965 71.5702 41.7778H71.5746Z" fill="#404040"/>
<g style="mix-blend-mode:multiply">
<path d="M38.386 58.274C38.1897 53.1544 38.1317 48.0193 38.502 42.9063C38.6826 40.4106 38.9682 37.9216 39.392 35.4547C39.7578 33.3307 40.1883 31.2356 41.0114 29.2333C42.4635 25.6956 44.6717 22.5052 46.0056 18.9166C46.6346 17.2218 47.0428 15.4231 46.9246 13.6067C46.8644 12.6708 46.6569 11.7681 46.3402 10.9053C46.5097 12.4297 46.4027 14.1244 45.8428 15.9718C44.868 19.1954 42.6486 22.1224 41.085 25.0827C38.299 30.3594 36.2 35.9459 34.9531 41.7779C34.0297 46.0966 33.5099 50.5061 33.5278 54.9221C33.5434 58.5218 33.4475 63.3759 35.2096 66.6393C35.7784 67.6947 37.0008 68.5995 38.928 69.3075C38.7406 65.6304 38.5265 61.9533 38.3837 58.274H38.386Z" fill="#404040"/>
</g>
<g style="mix-blend-mode:multiply">
<path d="M71.5746 41.7778C70.3277 35.9457 68.2287 30.3593 65.4427 25.0825C63.8813 22.1223 61.6597 19.1974 60.6849 15.9716C59.0678 10.6219 61.2247 6.5333 62.9958 4.24119C64.7669 1.94908 64.4591 0.973389 64.4591 0.973389H42.5459C43.8842 1.51544 45.2895 1.88713 46.6948 2.219C47.442 2.396 48.1826 2.56857 48.9476 2.64158C49.657 2.71017 50.3685 2.73229 51.0801 2.75442C52.4853 2.79867 53.933 2.80752 55.2981 3.17478C56.052 3.37833 56.6967 3.65489 56.9956 4.41376C57.3011 5.19255 57.2365 6.10187 57.1339 6.91384C57.0023 7.96033 56.7524 8.99134 56.487 10.0113C56.2305 10.9936 55.9405 11.9693 55.7063 12.9583C55.423 14.1596 55.4319 15.3566 55.5769 16.5801C55.9717 19.9342 57.3814 23.0559 58.5993 26.1755C59.8708 29.4345 60.7005 32.866 61.256 36.313C61.8047 39.7202 62.0746 43.1628 62.2419 46.6053C62.4203 50.2913 62.5385 53.9817 62.6367 57.6698C62.7482 61.92 62.833 66.1701 62.9378 70.4202C67.6778 69.7078 70.379 68.3737 71.3181 66.6347C73.0802 63.3713 72.9843 58.5172 72.9999 54.9175C73.0178 50.5015 72.4981 46.0921 71.5746 41.7733V41.7778Z" fill="#404040"/>
</g>
<path d="M64.4881 0.973482C64.4881 1.51111 59.4693 1.94696 53.2773 1.94696C47.0852 1.94696 42.0664 1.51111 42.0664 0.973482C42.0664 0.435854 47.0852 0 53.2773 0C59.4693 0 64.4881 0.435854 64.4881 0.973482Z" fill="#404040"/>
<g style="mix-blend-mode:screen">
<path d="M44.5289 42.1917C43.5519 42.0634 42.5682 41.9881 41.5845 41.924C40.9309 41.8819 40.2796 41.8421 39.6261 41.7957C39.5904 42.1806 39.5591 42.5678 39.5368 42.955C38.9814 53.3248 39.6662 68.3584 39.6662 68.3584C39.6662 68.3584 42.2581 69.7346 45.2627 69.8496L44.4976 43.4838C44.4976 43.4838 44.4999 43.0059 44.5266 42.1917H44.5289Z" fill="#FFF7ED"/>
</g>
<g style="mix-blend-mode:screen">
<path d="M49.3091 13.5647H48.2696C48.2696 13.5647 48.031 19.1777 46.4205 22.1623C46.4205 22.1623 41.4129 30.4081 39.9161 39.5301C40.1682 39.5655 40.4225 39.5943 40.6768 39.6164C41.7764 39.7115 42.8828 39.7071 43.9869 39.696C44.2078 39.6938 44.4286 39.6916 44.6494 39.6872C44.9282 35.3087 45.7112 28.1913 47.9217 24.1115C51.2742 17.921 49.3091 13.5647 49.3091 13.5647Z" fill="#FFF7ED"/>
</g>
<g style="mix-blend-mode:multiply">
<path d="M65.4428 25.0826C63.8814 22.1223 61.6597 19.1974 60.685 15.9717C60.0336 13.8145 59.9935 11.8631 60.2969 10.1507C58.9362 11.049 57.377 11.6618 55.7621 11.8941C54.7182 12.0446 53.6587 12.0401 52.6103 11.9229C51.6935 11.8211 50.7857 11.6994 49.9068 11.4118C49.1931 11.1795 48.5127 10.8521 47.8949 10.4273C47.3171 10.0312 46.7974 9.55777 46.3223 9.04669C46.1461 8.85863 45.9766 8.66615 45.8093 8.46924C46.4874 10.5423 46.7193 13.0689 45.8427 15.9673C44.868 19.1908 42.6485 22.1179 41.0849 25.0782C40.728 25.753 40.3845 26.4344 40.0499 27.1203C40.7459 26.3835 41.511 25.7131 42.3608 25.1556C45.6442 22.9962 49.8221 22.9077 53.614 23.202C56.6922 23.4409 59.7637 24.1976 62.4516 25.733C64.7625 27.0517 66.6874 28.9124 68.2399 31.0496C67.4057 29.0186 66.4711 27.0273 65.4428 25.0782V25.0826Z" fill="#404040"/>
</g>
</g>
<defs>
<clipPath id="clip0_361_4545">
<rect width="73" height="71" fill="white"/>
</clipPath>
</defs>
</svg>
