<svg width="53.000000" height="103.000000" viewBox="0 0 53 103" fill="none" xmlns="http://www.w3.org/2000/svg" xmlns:xlink="http://www.w3.org/1999/xlink">
	<desc>
			Created with Pixso.
	</desc>
	<defs>
		<clipPath id="clip7_167">
			<rect id="img-1-9" width="53.000000" height="103.000000" fill="white" fill-opacity="0"/>
		</clipPath>
	</defs>
	<g clip-path="url(#clip7_167)">
		<path id="path" d="M39.6 78.18C39.67 78.18 39.73 78.18 39.79 78.18C39.86 78.18 39.92 78.18 39.98 78.18C53.23 77.98 52.15 67.69 50.02 61.05L29.56 61.05C27.4 67.67 26.2 77.99 39.6 78.18ZM30.31 61.39L32.17 61.39C27.85 74.57 36.81 77.9 36.81 77.9C36.81 77.9 25.3 76.88 30.31 61.39Z" fill="#B49571" fill-opacity="1.000000" fill-rule="nonzero"/>
		<path id="path" d="M47.56 57.56C47.75 57.5 47.78 57.08 47.63 56.62C47.47 56.16 47.21 55.84 47.02 55.91C46.83 55.98 46.8 56.38 46.95 56.85C47.11 57.31 47.37 57.62 47.56 57.56Z" fill="#B49571" fill-opacity="1.000000" fill-rule="nonzero"/>
		<path id="path" d="M48.16 58.39C48.27 58.36 48.28 58.13 48.2 57.88C48.12 57.63 47.97 57.45 47.87 57.49C47.76 57.52 47.75 57.75 47.83 58C47.91 58.25 48.06 58.43 48.16 58.39Z" fill="#B49571" fill-opacity="1.000000" fill-rule="nonzero"/>
		<path id="path" d="M41.44 100.62C41.44 100.62 39.83 86.52 40.91 79.56C61.28 78.58 48.5 54.84 48.5 54.84L31.07 54.84C31.07 54.84 18.13 78.86 39.04 79.58C40.12 86.55 38.51 100.62 38.51 100.62C38.51 100.62 37.75 101.75 27.54 101.75L27.54 102.17L52.4 102.17L52.4 101.75C42.21 101.75 41.44 100.62 41.44 100.62ZM39.17 101.03C38.98 101.23 36.85 101.41 36.85 101.41C36.85 101.41 38.36 101.03 38.61 100.76C38.86 100.47 39.1 96.36 39.1 96.36C39.1 96.36 39.36 100.82 39.17 101.03ZM31.56 55.15L48.02 55.15C48.02 55.15 60.46 78.23 39.99 78.54C39.92 78.54 39.86 78.54 39.79 78.54C39.72 78.54 39.66 78.54 39.59 78.54C19.12 78.23 31.56 55.15 31.56 55.15ZM40.74 101.2C39.18 97.02 40.36 79.84 40.36 79.84C40.36 79.84 39.99 79.84 39.43 79.61C40.08 79.75 40.87 79.56 40.71 79.61C40.71 79.61 40.37 82.31 40.33 85.93C40.26 90.76 40.54 97.21 41.31 100.97C41.72 101.32 43.68 101.59 43.68 101.59C43.68 101.59 40.97 101.51 40.74 101.2Z" fill="#B49571" fill-opacity="1.000000" fill-rule="nonzero"/>
		<path id="path" d="M14.98 1.1C14.98 0.49 14.32 0 13.48 0L10.18 0C9.36 0 8.68 0.49 8.68 1.1L8.68 8.84L14.97 8.84L14.98 1.1ZM9.12 2.9C9.12 2.4 9.52 1.99 10.02 1.99C10.52 1.99 10.93 2.4 10.93 2.9C10.93 3.4 10.52 3.8 10.02 3.8C9.52 3.8 9.12 3.4 9.12 2.9ZM10.02 7.19C9.77 7.19 9.56 6.99 9.56 6.73C9.56 6.47 9.76 6.26 10.02 6.26C10.28 6.26 10.49 6.47 10.49 6.73C10.49 6.99 10.28 7.19 10.02 7.19ZM11.12 5.74C10.79 5.74 10.53 5.48 10.53 5.16C10.53 4.84 10.79 4.57 11.12 4.57C11.44 4.57 11.7 4.84 11.7 5.16C11.7 5.48 11.44 5.74 11.12 5.74ZM11.84 1.51C11.84 1.23 12.06 1.02 12.33 1.02C12.6 1.02 12.82 1.23 12.82 1.51C12.82 1.78 12.6 1.99 12.33 1.99C12.06 1.99 11.84 1.78 11.84 1.51ZM12.42 3.74C12.42 3.28 12.8 2.9 13.27 2.9C13.73 2.9 14.11 3.28 14.11 3.74C14.11 4.21 13.73 4.59 13.27 4.59C12.8 4.59 12.42 4.21 12.42 3.74ZM13.72 7.57C13.22 7.57 12.8 7.17 12.8 6.66C12.8 6.14 13.21 5.74 13.72 5.74C14.23 5.74 14.64 6.14 14.64 6.66C14.64 7.17 14.23 7.57 13.72 7.57Z" fill="#B49571" fill-opacity="1.000000" fill-rule="nonzero"/>
		<path id="path" d="M20.39 79.29L3.67 79.29L3.67 85.93L20.39 85.93L20.39 79.29Z" fill="#B49571" fill-opacity="1.000000" fill-rule="nonzero"/>
		<path id="path" d="M20.11 57.94L3.67 57.94L3.67 60.63L20.11 60.63L20.11 57.94Z" fill="#B49571" fill-opacity="1.000000" fill-rule="nonzero"/>
		<path id="path" d="M15.92 37.88L15.92 15.29L16.47 15.29C16.96 15.29 17.35 14.9 17.35 14.41L17.35 11.33C17.35 10.84 16.96 10.45 16.47 10.45L7.23 10.45C6.74 10.45 6.35 10.84 6.35 11.33L6.35 14.41C6.35 14.9 6.74 15.29 7.23 15.29L7.77 15.29L7.77 37.88C7.77 37.88 0 40.28 0 48.06L0 99.62C0 100.5 0.71 101.2 1.58 101.2L22.11 101.2C22.99 101.2 23.69 100.49 23.69 99.62L23.69 48.06C23.69 40.28 15.92 37.88 15.92 37.88ZM18.73 40.18C18.91 40.06 19.33 40.41 19.69 40.95C20.05 41.48 20.2 42.02 20.02 42.12C19.85 42.24 19.42 41.9 19.06 41.36C18.7 40.83 18.55 40.29 18.73 40.18ZM8.55 17.04L9.87 17.04L9.11 37.77L8.55 37.77L8.55 17.04ZM1.43 98.88L1.43 47.7C1.43 47.7 1.51 42.19 8.56 38.46C3.4 42.76 3.33 48.22 3.33 48.22L3.36 55.07L2.52 55.07L2.52 87.16L3.5 87.16L3.55 98.87L1.43 98.88ZM20.92 86.61L3.06 86.61L3.06 55.63L20.92 55.63L20.92 86.61ZM20.92 42.27C21.13 42.62 21.2 42.97 21.08 43.04C20.96 43.11 20.7 42.87 20.5 42.5C20.3 42.13 20.21 41.8 20.33 41.73C20.45 41.66 20.71 41.9 20.92 42.27Z" fill="#B49571" fill-opacity="1.000000" fill-rule="nonzero"/>
		<path id="path" d="M5.89 67.05L5.89 78.18L13.63 78.18L13.63 68.93L11.7 68.93L11.7 67.05L5.89 67.05Z" fill="#B49571" fill-opacity="1.000000" fill-rule="nonzero"/>
		<path id="path" d="M17.82 61.74L12.26 61.74L12.26 68.03L17.82 68.03L17.82 61.74Z" fill="#B49571" fill-opacity="1.000000" fill-rule="nonzero"/>
	</g>
</svg>
