<svg width="57.000000" height="102.000000" viewBox="0 0 57 102" fill="none" xmlns="http://www.w3.org/2000/svg" xmlns:xlink="http://www.w3.org/1999/xlink">
	<desc>
			Created with Pixso.
	</desc>
	<defs>
		<clipPath id="clip7_69">
			<rect id="img-1-5" width="57.000000" height="102.000000" fill="white" fill-opacity="0"/>
		</clipPath>
	</defs>
	<g clip-path="url(#clip7_69)">
		<path id="path" d="M33.42 90.24C33.48 90.55 33.77 90.76 34.09 90.72L37.76 90.06L34.17 90.4C33.96 90.4 33.77 90.27 33.71 90.06L32.82 86.53L33.42 90.24Z" fill="#B49571" fill-opacity="1.000000" fill-rule="nonzero"/>
		<path id="path" d="M47.39 72.69L28.2 72.69L28.2 101.61L56.77 101.61L56.77 72.69L47.39 72.69ZM28.5 101.15L28.5 90.04L29.05 100.47L36.89 101.15L28.5 101.15ZM37.7 84.28C37.7 84.65 37.76 85.04 37.76 85.42C37.61 85.1 37.27 84.9 36.89 84.97L33.04 85.63C32.82 85.66 32.63 85.78 32.5 85.97C32.38 86.14 32.33 86.37 32.36 86.59L33.02 90.44C33.09 90.84 33.43 91.13 33.83 91.13C33.88 91.13 33.92 91.13 33.97 91.12L37.78 90.47L33.83 91.13C33.35 91.21 32.94 90.89 32.86 90.41L32.05 85.65C31.96 85.17 32.29 84.71 32.77 84.63L37.54 83.82C37.61 83.81 37.68 83.82 37.76 83.82C37.76 83.87 37.76 83.91 37.76 83.96L32.77 84.63L37.7 84.28ZM36.7 85.79C36.92 85.79 37.1 85.92 37.16 86.13L37.77 88.27C37.77 88.92 37.77 89.58 37.78 90.23L33.94 90.88C33.61 90.94 33.3 90.72 33.24 90.39L32.59 86.54C32.56 86.39 32.59 86.22 32.69 86.1C32.79 85.97 32.93 85.87 33.08 85.85L36.93 85.19C36.93 85.19 37 85.19 37.03 85.19C37.33 85.19 37.57 85.4 37.62 85.7L37.76 86.52C37.76 86.88 37.76 87.23 37.76 87.6L37.44 85.95C37.38 85.64 37.09 85.43 36.77 85.47L33.08 85.85L36.7 85.79ZM37.64 83.58L32.6 84.44C32.09 84.52 31.74 85.02 31.84 85.52L32.69 90.57C32.77 91.07 33.27 91.42 33.77 91.33L37.78 90.65C37.78 91.02 37.78 91.4 37.78 91.77L33.95 92.43C33.83 92.45 33.71 92.47 33.61 92.47C32.61 92.47 31.75 91.75 31.59 90.76L30.73 85.72C30.64 85.18 30.77 84.64 31.08 84.19C31.4 83.75 31.87 83.46 32.41 83.36L37.46 82.51C37.56 82.49 37.65 82.49 37.75 82.48C37.75 82.86 37.75 83.22 37.75 83.6C37.71 83.6 37.68 83.58 37.64 83.58ZM37.75 81.66L30.02 81.66L30.02 96.34L37.85 96.34C37.85 96.58 37.85 96.82 37.85 97.04L29.41 97.04L29.41 73.37L37.88 73.37C37.78 75.21 37.76 78.26 37.75 81.66ZM38.01 97.05C38.01 96.82 38.01 96.58 38.01 96.35L47.31 96.35C47.31 96.6 47.31 96.83 47.31 97.05L38.01 97.05ZM38.09 89.22C38.09 88.95 38.09 88.69 38.09 88.42L38.28 89.53C38.3 89.69 38.28 89.85 38.17 89.98C38.17 89.74 38.08 89.59 38.08 89.35L38.16 89.63L38.09 89.22ZM38.36 90.11C38.49 89.93 38.53 89.71 38.5 89.49L38.09 87.09C38.09 86.25 38.09 85.38 38.09 84.51L39.36 89.27L38.44 84.43C38.41 84.23 38.26 84.08 38.09 84.01C38.32 84.14 38.5 84.25 38.55 84.54L39.36 89.27C39.44 89.76 39.11 90.24 38.63 90.32L38.07 90.41C38.17 90.35 38.29 90.21 38.36 90.11ZM38.82 90.47C39.32 90.39 39.67 89.9 39.58 89.39L38.72 84.35C38.66 84 38.41 83.74 38.09 83.63C38.09 83.26 38.09 82.87 38.09 82.49C38.96 82.62 39.66 83.28 39.81 84.17L40.67 89.22C40.86 90.33 40.11 91.39 38.99 91.57L38.05 91.74C38.05 91.36 38.05 90.99 38.05 90.61L38.82 90.47ZM47.23 86.87C47.23 88.84 47.25 90.8 47.27 92.62L44.35 91.68C44.11 91.59 43.97 91.34 44 91.08L44.69 86.68L43.6 91.14C43.52 91.52 43.74 91.9 44.12 92.01L47.3 92.74C47.3 92.81 47.3 92.86 47.3 92.94L43.87 92.11C43.47 92.02 43.24 91.62 43.33 91.23L44.45 86.59C44.53 86.26 44.82 86.03 45.16 86.03C45.22 86.03 45.28 86.03 45.34 86.05L47.25 86.51C47.25 86.56 47.25 86.62 47.25 86.68L45.34 86.05L47.23 86.87ZM45.37 85.78C44.83 85.65 44.28 85.99 44.15 86.53L43.04 91.18C42.91 91.72 43.25 92.27 43.79 92.4L47.27 93.23L43.67 92.37C43.1 92.23 42.73 91.64 42.88 91.07L44.25 85.32C44.39 84.73 44.98 84.38 45.55 84.52L47.22 85.1C47.22 85.47 47.22 85.85 47.22 86.22L45.37 85.78ZM45.55 84.52L47.22 84.91L45.55 84.52ZM45.43 84.24C44.82 84.09 44.2 84.48 44.05 85.09L42.59 91.18C42.44 91.79 42.83 92.41 43.44 92.56L47.27 93.47C47.27 93.86 47.27 94.25 47.29 94.62L43.18 93.64C42.59 93.5 42.1 93.13 41.78 92.62C41.47 92.1 41.37 91.5 41.51 90.92L42.97 84.83C43.25 83.64 44.48 82.87 45.69 83.16L47.2 83.53C47.2 83.9 47.2 84.29 47.2 84.66L45.43 84.24ZM47.22 81.66L38.09 81.66C38.08 78.77 37.95 75.91 37.88 73.37L47.36 73.38C47.26 75.22 47.23 78.26 47.22 81.66ZM47.52 92.7C47.53 90.93 47.56 89.01 47.56 87L49.41 87.71C49.66 87.81 49.8 88.05 49.76 88.31L49.2 92.75L50.17 88.25C50.25 87.88 50.03 87.49 49.66 87.39L47.56 86.78C47.56 86.72 47.56 86.65 47.56 86.59L49.95 87.16C50.35 87.26 50.58 87.66 50.49 88.04L49.37 92.69C49.28 93.08 48.88 93.32 48.49 93.23L47.51 92.99C47.51 92.92 47.52 92.76 47.52 92.7L48.54 93.03L47.52 92.7ZM48.44 93.5C48.52 93.52 48.59 93.52 48.67 93.52C49.14 93.52 49.55 93.21 49.66 92.75L50.77 88.1C50.9 87.56 50.56 87.01 50.02 86.88L47.56 86.29C47.56 85.93 47.56 85.57 47.56 85.2L51.25 86.49C51.5 86.59 51.64 86.83 51.6 87.09L50.7 92.92L52 87.03C52.08 86.66 51.86 86.27 51.49 86.17L47.54 85.07L51.29 85.9C51.86 86.04 52.23 86.62 52.08 87.2L50.7 92.92C50.56 93.51 49.98 93.89 49.41 93.74L47.5 93.29L48.44 93.5ZM49.54 94C50.15 94.16 50.77 93.77 50.92 93.16L52.38 87.07C52.53 86.46 52.14 85.84 51.53 85.68L47.57 84.73C47.57 84.36 47.57 83.97 47.57 83.6L51.79 84.61C53 84.9 53.75 86.12 53.46 87.33L52 93.42C51.76 94.44 50.85 95.15 49.81 95.15C49.63 95.15 49.46 95.13 49.28 95.09L47.5 94.67C47.5 94.3 47.5 93.92 47.51 93.53L49.54 94ZM54.96 96.34L54.96 81.66L47.54 81.66C47.53 78.77 47.43 75.92 47.36 73.38L55.56 73.38L55.56 97.05L47.46 97.05C47.46 96.82 47.46 96.58 47.46 96.35L54.96 96.34ZM56.41 98.92L56.41 101.15L47.99 101.15L55.89 100.47L56.41 79.44L56.41 98.92Z" fill="#B49571" fill-opacity="1.000000" fill-rule="nonzero"/>
		<path id="path" d="M17.39 1.07C17.39 0.48 16.91 0 16.31 0L10.05 0C9.45 0 8.97 0.48 8.97 1.07L8.97 5.26L17.39 5.26L17.39 1.07ZM10.91 0.92C10.64 0.95 10.42 1.18 10.42 1.45L10.39 4.95L9.6 4.95L9.6 0.84C9.6 0.62 9.78 0.44 9.99 0.44L16.51 0.3L10.91 0.92Z" fill="#B49571" fill-opacity="1.000000" fill-rule="nonzero"/>
		<path id="path" d="M17.39 5.53L8.97 5.53L8.97 16.17L17.39 16.17L17.39 5.53ZM10.35 15.55L9.6 15.55L9.6 5.87L10.35 5.87L10.35 15.55Z" fill="#B49571" fill-opacity="1.000000" fill-rule="nonzero"/>
		<path id="path" d="M24.32 53.33L1.83 53.33L1.83 54.27L24.32 54.27L24.32 53.33Z" fill="#B49571" fill-opacity="1.000000" fill-rule="nonzero"/>
		<path id="path" d="M24.32 86.27L1.83 86.27L1.83 87.21L24.32 87.21L24.32 86.27Z" fill="#B49571" fill-opacity="1.000000" fill-rule="nonzero"/>
		<path id="path" d="M23.42 69.8C23.42 62.6 18.81 56.74 13.12 56.74C7.43 56.74 2.82 62.58 2.82 69.8C2.82 77.01 7.43 82.86 13.12 82.86C18.81 82.86 23.42 77.01 23.42 69.8ZM6.2 78.32L6.2 72.4L3.78 72.4L3.78 67.74L6.2 67.74L6.2 62.07L19.7 62.07L19.7 67.74L22.12 67.74L22.12 72.4L19.7 72.4L19.7 78.32L6.2 78.32Z" fill="#B49571" fill-opacity="1.000000" fill-rule="nonzero"/>
		<path id="path" d="M18.29 63.34L7.53 63.34L7.53 66.78L18.29 66.78L18.29 63.34Z" fill="#B49571" fill-opacity="1.000000" fill-rule="nonzero"/>
		<path id="path" d="M21.28 68.35L4.58 68.35L4.58 71.79L21.28 71.79L21.28 68.35Z" fill="#B49571" fill-opacity="1.000000" fill-rule="nonzero"/>
		<path id="path" d="M18.29 72.82L7.53 72.82L7.53 74.83L18.29 74.83L18.29 72.82Z" fill="#B49571" fill-opacity="1.000000" fill-rule="nonzero"/>
		<path id="path" d="M17.35 75.35L8.48 75.35L8.48 77.01L17.35 77.01L17.35 75.35Z" fill="#B49571" fill-opacity="1.000000" fill-rule="nonzero"/>
		<path id="path" d="M18.12 36.61C18.61 32.46 18.86 21.9 16.9 16.87L9.46 16.87C7.52 21.9 7.76 32.42 8.24 36.6C8.57 39.94 0 40.61 0 45.68L0 97.76C0 98.82 0.86 99.69 1.93 99.69L24.42 99.69C25.49 99.69 26.36 98.82 26.36 97.76L26.36 45.68C26.36 40.62 17.84 39.93 18.12 36.61ZM10.3 18.04C10.21 18.58 9.32 22.45 9.32 27.91C9.32 33.36 9.58 36.06 9.73 37.77C9.17 37.77 8.71 33.36 8.71 27.91C8.71 22.45 9.73 18.04 10.3 18.04ZM2.54 44.85C4.79 41.42 6.59 41.94 9.08 39.48C8.72 41.2 5.33 42.49 4.05 45.57C3.85 46.05 3.78 48.33 3.78 51.67L1.75 51.67C1.88 48.03 2.13 45.47 2.54 44.85ZM1.86 99.12C1.14 98.97 0.77 98.25 0.95 97.55C1.47 98.97 21.69 99.12 21.69 99.12L1.86 99.12ZM2.13 88.91L4.55 88.91C4.58 91.01 4.61 92.96 4.61 94.65C4.61 95.34 20.29 95.4 20.29 96.01L3.16 95.81C2.72 95.81 2.35 95.46 2.33 95.01C2.29 93.92 2.21 91.75 2.13 88.91ZM25.3 88.3L4.54 88.3L2.11 88.35L0.95 88.3L0.95 52.33L1.73 52.33L3.78 52.24L25.29 52.33L25.3 88.3ZM25.64 47.32C25.5 47.37 25.29 47.1 25.16 46.72C25.03 46.35 25.04 46.01 25.18 45.96C25.32 45.91 25.54 46.18 25.66 46.56C25.79 46.93 25.78 47.27 25.64 47.32ZM25.58 44.22C25.78 44.83 25.77 45.39 25.55 45.47C25.32 45.55 24.97 45.1 24.77 44.49C24.57 43.88 24.59 43.33 24.81 43.25C25.03 43.18 25.38 43.61 25.58 44.22Z" fill="#B49571" fill-opacity="1.000000" fill-rule="nonzero"/>
	</g>
</svg>
