<svg width="565" height="98" viewBox="0 0 565 98" fill="none" xmlns="http://www.w3.org/2000/svg">
<path d="M564.884 50.1116C564.961 50.1116 565 50.2272 565 50.4584C565 50.6895 564.961 50.8051 564.884 50.8051H554.597C553.75 50.8051 552.17 49.2254 549.858 46.0661C547.546 42.8682 544.753 38.4181 541.478 32.7158C541.17 32.7544 540.727 32.7736 540.149 32.7736C538.646 32.7736 537.587 32.7544 536.97 32.7158V46.1239C536.97 47.3183 537.067 48.1852 537.259 48.7246C537.452 49.264 537.818 49.63 538.357 49.8226C538.935 50.0153 539.841 50.1116 541.074 50.1116C541.151 50.1116 541.189 50.2272 541.189 50.4584C541.189 50.6895 541.151 50.8051 541.074 50.8051C539.802 50.8051 538.8 50.7859 538.068 50.7473L533.676 50.6895L529.457 50.7473C528.687 50.7859 527.646 50.8051 526.336 50.8051C526.221 50.8051 526.163 50.6895 526.163 50.4584C526.163 50.2272 526.221 50.1116 526.336 50.1116C527.569 50.1116 528.455 50.0153 528.995 49.8226C529.573 49.63 529.958 49.264 530.151 48.7246C530.382 48.1466 530.497 47.2797 530.497 46.1239V19.3656C530.497 18.2098 530.401 17.3621 530.208 16.8227C530.016 16.2833 529.631 15.9173 529.053 15.7246C528.475 15.4935 527.588 15.3779 526.394 15.3779C526.317 15.3779 526.279 15.2623 526.279 15.0311C526.279 14.8 526.317 14.6844 526.394 14.6844L529.457 14.7422C531.229 14.8192 532.636 14.8577 533.676 14.8577C534.793 14.8577 536.026 14.8 537.375 14.6844C537.799 14.6458 538.338 14.6073 538.993 14.5688C539.687 14.5302 540.496 14.511 541.42 14.511C544.965 14.511 547.701 15.166 549.627 16.476C551.592 17.7474 552.574 19.539 552.574 21.8507C552.574 23.623 552.035 25.3183 550.956 26.9365C549.877 28.5547 548.471 29.8647 546.737 30.8665C549.82 35.7211 552.401 39.5162 554.482 42.2517C556.601 44.9873 558.469 46.9908 560.088 48.2622C561.744 49.4951 563.343 50.1116 564.884 50.1116ZM536.97 31.0398C537.895 31.194 539.012 31.271 540.322 31.271C541.709 31.271 542.807 31.0591 543.616 30.6353C544.426 30.2115 545.003 29.4794 545.35 28.4391C545.736 27.3989 545.928 25.9348 545.928 24.0469C545.928 20.8875 545.466 18.7106 544.541 17.5162C543.616 16.3218 542.287 15.7246 540.553 15.7246C539.243 15.7246 538.319 16.0136 537.779 16.5915C537.24 17.1695 536.97 18.1327 536.97 19.4812V31.0398Z" fill="#B49571"/>
<path d="M500.871 51.4988C497.288 51.4988 494.09 50.6705 491.278 49.0137C488.503 47.3185 486.346 45.0453 484.805 42.1941C483.302 39.3045 482.551 36.1644 482.551 32.7738C482.551 28.8054 483.552 25.4148 485.556 22.6022C487.559 19.7511 490.122 17.6127 493.242 16.1872C496.402 14.7616 499.619 14.0488 502.894 14.0488C506.554 14.0488 509.771 14.9157 512.545 16.6495C515.319 18.3448 517.439 20.5987 518.903 23.4113C520.405 26.2239 521.157 29.2099 521.157 32.3693C521.157 35.8754 520.232 39.0926 518.382 42.0207C516.533 44.9489 514.048 47.2607 510.927 48.9559C507.845 50.6512 504.493 51.4988 500.871 51.4988ZM502.778 50.054C504.936 50.054 506.862 49.4375 508.558 48.2046C510.291 46.9332 511.64 45.103 512.603 42.7143C513.566 40.2869 514.048 37.3973 514.048 34.0453C514.048 30.5006 513.509 27.3413 512.43 24.5672C511.351 21.7546 509.791 19.5584 507.749 17.9788C505.707 16.3991 503.318 15.6092 500.582 15.6092C497.076 15.6092 494.379 16.9385 492.491 19.597C490.603 22.2169 489.659 25.8964 489.659 30.6355C489.659 34.3728 490.218 37.7248 491.335 40.6915C492.491 43.6197 494.052 45.9122 496.017 47.5689C498.02 49.2256 500.274 50.054 502.778 50.054Z" fill="#B49571"/>
<path d="M472.083 22.0819C472.083 20.0013 471.601 18.3638 470.638 17.1694C469.713 15.975 468.403 15.3778 466.708 15.3778C466.631 15.3778 466.593 15.2623 466.593 15.0311C466.593 14.7999 466.631 14.6843 466.708 14.6843L469.482 14.7421C470.946 14.8192 472.121 14.8577 473.008 14.8577C473.74 14.8577 474.799 14.8192 476.186 14.7421L478.845 14.6843C478.922 14.6843 478.96 14.7999 478.96 15.0311C478.96 15.2623 478.922 15.3778 478.845 15.3778C477.342 15.3778 476.167 15.975 475.319 17.1694C474.472 18.3638 474.048 20.0013 474.048 22.0819V38.1484C474.048 40.8454 473.451 43.2149 472.256 45.2569C471.062 47.299 469.367 48.8786 467.17 49.996C465.013 51.0748 462.509 51.6142 459.657 51.6142C456.806 51.6142 454.283 51.0748 452.086 49.996C449.89 48.9172 448.157 47.3568 446.885 45.3147C445.652 43.2342 445.036 40.8069 445.036 38.0328V19.3656C445.036 18.2097 444.92 17.3621 444.689 16.8227C444.496 16.2833 444.111 15.9172 443.533 15.7246C442.994 15.4934 442.127 15.3778 440.932 15.3778C440.817 15.3778 440.759 15.2623 440.759 15.0311C440.759 14.7999 440.817 14.6843 440.932 14.6843L443.995 14.7421C445.768 14.8192 447.174 14.8577 448.214 14.8577C449.37 14.8577 450.834 14.8192 452.607 14.7421L455.554 14.6843C455.67 14.6843 455.727 14.7999 455.727 15.0311C455.727 15.2623 455.67 15.3778 455.554 15.3778C454.36 15.3778 453.474 15.4934 452.896 15.7246C452.356 15.9558 451.971 16.3603 451.74 16.9383C451.547 17.4777 451.451 18.3253 451.451 19.4812V36.01C451.451 40.5949 452.356 43.9855 454.167 46.1816C455.978 48.3778 458.54 49.4758 461.854 49.4758C465.051 49.4758 467.556 48.5126 469.367 46.5862C471.178 44.6212 472.083 41.8279 472.083 38.2062V22.0819Z" fill="#B49571"/>
<path d="M465.805 62.7107C465.921 62.6722 465.998 62.7492 466.036 62.9419C466.113 63.1345 466.113 63.2501 466.036 63.2886C463.802 63.7895 461.451 64.04 458.986 64.04C452.282 64.04 445.385 62.8841 438.296 60.5724C431.245 58.2606 424.618 55.1976 418.415 51.3832C417.336 51.4603 416.527 51.4988 415.987 51.4988C412.404 51.4988 409.206 50.6705 406.394 49.0137C403.62 47.3185 401.462 45.0453 399.921 42.1941C398.418 39.3045 397.667 36.1644 397.667 32.7738C397.667 28.8054 398.669 25.4148 400.672 22.6022C402.676 19.7511 405.238 17.6127 408.359 16.1872C411.518 14.7616 414.735 14.0488 418.01 14.0488C421.67 14.0488 424.888 14.9157 427.662 16.6495C430.436 18.3448 432.555 20.5987 434.019 23.4113C435.521 26.2239 436.273 29.2099 436.273 32.3693C436.273 36.0295 435.271 39.3815 433.268 42.4253C431.264 45.4305 428.606 47.7423 425.292 49.3605L425.928 49.2449C430.474 52.3657 435.926 55.4095 442.283 58.3762C448.679 61.3815 455.402 62.8841 462.453 62.8841C463.84 62.8841 464.958 62.8263 465.805 62.7107ZM404.776 30.6355C404.776 34.3728 405.334 37.7248 406.452 40.6915C407.607 43.6197 409.168 45.9122 411.133 47.5689C413.136 49.2256 415.39 50.054 417.895 50.054C420.052 50.054 421.979 49.4375 423.674 48.2046C425.408 46.9332 426.756 45.103 427.719 42.7143C428.683 40.2869 429.164 37.3973 429.164 34.0453C429.164 30.5006 428.625 27.3413 427.546 24.5672C426.467 21.7546 424.907 19.5584 422.865 17.9788C420.823 16.3991 418.434 15.6092 415.698 15.6092C412.192 15.6092 409.495 16.9385 407.607 19.597C405.72 22.2169 404.776 25.8964 404.776 30.6355Z" fill="#B49571"/>
<path d="M388.201 46.1238C388.201 47.3182 388.297 48.1851 388.49 48.7245C388.682 49.2639 389.048 49.63 389.588 49.8226C390.166 50.0152 391.071 50.1116 392.304 50.1116C392.42 50.1116 392.477 50.2272 392.477 50.4583C392.477 50.6895 392.42 50.8051 392.304 50.8051C391.032 50.8051 390.031 50.7858 389.299 50.7473L384.906 50.6895L380.63 50.7473C379.859 50.7858 378.819 50.8051 377.509 50.8051C377.432 50.8051 377.393 50.6895 377.393 50.4583C377.393 50.2272 377.432 50.1116 377.509 50.1116C378.742 50.1116 379.647 50.0152 380.225 49.8226C380.803 49.63 381.188 49.2639 381.381 48.7245C381.612 48.1466 381.728 47.2797 381.728 46.1238V19.3656C381.728 18.2097 381.612 17.3621 381.381 16.8227C381.188 16.2833 380.803 15.9172 380.225 15.7246C379.647 15.4934 378.742 15.3778 377.509 15.3778C377.432 15.3778 377.393 15.2623 377.393 15.0311C377.393 14.7999 377.432 14.6843 377.509 14.6843L380.63 14.7421C382.402 14.8192 383.828 14.8577 384.906 14.8577C386.101 14.8577 387.584 14.8192 389.356 14.7421L392.304 14.6843C392.42 14.6843 392.477 14.7999 392.477 15.0311C392.477 15.2623 392.42 15.3778 392.304 15.3778C391.11 15.3778 390.223 15.4934 389.645 15.7246C389.068 15.9558 388.682 16.3603 388.49 16.9383C388.297 17.4777 388.201 18.3253 388.201 19.4812V46.1238Z" fill="#B49571"/>
<path d="M355.899 45.8927C355.899 46.8944 355.976 47.6265 356.13 48.0888C356.284 48.5126 356.573 48.8016 356.997 48.9557C357.459 49.1098 358.191 49.1869 359.193 49.1869H361.158C364.163 49.1869 366.764 48.397 368.96 46.8174C371.156 45.1991 372.62 43.0223 373.352 40.2867C373.352 40.2097 373.429 40.1711 373.583 40.1711C373.66 40.1711 373.738 40.2097 373.815 40.2867C373.93 40.3252 373.988 40.3638 373.988 40.4023C373.641 44.2167 373.468 47.3953 373.468 49.9382C373.468 50.2464 373.391 50.4776 373.237 50.6317C373.121 50.7473 372.909 50.8051 372.601 50.8051H345.323C345.246 50.8051 345.207 50.6895 345.207 50.4583C345.207 50.2272 345.246 50.1116 345.323 50.1116C346.555 50.1116 347.442 50.0152 347.981 49.8226C348.559 49.63 348.944 49.2639 349.137 48.7245C349.368 48.1466 349.484 47.2797 349.484 46.1238V19.3656C349.484 18.2097 349.368 17.3621 349.137 16.8227C348.944 16.2833 348.559 15.9172 347.981 15.7246C347.403 15.4934 346.517 15.3778 345.323 15.3778C345.246 15.3778 345.207 15.2623 345.207 15.0311C345.207 14.7999 345.246 14.6843 345.323 14.6843L348.27 14.7421C350.042 14.8192 351.506 14.8577 352.662 14.8577C353.818 14.8577 355.282 14.8192 357.055 14.7421L360.002 14.6843C360.118 14.6843 360.175 14.7999 360.175 15.0311C360.175 15.2623 360.118 15.3778 360.002 15.3778C358.808 15.3778 357.921 15.4934 357.344 15.7246C356.766 15.9172 356.38 16.3025 356.188 16.8805C355.995 17.4199 355.899 18.2675 355.899 19.4234V45.8927Z" fill="#B49571"/>
<path d="M286.185 41.616C286.185 41.5389 286.262 41.5004 286.416 41.5004C286.532 41.5004 286.628 41.5389 286.705 41.616C286.821 41.6545 286.879 41.693 286.879 41.7316C286.493 44.7368 286.301 47.4723 286.301 49.9382C286.301 50.2464 286.243 50.4776 286.127 50.6317C286.012 50.7473 285.781 50.8051 285.434 50.8051H259.889C259.774 50.8051 259.716 50.6895 259.716 50.4583C259.716 50.2272 259.774 50.1116 259.889 50.1116C261.122 50.1116 262.008 50.0152 262.548 49.8226C263.126 49.63 263.511 49.2639 263.704 48.7245C263.896 48.1466 263.993 47.2797 263.993 46.1238V19.3656C263.993 18.2097 263.896 17.3621 263.704 16.8227C263.511 16.2833 263.126 15.9172 262.548 15.7246C261.97 15.4934 261.084 15.3778 259.889 15.3778C259.774 15.3778 259.716 15.2623 259.716 15.0311C259.716 14.7999 259.774 14.6843 259.889 14.6843H284.394C284.779 14.6843 284.972 14.8577 284.972 15.2045L285.087 22.891C285.087 22.968 284.972 23.0258 284.74 23.0643C284.548 23.1029 284.432 23.0643 284.394 22.9488C283.777 20.7141 282.737 19.0573 281.273 17.9785C279.809 16.8997 277.882 16.3603 275.493 16.3603H273.76C272.604 16.3603 271.756 16.6108 271.217 17.1116C270.677 17.6125 270.408 18.3831 270.408 19.4234V31.2132H275.204C277.439 31.2132 279.154 30.8279 280.348 30.0573C281.542 29.2867 282.14 28.2079 282.14 26.8209C282.14 26.7053 282.236 26.6475 282.429 26.6475C282.66 26.6475 282.775 26.7053 282.775 26.8209L282.718 32.0223L282.775 34.7964C282.852 36.1063 282.891 37.1466 282.891 37.9172C282.891 37.9943 282.775 38.0328 282.544 38.0328C282.313 38.0328 282.197 37.9943 282.197 37.9172C282.197 36.3375 281.581 35.1046 280.348 34.2184C279.154 33.2937 277.42 32.8314 275.147 32.8314H270.408V45.8927C270.408 47.01 270.62 47.8384 271.043 48.3778C271.467 48.9172 272.141 49.1869 273.066 49.1869H274.973C277.979 49.1869 280.387 48.5704 282.197 47.3375C284.008 46.1046 285.338 44.1974 286.185 41.616Z" fill="#B49571"/>
<path d="M238.337 45.8927C238.337 46.8944 238.414 47.6265 238.568 48.0888C238.722 48.5126 239.011 48.8016 239.435 48.9557C239.897 49.1098 240.629 49.1869 241.631 49.1869H243.596C246.601 49.1869 249.202 48.397 251.398 46.8174C253.594 45.1991 255.058 43.0223 255.791 40.2867C255.791 40.2097 255.868 40.1711 256.022 40.1711C256.099 40.1711 256.176 40.2097 256.253 40.2867C256.368 40.3252 256.426 40.3638 256.426 40.4023C256.079 44.2167 255.906 47.3953 255.906 49.9382C255.906 50.2464 255.829 50.4776 255.675 50.6317C255.559 50.7473 255.347 50.8051 255.039 50.8051H227.761C227.684 50.8051 227.645 50.6895 227.645 50.4583C227.645 50.2272 227.684 50.1116 227.761 50.1116C228.994 50.1116 229.88 50.0152 230.419 49.8226C230.997 49.63 231.383 49.2639 231.575 48.7245C231.806 48.1466 231.922 47.2797 231.922 46.1238V19.3656C231.922 18.2097 231.806 17.3621 231.575 16.8227C231.383 16.2833 230.997 15.9172 230.419 15.7246C229.841 15.4934 228.955 15.3778 227.761 15.3778C227.684 15.3778 227.645 15.2623 227.645 15.0311C227.645 14.7999 227.684 14.6843 227.761 14.6843L230.708 14.7421C232.481 14.8192 233.945 14.8577 235.101 14.8577C236.256 14.8577 237.72 14.8192 239.493 14.7421L242.44 14.6843C242.556 14.6843 242.614 14.7999 242.614 15.0311C242.614 15.2623 242.556 15.3778 242.44 15.3778C241.246 15.3778 240.36 15.4934 239.782 15.7246C239.204 15.9172 238.819 16.3025 238.626 16.8805C238.433 17.4199 238.337 18.2675 238.337 19.4234V45.8927Z" fill="#B49571"/>
<path d="M226.095 50.1116C226.288 50.1116 226.384 50.2272 226.384 50.4583C226.384 50.6895 226.288 50.8051 226.095 50.8051C225.325 50.8051 224.13 50.7666 222.512 50.6895C220.817 50.6125 219.603 50.5739 218.871 50.5739C217.908 50.5739 216.733 50.6125 215.346 50.6895C214.036 50.7666 212.995 50.8051 212.225 50.8051C212.071 50.8051 211.994 50.6895 211.994 50.4583C211.994 50.2272 212.071 50.1116 212.225 50.1116C213.227 50.1116 213.939 50.0153 214.363 49.8226C214.825 49.5914 215.057 49.2062 215.057 48.6668C215.057 48.0118 214.671 46.9137 213.901 45.3725L207.89 33.5249H197.603L193.5 42.5985C192.999 43.7158 192.748 44.7561 192.748 45.7193C192.748 47.1063 193.23 48.1851 194.193 48.9557C195.195 49.7263 196.524 50.1116 198.181 50.1116C198.374 50.1116 198.47 50.2272 198.47 50.4583C198.47 50.6895 198.374 50.8051 198.181 50.8051C197.488 50.8051 196.486 50.7666 195.176 50.6895C193.712 50.6125 192.44 50.5739 191.361 50.5739C190.321 50.5739 189.069 50.6125 187.605 50.6895C186.295 50.7666 185.235 50.8051 184.426 50.8051C184.272 50.8051 184.195 50.6895 184.195 50.4583C184.195 50.2272 184.272 50.1116 184.426 50.1116C185.505 50.1116 186.41 49.8997 187.143 49.4759C187.875 49.0135 188.607 48.2237 189.339 47.1063C190.071 45.9505 190.938 44.2552 191.939 42.0205L204.48 14.4532C204.558 14.3376 204.731 14.2798 205.001 14.2798C205.309 14.2798 205.482 14.3376 205.521 14.4532L219.969 42.8874C221.318 45.623 222.435 47.5109 223.321 48.5512C224.207 49.5914 225.132 50.1116 226.095 50.1116ZM198.354 31.9067H207.081L202.458 22.7754L198.354 31.9067Z" fill="#B49571"/>
<path d="M163.427 51.0364C162.194 51.0364 160.73 50.9786 159.034 50.863C158.418 50.8245 157.647 50.7859 156.723 50.7474C155.836 50.7089 154.835 50.6896 153.717 50.6896L149.441 50.7474C148.67 50.7859 147.63 50.8052 146.32 50.8052C146.243 50.8052 146.204 50.6896 146.204 50.4584C146.204 50.2273 146.243 50.1117 146.32 50.1117C147.553 50.1117 148.458 50.0153 149.036 49.8227C149.614 49.6301 149.999 49.264 150.192 48.7246C150.423 48.1467 150.539 47.2798 150.539 46.1239V19.3657C150.539 18.2098 150.423 17.3622 150.192 16.8228C149.999 16.2834 149.614 15.9174 149.036 15.7247C148.497 15.4935 147.63 15.378 146.435 15.378C146.32 15.378 146.262 15.2624 146.262 15.0312C146.262 14.8 146.32 14.6844 146.435 14.6844L149.498 14.7422C151.271 14.8193 152.677 14.8578 153.717 14.8578C155.297 14.8578 156.915 14.8 158.572 14.6844C160.575 14.6074 161.924 14.5688 162.617 14.5688C166.509 14.5688 169.957 15.3394 172.962 16.8806C176.006 18.4217 178.356 20.5215 180.013 23.18C181.67 25.8385 182.498 28.8245 182.498 32.138C182.498 35.8753 181.631 39.1888 179.898 42.0784C178.202 44.9295 175.891 47.145 172.962 48.7246C170.073 50.2658 166.894 51.0364 163.427 51.0364ZM162.849 49.7071C165.314 49.7071 167.491 49.0907 169.379 47.8577C171.267 46.5863 172.731 44.7176 173.772 42.2518C174.85 39.786 175.39 36.8385 175.39 33.4094C175.39 30.1345 174.889 27.1678 173.887 24.5093C172.885 21.8123 171.46 19.6932 169.61 18.152C167.761 16.6109 165.623 15.8403 163.195 15.8403C160.807 15.8403 159.169 16.0715 158.283 16.5338C157.397 16.9962 156.954 17.9786 156.954 19.4813V45.4882C156.954 47.0294 157.358 48.1274 158.167 48.7824C158.976 49.3989 160.537 49.7071 162.849 49.7071Z" fill="#B49571"/>
<path d="M143.872 14.6843C143.949 14.6843 143.988 14.7999 143.988 15.0311C143.988 15.2623 143.949 15.3778 143.872 15.3778C142.331 15.3778 141.117 15.9943 140.231 17.2272C139.345 18.4216 138.902 20.0398 138.902 22.0819V51.672C138.902 51.7876 138.806 51.8646 138.613 51.9032C138.459 51.9417 138.343 51.9224 138.266 51.8454L111.161 20.9838V43.4653C111.161 45.5074 111.585 47.1256 112.433 48.32C113.28 49.5144 114.455 50.1116 115.958 50.1116C116.035 50.1116 116.074 50.2272 116.074 50.4583C116.074 50.6895 116.035 50.8051 115.958 50.8051C114.879 50.8051 114.051 50.7858 113.473 50.7473L110.352 50.6895L106.769 50.7473C106.114 50.7858 105.17 50.8051 103.937 50.8051C103.821 50.8051 103.764 50.6895 103.764 50.4583C103.764 50.2272 103.821 50.1116 103.937 50.1116C105.632 50.1116 106.962 49.5144 107.925 48.32C108.926 47.1256 109.427 45.5074 109.427 43.4653V19.0188C108.156 17.6318 107.058 16.6878 106.133 16.1869C105.247 15.6475 104.322 15.3778 103.359 15.3778C103.282 15.3778 103.243 15.2623 103.243 15.0311C103.243 14.7999 103.282 14.6843 103.359 14.6843L105.786 14.7421C106.287 14.7806 107.019 14.7999 107.983 14.7999L112.375 14.7421C112.914 14.7036 113.569 14.6843 114.34 14.6843C114.648 14.6843 114.879 14.7614 115.033 14.9155C115.187 15.0696 115.457 15.3971 115.842 15.898C116.497 16.7841 116.96 17.3813 117.229 17.6896L137.226 40.7491V22.0819C137.226 20.0013 136.802 18.3638 135.954 17.1694C135.107 15.975 133.932 15.3778 132.429 15.3778C132.352 15.3778 132.313 15.2623 132.313 15.0311C132.313 14.7999 132.352 14.6843 132.429 14.6843L134.914 14.7421C136.147 14.8192 137.187 14.8577 138.035 14.8577C138.806 14.8577 139.884 14.8192 141.271 14.7421L143.872 14.6843Z" fill="#B49571"/>
<path d="M98.8652 41.616C98.8652 41.5389 98.9422 41.5004 99.0963 41.5004C99.2119 41.5004 99.3083 41.5389 99.3853 41.616C99.5009 41.6545 99.5587 41.693 99.5587 41.7316C99.1734 44.7368 98.9808 47.4723 98.9808 49.9382C98.9808 50.2464 98.923 50.4776 98.8074 50.6317C98.6918 50.7473 98.4606 50.8051 98.1139 50.8051H72.5693C72.4537 50.8051 72.3959 50.6895 72.3959 50.4583C72.3959 50.2272 72.4537 50.1116 72.5693 50.1116C73.8022 50.1116 74.6883 50.0152 75.2277 49.8226C75.8057 49.63 76.191 49.2639 76.3836 48.7245C76.5762 48.1466 76.6726 47.2797 76.6726 46.1238V19.3656C76.6726 18.2097 76.5762 17.3621 76.3836 16.8227C76.191 16.2833 75.8057 15.9172 75.2277 15.7246C74.6498 15.4934 73.7636 15.3778 72.5693 15.3778C72.4537 15.3778 72.3959 15.2623 72.3959 15.0311C72.3959 14.7999 72.4537 14.6843 72.5693 14.6843H97.0736C97.4589 14.6843 97.6515 14.8577 97.6515 15.2045L97.7671 22.891C97.7671 22.968 97.6515 23.0258 97.4203 23.0643C97.2277 23.1029 97.1121 23.0643 97.0736 22.9488C96.4571 20.7141 95.4168 19.0573 93.9527 17.9785C92.4886 16.8997 90.5622 16.3603 88.1734 16.3603H86.4396C85.2838 16.3603 84.4361 16.6108 83.8967 17.1116C83.3573 17.6125 83.0876 18.3831 83.0876 19.4234V31.2132H87.8845C90.1191 31.2132 91.8337 30.8279 93.028 30.0573C94.2224 29.2867 94.8196 28.2079 94.8196 26.8209C94.8196 26.7053 94.916 26.6475 95.1086 26.6475C95.3398 26.6475 95.4554 26.7053 95.4554 26.8209L95.3976 32.0223L95.4554 34.7964C95.5324 36.1063 95.571 37.1466 95.571 37.9172C95.571 37.9943 95.4554 38.0328 95.2242 38.0328C94.993 38.0328 94.8774 37.9943 94.8774 37.9172C94.8774 36.3375 94.261 35.1046 93.028 34.2184C91.8337 33.2937 90.0999 32.8314 87.8267 32.8314H83.0876V45.8927C83.0876 47.01 83.2995 47.8384 83.7233 48.3778C84.1472 48.9172 84.8214 49.1869 85.7461 49.1869H87.6533C90.6585 49.1869 93.0666 48.5704 94.8774 47.3375C96.6883 46.1046 98.0175 44.1974 98.8652 41.616Z" fill="#B49571"/>
<path d="M51.0169 45.8927C51.0169 46.8944 51.094 47.6265 51.2481 48.0888C51.4022 48.5126 51.6912 48.8016 52.115 48.9557C52.5774 49.1098 53.3094 49.1869 54.3112 49.1869H56.2761C59.2814 49.1869 61.8821 48.397 64.0782 46.8174C66.2743 45.1991 67.7384 43.0223 68.4705 40.2867C68.4705 40.2097 68.5475 40.1711 68.7017 40.1711C68.7787 40.1711 68.8558 40.2097 68.9328 40.2867C69.0484 40.3252 69.1062 40.3638 69.1062 40.4023C68.7595 44.2167 68.5861 47.3953 68.5861 49.9382C68.5861 50.2464 68.509 50.4776 68.3549 50.6317C68.2393 50.7473 68.0274 50.8051 67.7192 50.8051H40.4408C40.3637 50.8051 40.3252 50.6895 40.3252 50.4583C40.3252 50.2272 40.3637 50.1116 40.4408 50.1116C41.6737 50.1116 42.5599 50.0152 43.0993 49.8226C43.6772 49.63 44.0625 49.2639 44.2551 48.7245C44.4863 48.1466 44.6019 47.2797 44.6019 46.1238V19.3656C44.6019 18.2097 44.4863 17.3621 44.2551 16.8227C44.0625 16.2833 43.6772 15.9172 43.0993 15.7246C42.5213 15.4934 41.6352 15.3778 40.4408 15.3778C40.3637 15.3778 40.3252 15.2623 40.3252 15.0311C40.3252 14.7999 40.3637 14.6843 40.4408 14.6843L43.3882 14.7421C45.1606 14.8192 46.6247 14.8577 47.7805 14.8577C48.9364 14.8577 50.4005 14.8192 52.1728 14.7421L55.1203 14.6843C55.2358 14.6843 55.2936 14.7999 55.2936 15.0311C55.2936 15.2623 55.2358 15.3778 55.1203 15.3778C53.9259 15.3778 53.0397 15.4934 52.4618 15.7246C51.8838 15.9172 51.4986 16.3025 51.3059 16.8805C51.1133 17.4199 51.0169 18.2675 51.0169 19.4234V45.8927Z" fill="#B49571"/>
<path d="M20.8056 51.4986C16.5674 51.4986 12.8686 50.6895 9.70926 49.0713C6.5499 47.4531 4.14185 45.2569 2.48511 42.4828C0.828369 39.6702 0 36.5494 0 33.1203C0 29.4216 0.943956 26.1274 2.83187 23.2377C4.75831 20.3095 7.37827 18.0556 10.6917 16.4759C14.0437 14.8577 17.781 14.0486 21.9036 14.0486C23.7145 14.0486 25.5446 14.2027 27.394 14.5109C29.2434 14.7806 30.7267 15.1467 31.8441 15.609C32.1908 15.7246 32.4027 15.8787 32.4798 16.0713C32.5954 16.2255 32.6724 16.5144 32.711 16.9382L33.4623 24.9715C33.4623 25.0871 33.3659 25.1641 33.1733 25.2027C32.9807 25.2412 32.8458 25.1834 32.7688 25.0293C31.4202 22.0626 29.5516 19.7508 27.1628 18.0941C24.8126 16.4374 22.1155 15.609 19.0718 15.609C15.1418 15.609 12.1366 16.9768 10.056 19.7123C8.01399 22.4479 6.99298 26.1852 6.99298 30.9242C6.99298 34.7386 7.64797 38.1484 8.95795 41.1536C10.2679 44.1203 12.0788 46.432 14.3905 48.0888C16.7408 49.707 19.3607 50.5161 22.2504 50.5161C23.8301 50.5161 25.0437 50.3427 25.8914 49.996C26.739 49.6492 27.3555 48.9749 27.7407 47.9732C28.126 46.9714 28.3187 45.4881 28.3187 43.5231C28.3187 41.5196 28.2031 40.1326 27.9719 39.362C27.7407 38.5529 27.2399 38.0135 26.4693 37.7438C25.7372 37.4741 24.4465 37.3393 22.5971 37.3393C22.366 37.3393 22.2504 37.1851 22.2504 36.8769C22.2504 36.7613 22.2697 36.665 22.3082 36.5879C22.3852 36.4724 22.4623 36.4146 22.5394 36.4146C25.8143 36.6072 28.4535 36.7035 30.457 36.7035C32.422 36.7035 34.464 36.6457 36.5831 36.5301C36.6602 36.5301 36.718 36.5879 36.7565 36.7035C36.8335 36.7806 36.8721 36.8576 36.8721 36.9347C36.8721 37.2044 36.7757 37.3393 36.5831 37.3393C35.8896 37.3007 35.408 37.4356 35.1383 37.7438C34.8686 38.0135 34.6952 38.5914 34.6181 39.4776C34.5411 40.3252 34.5025 41.8664 34.5025 44.1011C34.5025 45.8349 34.5603 47.0678 34.6759 47.7998C34.83 48.5319 34.9071 48.9942 34.9071 49.1869C34.9071 49.418 34.8493 49.5721 34.7337 49.6492C34.6567 49.7263 34.4833 49.8033 34.2136 49.8804C29.2434 50.9592 24.774 51.4986 20.8056 51.4986Z" fill="#B49571"/>
<path d="M406.968 97.4732C405.309 97.4732 404.48 96.6565 404.48 95.0232C404.48 93.0633 405.9 90.4877 408.739 87.2965C411.704 83.9546 414.933 81.2911 418.426 79.306C418.451 79.306 418.464 79.3186 418.464 79.3437C418.464 79.4693 418.325 79.6829 418.049 79.9844C409.556 87.0453 405.309 92.1461 405.309 95.2871C405.309 96.4932 405.787 97.0963 406.742 97.0963C408.4 97.0963 410.373 95.5132 412.659 92.3472C413.865 90.6888 414.958 88.9675 415.938 87.1835C416.918 85.3994 417.798 83.54 418.577 81.6052C419.406 79.595 420.022 77.8235 420.424 76.2907C420.851 74.7579 421.064 73.3759 421.064 72.1447C421.064 71.2652 420.914 70.6621 420.612 70.3355C417.27 73.8282 414.933 76.7681 413.602 79.1552C413.199 80.2106 412.823 80.7383 412.471 80.7383C411.717 80.7383 411.34 80.5121 411.34 80.0598C411.34 79.9091 411.466 79.4693 411.717 78.7406C411.993 77.9868 412.37 76.944 412.848 75.6123L413.903 72.71C414.28 71.6798 414.468 70.6747 414.468 69.6947V69.544C414.468 69.2424 414.431 69.0791 414.355 69.054C414.305 69.0037 414.142 68.9786 413.865 68.9786C413.614 68.9786 413.488 68.9158 413.488 68.7901C413.488 68.564 413.689 68.4509 414.091 68.4509C415.7 68.4509 416.504 69.054 416.504 70.2601C416.504 70.838 415.75 72.9739 414.242 76.6676C415.097 75.4615 416.366 73.9664 418.049 72.1824C419.758 70.3732 420.813 69.4686 421.215 69.4686C421.215 69.6696 421.115 69.8706 420.914 70.0717C422.044 70.1722 422.647 70.4234 422.723 70.8255C422.773 71.1521 422.811 71.4537 422.836 71.7301C422.861 72.0065 422.874 72.2452 422.874 72.4462C422.874 74.8584 422.044 78.0496 420.386 82.0198C418.552 86.3417 416.328 89.9977 413.715 92.9879C411.101 95.9781 408.852 97.4732 406.968 97.4732Z" fill="#B49571"/>
<path d="M398.571 80.7383C398.345 80.7383 398.094 80.6754 397.818 80.5498C397.541 80.4242 397.403 80.2734 397.403 80.0975C397.403 79.6703 397.818 78.1627 398.647 75.5746C399.476 72.9613 399.891 71.0014 399.891 69.6947C399.891 69.2927 399.715 69.0666 399.363 69.0163C399.011 68.966 398.835 68.8907 398.835 68.7901C398.835 68.564 399.024 68.4509 399.401 68.4509C401.084 68.4509 401.926 69.1419 401.926 70.5239C401.926 70.926 401.511 72.4085 400.682 74.9715C402.039 72.7603 403.547 71.2401 405.205 70.4109C405.632 69.5063 406.223 69.054 406.977 69.054C407.705 69.054 408.107 69.1168 408.183 69.2424C408.158 69.2173 408.107 69.255 408.032 69.3555C407.957 69.456 407.869 69.5691 407.768 69.6947C407.366 70.2727 407.014 70.838 406.713 71.3908C406.411 71.9185 406.248 72.3331 406.223 72.6347C406.223 73.3131 406.462 73.7277 406.939 73.8785C406.989 73.9036 407.039 73.9162 407.09 73.9162C407.165 73.9162 407.203 73.9413 407.203 73.9915C407.203 74.1926 406.952 74.2931 406.449 74.2931C405.972 74.2931 405.557 74.1046 405.205 73.7277C405.004 73.5016 404.866 73.2628 404.791 73.0116C404.715 72.7352 404.677 72.4713 404.677 72.2201C404.677 71.818 404.74 71.4537 404.866 71.127C404.238 71.6044 403.672 72.107 403.17 72.6347C402.667 73.1372 402.202 73.6398 401.775 74.1423C400.971 75.1725 400.406 76.0897 400.079 76.8938C399.778 77.6727 399.564 78.3386 399.438 78.8914C399.288 79.4945 399.162 79.9593 399.061 80.286C398.961 80.5875 398.798 80.7383 398.571 80.7383Z" fill="#B49571"/>
<path d="M386.118 80.6627C384.083 80.6627 383.065 79.5948 383.065 77.459C383.065 76.6046 383.254 75.7 383.631 74.7452C384.033 73.7652 384.523 72.9737 385.101 72.3706C384.824 71.8932 384.686 71.3027 384.686 70.5992C384.686 69.8705 384.988 69.2171 385.591 68.6392C386.194 68.0361 386.935 67.7346 387.814 67.7346C389.448 67.7346 390.553 68.589 391.131 70.2976C392.312 70.5238 392.903 70.8002 392.903 71.1268C392.903 71.5037 392.777 71.6922 392.526 71.6922L391.584 71.5414C391.609 71.7927 391.621 72.0189 391.621 72.2199C391.646 72.4209 391.659 72.5968 391.659 72.7476C391.659 74.808 391.131 76.6549 390.076 78.2882C389.021 79.8712 387.701 80.6627 386.118 80.6627ZM385.628 72.0314C387.337 70.7499 388.518 70.1092 389.171 70.1092H389.284C388.933 69.2297 388.279 68.79 387.325 68.79C386.897 68.79 386.546 68.9407 386.269 69.2423C385.993 69.5187 385.792 69.8579 385.666 70.2599C385.54 70.662 385.478 71.0263 385.478 71.353C385.478 71.6545 385.528 71.8807 385.628 72.0314ZM386.081 80.2104C387.111 80.2104 388.078 79.4063 388.983 77.7982C389.888 76.1649 390.34 74.607 390.34 73.1245C390.34 72.4712 390.227 71.9435 390.001 71.5414C389.071 71.6922 388.053 72.2827 386.948 73.3129C387.199 73.4888 387.4 73.5768 387.551 73.5768C387.701 73.5516 387.789 73.5391 387.814 73.5391C387.94 73.5391 388.003 73.6019 388.003 73.7275C388.003 73.9285 387.84 74.0291 387.513 74.0291C387.237 74.0291 386.922 73.9411 386.571 73.7652C385.239 75.3231 384.573 76.7931 384.573 78.1751C384.573 79.532 385.076 80.2104 386.081 80.2104Z" fill="#B49571"/>
<path d="M372.207 81.379C371.102 81.379 370.549 80.7885 370.549 79.6075C370.549 78.5521 370.901 77.1701 371.604 75.4614C371.881 74.8081 372.157 74.1548 372.434 73.5015C372.71 72.8482 373.024 72.1069 373.376 71.2777C372.521 70.9511 372.094 70.4611 372.094 69.8078C372.094 69.6067 372.145 69.4685 372.245 69.3932C372.622 69.569 373.2 69.6947 373.979 69.7701C374.808 67.9106 375.223 66.7296 375.223 66.2271C375.223 65.6743 375.122 65.3979 374.921 65.3979L374.167 65.5863C374.092 65.5863 374.054 65.5487 374.054 65.4733C374.054 65.2722 374.205 65.1215 374.507 65.021C374.808 64.8953 375.034 64.8325 375.185 64.8325C376.291 64.8325 376.843 65.4607 376.843 66.7171C376.843 67.4458 376.617 68.4006 376.165 69.5816C376.265 69.6821 376.718 69.7324 377.522 69.7324C378.351 69.7324 378.979 69.6444 379.406 69.4685C379.808 69.2675 380.097 69.167 380.273 69.167C380.349 69.167 380.386 69.1921 380.386 69.2424C380.386 69.3178 380.324 69.4183 380.198 69.5439C379.67 69.9962 379.042 70.3857 378.313 70.7124C377.61 71.039 376.793 71.2652 375.863 71.3908H375.75C375.725 71.3908 375.688 71.4034 375.637 71.4285C375.587 71.4285 375.487 71.4536 375.336 71.5039C373.049 76.0519 371.906 78.9416 371.906 80.1728C371.906 80.5749 372.057 80.7759 372.358 80.7759L373.414 80.5498L373.451 80.5875C373.451 81.1151 373.037 81.379 372.207 81.379Z" fill="#B49571"/>
<path d="M360.104 81.5297C359.476 81.5297 358.923 81.4166 358.445 81.1905C357.993 80.9643 357.767 80.7508 357.767 80.5497C360.657 79.9467 362.101 79.218 362.101 78.3636C362.101 78.1878 361.762 77.7983 361.084 77.1952C359.777 76.0394 359.124 74.7453 359.124 73.313C359.124 72.2828 359.765 71.2651 361.046 70.26C362.378 69.2047 363.584 68.677 364.664 68.677C364.84 68.677 365.192 68.9408 365.72 69.4685C366.247 69.9962 366.511 70.3354 366.511 70.4862C366.511 70.6118 366.448 70.6746 366.323 70.6746C366.046 70.6244 365.82 70.5867 365.644 70.5616C365.468 70.5113 365.343 70.4862 365.267 70.4862C364.137 70.4862 362.968 70.9008 361.762 71.73C360.581 72.5592 359.991 73.401 359.991 74.2553C359.991 74.4061 360.581 75.1725 361.762 76.5545C362.943 77.8862 363.534 78.8034 363.534 79.3059C363.534 79.8085 363.182 80.2985 362.478 80.7759C362.101 81.0272 361.699 81.2156 361.272 81.3413C360.87 81.4669 360.481 81.5297 360.104 81.5297Z" fill="#B49571"/>
<path d="M331.898 80.9642C331.396 80.9642 330.931 80.738 330.504 80.2857C330.102 79.8083 329.901 79.2052 329.901 78.4765C329.901 77.7478 330.34 76.6171 331.22 75.0843C332.099 73.5767 333.18 72.2198 334.461 71.0137C335.718 69.8327 336.798 69.2422 337.703 69.2422H338.08C339.009 69.2422 339.801 69.4306 340.454 69.8076C341.108 70.1593 341.434 70.6368 341.434 71.2398C341.434 71.5162 341.321 71.6544 341.095 71.6544C341.02 71.6544 340.982 71.6167 340.982 71.5414C340.58 70.6116 339.964 70.1468 339.135 70.1468C337.703 70.1468 336.07 71.3278 334.235 73.6898C332.401 76.0015 331.484 77.7855 331.484 79.0419C331.484 79.5193 331.609 79.758 331.861 79.758C332.991 79.758 335.366 77.2076 338.984 72.1067C338.959 72.1318 338.972 72.1318 339.022 72.1067C339.097 72.0565 339.16 72.0313 339.21 72.0313C339.336 72.0313 339.6 72.157 340.002 72.4082C340.404 72.6344 340.605 72.8354 340.605 73.0113C340.605 73.0113 340.555 73.0993 340.454 73.2751C340.354 73.4259 340.228 73.6646 340.077 73.9913C339.675 74.8456 339.361 75.6874 339.135 76.5166C338.934 77.3207 338.834 78.0242 338.834 78.6273C338.834 79.9591 339.16 80.6249 339.814 80.6249L340.19 80.5496L340.266 80.5872C340.266 80.8134 339.952 80.9265 339.324 80.9265C338.721 80.9265 338.218 80.6501 337.816 80.0973C337.439 79.5193 337.251 78.7529 337.251 77.7981C337.251 76.8684 337.414 75.8382 337.741 74.7074C337.715 74.7828 337.627 74.921 337.477 75.122C337.326 75.323 337.087 75.6748 336.761 76.1774C334.7 79.3686 333.079 80.9642 331.898 80.9642Z" fill="#B49571"/>
<path d="M307.561 81.5297C306.933 81.5297 306.38 81.4166 305.903 81.1905C305.451 80.9643 305.224 80.7508 305.224 80.5497C308.114 79.9467 309.559 79.218 309.559 78.3636C309.559 78.1878 309.22 77.7983 308.541 77.1952C307.235 76.0394 306.581 74.7453 306.581 73.313C306.581 72.2828 307.222 71.2651 308.504 70.26C309.835 69.2047 311.042 68.677 312.122 68.677C312.298 68.677 312.65 68.9408 313.177 69.4685C313.705 69.9962 313.969 70.3354 313.969 70.4862C313.969 70.6118 313.906 70.6746 313.78 70.6746C313.504 70.6244 313.278 70.5867 313.102 70.5616C312.926 70.5113 312.8 70.4862 312.725 70.4862C311.594 70.4862 310.426 70.9008 309.22 71.73C308.039 72.5592 307.448 73.401 307.448 74.2553C307.448 74.4061 308.039 75.1725 309.22 76.5545C310.401 77.8862 310.991 78.8034 310.991 79.3059C310.991 79.8085 310.639 80.2985 309.936 80.7759C309.559 81.0272 309.157 81.2156 308.73 81.3413C308.328 81.4669 307.938 81.5297 307.561 81.5297Z" fill="#B49571"/>
<path d="M290.624 80.9642C290.121 80.9642 289.656 80.738 289.229 80.2857C288.827 79.8083 288.626 79.2052 288.626 78.4765C288.626 77.7478 289.066 76.6171 289.945 75.0843C290.825 73.5767 291.905 72.2198 293.187 71.0137C294.443 69.8327 295.523 69.2422 296.428 69.2422H296.805C297.735 69.2422 298.526 69.4306 299.179 69.8076C299.833 70.1593 300.159 70.6368 300.159 71.2398C300.159 71.5162 300.046 71.6544 299.82 71.6544C299.745 71.6544 299.707 71.6167 299.707 71.5414C299.305 70.6116 298.689 70.1468 297.86 70.1468C296.428 70.1468 294.795 71.3278 292.96 73.6898C291.126 76.0015 290.209 77.7855 290.209 79.0419C290.209 79.5193 290.335 79.758 290.586 79.758C291.717 79.758 294.091 77.2076 297.71 72.1067C297.684 72.1318 297.697 72.1318 297.747 72.1067C297.823 72.0565 297.885 72.0313 297.936 72.0313C298.061 72.0313 298.325 72.157 298.727 72.4082C299.129 72.6344 299.33 72.8354 299.33 73.0113C299.33 73.0113 299.28 73.0993 299.179 73.2751C299.079 73.4259 298.953 73.6646 298.803 73.9913C298.401 74.8456 298.086 75.6874 297.86 76.5166C297.659 77.3207 297.559 78.0242 297.559 78.6273C297.559 79.9591 297.885 80.6249 298.539 80.6249L298.916 80.5496L298.991 80.5872C298.991 80.8134 298.677 80.9265 298.049 80.9265C297.446 80.9265 296.943 80.6501 296.541 80.0973C296.164 79.5193 295.976 78.7529 295.976 77.7981C295.976 76.8684 296.139 75.8382 296.466 74.7074C296.441 74.7828 296.353 74.921 296.202 75.122C296.051 75.323 295.812 75.6748 295.486 76.1774C293.425 79.3686 291.805 80.9642 290.624 80.9642Z" fill="#B49571"/>
<path d="M274.878 82.0574C274.728 82.0574 274.589 81.9946 274.464 81.869C273.132 80.4618 272.466 79.6954 272.466 79.5698C272.466 79.419 272.542 79.3436 272.692 79.3436H272.768C273.446 78.9165 274.011 78.5396 274.464 78.2129C274.69 77.3586 274.991 76.3786 275.368 75.273C275.77 74.1674 276.223 73.0366 276.725 71.8808L278.874 66.9432C279.351 65.8376 279.715 64.8953 279.967 64.1164C280.243 63.3123 280.381 62.659 280.381 62.1564C280.381 61.6036 280.143 61.3272 279.665 61.3272L278.346 61.5911C278.22 61.5911 278.157 61.5157 278.157 61.3649C278.157 60.988 278.635 60.7996 279.59 60.7996C280.545 60.7996 281.261 60.9755 281.738 61.3272C282.216 61.6539 282.454 62.1062 282.454 62.6841C282.454 63.2118 281.889 64.6315 280.758 66.9432L278.534 71.5039L276.311 76.6299C277.341 75.7253 278.359 74.6699 279.364 73.4638C280.394 72.2326 281.16 71.2526 281.663 70.5239C282.19 69.7701 282.492 69.3932 282.567 69.3932H282.756C283.66 69.3932 284.113 69.5565 284.113 69.8831C284.113 69.858 284.1 69.858 284.075 69.8831C284.075 69.8831 284.088 69.8957 284.113 69.9208V69.8831C284.088 69.8329 284.025 69.9083 283.924 70.1093C283.572 70.7375 283.233 71.441 282.907 72.22C282.605 72.999 282.316 73.8407 282.04 74.7453C281.487 76.5042 281.21 77.6852 281.21 78.2883C281.21 79.8211 281.474 80.5875 282.002 80.5875C282.178 80.5875 282.542 80.3487 283.095 79.8713C283.17 79.8713 283.208 79.9718 283.208 80.1729C283.208 80.8262 282.844 81.1528 282.115 81.1528C281.412 81.1528 280.834 80.7885 280.381 80.0598C279.929 79.3311 279.703 78.4893 279.703 77.5345C279.703 76.5042 279.942 75.3484 280.419 74.0669C279.615 74.8961 278.811 75.6625 278.007 76.366C277.228 77.0445 276.474 77.6727 275.745 78.2506C275.243 79.6829 274.991 80.6503 274.991 81.1528V81.3413C275.218 81.492 275.331 81.6177 275.331 81.7182C275.331 81.9443 275.18 82.0574 274.878 82.0574ZM274.162 80.889C274.162 80.8387 274.15 80.7633 274.125 80.6628C274.125 80.5875 274.125 80.4995 274.125 80.399C274.125 80.1477 274.162 79.7834 274.238 79.306C273.961 79.4567 273.735 79.5698 273.559 79.6452C273.383 79.7206 273.27 79.7708 273.22 79.7959C273.346 79.9718 273.484 80.1603 273.635 80.3613C273.785 80.5372 273.961 80.7131 274.162 80.889Z" fill="#B49571"/>
<path d="M244.86 89.5956C244.533 89.5956 244.181 89.3694 243.804 88.9171C243.402 88.4648 243.201 88 243.201 87.5226C243.201 85.4621 243.98 82.5473 245.538 78.7782C245.287 78.3008 245.161 77.9741 245.161 77.7982C245.161 77.6223 245.199 77.5344 245.274 77.5344L245.35 77.5721C245.425 77.9239 245.551 78.1877 245.727 78.3636C248.013 73.0366 249.156 70.172 249.156 69.77C249.156 69.368 248.893 69.1669 248.365 69.1669L247.083 69.4685C246.933 69.4685 246.857 69.3805 246.857 69.2046C246.857 68.8026 247.41 68.6016 248.516 68.6016C250.249 68.6016 251.116 69.1921 251.116 70.373C251.116 70.7248 250.752 71.7425 250.023 73.426C251.958 70.7374 253.679 69.3931 255.187 69.3931C256.393 69.3931 256.996 70.0841 256.996 71.4661C256.996 73.3004 256.092 75.298 254.282 77.459C252.498 79.62 250.765 80.7004 249.081 80.7004C248.227 80.7004 247.498 80.512 246.895 80.1351C245.287 83.6529 244.483 86.3667 244.483 88.2764C244.483 88.8794 244.709 89.181 245.161 89.181L246.33 88.7664C246.38 88.7664 246.405 88.7915 246.405 88.8418C246.405 89.0176 246.229 89.181 245.877 89.3317C245.525 89.5076 245.186 89.5956 244.86 89.5956ZM248.553 79.7582C250.036 79.7582 251.506 78.7782 252.963 76.8183C254.471 74.8583 255.225 73.0114 255.225 71.2776C255.225 70.6243 255.011 70.2977 254.584 70.2977C253.755 70.2977 252.624 71.1269 251.192 72.7853C249.81 74.4186 248.453 76.6675 247.121 79.532V79.5697C247.297 79.62 247.498 79.6702 247.724 79.7205C247.95 79.7456 248.227 79.7582 248.553 79.7582Z" fill="#B49571"/>
<path d="M239.044 67.5085C238.491 67.5085 238.039 67.3577 237.687 67.0562C238.165 66.7295 238.667 66.3024 239.195 65.7747C239.748 65.247 240.313 64.6188 240.891 63.8901C240.941 63.8901 240.966 63.953 240.966 64.0786L240.778 65.1716C240.652 65.9506 240.426 66.5411 240.099 66.9431C239.773 67.32 239.421 67.5085 239.044 67.5085ZM235.426 81.2281C234.471 81.2281 233.993 80.5371 233.993 79.1551C233.993 77.0695 234.747 74.318 236.255 70.9007C236.255 70.8002 236.318 70.6117 236.443 70.3353C236.594 70.0589 236.707 69.883 236.782 69.8077C236.958 69.6318 237.197 69.5438 237.499 69.5438C238.378 69.5438 238.856 69.7197 238.931 70.0715C238.529 70.7248 238.139 71.4786 237.762 72.333C237.411 73.1873 237.059 74.1296 236.707 75.1598C236.33 76.2654 236.054 77.1826 235.878 77.9113C235.727 78.6148 235.652 79.1802 235.652 79.6074C235.652 80.2356 235.815 80.5497 236.142 80.5497C236.368 80.5497 236.657 80.4115 237.009 80.1351C237.285 79.9089 237.474 79.7456 237.574 79.6451C237.7 79.5446 237.813 79.4566 237.913 79.3812C238.014 79.3812 238.064 79.4315 238.064 79.532C238.064 79.8084 237.7 80.1602 236.971 80.5874C236.242 81.0145 235.727 81.2281 235.426 81.2281Z" fill="#B49571"/>
<path d="M223.171 81.5297C222.543 81.5297 221.99 81.4166 221.513 81.1905C221.061 80.9643 220.834 80.7508 220.834 80.5497C223.724 79.9467 225.169 79.218 225.169 78.3636C225.169 78.1878 224.83 77.7983 224.151 77.1952C222.845 76.0394 222.191 74.7453 222.191 73.313C222.191 72.2828 222.832 71.2651 224.114 70.26C225.445 69.2047 226.651 68.677 227.732 68.677C227.908 68.677 228.26 68.9408 228.787 69.4685C229.315 69.9962 229.579 70.3354 229.579 70.4862C229.579 70.6118 229.516 70.6746 229.39 70.6746C229.114 70.6244 228.888 70.5867 228.712 70.5616C228.536 70.5113 228.41 70.4862 228.335 70.4862C227.204 70.4862 226.036 70.9008 224.83 71.73C223.649 72.5592 223.058 73.401 223.058 74.2553C223.058 74.4061 223.649 75.1725 224.83 76.5545C226.011 77.8862 226.601 78.8034 226.601 79.3059C226.601 79.8085 226.249 80.2985 225.546 80.7759C225.169 81.0272 224.767 81.2156 224.34 81.3413C223.938 81.4669 223.548 81.5297 223.171 81.5297Z" fill="#B49571"/>
<path d="M188.7 97.4732C187.042 97.4732 186.213 96.6565 186.213 95.0232C186.213 93.0633 187.632 90.4877 190.472 87.2965C193.437 83.9546 196.666 81.2911 200.158 79.306C200.184 79.306 200.196 79.3186 200.196 79.3437C200.196 79.4693 200.058 79.6829 199.781 79.9844C191.288 87.0453 187.042 92.1461 187.042 95.2871C187.042 96.4932 187.519 97.0963 188.474 97.0963C190.133 97.0963 192.105 95.5132 194.392 92.3472C195.598 90.6888 196.691 88.9675 197.671 87.1835C198.651 85.3994 199.53 83.54 200.309 81.6052C201.138 79.595 201.754 77.8235 202.156 76.2907C202.583 74.7579 202.797 73.3759 202.797 72.1447C202.797 71.2652 202.646 70.6621 202.344 70.3355C199.003 73.8282 196.666 76.7681 195.334 79.1552C194.932 80.2106 194.555 80.7383 194.203 80.7383C193.449 80.7383 193.072 80.5121 193.072 80.0598C193.072 79.9091 193.198 79.4693 193.449 78.7406C193.726 77.9868 194.103 76.944 194.58 75.6123L195.635 72.71C196.012 71.6798 196.201 70.6747 196.201 69.6947V69.544C196.201 69.2424 196.163 69.0791 196.088 69.054C196.037 69.0037 195.874 68.9786 195.598 68.9786C195.346 68.9786 195.221 68.9158 195.221 68.7901C195.221 68.564 195.422 68.4509 195.824 68.4509C197.432 68.4509 198.236 69.054 198.236 70.2601C198.236 70.838 197.482 72.9739 195.975 76.6676C196.829 75.4615 198.098 73.9664 199.781 72.1824C201.49 70.3732 202.546 69.4686 202.948 69.4686C202.948 69.6696 202.847 69.8706 202.646 70.0717C203.777 70.1722 204.38 70.4234 204.455 70.8255C204.505 71.1521 204.543 71.4537 204.568 71.7301C204.593 72.0065 204.606 72.2452 204.606 72.4462C204.606 74.8584 203.777 78.0496 202.118 82.0198C200.284 86.3417 198.06 89.9977 195.447 92.9879C192.834 95.9781 190.585 97.4732 188.7 97.4732Z" fill="#B49571"/>
<path d="M180.304 80.7383C180.078 80.7383 179.827 80.6754 179.55 80.5498C179.274 80.4242 179.136 80.2734 179.136 80.0975C179.136 79.6703 179.55 78.1627 180.379 75.5746C181.209 72.9613 181.623 71.0014 181.623 69.6947C181.623 69.2927 181.447 69.0666 181.096 69.0163C180.744 68.966 180.568 68.8907 180.568 68.7901C180.568 68.564 180.756 68.4509 181.133 68.4509C182.817 68.4509 183.659 69.1419 183.659 70.5239C183.659 70.926 183.244 72.4085 182.415 74.9715C183.772 72.7603 185.279 71.2401 186.938 70.4109C187.365 69.5063 187.955 69.054 188.709 69.054C189.438 69.054 189.84 69.1168 189.915 69.2424C189.89 69.2173 189.84 69.255 189.764 69.3555C189.689 69.456 189.601 69.5691 189.501 69.6947C189.099 70.2727 188.747 70.838 188.445 71.3908C188.144 71.9185 187.98 72.3331 187.955 72.6347C187.955 73.3131 188.194 73.7277 188.671 73.8785C188.722 73.9036 188.772 73.9162 188.822 73.9162C188.898 73.9162 188.935 73.9413 188.935 73.9915C188.935 74.1926 188.684 74.2931 188.181 74.2931C187.704 74.2931 187.289 74.1046 186.938 73.7277C186.737 73.5016 186.598 73.2628 186.523 73.0116C186.448 72.7352 186.41 72.4713 186.41 72.2201C186.41 71.818 186.473 71.4537 186.598 71.127C185.97 71.6044 185.405 72.107 184.902 72.6347C184.4 73.1372 183.935 73.6398 183.508 74.1423C182.704 75.1725 182.138 76.0897 181.812 76.8938C181.51 77.6727 181.297 78.3386 181.171 78.8914C181.02 79.4945 180.894 79.9593 180.794 80.286C180.693 80.5875 180.53 80.7383 180.304 80.7383Z" fill="#B49571"/>
<path d="M167.738 81.0772C165.602 81.0772 164.534 80.0847 164.534 78.0996C164.534 76.5668 165.288 74.7074 166.796 72.5213C168.353 70.3352 169.836 69.2422 171.243 69.2422C171.846 69.2422 172.374 69.4432 172.826 69.8452C173.304 70.2222 173.542 70.687 173.542 71.2398C173.542 72.1695 172.952 73.1118 171.771 74.0667C170.615 74.9964 169.472 75.4612 168.341 75.4612C168.115 75.4612 168.002 75.411 168.002 75.3105L168.115 75.122C171.004 74.2174 172.449 72.7349 172.449 70.6745C172.449 70.3729 172.349 70.2222 172.148 70.2222C171.871 70.2222 171.369 70.5111 170.64 71.0891C170.012 71.5916 169.421 72.1695 168.869 72.8229C168.341 73.4762 167.863 74.1546 167.436 74.8582C166.532 76.391 166.079 77.6725 166.079 78.7027C166.079 79.7078 166.469 80.2103 167.248 80.2103C168.152 80.2103 169.145 79.7455 170.225 78.8158C170.577 78.4891 170.954 78.1248 171.356 77.7227C171.758 77.2955 172.198 76.8307 172.675 76.3281C173.605 75.323 174.095 74.8205 174.145 74.8205C174.296 74.8205 174.371 74.8833 174.371 75.0089C174.371 75.1095 174.346 75.21 174.296 75.3105C171.658 79.155 169.472 81.0772 167.738 81.0772Z" fill="#B49571"/>
<path d="M154.257 81.1151C153.503 81.1151 153.127 80.9392 153.127 80.5874C153.503 76.5419 153.692 74.1548 153.692 73.4261C153.692 71.3405 153.378 70.2852 152.75 70.26C152.699 70.2852 152.611 70.3982 152.486 70.5993C152.385 70.8003 152.297 70.9008 152.222 70.9008C151.996 70.9008 151.883 70.7249 151.883 70.3731C151.883 69.8706 152.297 69.6193 153.127 69.6193C154.71 69.6193 155.501 71.0139 155.501 73.803C155.501 73.9287 155.476 74.1925 155.426 74.5945C155.401 74.9966 155.338 75.5494 155.237 76.2529C155.237 76.3535 155.288 76.4037 155.388 76.4037C155.438 76.4037 155.489 76.366 155.539 76.2906C155.589 76.1901 155.627 76.1273 155.652 76.1022C157.411 73.6146 159.019 71.6295 160.476 70.147C161.959 68.6393 163.039 67.8855 163.718 67.8855C164.019 67.8855 164.17 68.0237 164.17 68.3001C164.17 68.4257 164.132 68.5262 164.057 68.6016C162.6 69.456 160.979 70.8505 159.195 72.7854C157.461 74.6448 156.129 76.8183 155.2 79.3059C154.898 80.5121 154.584 81.1151 154.257 81.1151Z" fill="#B49571"/>
<path d="M140.749 81.0772C138.613 81.0772 137.545 80.0847 137.545 78.0996C137.545 76.5668 138.299 74.7074 139.807 72.5213C141.364 70.3352 142.847 69.2422 144.254 69.2422C144.857 69.2422 145.385 69.4432 145.837 69.8452C146.315 70.2222 146.553 70.687 146.553 71.2398C146.553 72.1695 145.963 73.1118 144.782 74.0667C143.626 74.9964 142.483 75.4612 141.352 75.4612C141.126 75.4612 141.013 75.411 141.013 75.3105L141.126 75.122C144.015 74.2174 145.46 72.7349 145.46 70.6745C145.46 70.3729 145.36 70.2222 145.159 70.2222C144.882 70.2222 144.38 70.5111 143.651 71.0891C143.023 71.5916 142.432 72.1695 141.88 72.8229C141.352 73.4762 140.874 74.1546 140.447 74.8582C139.543 76.391 139.09 77.6725 139.09 78.7027C139.09 79.7078 139.48 80.2103 140.259 80.2103C141.163 80.2103 142.156 79.7455 143.236 78.8158C143.588 78.4891 143.965 78.1248 144.367 77.7227C144.769 77.2955 145.209 76.8307 145.686 76.3281C146.616 75.323 147.106 74.8205 147.156 74.8205C147.307 74.8205 147.382 74.8833 147.382 75.0089C147.382 75.1095 147.357 75.21 147.307 75.3105C144.669 79.155 142.483 81.0772 140.749 81.0772Z" fill="#B49571"/>
<path d="M318.171 10.1661C318.168 8.4424 318.618 6.7479 319.476 5.25107C320.335 3.75423 321.573 2.50719 323.066 1.6339C324.559 0.760615 326.256 0.2915 327.988 0.273187C329.721 0.254873 331.428 0.688 332.94 1.52951C334.452 2.37102 335.716 3.59161 336.608 5.06995C337.499 6.54829 337.986 8.23288 338.02 9.95629C338.054 11.6797 337.635 13.3819 336.803 14.8936C335.971 16.4054 335.087 17.0752 333.61 17.9747L332.141 18.5078L332.239 17.5379C332.925 17.3713 333.597 17.1207 334.157 16.6893C334.926 16.0959 335.41 15.4667 335.974 14.4418C336.727 13.074 337.106 11.5339 337.075 9.97462C337.044 8.41532 336.604 6.89114 335.797 5.55358C334.991 4.21601 333.847 3.11165 332.479 2.35027C331.111 1.58889 329.566 1.19701 327.999 1.21358C326.432 1.23015 324.896 1.65459 323.545 2.44472C322.194 3.23485 321.074 4.36314 320.297 5.71745C319.52 7.07175 319.113 8.60489 319.116 10.1645L318.171 10.1661Z" fill="#B49571"/>
<path fill-rule="evenodd" clip-rule="evenodd" d="M324.497 24.5876L328.984 24.7359L327.239 44.5058L304.339 44.2604L302.842 24.8423H313.367L311.444 42.9574L322.351 43.07L327.006 32.9185L324.497 24.5876ZM325.475 25.3353L327.588 32.3528L328.2 25.4253L325.475 25.3353ZM327.476 33.6204L322.834 43.7436L326.579 43.7838L327.476 33.6204ZM310.649 43.613L312.566 25.5572H303.62L305.008 43.5526L310.649 43.613Z" fill="#B49571"/>
<path fill-rule="evenodd" clip-rule="evenodd" d="M303.009 11.8007H300.297L303.339 49.7886H328.072L331.114 11.8007H328.402H303.009ZM303.009 11.084H328.402H331.502H331.889L331.858 11.471L328.759 50.1756L328.732 50.5053H328.402H303.009H302.679L302.653 50.1756L299.553 11.471L299.522 11.084H299.91H303.009Z" fill="#B49571"/>
<path fill-rule="evenodd" clip-rule="evenodd" d="M299.107 10.6692H332.304L329.084 50.9204H302.327L299.169 11.4455L299.107 10.6692ZM300.66 12.1067L303.649 49.4829H327.762L330.752 12.1067H300.66Z" fill="#B49571"/>
<path d="M302.842 45.5259H328.569L328.33 50.0905L303.201 49.8296L302.842 45.5259Z" fill="#B49571"/>
<path d="M316.797 31.3293L314.863 28.1955L313.216 25.0027L309.411 25.1118C307.477 25.1369 305.292 25.187 304.563 25.2372L303.257 25.3375L303.382 26.8918C303.458 27.7442 303.634 29.9755 303.759 31.8307C304.161 37.3963 304.488 41.6582 304.638 42.7613C304.764 43.7391 304.579 43.9008 305.719 43.9647C307.091 44.0261 326.51 44.1765 326.56 44.0261C326.686 43.5749 328.437 25.293 328.362 25.1927C328.236 25.0674 324.61 25.0115 324.61 25.1369C324.61 25.187 324.786 25.6132 325.012 26.0394C325.414 26.8166 325.388 26.8918 324.936 27.5186C324.66 27.8946 323.278 28.8724 321.897 29.6997C320.49 30.527 319.334 31.2791 319.334 31.3794C319.334 31.4797 320.49 32.1566 321.922 32.8585C324.911 34.3628 325.363 34.7137 325.363 35.5411C325.363 36.1428 322.625 41.558 321.897 42.4103C321.243 43.1875 320.138 42.9368 317.098 41.3323C313.757 39.5774 313.305 39.2264 313.305 38.4743C313.305 38.1484 314.084 36.4185 315.039 34.6135L316.797 31.3293Z" fill="#B49571"/>
<path fill-rule="evenodd" clip-rule="evenodd" d="M321.904 19.9339C321.385 19.1681 320.336 18.9629 319.562 19.4756L313.55 23.4544C312.775 23.9671 312.568 25.0036 313.086 25.7694L316.938 31.4575C316.906 31.5042 316.876 31.553 316.848 31.6037L313.573 37.5817C313.129 38.3921 313.434 39.4049 314.254 39.8438L320.26 43.0594C321.08 43.4983 322.104 43.1972 322.548 42.3867L325.823 36.4088C326.267 35.5984 325.963 34.5856 325.143 34.1467L320.107 31.4508L325.331 27.9939C326.105 27.4812 326.313 26.4447 325.794 25.6788L321.904 19.9339Z" fill="white"/>
<path d="M324.422 23.9238C324.408 23.4894 321.536 19.318 321.157 19.1947C320.29 18.8973 319.735 19.1331 316.536 21.2501C313.469 23.3083 312.921 23.7613 312.91 24.2508C312.915 24.3865 315.514 24.3819 318.673 24.2773C321.831 24.1726 324.425 24.0052 324.422 23.9238Z" fill="#B49571"/>
<path d="M308.519 26.6031C308.997 25.8042 310.037 25.5526 310.827 26.045L312.706 27.2162C312.96 27.3745 313.167 27.5983 313.304 27.864L314.962 31.0709C315.007 31.1562 315.038 31.2474 315.056 31.3418C315.097 31.5526 315.07 31.7709 314.977 31.9648L312.584 36.9967C312.163 37.883 311.07 38.2139 310.228 37.7102L305.504 34.8853C304.716 34.4136 304.459 33.3918 304.93 32.6032L308.519 26.6031Z" fill="white"/>
<g clip-path="url(#clip0_494_6182)">
<mask id="path-41-inside-1_494_6182" fill="white">
<path fill-rule="evenodd" clip-rule="evenodd" d="M327.413 10.0225L323.249 9.88204L320.974 9.81844C320.031 9.79203 319.373 8.88041 319.648 7.98338L319.711 7.77937L319.769 7.57397C320.023 6.67068 321.071 6.2564 321.879 6.7395L323.83 7.90657L327.413 10.0228L327.413 10.0225Z"/>
</mask>
<path fill-rule="evenodd" clip-rule="evenodd" d="M327.413 10.0225L323.249 9.88204L320.974 9.81844C320.031 9.79203 319.373 8.88041 319.648 7.98338L319.711 7.77937L319.769 7.57397C320.023 6.67068 321.071 6.2564 321.879 6.7395L323.83 7.90657L327.413 10.0228L327.413 10.0225Z" fill="#B49571"/>
<path d="M327.413 10.0225L330.937 6.47606L329.544 5.09149L327.581 5.0253L327.413 10.0225ZM323.249 9.88204L323.417 4.88488L323.403 4.8844L323.388 4.884L323.249 9.88204ZM320.974 9.81844L320.833 14.8165L320.834 14.8165L320.974 9.81844ZM319.648 7.98338L314.867 6.51879L314.867 6.51888L319.648 7.98338ZM319.711 7.77937L324.491 9.24395L324.508 9.19078L324.523 9.13725L319.711 7.77937ZM319.769 7.57397L324.581 8.93185L324.582 8.92839L319.769 7.57397ZM321.879 6.7395L324.446 2.44875L324.445 2.4481L321.879 6.7395ZM323.83 7.90657L321.263 12.1973L321.275 12.2046L321.287 12.2119L323.83 7.90657ZM327.413 10.0228L324.871 14.3281L330.938 6.47641L327.413 10.0228ZM327.581 5.0253L323.417 4.88488L323.08 14.8792L327.244 15.0196L327.581 5.0253ZM323.388 4.884L321.113 4.8204L320.834 14.8165L323.109 14.8801L323.388 4.884ZM321.114 4.82041C323.444 4.88574 325.13 7.15835 324.429 9.44788L314.867 6.51888C313.616 10.6025 316.619 14.6983 320.833 14.8165L321.114 4.82041ZM324.429 9.44796L324.491 9.24395L314.93 6.31478L314.867 6.51879L324.429 9.44796ZM324.523 9.13725L324.581 8.93185L314.956 6.21608L314.899 6.42148L324.523 9.13725ZM324.582 8.92839C323.937 11.2196 321.31 12.225 319.313 11.0309L324.445 2.4481C320.832 0.287848 316.109 2.12175 314.955 6.21954L324.582 8.92839ZM319.312 11.0302L321.263 12.1973L326.397 3.61582L324.446 2.44875L319.312 11.0302ZM321.287 12.2119L324.871 14.3281L329.956 5.71751L326.372 3.60128L321.287 12.2119ZM330.938 6.47641L330.937 6.47606L323.888 13.5688L323.888 13.5692L330.938 6.47641Z" fill="#B49571" mask="url(#path-41-inside-1_494_6182)"/>
<mask id="path-43-inside-2_494_6182" fill="white">
<path fill-rule="evenodd" clip-rule="evenodd" d="M327.619 9.76808L324.067 7.60111L322.12 6.42847C321.314 5.94295 321.193 4.82662 321.876 4.18122L322.032 4.03455L322.184 3.88441C322.853 3.22372 323.97 3.37803 324.433 4.19477L325.551 6.16781L327.619 9.76808H327.619Z"/>
</mask>
<path fill-rule="evenodd" clip-rule="evenodd" d="M327.619 9.76808L324.067 7.60111L322.12 6.42847C321.314 5.94295 321.193 4.82662 321.876 4.18122L322.032 4.03455L322.184 3.88441C322.853 3.22372 323.97 3.37803 324.433 4.19477L325.551 6.16781L327.619 9.76808H327.619Z" fill="#B49571"/>
<path d="M327.619 9.76808V14.7681H345.417L330.223 5.49958L327.619 9.76808ZM324.067 7.60111L326.671 3.33261L326.659 3.32517L326.646 3.31779L324.067 7.60111ZM322.12 6.42847L319.54 10.7117L319.54 10.7118L322.12 6.42847ZM321.876 4.18122L318.444 0.545235L318.444 0.545418L321.876 4.18122ZM322.032 4.03455L325.464 7.67053L325.506 7.63096L325.547 7.59043L322.032 4.03455ZM322.184 3.88441L318.67 0.326874L318.669 0.328526L322.184 3.88441ZM324.433 4.19477L328.782 1.7292L328.782 1.72904L324.433 4.19477ZM325.551 6.16781L321.201 8.63339L321.208 8.64586L321.215 8.65829L325.551 6.16781ZM327.619 9.76808L323.284 12.2586L324.725 14.7681H327.619V9.76808ZM330.223 5.49958L326.671 3.33261L321.463 11.8696L325.016 14.0366L330.223 5.49958ZM326.646 3.31779L324.699 2.14516L319.54 10.7118L321.488 11.8844L326.646 3.31779ZM324.699 2.14523C326.722 3.36361 327.036 6.18656 325.309 7.81702L318.444 0.545418C315.35 3.46667 315.905 8.52229 319.54 10.7117L324.699 2.14523ZM325.309 7.8172L325.464 7.67053L318.6 0.398569L318.444 0.545235L325.309 7.8172ZM325.547 7.59043L325.699 7.44029L318.669 0.328526L318.517 0.478667L325.547 7.59043ZM325.697 7.44194C324.031 9.08778 321.247 8.71427 320.083 6.66051L328.782 1.72904C326.692 -1.95821 321.675 -2.64035 318.67 0.326875L325.697 7.44194ZM320.083 6.66035L321.201 8.63339L329.901 3.70224L328.782 1.7292L320.083 6.66035ZM321.215 8.65829L323.284 12.2586L331.955 7.2776L329.887 3.67733L321.215 8.65829ZM327.619 14.7681H327.619V4.76808H327.619V14.7681Z" fill="#B49571" mask="url(#path-43-inside-2_494_6182)"/>
<path d="M325.386 3.26541L325.386 3.26544C325.386 3.26543 325.386 3.26542 325.386 3.26541Z" fill="#B49571" stroke="#B49571" stroke-width="5"/>
<mask id="path-46-inside-3_494_6182" fill="white">
<path fill-rule="evenodd" clip-rule="evenodd" d="M328.194 9.68263L328.224 5.50056L328.227 3.21646C328.228 2.27078 329.126 1.58159 330.035 1.82905L330.242 1.88535L330.449 1.93679C331.364 2.16374 331.808 3.20187 331.345 4.02765L330.224 6.02119L328.194 9.68263Z"/>
</mask>
<path fill-rule="evenodd" clip-rule="evenodd" d="M328.194 9.68263L328.224 5.50056L328.227 3.21646C328.228 2.27078 329.126 1.58159 330.035 1.82905L330.242 1.88535L330.449 1.93679C331.364 2.16374 331.808 3.20187 331.345 4.02765L330.224 6.02119L328.194 9.68263Z" fill="#B49571"/>
<path d="M328.194 9.68263L323.194 9.64757L332.567 12.1071L328.194 9.68263ZM328.224 5.50056L333.223 5.53563L333.223 5.52154L333.224 5.50744L328.224 5.50056ZM328.227 3.21646L323.227 3.20908L323.227 3.20958L328.227 3.21646ZM330.035 1.82905L331.349 -2.99519L331.348 -2.99534L330.035 1.82905ZM330.242 1.88535L328.928 6.70959L328.984 6.72484L329.04 6.7388L330.242 1.88535ZM330.449 1.93679L331.654 -2.916L331.651 -2.91666L330.449 1.93679ZM331.345 4.02765L335.703 6.47744L335.704 6.47568L331.345 4.02765ZM330.224 6.02119L325.865 3.5714L325.858 3.58404L325.851 3.59673L330.224 6.02119ZM333.194 9.7177L333.223 5.53563L323.224 5.4655L323.194 9.64757L333.194 9.7177ZM333.224 5.50744L333.227 3.22334L323.227 3.20958L323.224 5.49368L333.224 5.50744ZM333.227 3.22385C333.223 5.54098 331.019 7.27893 328.721 6.65343L331.348 -2.99534C327.233 -4.11575 323.233 -0.999415 323.227 3.20908L333.227 3.22385ZM328.721 6.65328L328.928 6.70959L331.556 -2.93889L331.349 -2.99519L328.721 6.65328ZM329.04 6.7388L329.248 6.79024L331.651 -2.91666L331.443 -2.9681L329.04 6.7388ZM329.245 6.78957C326.919 6.21235 325.851 3.59975 326.985 1.57961L335.704 6.47568C337.766 2.80399 335.808 -1.88487 331.654 -2.916L329.245 6.78957ZM326.986 1.57785L325.865 3.5714L334.583 8.47098L335.703 6.47744L326.986 1.57785ZM325.851 3.59673L323.821 7.25817L332.567 12.1071L334.597 8.44566L325.851 3.59673Z" fill="#B49571" mask="url(#path-46-inside-3_494_6182)"/>
<mask id="path-48-inside-4_494_6182" fill="white">
<path fill-rule="evenodd" clip-rule="evenodd" d="M328.437 9.76807L330.597 6.22167L331.766 4.27782C332.25 3.4729 333.371 3.34743 334.022 4.02481L334.17 4.17877L334.322 4.32926C334.989 4.99204 334.839 6.10455 334.021 6.56957L332.044 7.69216L328.437 9.76807H328.437Z"/>
</mask>
<path fill-rule="evenodd" clip-rule="evenodd" d="M328.437 9.76807L330.597 6.22167L331.766 4.27782C332.25 3.4729 333.371 3.34743 334.022 4.02481L334.17 4.17877L334.322 4.32926C334.989 4.99204 334.839 6.10455 334.021 6.56957L332.044 7.69216L328.437 9.76807H328.437Z" fill="#B49571"/>
<path d="M328.437 9.76807V14.7681H331.246L332.707 12.3692L328.437 9.76807ZM330.597 6.22167L334.868 8.8228L334.875 8.81039L334.883 8.79793L330.597 6.22167ZM331.766 4.27782L327.481 1.7015L327.481 1.70157L331.766 4.27782ZM334.022 4.02481L337.627 0.559252L337.626 0.558677L334.022 4.02481ZM334.17 4.17877L330.566 7.64433L330.606 7.6859L330.647 7.72654L334.17 4.17877ZM334.322 4.32926L337.847 0.78279L337.845 0.781498L334.322 4.32926ZM334.021 6.56957L336.49 10.9175L336.491 10.9168L334.021 6.56957ZM332.044 7.69216L329.575 3.34423L329.563 3.35135L329.55 3.35855L332.044 7.69216ZM328.437 9.76807L325.943 5.43447L309.724 14.7681H328.437V9.76807ZM332.707 12.3692L334.868 8.8228L326.327 3.62055L324.167 7.16695L332.707 12.3692ZM334.883 8.79793L336.051 6.85408L327.481 1.70157L326.312 3.64541L334.883 8.79793ZM336.051 6.85415C334.835 8.87658 332.043 9.17998 330.419 7.49094L337.626 0.558677C334.698 -2.48511 329.665 -1.93078 327.481 1.7015L336.051 6.85415ZM330.418 7.49037L330.566 7.64433L337.775 0.713216L337.627 0.559252L330.418 7.49037ZM330.647 7.72654L330.799 7.87703L337.845 0.781498L337.694 0.631009L330.647 7.72654ZM330.797 7.87573C329.112 6.20065 329.5 3.38762 331.551 2.22229L336.491 10.9168C340.179 8.82147 340.866 3.78343 337.847 0.78279L330.797 7.87573ZM331.552 2.22164L329.575 3.34423L334.513 12.0401L336.49 10.9175L331.552 2.22164ZM329.55 3.35855L325.943 5.43447L330.931 14.1017L334.538 12.0258L329.55 3.35855ZM328.437 14.7681H328.437V4.76807H328.437V14.7681Z" fill="#B49571" mask="url(#path-48-inside-4_494_6182)"/>
<mask id="path-50-inside-5_494_6182" fill="white">
<path fill-rule="evenodd" clip-rule="evenodd" d="M328.675 9.98812L332.335 8.00639L334.328 6.91265C335.153 6.45979 336.185 6.91265 336.406 7.82462L336.456 8.0321L336.511 8.2382C336.752 9.14496 336.06 10.0316 335.117 10.0229L332.842 10.0024L328.675 9.98846V9.98812Z"/>
</mask>
<path fill-rule="evenodd" clip-rule="evenodd" d="M328.675 9.98812L332.335 8.00639L334.328 6.91265C335.153 6.45979 336.185 6.91265 336.406 7.82462L336.456 8.0321L336.511 8.2382C336.752 9.14496 336.06 10.0316 335.117 10.0229L332.842 10.0024L328.675 9.98846V9.98812Z" fill="#B49571"/>
<path d="M328.675 9.98812L326.294 5.5912L323.675 7.00941V9.98812H328.675ZM332.335 8.00639L334.716 12.4033L334.728 12.3965L334.741 12.3897L332.335 8.00639ZM334.328 6.91265L336.734 11.296L336.734 11.2958L334.328 6.91265ZM336.406 7.82462L341.267 6.65479L341.266 6.65046L336.406 7.82462ZM336.456 8.0321L331.594 9.20193L331.608 9.2598L331.624 9.31732L336.456 8.0321ZM336.511 8.2382L331.679 9.52341L331.679 9.52387L336.511 8.2382ZM335.117 10.0229L335.163 5.02308L335.162 5.02307L335.117 10.0229ZM332.842 10.0024L332.887 5.00257L332.872 5.00244L332.858 5.00239L332.842 10.0024ZM328.675 9.98846H323.675V14.9718L328.658 14.9884L328.675 9.98846ZM331.056 14.385L334.716 12.4033L329.955 3.60947L326.294 5.5912L331.056 14.385ZM334.741 12.3897L336.734 11.296L331.923 2.52932L329.93 3.62306L334.741 12.3897ZM336.734 11.2958C334.694 12.4158 332.105 11.3133 331.546 8.99877L341.266 6.65046C340.266 2.51198 335.613 0.503765 331.922 2.52948L336.734 11.2958ZM331.545 8.99445L331.594 9.20193L341.317 6.86227L341.267 6.65479L331.545 8.99445ZM331.624 9.31732L331.679 9.52341L341.343 6.95299L341.288 6.74689L331.624 9.31732ZM331.679 9.52387C331.063 7.20862 332.834 5.0016 335.163 5.02308L335.071 15.0227C339.286 15.0615 342.441 11.0813 341.342 6.95253L331.679 9.52387ZM335.162 5.02307L332.887 5.00257L332.796 15.0022L335.072 15.0227L335.162 5.02307ZM332.858 5.00239L328.692 4.98849L328.658 14.9884L332.825 15.0023L332.858 5.00239ZM333.675 9.98846V9.98812H323.675V9.98846H333.675Z" fill="#B49571" mask="url(#path-50-inside-5_494_6182)"/>
</g>
<mask id="path-52-inside-6_494_6182" fill="white">
<path fill-rule="evenodd" clip-rule="evenodd" d="M332.911 12.6271L334.373 13.4064C335.188 13.8412 336.235 13.3907 336.481 12.4995L336.536 12.297L336.597 12.0955C336.863 11.2093 336.193 10.3508 335.248 10.3671L333.106 10.4037L332.911 12.6271Z"/>
</mask>
<path fill-rule="evenodd" clip-rule="evenodd" d="M332.911 12.6271L334.373 13.4064C335.188 13.8412 336.235 13.3907 336.481 12.4995L336.536 12.297L336.597 12.0955C336.863 11.2093 336.193 10.3508 335.248 10.3671L333.106 10.4037L332.911 12.6271Z" fill="#B49571"/>
<path d="M334.373 13.4064L336.726 8.99458L336.725 8.99408L334.373 13.4064ZM332.911 12.6271L327.93 12.1898L327.641 15.484L330.559 17.0394L332.911 12.6271ZM336.481 12.4995L331.66 11.1725L331.66 11.1729L336.481 12.4995ZM336.536 12.297L331.749 10.8548L331.732 10.9122L331.716 10.9699L336.536 12.297ZM336.597 12.0955L341.385 13.5377L341.386 13.5334L336.597 12.0955ZM335.248 10.3671L335.333 15.3663L335.334 15.3663L335.248 10.3671ZM333.106 10.4037L333.021 5.40447L328.519 5.48158L328.125 9.96641L333.106 10.4037ZM336.725 8.99408L335.263 8.21485L330.559 17.0394L332.021 17.8187L336.725 8.99408ZM331.66 11.1729C332.264 8.97634 334.712 7.92071 336.726 8.99458L332.02 17.8182C335.664 19.7618 340.206 17.8051 341.301 13.8262L331.66 11.1729ZM331.716 10.9699L331.66 11.1725L341.301 13.8266L341.357 13.6241L331.716 10.9699ZM331.81 10.6533L331.749 10.8548L341.324 13.7392L341.385 13.5377L331.81 10.6533ZM335.334 15.3663C333.062 15.4054 331.053 13.1736 331.808 10.6576L341.386 13.5334C342.673 9.24502 339.324 5.29623 335.162 5.36779L335.334 15.3663ZM333.192 15.403L335.333 15.3663L335.162 5.36779L333.021 5.40447L333.192 15.403ZM328.125 9.96641L327.93 12.1898L337.892 13.0645L338.087 10.8411L328.125 9.96641Z" fill="#B49571" mask="url(#path-52-inside-6_494_6182)"/>
<mask id="path-54-inside-7_494_6182" fill="white">
<path fill-rule="evenodd" clip-rule="evenodd" d="M329.251 10.1536L329.202 10.1165L329.202 10.1166L329.216 10.1496L329.251 10.1536ZM332.891 12.9174L332.453 16.7597C332.921 16.9506 333.492 16.8992 333.944 16.5522L334.12 16.4176L334.298 16.287C335.082 15.712 335.11 14.5841 334.354 14.0165L332.891 12.9174Z"/>
</mask>
<path fill-rule="evenodd" clip-rule="evenodd" d="M329.251 10.1536L329.202 10.1165L329.202 10.1166L329.216 10.1496L329.251 10.1536ZM332.891 12.9174L332.453 16.7597C332.921 16.9506 333.492 16.8992 333.944 16.5522L334.12 16.4176L334.298 16.287C335.082 15.712 335.11 14.5841 334.354 14.0165L332.891 12.9174Z" fill="#B49571"/>
<path d="M329.202 10.1165L332.228 6.13603L329.907 4.37203L327.229 5.52221L329.202 10.1165ZM329.251 10.1536L328.685 15.1214L346.755 17.1795L332.276 6.17309L329.251 10.1536ZM329.202 10.1166L327.229 5.52235L322.65 7.48843L324.6 12.0735L329.202 10.1166ZM329.216 10.1496L324.614 12.1065L325.755 14.7877L328.65 15.1174L329.216 10.1496ZM332.891 12.9174L335.893 8.91943L328.911 3.67532L327.923 12.3516L332.891 12.9174ZM332.453 16.7597L327.485 16.194L327.057 19.9586L330.565 21.3895L332.453 16.7597ZM333.944 16.5522L330.9 12.586L330.899 12.5863L333.944 16.5522ZM334.12 16.4176L331.167 12.3828L331.12 12.4166L331.075 12.4514L334.12 16.4176ZM334.298 16.287L337.251 20.3218L337.254 20.3193L334.298 16.287ZM334.354 14.0165L331.352 18.0145L331.352 18.0147L334.354 14.0165ZM326.176 14.097L326.225 14.134L332.276 6.17309L332.228 6.13603L326.176 14.097ZM331.174 14.7109L331.175 14.7108L327.229 5.52221L327.229 5.52235L331.174 14.7109ZM333.817 8.19264L333.803 8.15972L324.6 12.0735L324.614 12.1065L333.817 8.19264ZM328.65 15.1174L328.685 15.1214L329.816 5.18567L329.781 5.18167L328.65 15.1174ZM327.923 12.3516L327.485 16.194L337.421 17.3255L337.859 13.4832L327.923 12.3516ZM330.899 12.5863C331.91 11.81 333.227 11.6756 334.341 12.13L330.565 21.3895C332.615 22.2257 335.074 21.9884 336.989 20.5181L330.899 12.5863ZM331.075 12.4514L330.9 12.586L336.989 20.5184L337.164 20.3838L331.075 12.4514ZM331.345 12.2522L331.167 12.3828L337.073 20.4525L337.251 20.3218L331.345 12.2522ZM331.352 18.0147C329.257 16.4414 329.593 13.537 331.342 12.2547L337.254 20.3193C340.572 17.8869 340.963 12.7268 337.357 10.0183L331.352 18.0147ZM329.888 16.9154L331.352 18.0145L337.357 10.0185L335.893 8.91943L329.888 16.9154Z" fill="#B49571" mask="url(#path-54-inside-7_494_6182)"/>
<defs>
<clipPath id="clip0_494_6182">
<rect width="16.9734" height="8.24423" fill="white" transform="translate(319.585 1.77832)"/>
</clipPath>
</defs>
</svg>
