<svg width="21" height="22" viewBox="0 0 21 22" fill="none" xmlns="http://www.w3.org/2000/svg">
<path d="M15.75 1.57722C16.3286 1.57781 16.8999 1.7059 17.4234 1.95237C17.9468 2.19885 18.4095 2.55765 18.7786 3.00326C19.1476 3.44887 19.4139 3.97033 19.5585 4.53054C19.7031 5.09075 19.7225 5.67595 19.6153 6.2445C19.508 6.81306 19.2768 7.35099 18.9381 7.82004C18.5993 8.28908 18.1614 8.67771 17.6554 8.95828C17.1494 9.23885 16.5878 9.40446 16.0105 9.44332C15.4332 9.48219 14.8545 9.39336 14.3154 9.18316L9.84375 15.1406V18.6397H11.8125C11.9865 18.6397 12.1535 18.7089 12.2765 18.8319C12.3996 18.955 12.4688 19.1219 12.4688 19.296C12.4688 19.47 12.3996 19.6369 12.2765 19.76C12.1535 19.8831 11.9865 19.9522 11.8125 19.9522H6.5625C6.38845 19.9522 6.22153 19.8831 6.09846 19.76C5.97539 19.6369 5.90625 19.47 5.90625 19.296C5.90625 19.1219 5.97539 18.955 6.09846 18.8319C6.22153 18.7089 6.38845 18.6397 6.5625 18.6397H8.53125V15.1406L1.575 5.87434C1.40461 5.64715 1.3125 5.37083 1.3125 5.08684V4.86766C1.3125 4.69361 1.38164 4.52669 1.50471 4.40362C1.62778 4.28055 1.7947 4.21141 1.96875 4.21141H3.44138L2.09738 2.49203C1.99016 2.35488 1.94182 2.18076 1.96299 2.00797C1.98416 1.83517 2.0731 1.67787 2.21025 1.57066C2.3474 1.46344 2.52152 1.4151 2.69431 1.43627C2.86711 1.45744 3.02441 1.54638 3.13163 1.68353L5.10563 4.21141H12.0317C12.3021 3.44114 12.8051 2.77391 13.4712 2.302C14.1374 1.8301 14.9337 1.57683 15.75 1.57722ZM13.4715 4.21141H16.4063C16.5803 4.21141 16.7472 4.28055 16.8703 4.40362C16.9934 4.52669 17.0625 4.69361 17.0625 4.86766V5.08553C17.0625 5.36952 16.9704 5.64584 16.8 5.87303L15.1502 8.07147C15.6242 8.18253 16.1198 8.15957 16.5816 8.00514C17.0433 7.85071 17.453 7.57091 17.7649 7.197C18.0767 6.8231 18.2784 6.36983 18.3475 5.88787C18.4165 5.4059 18.3501 4.91423 18.1558 4.46782C17.9614 4.02141 17.6467 3.63785 17.2469 3.36002C16.8471 3.08219 16.3779 2.92103 15.8917 2.89456C15.4055 2.86809 14.9216 2.97735 14.494 3.21014C14.0663 3.44292 13.7119 3.79005 13.4702 4.21272V4.21141H13.4715ZM6.132 5.52391L8.78719 8.92328C8.88833 9.06088 8.93186 9.23248 8.90852 9.40165C8.88518 9.57082 8.79681 9.72423 8.66219 9.8293C8.52756 9.93437 8.35728 9.98282 8.18751 9.96437C8.01774 9.94592 7.86184 9.86201 7.75294 9.73047L4.46644 5.52391H2.95313L9.1875 13.8281L15.4219 5.52391H6.132Z" fill="black"/>
</svg>
