<svg width="24" height="24" viewBox="0 0 24 24" fill="none" xmlns="http://www.w3.org/2000/svg">
<path d="M18.5 3.375H3.5C3.20163 3.375 2.91548 3.49353 2.7045 3.7045C2.49353 3.91548 2.375 4.20163 2.375 4.5V19.5C2.375 19.7984 2.49353 20.0845 2.7045 20.2955C2.91548 20.5065 3.20163 20.625 3.5 20.625H18.5C18.7984 20.625 19.0845 20.5065 19.2955 20.2955C19.5065 20.0845 19.625 19.7984 19.625 19.5V4.5C19.625 4.20163 19.5065 3.91548 19.2955 3.7045C19.0845 3.49353 18.7984 3.375 18.5 3.375ZM16.625 9.375H18.875V14.625H16.625V9.375ZM18.875 4.5V8.625H16.625V4.125H18.5C18.5995 4.125 18.6948 4.16451 18.7652 4.23484C18.8355 4.30516 18.875 4.40054 18.875 4.5ZM3.125 19.5V4.5C3.125 4.40054 3.16451 4.30516 3.23484 4.23484C3.30516 4.16451 3.40054 4.125 3.5 4.125H15.875V19.875H3.5C3.40054 19.875 3.30516 19.8355 3.23484 19.7652C3.16451 19.6948 3.125 19.5995 3.125 19.5ZM18.5 19.875H16.625V15.375H18.875V19.5C18.875 19.5995 18.8355 19.6948 18.7652 19.7652C18.6948 19.8355 18.5995 19.875 18.5 19.875ZM12.8638 15.6562C12.7303 15.1668 12.4889 14.7134 12.1573 14.3294C11.8257 13.9454 11.4123 13.6405 10.9475 13.4372C11.4182 13.126 11.7762 12.6715 11.9682 12.1409C12.1603 11.6103 12.1763 11.032 12.0139 10.4916C11.8514 9.95123 11.5191 9.47758 11.0663 9.14088C10.6135 8.80418 10.0643 8.62235 9.5 8.62235C8.93573 8.62235 8.38648 8.80418 7.93367 9.14088C7.48086 9.47758 7.1486 9.95123 6.98615 10.4916C6.82369 11.032 6.83969 11.6103 7.03176 12.1409C7.22384 12.6715 7.58177 13.126 8.0525 13.4372C7.58799 13.6409 7.17492 13.9458 6.84352 14.3298C6.51212 14.7138 6.27079 15.167 6.13719 15.6562C6.1124 15.7525 6.12681 15.8546 6.17726 15.9402C6.22771 16.0258 6.31007 16.0879 6.40625 16.1128C6.43686 16.1208 6.46836 16.1249 6.5 16.125C6.58309 16.1249 6.6638 16.0973 6.72947 16.0464C6.79514 15.9955 6.84204 15.9242 6.86281 15.8438C7.15625 14.7188 8.28594 13.875 9.5 13.875C10.7141 13.875 11.8484 14.7188 12.1362 15.8438C12.1611 15.9402 12.2233 16.0229 12.3091 16.0735C12.3949 16.1241 12.4973 16.1386 12.5938 16.1138C12.6902 16.0889 12.7729 16.0267 12.8235 15.9409C12.8741 15.8551 12.8886 15.7527 12.8638 15.6562ZM7.625 11.25C7.625 10.8792 7.73497 10.5166 7.94099 10.2083C8.14702 9.89996 8.43986 9.65964 8.78247 9.51773C9.12508 9.37581 9.50208 9.33868 9.86579 9.41103C10.2295 9.48337 10.5636 9.66195 10.8258 9.92417C11.088 10.1864 11.2666 10.5205 11.339 10.8842C11.4113 11.2479 11.3742 11.6249 11.2323 11.9675C11.0904 12.3101 10.85 12.603 10.5417 12.809C10.2334 13.015 9.87084 13.125 9.5 13.125C9.00272 13.125 8.52581 12.9275 8.17417 12.5758C7.82254 12.2242 7.625 11.7473 7.625 11.25Z" fill="black"/>
</svg>
