<svg width="23" height="24" viewBox="0 0 23 24" fill="none" xmlns="http://www.w3.org/2000/svg">
<path fill-rule="evenodd" clip-rule="evenodd" d="M11.4454 1.46265C9.23258 1.46265 7.49896 1.46265 6.14579 1.64473C4.76196 1.83065 3.66946 2.21973 2.81175 3.07648C1.95404 3.93419 1.56591 5.02669 1.38 6.41148C1.19791 7.76369 1.19791 9.49731 1.19791 11.7101V11.8194C1.19791 14.0321 1.19791 15.7658 1.38 17.1189C1.56591 18.5028 1.955 19.5953 2.81175 20.453C3.66946 21.3107 4.76196 21.6988 6.14675 21.8847C7.49896 22.0668 9.23258 22.0668 11.4454 22.0668H11.5546C13.7674 22.0668 15.501 22.0668 16.8542 21.8847C18.238 21.6988 19.3305 21.3097 20.1882 20.453C21.046 19.5953 21.4341 18.5028 21.62 17.118C21.8021 15.7658 21.8021 14.0321 21.8021 11.8194V11.7101C21.8021 9.49731 21.8021 7.76369 21.62 6.41052C21.4341 5.02669 21.045 3.93419 20.1882 3.07648C19.3305 2.21877 18.238 1.83065 16.8532 1.64473C15.501 1.46265 13.7674 1.46265 11.5546 1.46265H11.4454ZM10.7812 2.90015C8.87033 2.90206 7.44912 2.91931 6.33841 3.06881C5.11271 3.23365 4.37383 3.54798 3.82758 4.09327C3.28229 4.63952 2.96891 5.37744 2.80408 6.60315C2.65554 7.71385 2.63733 9.13506 2.63541 11.046H6.62591C6.28179 10.6161 6.03464 10.1169 5.90141 9.5826C5.38487 7.51931 7.25458 5.6496 9.31787 6.16615C9.85215 6.29943 10.3513 6.54657 10.7812 6.89065V2.90015ZM2.63541 12.4835C2.63733 14.3944 2.65458 15.8156 2.80408 16.9263C2.96891 18.152 3.28325 18.8909 3.82854 19.4371C4.37479 19.9824 5.11271 20.2958 6.33841 20.4606C7.44912 20.6092 8.87033 20.6274 10.7812 20.6293V13.8002C10.4031 14.5566 9.82176 15.1927 9.10236 15.6372C8.38296 16.0817 7.55397 16.3171 6.70833 16.3168C6.51771 16.3168 6.33489 16.2411 6.2001 16.1063C6.06531 15.9715 5.98958 15.7887 5.98958 15.5981C5.98958 15.4074 6.06531 15.2246 6.2001 15.0898C6.33489 14.955 6.51771 14.8793 6.70833 14.8793C7.40947 14.8793 8.0901 14.6428 8.64017 14.208C9.19024 13.7733 9.57757 13.1657 9.73954 12.4835H9.60729H2.63541ZM12.2187 20.6293C14.1297 20.6274 15.5509 20.6101 16.6616 20.4606C17.8873 20.2958 18.6262 19.9815 19.1724 19.4362C19.7177 18.8899 20.0311 18.152 20.1959 16.9263C20.3445 15.8156 20.3627 14.3944 20.3646 12.4835H13.2605C13.4224 13.1657 13.8098 13.7733 14.3598 14.208C14.9099 14.6428 15.5905 14.8793 16.2917 14.8793C16.4823 14.8793 16.6651 14.955 16.7999 15.0898C16.9347 15.2246 17.0104 15.4074 17.0104 15.5981C17.0104 15.7887 16.9347 15.9715 16.7999 16.1063C16.6651 16.2411 16.4823 16.3168 16.2917 16.3168C15.446 16.3171 14.617 16.0817 13.8976 15.6372C13.1782 15.1927 12.5969 14.5566 12.2187 13.8002V20.6293ZM20.3646 11.046H16.3741C16.7185 10.6161 16.9659 10.117 17.0995 9.5826C17.6151 7.51931 15.7454 5.6496 13.6831 6.16615C13.1484 6.29925 12.6489 6.5464 12.2187 6.89065V2.90015C14.1297 2.90206 15.5509 2.91931 16.6616 3.06881C17.8873 3.23365 18.6262 3.54798 19.1724 4.09327C19.7177 4.63952 20.0311 5.37744 20.1959 6.60315C20.3445 7.71385 20.3627 9.13506 20.3646 11.046ZM12.2187 11.046V9.87681C12.2199 9.34409 12.3988 8.82698 12.727 8.40741C13.0553 7.98784 13.5142 7.68981 14.031 7.56052C14.2621 7.50279 14.5043 7.50589 14.7339 7.56952C14.9635 7.63314 15.1727 7.75513 15.3411 7.92359C15.5096 8.09206 15.6316 8.30127 15.6952 8.53087C15.7588 8.76047 15.7619 9.00262 15.7042 9.23377C15.575 9.75025 15.2772 10.2089 14.8581 10.5371C14.4389 10.8653 13.9222 11.0444 13.3898 11.046H12.2187ZM10.7812 9.87394C10.7795 9.34171 10.6003 8.82526 10.2721 8.40628C9.94388 7.98729 9.48536 7.68969 8.96904 7.56052C8.73789 7.50279 8.49573 7.50589 8.26614 7.56952C8.03654 7.63314 7.82733 7.75513 7.65886 7.92359C7.49039 8.09206 7.36841 8.30127 7.30479 8.53087C7.24116 8.76047 7.23806 9.00262 7.29579 9.23377C7.42499 9.75025 7.72275 10.2089 8.14193 10.5371C8.5611 10.8653 9.07777 11.0444 9.61016 11.046H10.7812V9.87394Z" fill="black"/>
</svg>
