<svg width="23" height="24" viewBox="0 0 23 24" fill="none" xmlns="http://www.w3.org/2000/svg">
<path d="M12.2923 6.01465L12.4634 7.45215H16.7952L16.4358 10.3271H11.3461L11.0117 7.45215H11.0157L10.8446 6.01465L10.8426 5.99717L10.4365 2.50472L10.3431 1.70215H4.67188V3.13965H9.06312L9.39743 6.01465H5.29521L7.11455 20.5679C7.15847 20.9154 7.32752 21.2349 7.59004 21.4667C7.85257 21.6985 8.19057 21.8266 8.54077 21.8271H15.178C15.5282 21.8267 15.8663 21.6985 16.1288 21.4667C16.3914 21.235 16.5605 20.9154 16.6044 20.5679L18.4235 6.01465H12.2923ZM6.92354 7.45215H9.56459L9.89889 10.3271H7.28291L6.92354 7.45215ZM15.1786 20.3896H8.54073L7.4626 11.7646H10.066L10.6928 17.1553H12.14L11.5132 11.7646H16.2563L15.1786 20.3896Z" fill="black"/>
</svg>
