<svg width="52" height="52" viewBox="0 0 52 52" fill="none" xmlns="http://www.w3.org/2000/svg">
<path d="M13.8988 33.8558L9.9097 47.8438M4.39771 46.2689L15.418 49.4112M8.09342 22.3266L15.2806 3.27234L28.8488 7.1352L24.9043 27.1181C24.6735 28.3121 24.1969 29.4451 23.5049 30.4452C22.8129 31.4453 21.9205 32.2905 20.8844 32.9274C19.8483 33.5642 18.6911 33.9786 17.4863 34.1444C16.2815 34.3101 15.0554 34.2236 13.8858 33.8902C12.7162 33.5569 11.6288 32.984 10.6924 32.2079C9.756 31.4319 8.9912 30.4697 8.44652 29.3823C7.90184 28.2949 7.58918 27.1062 7.5284 25.8916C7.46761 24.6769 7.66002 23.4629 8.09342 22.3266Z" stroke="#B49571" stroke-width="2" stroke-linecap="round" stroke-linejoin="round"/>
<path d="M11.6926 12.7698L26.8691 17.1341" stroke="#B49571" stroke-width="2"/>
<path d="M31.8203 33.2912C33.399 34.07 35.1754 34.356 36.9187 34.1118C38.6621 33.8677 40.2916 33.1047 41.5956 31.9221C42.8996 30.7395 43.8176 29.192 44.2304 27.4808C44.6432 25.7695 44.5317 23.9736 43.9103 22.3266L36.7157 3.27234L34.5763 3.87777M38.1011 33.8558L42.0903 47.8438M47.6023 46.2689L36.582 49.4112M40.3074 12.8143L34.1083 14.5972" stroke="#B49571" stroke-width="2" stroke-linecap="round" stroke-linejoin="round"/>
</svg>
