<svg width="83" height="98" viewBox="0 0 83 98" fill="none" xmlns="http://www.w3.org/2000/svg">
<path d="M2.80026 62.2943L2.57153 62.4692V77.2556C2.57153 79.7851 4.63006 81.8571 7.17296 81.8571H22.3092C24.8387 81.8571 26.9107 79.7985 26.9107 77.2556V62.4692L26.6819 62.2943C26.4801 62.1328 21.502 58.3252 14.7478 58.3252C7.99368 58.3252 3.02898 62.1328 2.81371 62.2943H2.80026ZM25.7132 77.2556C25.7132 79.1393 24.1794 80.6596 22.3092 80.6596H7.17296C5.28933 80.6596 3.76898 79.1258 3.76898 77.2556V63.0746C4.80497 62.3481 9.19113 59.5226 14.7344 59.5226C20.2776 59.5226 24.6772 62.3481 25.6998 63.0746V77.2556H25.7132Z" fill="#4D4D4D"/>
<path d="M8.89509 68.5236C8.89509 70.1247 9.52744 71.5643 10.55 72.6407C9.44672 72.8425 8.30309 73.1116 7.13255 73.5152V74.8741C5.85438 75.2105 5.11438 75.5199 5.11438 75.5199L6.31183 76.5963L5.18165 78.601C5.18165 78.601 6.79619 77.9014 9.40636 77.4843L9.37945 75.9639C13.9271 74.901 17.8289 75.4123 20.1161 75.9505L20.0892 77.4843C22.6994 77.9014 24.3139 78.601 24.3139 78.601L23.1837 76.5963L24.3812 75.5199C24.3812 75.5199 23.6008 75.1836 22.2823 74.8472V73.5152C22.2823 73.5152 21.1117 73.0443 19.1878 72.681C20.2237 71.6047 20.8696 70.1516 20.8696 68.537C20.8696 65.2407 18.1921 62.5498 14.8823 62.5498C11.5725 62.5498 8.89509 65.2272 8.89509 68.537V68.5236ZM14.8823 65.3349C17.2369 65.3349 19.1339 67.2454 19.1339 69.5865C19.1339 70.7032 18.6899 71.7257 17.9769 72.4792C16.2681 72.2505 14.1289 72.1428 11.7474 72.4523C11.0478 71.6988 10.6173 70.6898 10.6173 69.5865C10.6173 67.232 12.5278 65.3349 14.8689 65.3349H14.8823Z" fill="#4D4D4D"/>
<path d="M19.7933 34.5645C20.0489 20.2758 19.4165 12.3781 19.0802 9.21626C18.9591 8.04572 18.8649 7.57481 18.8649 7.56136C19.6318 7.48063 20.2373 6.84827 20.2373 6.05446V3.71338H9.24496V6.05446C9.24496 6.83482 9.83696 7.45372 10.577 7.5479H10.5366C10.5366 7.5479 10.5366 7.57481 10.5231 7.64208C10.5231 7.65554 10.5231 7.68245 10.5231 7.70936C10.5231 7.76317 10.5097 7.83045 10.4962 7.92463C10.4962 7.97845 10.4828 8.05917 10.4693 8.12644C10.4693 8.22062 10.4424 8.30135 10.429 8.40899C10.429 8.50317 10.402 8.63772 10.3886 8.75881C10.3886 8.86644 10.3617 8.97408 10.3482 9.09517C10.3482 9.13553 10.3482 9.16244 10.3482 9.2028C9.99841 12.3781 9.36605 20.2758 9.63514 34.5779C4.32062 36.7037 0.539917 42.0855 0.539917 48.4091V94.6387C0.539917 96.0514 1.62973 97.2085 2.97518 97.2085H26.5609C27.9063 97.2085 28.9961 96.0649 28.9961 94.6387V48.4091C28.9961 42.0452 25.1751 36.6499 19.8202 34.551L19.7933 34.5645ZM11.6937 9.72753C12.2049 9.72753 12.622 15.1497 12.622 21.8365C12.622 28.5234 12.2049 33.9456 11.6937 33.9456C11.1824 33.9456 10.7653 28.5234 10.7653 21.8365C10.7653 15.1497 11.1824 9.72753 11.6937 9.72753ZM2.15445 47.7095C2.15445 47.7095 2.54463 38.6277 10.7788 35.8965C5.39698 38.7085 5.08753 48.0459 5.08753 48.0459L5.12789 56.8989L2.16791 58.4865V47.696L2.15445 47.7095ZM4.6839 94.9751H2.141V83.3638C2.141 83.3638 2.67918 84.198 4.76462 84.5613C4.76462 84.05 4.6839 93.8583 4.6839 93.8583L19.2954 94.9751H4.67044H4.6839ZM28.4983 78.2781C28.4983 80.9017 26.3725 83.0409 23.7354 83.0409H5.73334C3.10972 83.0409 0.970461 80.9151 0.970461 78.2781V61.0294C0.970461 61.0294 6.83661 56.4549 14.7344 56.4549C22.6322 56.4549 28.4983 61.0294 28.4983 61.0294V78.2781ZM25.8612 42.2873C26.0227 42.247 26.238 42.5161 26.3456 42.9063C26.4532 43.2964 26.4129 43.6462 26.2514 43.6866C26.09 43.727 25.8747 43.4579 25.767 43.0677C25.6594 42.6775 25.6998 42.3277 25.8612 42.2873ZM25.4307 40.5652C25.646 41.3455 25.5652 42.0452 25.2558 42.1393C24.9329 42.2335 24.5023 41.6684 24.2871 40.8881C24.0718 40.1077 24.1525 39.4081 24.462 39.3139C24.7849 39.2197 25.2154 39.7848 25.4307 40.5652Z" fill="#4D4D4D"/>
<path d="M20.6409 2.69089C20.6409 1.19745 19.43 0 17.95 0H11.4784C9.98492 0 8.78748 1.2109 8.78748 2.69089V2.7178H20.6409V2.69089Z" fill="#4D4D4D"/>
<path d="M63.6413 48.1266L36.5171 48.0728V57.2756L63.6413 57.3025V48.1266ZM63.1569 56.8451L37.0015 56.8182V48.3687L63.1569 48.4226V56.8585V56.8451Z" fill="#4D4D4D"/>
<path d="M36.5171 58.1636C36.4094 67.2588 36.0731 81.2245 34.9833 90.1718H65.3231C64.2064 81.5205 63.8027 67.3933 63.6548 58.2039L36.5171 58.1636ZM44.509 89.0819H38.0778C39.356 80.2558 39.6116 67.6624 39.5982 58.8363H44.7378C44.7243 68.0122 44.9261 81.2649 44.509 89.0819Z" fill="#4D4D4D"/>
<path d="M74.7414 52.0958H66.7091C66.7494 48.5977 66.8301 46.4449 66.8301 46.4449H64.812C64.812 45.1533 64.4756 42.9871 62.296 42.2471C60.2509 41.5475 56.9411 43.1217 53.3219 42.8257C49.7026 42.5297 44.7648 40.5653 39.6521 41.2381C35.7772 41.7493 35.3063 44.938 35.3063 46.4449H33.2612C33.2612 46.4449 34.4183 79.6237 30.3685 97.3701H69.7229C68.7003 92.9032 68.0141 87.4542 67.5567 81.8033H74.7414C78.7508 81.8033 82.0202 78.7491 82.0202 74.9953V58.9172C82.0202 55.1634 78.7508 52.0958 74.7414 52.0958ZM39.8405 43.0275C43.7961 42.5028 47.6306 44.0366 50.4291 44.2653C53.2277 44.494 55.784 43.2697 57.3717 43.8213C59.04 44.3864 59.3091 45.6646 59.3091 46.4584H36.4903C36.4903 45.5031 36.8267 43.4446 39.8539 43.041L39.8405 43.0275ZM33.6514 91.8C35.535 76.3811 35.3601 47.2388 35.3601 47.2388L64.7313 47.454C64.7313 50.0507 64.7985 77.5786 66.6418 91.8H33.6514ZM78.549 74.9953C78.549 76.8386 76.8403 78.332 74.7414 78.332H67.3011C66.7629 70.0306 66.6552 61.6619 66.6821 55.5671H74.7414C76.8403 55.5671 78.549 57.0605 78.549 58.9038V74.9819V74.9953ZM78.7374 75.5335V58.4194L79.3159 75.2913L78.7374 75.5335ZM81.2802 75.5335C81.2802 75.5335 81.213 59.0787 80.5941 57.8812C79.6657 54.8809 78.3472 54.2889 76.7595 53.5758C75.1719 52.8627 66.8705 52.5264 66.8705 52.5264C66.8705 52.5264 76.0868 52.5264 77.0959 53.0107C80.6344 54.558 81.3341 58.0292 81.3341 58.0292C81.3341 58.0292 81.7512 60.451 81.2802 75.5335Z" fill="#4D4D4D"/>
</svg>
