<svg width="82" height="89" viewBox="0 0 82 89" fill="none" xmlns="http://www.w3.org/2000/svg">
<path d="M34.9403 54.8894H12.3304V61.764H34.9403V54.8894Z" fill="#B49571"/>
<path d="M30.9321 62.9177H16.3505V65.13H30.9321V62.9177Z" fill="#B49571"/>
<path d="M27.4354 37.5603H20.5965C17.2187 37.9528 14.9946 38.6545 13.9836 39.6655C6.69281 46.9801 8.66715 68.1747 9.99925 72.73C10.2371 74.3475 13.4722 77.4161 24.0338 77.4161C36.1535 77.4161 38.0327 72.8608 38.0446 72.8132C39.1983 69.3998 41.3273 46.9206 34.084 39.6655C33.073 38.6545 30.8489 37.9409 27.4236 37.5603H27.4354ZM37.2002 72.5278C37.2002 72.5278 35.1664 76.5122 24.0457 76.5122C13.7815 76.5122 11.0578 73.622 10.8913 72.5397C9.61865 68.1866 7.71568 47.2418 14.6259 40.3077C15.4704 39.4514 17.5756 38.821 20.6441 38.4642H27.376C30.4921 38.821 32.5973 39.4514 33.4418 40.3077C40.4234 47.3131 38.3063 69.1857 37.1883 72.5278H37.2002Z" fill="#B49571"/>
<path d="M23.9861 51.6901C26.8287 51.6901 29.1361 49.3827 29.1361 46.5401C29.1361 43.6975 26.8287 41.3901 23.9861 41.3901C21.1435 41.3901 18.8362 43.6975 18.8362 46.5401C18.8362 49.3827 21.1435 51.6901 23.9861 51.6901ZM23.9861 43.0196C26.0319 43.0196 27.697 44.6847 27.697 46.7304C27.697 48.7761 26.0319 50.4412 23.9861 50.4412C21.9404 50.4412 20.2753 48.7761 20.2753 46.7304C20.2753 44.6847 21.9404 43.0196 23.9861 43.0196Z" fill="#B49571"/>
<path d="M18.9077 11.7153L18.5033 18.5304H29.5764L29.172 11.7153C29.4455 11.7153 29.6596 11.5012 29.6596 11.2277V0.951497C29.6596 0.428174 29.2314 0 28.7081 0H19.3478C18.8245 0 18.3963 0.428174 18.3963 0.951497V11.2277C18.3963 11.5012 18.6104 11.7153 18.8839 11.7153H18.9077ZM22.8326 4.31741H29.3147V6.87456H22.8326V4.31741ZM22.8326 7.11244H29.3147V7.46925H22.8326V7.11244ZM19.55 10.4784L25.8774 11.0849H18.9791L18.8007 6.30366L19.55 10.4902V10.4784Z" fill="#B49571"/>
<path d="M65.3525 71.3146C65.4358 71.3146 65.5072 71.3146 65.5904 71.3146C65.6737 71.3146 65.745 71.3146 65.8283 71.3146C81.9443 71.0767 80.6241 59.1354 78.0312 51.4045H53.1496C50.5211 59.0998 49.0582 71.0767 65.3525 71.3027V71.3146ZM54.5531 51.9992H56.8961C51.6867 66.3668 62.0937 70.5891 62.0937 70.5891C62.0937 70.5891 48.5824 69.483 54.5649 51.9992H54.5531Z" fill="#B49571"/>
<path d="M75.0816 47.6104C75.3075 47.539 75.3551 47.0514 75.1767 46.5161C74.9983 45.9809 74.6653 45.6003 74.4393 45.6717C74.2134 45.7431 74.1658 46.2307 74.3442 46.7659C74.5226 47.3011 74.8556 47.6817 75.0816 47.6104Z" fill="#B49571"/>
<path d="M75.8313 48.5867C75.9622 48.5509 75.9742 48.2772 75.8789 47.9796C75.7837 47.682 75.5932 47.4796 75.4742 47.5153C75.3433 47.551 75.3313 47.8248 75.4266 48.1224C75.5218 48.42 75.7123 48.6224 75.8313 48.5867Z" fill="#B49571"/>
<path d="M67.6123 86.8358C67.6123 86.8358 65.638 81.4361 66.9582 73.3008C91.8636 72.1471 76.2353 44.4229 76.2353 44.4229H54.9337C54.9337 44.4229 39.115 72.4801 64.6746 73.3127C65.9948 81.448 64.0204 86.8358 64.0204 86.8358C64.0204 86.8358 63.0808 88.156 50.6162 88.156V88.6555H81.0046V88.156C68.54 88.156 67.6005 86.8358 67.6005 86.8358H67.6123ZM55.5284 44.7916H75.6525C75.6525 44.7916 90.8526 71.7546 65.8402 72.0995C65.7569 72.0995 65.6737 72.0995 65.5904 72.0995C65.5072 72.0995 65.4239 72.0995 65.3407 72.0995C40.3163 71.7427 55.5284 44.7797 55.5284 44.7797V44.7916ZM64.9125 87.3234C64.6865 87.5613 62.0699 87.7635 62.0699 87.7635C62.0699 87.7635 63.9134 87.3234 64.2226 86.9904C64.52 86.6574 65.3168 81.8523 65.3168 81.8523C65.3168 81.8523 65.1504 87.0737 64.9244 87.3234H64.9125ZM66.7441 87.5256C64.8411 82.6492 66.2802 73.6219 66.2802 73.6219C66.2802 73.6219 65.8283 73.6219 65.1504 73.3602C65.9234 73.5267 66.9106 73.3008 66.7084 73.3602C66.7084 73.3602 66.0543 76.4764 66.2327 80.7343C66.4706 86.3482 67.3388 87.0499 67.6242 87.2521C68.1238 87.6565 70.336 87.9657 70.336 87.9657C70.336 87.9657 67.0177 87.8824 66.7441 87.5256Z" fill="#B49571"/>
<path d="M29.9569 27.3673L29.5168 19.2439L18.5865 19.2915L18.1464 27.3673C14.388 27.8312 10.3085 28.7351 8.57199 30.4716C-2.90544 41.9014 0.0798786 76.3931 1.1741 86.0865C1.34061 87.5494 2.56567 88.6437 4.04049 88.6437H44.0628C45.5257 88.6437 46.7627 87.5375 46.9292 86.0865C48.0234 76.3931 50.9968 41.9014 39.5313 30.4716C37.7948 28.7351 33.7153 27.843 29.9569 27.3673ZM38.6512 31.9583C38.782 31.9107 38.9842 32.0891 39.0912 32.3627C39.2102 32.6362 39.1864 32.9098 39.0556 32.9573C38.9247 33.0049 38.7225 32.8265 38.6155 32.553C38.4966 32.2794 38.5203 32.0058 38.6512 31.9583ZM37.2358 30.4121C37.4499 30.2813 37.8305 30.5429 38.104 30.983C38.3776 31.4231 38.4252 31.8869 38.223 32.0177C38.0089 32.1486 37.6283 31.8869 37.3547 31.4468C37.0812 31.0068 37.0336 30.5429 37.2358 30.4121ZM19.8234 20.4689H21.4529L20.6441 28.0096H19.8353V20.4689H19.8234ZM9.76136 31.6371C11.8665 29.187 19.2525 28.4377 19.2525 28.4377C19.2525 28.4377 12.3899 30.4716 10.5463 32.8146C4.40919 39.9865 4.52812 47.4439 3.39822 49.7156C4.29024 43.0789 6.18135 36.5849 9.76136 31.6371ZM3.04142 56.0549C2.95816 60.2177 3.01763 74.4783 7.2399 79.7591C12.1996 85.9676 29.9926 84.8139 29.9926 84.8139C29.9926 84.8139 10.9269 86.7645 5.49152 79.985C2.76786 76.6786 2.94625 60.5269 3.05329 56.043L3.04142 56.0549ZM3.75501 87.9776C2.8273 87.9776 2.31588 86.8001 2.0899 86.0627C1.86392 85.3253 1.3763 81.9237 1.06706 78.427C2.8749 86.0627 2.98193 85.8367 2.98193 85.8367C2.98193 85.8367 2.98196 86.5147 4.38541 86.705C5.40827 86.8477 39.6859 88.275 39.6859 88.275C39.6859 88.275 4.40917 87.9776 3.75501 87.9776ZM45.4425 86.253C46.168 85.0042 47.4763 69.7802 47.4763 69.7802C47.4763 69.7802 46.7508 86.253 45.9301 87.1213C45.1213 88.0014 42.1955 87.9657 42.1955 87.9657C42.1955 87.9657 44.717 87.5019 45.4425 86.253ZM39.2459 74.4664C38.9485 75.3346 35.7372 79.2714 24.0457 79.2714C11.2362 79.2714 8.97638 75.3703 8.84555 74.4664C7.29937 69.2094 5.31312 45.7669 13.1511 37.9051C14.4118 36.6444 17.4923 36.014 20.2397 35.6929H27.8279C30.5753 36.0021 33.6558 36.6325 34.9165 37.9051C42.7664 45.7669 40.6255 70.3274 39.2221 74.4664H39.2459Z" fill="#B49571"/>
</svg>
