<svg width="32" height="111" viewBox="0 0 32 111" fill="none" xmlns="http://www.w3.org/2000/svg">
<g clip-path="url(#clip0_351_4298)">
<path d="M4.26171 111C1.90786 111 0 109.368 0 107.346V49.8489C0 46.3535 1.41231 42.9556 3.98916 40.2396L6.07046 38.0596C8.44909 35.5629 9.76229 32.4328 9.76229 29.1932V8.46445C9.76229 8.33048 9.6384 8.23305 9.50213 8.23305C9.19241 8.23305 8.93225 8.026 8.93225 7.75806V5.89467C8.93225 5.66327 9.15525 5.48058 9.4278 5.48058C9.61363 5.48058 9.76229 5.34661 9.76229 5.20046V4.37228C9.76229 4.22614 9.61363 4.09217 9.44019 4.09217C9.16763 4.09217 8.93225 3.90948 8.93225 3.67808V0.706386C8.93225 0.304477 9.30391 0 9.76229 0H22.2377C22.6961 0 23.0678 0.316656 23.0678 0.706386V3.65372C23.0678 3.88512 22.8324 4.06781 22.5598 4.06781C22.3864 4.06781 22.2377 4.20178 22.2377 4.34793V5.1761C22.2377 5.32225 22.3864 5.45622 22.5722 5.45622C22.8448 5.45622 23.0678 5.63891 23.0678 5.87031V7.73371C23.0678 8.00165 22.8076 8.20869 22.4979 8.20869C22.3616 8.20869 22.2377 8.3183 22.2377 8.44009V29.1689C22.2377 32.3963 23.5509 35.5385 25.9295 38.0352L28.0108 40.2153C30.5877 42.9312 32 46.3292 32 49.8246V107.322C32 109.344 30.0921 110.976 27.7383 110.976H4.26171V111Z" fill="#404040"/>
<path d="M25.0252 38.8998C25.0252 38.8998 25.0128 38.8877 25.0004 38.8755H6.9996C6.9996 38.8755 6.98722 38.8877 6.97483 38.8998L4.89353 41.0799C2.53967 43.5644 1.23886 46.6823 1.23886 49.861V107.358C1.23886 108.698 2.58923 109.794 4.2617 109.794C11.9799 104.119 19.7847 102.974 27.7383 109.794C29.4108 109.794 30.7611 108.698 30.7611 107.358V49.861C30.7611 46.6944 29.4603 43.5766 27.1065 41.0921L25.0252 38.912V38.8998Z" fill="#FFF7ED"/>
<path d="M1.23886 91.3309V59.2878C11.0755 53.381 20.9245 53.381 30.7611 59.2878V91.3309H1.23886Z" fill="#404040"/>
<path d="M3.53079 89.0899V60.5909C7.70578 58.2891 11.8932 57.1199 16.0062 57.1199C20.1193 57.1199 24.3066 58.2891 28.4816 60.5909V89.0899H3.53079Z" fill="#404040"/>
<path d="M21.7377 5.18828C21.7377 5.67827 22.1819 5.96619 22.5678 5.96839V7.70607C22.5533 7.71324 22.5298 7.72087 22.4979 7.72087C22.1257 7.72087 21.7377 8.01574 21.7377 8.46445V23.1883H10.2623V8.46445C10.2623 8.01574 9.8743 7.72087 9.50213 7.72087C9.47022 7.72087 9.4467 7.71324 9.43225 7.70607V5.96823C9.81516 5.96031 10.2623 5.68363 10.2623 5.18828V4.36011C10.2623 3.84545 9.80332 3.58209 9.43225 3.58V0.706386C9.43225 0.663905 9.44835 0.62272 9.49455 0.583455C9.54395 0.541467 9.63337 0.5 9.76229 0.5H22.2377C22.3581 0.5 22.4493 0.540117 22.5028 0.585105C22.5533 0.6276 22.5678 0.669485 22.5678 0.706386V3.57955C22.5652 3.57983 22.5625 3.57999 22.5598 3.57999C22.1873 3.57999 21.7377 3.8544 21.7377 4.36011V5.18828Z" fill="#FFF7ED" stroke="#404040"/>
<path d="M23.0678 0.706386V3.65372C23.0678 3.88512 22.8324 4.07999 22.5598 4.07999C22.3864 4.07999 22.2377 4.20178 22.2377 4.36011V5.16392H9.76229V4.36011C9.76229 4.20178 9.61363 4.07999 9.4278 4.07999C9.15525 4.07999 8.93225 3.88512 8.93225 3.65372V0.706386C8.93225 0.304477 9.29152 0 9.76229 0H22.2377C22.6961 0 23.0678 0.304477 23.0678 0.706386Z" fill="#404040"/>
<path opacity="0.5" d="M16.0062 60.8587C13.2559 60.8587 10.8277 61.3702 9.11809 61.9305C7.44562 62.5394 6.41736 63.0266 6.35541 62.917C6.31825 62.8561 7.2474 62.2106 8.93226 61.4555C10.6419 60.7613 13.1692 60.1401 15.9938 60.1401C18.8308 60.1401 21.3581 60.7491 23.0554 61.4555C24.7402 62.1984 25.6818 62.8561 25.6322 62.917C25.5703 63.0266 24.5544 62.5394 22.8695 61.9305C21.1599 61.3702 18.7317 60.8587 15.9814 60.8587H16.0062Z" fill="#F6F6F6"/>
<path opacity="0.5" d="M16.0062 63.4895C13.3674 63.453 11.0259 63.794 9.34106 64.1593C7.66859 64.5613 6.64033 64.8779 6.59077 64.7683C6.55361 64.6952 7.53231 64.2081 9.20479 63.6722C10.8897 63.1728 13.3178 62.7344 16.0062 62.7709C18.6945 62.7344 21.1227 63.1728 22.8076 63.6722C24.48 64.2081 25.4588 64.6952 25.4216 64.7683C25.372 64.8779 24.3438 64.5613 22.6713 64.1593C20.9864 63.794 18.645 63.453 16.0062 63.4895Z" fill="#F6F6F6"/>
<path opacity="0.5" d="M16.0062 75.6807H13.1072C11.1994 72.7333 11.1994 68.9578 13.1072 66.0105H18.9051C20.813 68.9578 20.813 72.7212 18.9051 75.6807H16.0062Z" fill="#F6F6F6"/>
<path opacity="0.5" d="M8.34997 79.9192H5.67401L7.17304 82.0992L5.67401 84.0357H11.2489V82.0992H8.34997V79.9192Z" fill="#DADADA"/>
<path opacity="0.5" d="M23.65 79.9192H26.326L24.827 82.0992L26.326 84.0357H20.7511V82.0992H23.65V79.9192Z" fill="#DADADA"/>
<path opacity="0.5" d="M8.34998 77.739V82.0991H11.2489H20.7511H23.65V77.739H8.34998Z" fill="#F6F6F6"/>
<path opacity="0.5" d="M11.2613 75.1691C11.187 75.2178 10.8649 74.8402 10.5056 74.1582C10.1587 73.464 9.82424 72.4166 9.74991 71.2109C9.70035 70.0173 9.91096 68.9334 10.1835 68.2027C10.4685 67.4719 10.741 67.07 10.8277 67.1065C11.0383 67.1918 10.357 68.9334 10.4808 71.1622C10.6047 73.3909 11.4719 75.0473 11.2737 75.1569L11.2613 75.1691Z" fill="#F6F6F6"/>
<path opacity="0.5" d="M20.7387 75.1691C20.813 75.2178 21.1351 74.8402 21.4944 74.1582C21.8413 73.464 22.1758 72.4166 22.2501 71.2109C22.2996 70.0173 22.089 68.9334 21.8165 68.2027C21.5315 67.4719 21.259 67.07 21.1723 67.1065C20.9617 67.1918 21.643 68.9334 21.5192 71.1622C21.3953 73.3909 20.5281 75.0473 20.7263 75.1569L20.7387 75.1691Z" fill="#F6F6F6"/>
<path opacity="0.5" d="M8.85793 74.341C8.70926 74.4262 7.97833 73.3423 7.74295 71.7712C7.58189 70.1879 8.02789 68.9578 8.18894 69.0065C8.41194 69.0552 8.31283 70.2488 8.46149 71.6737C8.6721 73.0987 9.05615 74.2313 8.85793 74.3288V74.341Z" fill="#F6F6F6"/>
<path opacity="0.5" d="M23.1421 74.341C23.2907 74.4262 24.0217 73.3423 24.2571 71.7712C24.4181 70.1879 23.9721 68.9578 23.8111 69.0065C23.5881 69.0552 23.6872 70.2488 23.5385 71.6737C23.3279 73.0987 22.9439 74.2313 23.1421 74.3288V74.341Z" fill="#F6F6F6"/>
</g>
<defs>
<clipPath id="clip0_351_4298">
<rect width="32" height="111" fill="white"/>
</clipPath>
</defs>
</svg>
