<svg width="71" height="101" viewBox="0 0 71 101" fill="none" xmlns="http://www.w3.org/2000/svg">
<path d="M61.136 59.3853C61.5285 60.5984 60.9933 61.9543 59.8158 62.549C59.4471 62.7393 59.0427 62.8344 58.6264 62.8344C58.1626 62.8344 57.7106 62.7155 57.3181 62.4895C57.7344 63.9524 57.2943 65.3797 56.1882 65.9387C55.3319 66.3669 54.2257 66.1647 53.3456 65.4273L51.3237 67.1162C51.2166 67.1994 51.0858 67.247 50.9669 67.247C50.8123 67.247 50.6457 67.1756 50.5387 67.0448C50.3365 66.8069 50.3603 66.462 50.5982 66.2598L52.5606 64.5352C52.4655 64.3925 52.3822 64.2498 52.299 64.0952C51.9065 63.3102 51.7519 62.4538 51.8827 61.6807C52.0254 60.8482 52.4655 60.194 53.1196 59.861C53.9879 59.4209 55.1178 59.6588 55.986 60.3962C55.9622 60.0632 55.9979 59.7183 56.1168 59.3853H35.4575L49.8132 72.0639C50.0511 72.2305 50.396 72.2305 50.6338 72.0639L64.8706 59.3853H61.136ZM39.6203 59.9324L43.7236 59.9681L49.8845 71.4931L39.6203 59.9324Z" fill="#404040"/>
<path d="M50.9312 73.1819L70.2823 56.3404H63.3363L64.8825 55.0559L64.5971 54.7229L62.7536 56.3404H30.034L49.385 73.1819H49.4088V98.801C46.5424 99.7644 38.8948 100.323 38.8948 100.323V100.502H61.4215V100.323C61.4215 100.323 53.8452 99.7644 50.9431 98.8129V73.1819H50.9312ZM50.0035 99.4313C50.0035 99.4313 47.8507 99.5503 46.923 99.586C49.8013 99.1697 49.6586 98.8723 49.6586 98.8723V73.3603H50.1105L50.0154 99.4313H50.0035ZM49.8013 72.7538L31.6991 56.8043H62.2302L60.0656 58.7073C59.4471 58.1126 58.5075 57.9461 57.6987 58.3505C56.6759 58.8738 56.2596 60.1227 56.771 61.1455C56.8186 61.2526 56.89 61.3477 56.9613 61.4309L56.4618 61.8591C55.7363 60.527 54.3804 59.861 53.3813 60.3605C52.3585 60.8838 52.0968 62.43 52.7985 63.8335C52.9413 64.1189 53.1315 64.3806 53.3218 64.6066L50.955 66.6761L53.3694 64.6542C54.1187 65.4748 55.1416 65.8197 55.9385 65.4272C56.9494 64.9158 57.2111 63.3934 56.545 62.0137L57.0803 61.5737C57.6868 62.2635 58.7097 62.4895 59.566 62.0494C60.5889 61.5261 61.0052 60.2773 60.4937 59.2544C60.4343 59.1236 60.351 59.0165 60.2678 58.9095L62.7892 56.8043H68.6053L50.6577 72.7538C50.4198 72.9678 50.0511 72.9678 49.8013 72.7538ZM60.3035 61.3001C59.685 62.2278 58.4361 62.4895 57.5084 61.871C57.3538 61.7759 57.2349 61.645 57.1159 61.5261C57.0684 61.4785 57.0327 61.431 56.997 61.3834C56.5213 60.7292 56.4737 59.8134 56.9494 59.0879C56.89 60.2059 57.2587 60.7887 57.6155 61.1098C57.8058 61.2882 58.008 61.3953 58.1269 61.4785C58.5075 61.6926 59.2568 61.7283 60.2916 61.3001H60.3035ZM53.3575 63.9405C53.4408 64.0951 53.524 64.226 53.6073 64.3568C54.2733 65.2964 55.1654 65.3559 55.879 65.3202C55.1178 65.7008 54.1544 65.3797 53.4408 64.6066C53.4289 64.5828 53.4051 64.5709 53.3932 64.5471C53.2029 64.333 53.0245 64.0833 52.8818 63.7978C52.2038 62.4538 52.4536 60.9671 53.4408 60.4795C52.5963 61.5975 52.6915 62.6084 53.3694 63.9524L53.3575 63.9405ZM56.5688 99.919C55.879 99.9428 50.5149 99.4908 50.5149 99.4908L50.3484 73.3603H50.5744L50.7528 98.9199C50.7528 98.9199 52.1087 99.5384 56.5688 99.919Z" fill="#404040"/>
<path d="M20.0433 50.1796L14.5008 46.9683L8.94644 50.1796V51.4998H20.0433V50.1796Z" fill="#404040"/>
<path d="M19.96 57.4943V56.1741H8.86316V57.4943L14.4056 60.7056L19.96 57.4943Z" fill="#404040"/>
<path d="M4.30786 55.6864H6.23464L4.90255 77.3329C4.81929 78.5937 5.24746 79.783 6.09192 80.6869C6.91258 81.5671 8.04248 82.0428 9.26753 82.0428H19.6388C20.8639 82.0428 21.9819 81.5552 22.8145 80.6869C23.6589 79.783 24.0752 78.5937 24.0038 77.3329L22.6717 55.6864H24.5272V51.928H4.31975V55.6864H4.30786ZM23.7184 77.3567C23.7897 78.5461 23.3973 79.6522 22.6123 80.4966C21.8392 81.3173 20.7925 81.7693 19.6507 81.7693H9.27942C8.13763 81.7693 7.0791 81.3173 6.3179 80.4966C5.53292 79.6522 5.12852 78.5342 5.21178 77.3567L6.54387 55.6864H7.60242L6.48441 73.5269C6.41305 74.5974 6.78174 75.6083 7.49537 76.3695C8.19709 77.1188 9.1486 77.5232 10.1952 77.5232H18.7468C19.7816 77.5232 20.745 77.1069 21.4467 76.3695C22.1603 75.6083 22.5171 74.5974 22.4576 73.5269L21.3396 55.6864H22.3982L23.7303 77.3567H23.7184ZM7.80461 55.6864H21.0899H20.8639L21.9819 73.5626C22.0414 74.5141 21.7202 75.4061 21.0899 76.0722C20.4714 76.7263 19.6388 77.0832 18.723 77.0832H10.1714C9.25563 77.0832 8.42309 76.7263 7.80461 76.0722C7.17425 75.4061 6.85312 74.5141 6.91259 73.5626L8.03058 55.6983H7.80461V55.6864ZM4.90255 52.3324H23.9919V55.2344H4.90255V52.3324Z" fill="#404040"/>
<path d="M20.5071 66.4978H8.42313V68.5197H20.5071V66.4978Z" fill="#404040"/>
<path d="M19.7221 69.3284H9.19623V71.0887H19.7221V69.3284Z" fill="#404040"/>
<path d="M10.2072 65.7722H18.4376C18.4376 63.5005 16.5941 61.657 14.3224 61.657C12.0507 61.657 10.2072 63.5005 10.2072 65.7722Z" fill="#404040"/>
<path d="M18.3068 0.98718C18.3068 0.440069 17.8667 0 17.3196 0H11.5749C11.0278 0 10.5878 0.440069 10.5878 0.98718V4.82884H18.3187V0.98718H18.3068ZM12.0745 0.856348C11.8247 0.880136 11.6344 1.09422 11.6344 1.34399L11.5987 4.55529H11.0754V0.78498C11.0754 0.582787 11.23 0.416278 11.4322 0.416278L17.4148 0.285446L12.0745 0.856348Z" fill="#404040"/>
<path d="M18.3068 5.07861H10.5759V17.1507H18.3068V5.07861ZM12.1458 16.5798H11.0754V5.38785H12.1458V16.5798Z" fill="#404040"/>
<path d="M27.905 43.2811C27.905 35.0982 19.8054 30.3169 18.1046 17.8999H10.7781C9.01781 30.198 0.977656 35.1339 0.977656 43.2811C0.977656 52.4154 5.16424 65.4985 0.0737322 97.6829C0.0737322 97.6829 -0.556632 100.823 1.86968 100.823H27.0011C29.4393 100.823 28.797 97.6829 28.797 97.6829C23.7065 65.4985 27.8931 52.4035 27.8931 43.2811H27.905ZM24.658 36.0259C24.8721 35.9308 25.2646 36.3352 25.5263 36.9298C25.7879 37.5245 25.8236 38.0835 25.6095 38.1787C25.3954 38.2738 25.0029 37.8694 24.7413 37.2747C24.4796 36.6801 24.4439 36.1211 24.658 36.0259ZM25.8831 56.9232H23.7065L24.9791 77.2733C25.0743 78.7838 24.5391 80.2824 23.5281 81.3647C22.5172 82.447 21.1375 83.0417 19.6389 83.0417H9.26757C7.76896 83.0417 6.38929 82.447 5.37832 81.3766C5.2356 81.222 5.12856 81.0555 5.00962 80.889C4.34357 85.8248 3.55859 91.0581 2.99958 94.4954C2.84496 96.0415 2.59521 97.4807 10.0526 97.9683C11.349 98.0159 13.1092 98.1705 14.4532 98.2062C16.9747 98.2062 19.7221 98.456 23.4924 98.2181C23.7422 98.6106 19.1037 98.6582 14.1202 98.5511C12.5978 98.5511 11.2657 98.5035 10.1239 98.4322C7.92358 98.3489 5.88975 98.2419 4.4625 98.1229C3.24934 98.0278 2.36921 96.9574 2.51194 95.7561C2.91632 92.4021 3.68942 85.7416 4.31978 79.6639C4.02244 78.9146 3.87971 78.1058 3.92729 77.2852L4.87879 62.0374C4.73606 60.4675 4.55766 58.731 4.39114 56.935H2.97579V50.679H3.80836C3.38019 45.6241 3.13042 41.0213 3.58238 39.2372C4.61713 35.0982 11.2776 25.7379 11.8009 18.3281C13.5255 24.7864 6.31792 32.3032 4.75985 39.8795C4.18895 42.6745 4.26032 46.5875 4.56956 50.679H7.82842V49.9653L14.5008 46.1118L21.1732 49.9653V50.679H25.8831V56.935V56.9232ZM25.8712 40.0579C25.7403 40.1173 25.5025 39.8676 25.336 39.4989C25.1694 39.1302 25.1576 38.7852 25.2884 38.7258C25.4192 38.6663 25.6571 38.9161 25.8236 39.2848C25.9901 39.6535 26.002 39.9984 25.8712 40.0579Z" fill="#404040"/>
</svg>
