<svg width="38" height="107" viewBox="0 0 38 107" fill="none" xmlns="http://www.w3.org/2000/svg">
<path d="M2.42529 107C1.08412 107 0 105.902 0 104.557V94.6753C0 93.5437 0.782353 92.5913 1.83294 92.3224L3.34176 46.8334C2.43647 46.4189 1.83294 45.4553 1.93353 44.3909L2.86118 34.5088C2.98412 33.254 4.03471 32.3016 5.28647 32.3016H6.88471C9.5 32.3016 11.7129 30.5986 12.4841 28.2457C12.6741 27.7079 12.7747 27.1253 12.7859 26.5314L13.2329 9.33301L13.3224 5.69165H24.6776L24.7671 9.33301L25.2141 26.5314C25.2141 27.1253 25.3259 27.7079 25.5159 28.2457C26.2871 30.5986 28.5 32.3016 31.1153 32.3016H32.7135C33.9653 32.3016 35.0159 33.254 35.1388 34.5088L36.0665 44.3909C36.1671 45.4553 35.5635 46.4189 34.6582 46.8334L36.1671 92.3224C37.2176 92.5913 38 93.5437 38 94.6753V104.557C38 105.902 36.9159 107 35.5747 107H2.42529Z" fill="#404040"/>
<path d="M3.96765 34.6882L3.05117 44.5031C2.99529 45.0633 3.30823 45.5899 3.81117 45.8252L4.49294 46.1389L2.92823 93.2189L2.11235 93.4318C1.53117 93.5774 1.11765 94.104 1.11765 94.6979V104.58C1.11765 105.308 1.69882 105.902 2.42529 105.902C8.0247 103.325 13.5571 102.081 19 102.07C24.4429 102.07 29.9753 103.325 35.5747 105.902C36.29 105.902 36.8824 105.308 36.8824 104.58V94.6979C36.8824 94.104 36.4688 93.5774 35.8876 93.4318L35.0718 93.2189L33.5071 46.1389L34.1888 45.8252C34.6918 45.5899 35.0047 45.0633 34.9488 44.5031L34.0324 34.6882H3.96765Z" fill="#FFF7ED"/>
<path d="M13.1771 9.33302C12.6406 9.33302 12.1935 8.89606 12.1935 8.34705C12.1935 7.80925 12.6294 7.36108 13.1771 7.36108H24.823C25.3594 7.36108 25.7953 7.79805 25.7953 8.34705C25.7953 8.88485 25.3594 9.33302 24.823 9.33302H13.1771Z" fill="#B2B2B2"/>
<path d="M14.2053 0C13.3 0 12.5735 0.851518 12.5735 1.90471V6.63288H25.4265V1.90471C25.4265 0.851518 24.7 0 23.7947 0H14.2053Z" fill="#3C3C3B"/>
<path d="M12.4841 28.2457C12.6406 27.8087 12.73 27.3493 12.7635 26.8788C12.7635 26.7555 12.7859 26.6435 12.7859 26.5314L12.8194 25.3998L12.9871 18.7893L13.1771 11.5402L13.2106 10.0725L13.233 9.33301H24.7671L24.7894 10.0725L24.823 11.5402L25.013 18.7893L25.1806 25.3998L25.2141 26.5314C25.2141 26.6435 25.2141 26.7555 25.2365 26.8788C25.27 27.3493 25.3594 27.8087 25.5159 28.2457H12.4841Z" fill="#404040"/>
<path d="M13.1771 11.5403L13.2106 10.0725H24.7894L24.8229 11.5403H13.1771Z" fill="#F6F6F6"/>
<path d="M12.7635 26.8789C12.7635 26.7556 12.7859 26.6436 12.7859 26.5315L12.8194 25.3999H25.1806L25.2141 26.5315C25.2141 26.6436 25.2141 26.7556 25.2365 26.8789H12.7635Z" fill="#F6F6F6"/>
<path d="M12.9871 18.7894L13.1771 11.5403H24.8229L25.0129 18.7894H12.9871Z" fill="#3C3C3B"/>
<path d="M8.11413 92.0537C6.65001 92.0537 5.47648 90.8548 5.51001 89.3871L6.02413 65.3541L6.19177 57.6008L6.3706 49.4329C6.40413 48.01 7.56648 46.8672 8.98589 46.8672H29.0141C30.4335 46.8672 31.5959 48.01 31.6294 49.4329L31.8082 57.6008L31.9759 65.3541L32.49 89.3871C32.5235 90.8548 31.35 92.0537 29.8859 92.0537H8.11413Z" fill="#3C3C3B"/>
<path opacity="0.5" d="M8.11412 90.3841C7.85706 90.3841 7.62235 90.2832 7.44353 90.104C7.2647 89.9247 7.17529 89.6782 7.17529 89.4317L8.03588 49.4776C8.04706 48.9734 8.47176 48.5588 8.9747 48.5588H29.0141C29.5171 48.5588 29.9418 48.9734 29.9529 49.4776L30.8135 89.4317C30.8135 89.6894 30.7241 89.9247 30.5453 90.104C30.3665 90.2832 30.1318 90.3841 29.8747 90.3841H8.11412Z" fill="#F6F6F6"/>
<path d="M8.30411 89.2638L9.1647 49.6682H28.8353L29.6959 89.2638H8.30411Z" fill="#3C3C3B"/>
<path d="M6.02411 65.3541L6.03529 64.6371L6.04646 64.1665L6.1694 58.7325L6.18058 58.2619L6.19176 57.6008H31.8082L31.8194 58.2619L31.8306 58.7325L31.9535 64.1665L31.9647 64.6371L31.9759 65.3541H6.02411Z" fill="#404040"/>
<path d="M6.1694 58.7323L6.18058 58.2617H31.8194L31.8306 58.7323H6.1694Z" fill="#F6F6F6"/>
<path d="M6.03531 64.6371L6.04649 64.1665H31.9535L31.9647 64.6371H6.03531Z" fill="#F6F6F6"/>
<path opacity="0.5" d="M17.983 72.7599C18.2177 72.8047 18.4859 72.6703 18.5753 72.491C18.7653 72.1213 18.5083 71.9196 18.4971 71.9644C18.4412 71.998 18.4971 72.1773 18.3518 72.3342C18.2288 72.5022 17.9271 72.3902 17.5024 72.1885C17.0665 72.0429 16.72 71.8412 16.3288 71.886C16.1388 71.9084 16.0047 72.0429 15.9824 72.1437C15.96 72.2557 16.0047 72.3118 16.0159 72.3005C16.0718 72.3005 16.1165 72.1213 16.34 72.1549C16.5524 72.1661 16.9324 72.4014 17.3347 72.547C17.5359 72.6143 17.7371 72.7375 17.983 72.7599Z" fill="#F6F6F6"/>
<path opacity="0.5" d="M20.0171 72.7599C19.7824 72.8047 19.5141 72.6703 19.4247 72.491C19.2347 72.1213 19.4918 71.9196 19.503 71.9644C19.5588 71.998 19.503 72.1773 19.6482 72.3342C19.7712 72.5022 20.073 72.3902 20.4977 72.1885C20.9335 72.0429 21.28 71.8412 21.6712 71.886C21.8612 71.9084 21.9953 72.0429 22.0177 72.1437C22.04 72.2557 21.9953 72.3118 21.9841 72.3005C21.9282 72.3005 21.8835 72.1213 21.66 72.1549C21.4477 72.1661 21.0677 72.4014 20.6653 72.547C20.4641 72.6143 20.263 72.7375 20.0171 72.7599Z" fill="#F6F6F6"/>
<path opacity="0.5" d="M19 71.1578C18.6535 71.113 18.24 71.0794 17.9718 71.1242C17.6923 71.1802 17.5359 71.2698 17.5582 71.3147C17.5694 71.3707 17.7371 71.3819 17.9829 71.4043C18.24 71.4267 18.5529 71.4939 19 71.55C19.4582 71.4827 19.76 71.4267 20.0171 71.4043C20.2629 71.3819 20.4306 71.3819 20.4418 71.3147C20.4529 71.2698 20.3076 71.169 20.0282 71.1242C19.76 71.0794 19.3465 71.113 19 71.1578Z" fill="#F6F6F6"/>
<path opacity="0.5" d="M19 70.3174C18.2847 70.3622 17.7259 70.4966 17.7371 70.5975C17.7482 70.7095 18.3182 70.7543 19 70.7095C19.6818 70.7543 20.2406 70.7095 20.263 70.5975C20.2741 70.4854 19.7153 70.3622 19 70.3174Z" fill="#F6F6F6"/>
<path opacity="0.5" d="M19 69.5779C18.5976 69.5779 18.2735 69.6787 18.2847 69.7908C18.2847 69.9028 18.6088 69.9812 19 69.97C19.38 69.97 19.7041 69.8916 19.7153 69.7908C19.7153 69.6787 19.4024 69.5891 19 69.5779Z" fill="#F6F6F6"/>
<path opacity="0.5" d="M19 75.1353C18.8324 75.1128 18.4859 74.6647 18.1059 74.6871C17.9606 74.6871 17.8712 74.7655 17.8153 74.8327C17.8153 74.7431 17.7929 74.6423 17.8153 74.5526C17.8376 74.4294 17.9382 74.3286 17.9829 74.2389C18.0165 74.3734 18.0724 74.4518 18.1171 74.4406C18.24 74.4182 18.2735 74.0933 18.3741 73.7235C18.4859 73.3538 18.6088 73.0513 18.5194 72.9728C18.4412 72.9056 18.1282 73.1521 17.9941 73.6115C17.9494 73.802 17.9494 73.9588 17.9718 74.1045C17.8824 74.0372 17.5694 74.0709 17.4353 74.4518C17.3682 74.8439 17.6253 75.012 17.7482 75.012C17.7482 75.0456 17.7594 75.0568 17.7818 75.0568C17.8376 75.0568 17.9047 74.9224 18.0947 74.9672C18.1841 75.0008 18.2847 75.0568 18.3965 75.1689C18.5418 75.2921 18.6424 75.4602 19 75.5386C19.3576 75.449 19.4582 75.2809 19.6035 75.1689C19.7153 75.0568 19.8159 75.0008 19.9053 74.9672C20.0953 74.9336 20.1735 75.0568 20.2182 75.0568C20.2294 75.0568 20.2406 75.0456 20.2518 75.012C20.3747 75.012 20.6318 74.8439 20.5647 74.4518C20.4306 74.0709 20.1288 74.0484 20.0282 74.1045C20.0506 73.97 20.0506 73.802 20.0059 73.6115C19.8718 73.1521 19.5588 72.9056 19.4806 72.9728C19.3912 73.0513 19.5141 73.3538 19.6259 73.7235C19.7153 74.0933 19.76 74.4182 19.8829 74.4406C19.9276 74.4406 19.9835 74.3734 20.0171 74.2389C20.0618 74.3286 20.1624 74.4294 20.1847 74.5526C20.2071 74.6423 20.1847 74.7431 20.1847 74.8327C20.1288 74.7655 20.0394 74.6871 19.8941 74.6871C19.5141 74.6647 19.1676 75.1128 19 75.1353Z" fill="#F6F6F6"/>
<path opacity="0.5" d="M17.6924 72.9951C17.6477 72.8943 17.3682 72.9167 17.1559 72.7599C16.9324 72.6142 16.8765 72.3677 16.7647 72.3453C16.6641 72.2893 16.5077 72.7711 16.9435 73.0848C17.3906 73.3537 17.7706 73.0624 17.7035 72.9839L17.6924 72.9951Z" fill="#F6F6F6"/>
<path opacity="0.5" d="M20.3076 72.9951C20.3524 72.8943 20.6318 72.9167 20.8441 72.7599C21.0676 72.6142 21.1235 72.3677 21.2353 72.3453C21.3359 72.2893 21.4924 72.7711 21.0565 73.0848C20.6094 73.3537 20.2294 73.0624 20.2965 72.9839L20.3076 72.9951Z" fill="#F6F6F6"/>
<path opacity="0.5" d="M18.1059 78.0821C17.7035 77.8132 17.1671 77.3986 16.8206 76.7936C16.4518 76.1886 16.4406 75.4939 16.3624 75.0233C16.34 74.7992 16.3288 74.6088 16.3065 74.4743C16.5971 74.6424 16.8541 74.6536 16.8541 74.6088C16.9212 74.4855 16.3288 74.2278 16.0606 73.6564C15.8147 73.0626 15.8482 72.4015 15.7141 72.4127C15.6471 72.4127 15.39 73.0178 15.7029 73.8133C15.8371 74.071 16.0047 74.2502 16.1724 74.3735C16.1388 74.5079 16.1165 74.732 16.0941 75.0233C16.1053 75.281 16.0718 75.5835 16.1388 75.9197C16.1388 75.9533 16.15 75.9869 16.1612 76.0093C16.0606 76.1213 15.9376 76.2894 15.8259 76.5359C15.6023 77.0177 15.58 77.9588 16.1612 78.6087C16.6753 79.2921 17.2229 79.6955 17.29 80.1884C17.4018 80.659 17.1671 80.9167 17.2229 80.9615C17.2229 81.0176 17.6253 80.7599 17.5694 80.1548C17.5694 79.5386 16.91 78.9672 16.4853 78.3846C15.9712 77.8244 15.9712 77.0961 16.0941 76.6367C16.1276 76.5023 16.1724 76.3902 16.2171 76.2894C16.2171 76.3454 16.2394 76.4014 16.2506 76.4575C16.3288 76.6367 16.4071 76.816 16.4965 76.9953C16.8988 77.7123 17.5359 78.1157 17.9829 78.3286C18.43 78.5526 18.7318 78.6311 18.7541 78.5862C18.7765 78.5302 18.5194 78.3622 18.1171 78.0821H18.1059Z" fill="#F6F6F6"/>
<path opacity="0.5" d="M19.8941 78.0821C20.2965 77.8132 20.8329 77.3986 21.1794 76.7936C21.5482 76.1886 21.5594 75.4939 21.6377 75.0233C21.66 74.7992 21.6712 74.6088 21.6935 74.4743C21.4029 74.6424 21.1459 74.6536 21.1459 74.6088C21.0788 74.4855 21.6712 74.2278 21.9394 73.6564C22.1853 73.0626 22.1518 72.4015 22.2859 72.4127C22.3529 72.4127 22.61 73.0178 22.2971 73.8133C22.1629 74.071 21.9953 74.2502 21.8277 74.3735C21.8612 74.5079 21.8835 74.732 21.9059 75.0233C21.8947 75.281 21.9282 75.5835 21.8612 75.9197C21.8612 75.9533 21.85 75.9869 21.8388 76.0093C21.9394 76.1213 22.0624 76.2894 22.1741 76.5359C22.3977 77.0177 22.42 77.9588 21.8388 78.6087C21.3247 79.2921 20.7771 79.6955 20.71 80.1884C20.5982 80.659 20.8329 80.9167 20.7771 80.9615C20.7771 81.0176 20.3747 80.7599 20.4306 80.1548C20.4306 79.5386 21.09 78.9672 21.5147 78.3846C22.0288 77.8244 22.0288 77.0961 21.9059 76.6367C21.8724 76.5023 21.8277 76.3902 21.7829 76.2894C21.7829 76.3454 21.7606 76.4014 21.7494 76.4575C21.6712 76.6367 21.5929 76.816 21.5035 76.9953C21.1012 77.7123 20.4641 78.1157 20.0171 78.3286C19.57 78.5526 19.2682 78.6311 19.2459 78.5862C19.2235 78.5302 19.4806 78.3622 19.8829 78.0821H19.8941Z" fill="#F6F6F6"/>
<path opacity="0.5" d="M19 76.1772C18.1841 76.1885 17.5247 76.2893 17.5247 76.4013C17.5247 76.5134 18.1841 76.5918 19 76.5694C19.8159 76.5806 20.4641 76.5022 20.4753 76.4013C20.4865 76.3005 19.8159 76.1885 19 76.1772Z" fill="#F6F6F6"/>
<path opacity="0.5" d="M19 76.8159C18.743 76.8495 18.553 76.928 18.5641 77.0288C18.5641 77.1184 18.7541 77.1969 19 77.1969C19.2459 77.1969 19.4359 77.1184 19.4359 77.0288C19.4359 76.9392 19.2459 76.8495 19 76.8159Z" fill="#F6F6F6"/>
<path opacity="0.5" d="M16.3177 69.4883C15.9935 69.7796 15.893 70.1718 15.8259 70.4855C15.7812 70.8104 15.7365 71.0905 15.7253 71.337C15.7365 71.83 15.77 72.1213 15.8259 72.1213C15.8818 72.1213 15.9488 71.83 16.0047 71.3706C16.1388 70.9449 16.15 70.1942 16.5859 69.7908C17.0441 69.3427 17.7371 69.4547 18.173 69.4883C18.6312 69.5668 18.9218 69.6116 18.9441 69.5556C18.9553 69.5107 18.6983 69.3651 18.24 69.2082C17.793 69.1074 16.9883 68.8945 16.3288 69.4883H16.3177Z" fill="#F6F6F6"/>
<path opacity="0.5" d="M21.6824 69.4883C22.0065 69.7796 22.1071 70.1718 22.1741 70.4855C22.2188 70.8104 22.2635 71.0905 22.2747 71.337C22.2635 71.83 22.23 72.1213 22.1741 72.1213C22.1182 72.1213 22.0512 71.83 21.9953 71.3706C21.8612 70.9449 21.85 70.1942 21.4141 69.7908C20.9559 69.3427 20.263 69.4547 19.8271 69.4883C19.3688 69.5668 19.0782 69.6116 19.0559 69.5556C19.0447 69.5107 19.3018 69.3651 19.76 69.2082C20.2071 69.1074 21.0118 68.8945 21.6712 69.4883H21.6824Z" fill="#F6F6F6"/>
<path opacity="0.5" d="M14.4735 76.715C14.4288 75.9756 14.7418 75.3257 14.9094 74.8439C15.01 74.6311 15.0771 74.463 15.1329 74.3285C15.1553 74.3734 15.1776 74.4294 15.2112 74.4742C15.4459 74.7879 15.7141 74.8327 15.7141 74.7879C15.7477 74.7319 15.5688 74.6086 15.4459 74.3285C15.3006 74.0596 15.3006 73.6003 15.2782 73.0849C15.2559 72.5471 15.1441 72.0653 15.3565 71.9757C15.4459 71.9084 15.5241 71.9533 15.5688 71.9981C15.6247 72.0429 15.6135 72.0989 15.6471 72.1101C15.6471 72.1325 15.7365 72.0653 15.7029 71.9308C15.7029 71.8188 15.5241 71.6732 15.3229 71.7068C15.3453 71.5611 15.3341 71.2586 15.3229 70.8328C15.3565 70.2502 15.3229 69.3987 15.8035 68.6704C16.2506 67.9422 17.0665 67.6508 17.6253 67.6172C18.1953 67.5724 18.5529 67.7069 18.5753 67.6396C18.5977 67.606 18.2624 67.3707 17.6141 67.3371C16.9994 67.3035 16.0159 67.5836 15.4682 68.4576C15.3006 68.7265 15.2 68.9954 15.1329 69.2643C15.0212 69.3875 14.8424 69.6004 14.63 69.9365C14.2835 70.4407 13.9147 71.3146 13.9371 72.2894C13.9371 73.2529 14.0488 74.0709 13.9929 74.6647C13.9594 75.2585 13.7806 75.5946 13.8477 75.6394C13.87 75.6618 14.1494 75.3369 14.2612 74.7095C14.3953 74.0821 14.3394 73.2081 14.3282 72.2894C14.3171 71.3706 14.5965 70.6088 14.8759 70.071C14.9429 69.9365 14.9988 69.8245 15.0547 69.7236C15.01 70.1494 15.0324 70.5415 15.0547 70.8553C15.1218 71.2922 15.1888 71.5947 15.2447 71.7292C14.9988 71.8076 14.8759 72.1101 14.8759 72.3566C14.8759 72.6143 14.8759 72.8384 14.8982 73.1073C14.9206 73.477 14.9541 73.8692 15.0659 74.1717C14.9765 74.2837 14.8424 74.4742 14.6747 74.7319C14.44 75.1913 14.0488 75.8747 14.0935 76.7487C14.1271 77.1744 14.2724 77.589 14.4959 77.8803C14.7194 78.1716 14.8982 78.3957 15.0212 78.5973C15.1329 78.799 15.1218 78.9895 15.1106 79.1127C15.0659 79.2248 15.0435 79.3144 15.0547 79.3256C15.0771 79.348 15.1441 79.3032 15.2559 79.1688C15.3229 79.0231 15.39 78.7654 15.2782 78.4853C15.0547 77.9363 14.5071 77.4657 14.4959 76.715H14.4735Z" fill="#F6F6F6"/>
<path opacity="0.5" d="M23.5265 76.715C23.5712 75.9756 23.2582 75.3257 23.0906 74.8439C22.99 74.6311 22.9229 74.463 22.867 74.3285C22.8447 74.3734 22.8223 74.4294 22.7888 74.4742C22.5541 74.7879 22.2859 74.8327 22.2859 74.7879C22.2523 74.7319 22.4312 74.6086 22.5541 74.3285C22.6994 74.0596 22.6994 73.6003 22.7218 73.0849C22.7441 72.5471 22.8559 72.0653 22.6435 71.9757C22.5541 71.9084 22.4759 71.9533 22.4312 71.9981C22.3753 72.0429 22.3865 72.0989 22.3529 72.1101C22.3529 72.1325 22.2635 72.0653 22.297 71.9308C22.297 71.8188 22.4759 71.6732 22.677 71.7068C22.6547 71.5611 22.6659 71.2586 22.677 70.8328C22.6435 70.2502 22.677 69.3987 22.1965 68.6704C21.7494 67.9422 20.9335 67.6508 20.3747 67.6172C19.8047 67.5724 19.447 67.7069 19.4247 67.6396C19.4023 67.606 19.7376 67.3707 20.3859 67.3371C21.0006 67.3035 21.9841 67.5836 22.5318 68.4576C22.6994 68.7265 22.8 68.9954 22.867 69.2643C22.9788 69.3875 23.1576 69.6004 23.37 69.9365C23.7165 70.4407 24.0853 71.3146 24.0629 72.2894C24.0629 73.2529 23.9512 74.0709 24.007 74.6647C24.0406 75.2585 24.2194 75.5946 24.1523 75.6394C24.13 75.6618 23.8506 75.3369 23.7388 74.7095C23.6047 74.0821 23.6606 73.2081 23.6718 72.2894C23.6829 71.3706 23.4035 70.6088 23.1241 70.071C23.057 69.9365 23.0012 69.8245 22.9453 69.7236C22.99 70.1494 22.9676 70.5415 22.9453 70.8553C22.8782 71.2922 22.8112 71.5947 22.7553 71.7292C23.0012 71.8076 23.1241 72.1101 23.1241 72.3566C23.1241 72.6143 23.1241 72.8384 23.1018 73.1073C23.0794 73.477 23.0459 73.8692 22.9341 74.1717C23.0235 74.2837 23.1576 74.4742 23.3253 74.7319C23.56 75.1913 23.9512 75.8747 23.9065 76.7487C23.8729 77.1744 23.7276 77.589 23.5041 77.8803C23.2806 78.1716 23.1018 78.3957 22.9788 78.5973C22.867 78.799 22.8782 78.9895 22.8894 79.1127C22.9341 79.2248 22.9565 79.3144 22.9453 79.3256C22.9229 79.348 22.8559 79.3032 22.7441 79.1688C22.677 79.0231 22.61 78.7654 22.7218 78.4853C22.9453 77.9363 23.4929 77.4657 23.5041 76.715H23.5265Z" fill="#F6F6F6"/>
<path opacity="0.5" d="M15.2782 76.0989C15.4124 75.6843 15.5129 75.4042 15.4682 75.3706C15.4347 75.337 15.2335 75.5723 15.01 76.0204C14.8759 76.4798 14.7194 77.2305 15.0994 77.9364C15.4347 78.6198 15.9265 79.068 16.0047 79.4825C16.1165 79.8971 15.9488 80.1548 16.0047 80.1884C16.0159 80.2332 16.3288 79.9755 16.2729 79.4377C16.2394 78.8887 15.7365 78.3621 15.4571 77.7683C15.1329 77.1745 15.2224 76.5358 15.2782 76.0989Z" fill="#F6F6F6"/>
<path opacity="0.5" d="M22.7218 76.0989C22.5877 75.6843 22.4871 75.4042 22.5318 75.3706C22.5653 75.337 22.7665 75.5723 22.99 76.0204C23.1241 76.4798 23.2806 77.2305 22.9006 77.9364C22.5653 78.6198 22.0735 79.068 21.9953 79.4825C21.8835 79.8971 22.0512 80.1548 21.9953 80.1884C21.9841 80.2332 21.6712 79.9755 21.7271 79.4377C21.7606 78.8887 22.2635 78.3621 22.543 77.7683C22.8671 77.1745 22.7777 76.5358 22.7218 76.0989Z" fill="#F6F6F6"/>
<path opacity="0.5" d="M19 82.0258C14.9094 82.1379 11.6235 82.7429 11.5676 82.5188C11.5453 82.4292 12.3612 82.2163 13.7024 81.9474C15.0324 81.6001 16.9212 81.5104 19 81.376C21.0788 81.5104 22.9676 81.6113 24.2976 81.9474C25.6388 82.2163 26.4435 82.4292 26.4324 82.5188C26.3876 82.7429 23.0906 82.1379 19 82.0258Z" fill="#F6F6F6"/>
<path opacity="0.5" d="M19 84.2555C15.7365 84.2779 13.1994 84.558 13.1771 84.3452C13.1547 84.2107 15.7029 83.6505 19 83.5945C22.2971 83.6505 24.8453 84.2107 24.8229 84.3452C24.8006 84.5468 22.2524 84.2779 19 84.2555Z" fill="#F6F6F6"/>
<path opacity="0.5" d="M19 86.3955C16.6306 86.4963 14.8424 86.6532 14.82 86.4739C14.8088 86.3395 16.5859 85.9137 19 85.7568C21.4141 85.9249 23.1912 86.3395 23.18 86.4739C23.1576 86.6532 21.3694 86.4963 19 86.3955Z" fill="#F6F6F6"/>
<path opacity="0.6" d="M19 55.6512C17.7371 55.6288 16.6865 56.0546 16.1165 56.6372C15.5353 57.1974 15.4347 57.7352 15.3229 57.7128C15.2559 57.7128 15.1776 57.0853 15.77 56.3235C16.3176 55.5616 17.6141 54.9565 18.9888 55.0014C20.3635 54.9565 21.66 55.5616 22.2077 56.3235C22.7888 57.0853 22.7218 57.7128 22.6547 57.7128C22.5541 57.7352 22.4424 57.1974 21.8612 56.6372C21.3024 56.0658 20.2406 55.6288 18.9776 55.6512H19Z" fill="#F6F6F6"/>
<path opacity="0.6" d="M17.7818 52.2899C17.9494 52.2339 18.2288 52.7045 18.3965 53.3543C18.4859 54.0154 18.4076 54.5644 18.2288 54.5756C18.05 54.5756 17.8376 54.0938 17.7482 53.4888C17.5918 52.895 17.6141 52.3572 17.7818 52.3011V52.2899Z" fill="#F6F6F6"/>
<path opacity="0.6" d="M20.2182 52.2899C20.0506 52.2339 19.7712 52.7045 19.6035 53.3543C19.5141 54.0154 19.5923 54.5644 19.7712 54.5756C19.95 54.5756 20.1623 54.0938 20.2518 53.4888C20.4082 52.895 20.3859 52.3572 20.2182 52.3011V52.2899Z" fill="#F6F6F6"/>
<path opacity="0.6" d="M15.9153 52.9061C16.0494 52.7829 16.4853 53.1302 16.8988 53.7016C17.1894 54.3403 17.2788 54.9005 17.1112 54.9453C16.9324 55.0013 16.5859 54.5868 16.34 54.0266C15.9712 53.5336 15.7924 53.0294 15.9265 52.9061H15.9153Z" fill="#F6F6F6"/>
<path opacity="0.6" d="M22.0847 52.9061C21.9506 52.7829 21.5147 53.1302 21.1012 53.7016C20.8106 54.3403 20.7212 54.9005 20.8888 54.9453C21.0677 55.0013 21.4141 54.5868 21.66 54.0266C22.0288 53.5336 22.2077 53.0294 22.0735 52.9061H22.0847Z" fill="#F6F6F6"/>
<path opacity="0.6" d="M14.2053 53.769C14.3171 53.6233 14.8312 53.9034 15.3453 54.3964C15.7812 54.9678 16.0159 55.5056 15.8594 55.5953C15.703 55.6849 15.2559 55.3488 14.8647 54.8334C14.3953 54.3852 14.0935 53.9034 14.2053 53.7578V53.769Z" fill="#F6F6F6"/>
<path opacity="0.6" d="M23.7947 53.769C23.6829 53.6233 23.1688 53.9034 22.6547 54.3964C22.2188 54.9678 21.9841 55.5056 22.1406 55.5953C22.2971 55.6849 22.7441 55.3488 23.1465 54.8334C23.6159 54.3852 23.9177 53.9034 23.8059 53.7578L23.7947 53.769Z" fill="#F6F6F6"/>
<path opacity="0.6" d="M12.8753 55.2703C12.9535 55.1022 13.5012 55.2479 14.0823 55.584C14.6412 55.965 14.9988 56.4019 14.887 56.5364C14.7753 56.682 14.2612 56.5028 13.7359 56.133C13.177 55.8193 12.797 55.4272 12.8753 55.2591V55.2703Z" fill="#F6F6F6"/>
<path opacity="0.6" d="M25.1247 55.2703C25.0465 55.1022 24.4988 55.2479 23.9176 55.584C23.3588 55.965 23.0012 56.4019 23.1129 56.5364C23.2247 56.682 23.7388 56.5028 24.2641 56.133C24.8229 55.8193 25.2029 55.4272 25.1247 55.2591V55.2703Z" fill="#F6F6F6"/>
<path opacity="0.6" d="M12.3835 57.2646C12.4059 57.0853 12.9647 56.9845 13.6465 57.0517C14.3282 57.1189 14.8647 57.3094 14.8535 57.4999C14.8312 57.6791 14.2724 57.78 13.5906 57.7128C12.9088 57.6455 12.3724 57.4551 12.3835 57.2646Z" fill="#F6F6F6"/>
<path opacity="0.6" d="M25.6165 57.2646C25.5941 57.0853 25.0353 56.9845 24.3535 57.0517C23.6718 57.1189 23.1353 57.3094 23.1465 57.4999C23.1576 57.6904 23.7277 57.78 24.4094 57.7128C25.0912 57.6455 25.6277 57.4551 25.6165 57.2646Z" fill="#F6F6F6"/>
<g opacity="0.6">
<path d="M19 22.3859L18.2512 22.1282C18.0612 22.061 17.8935 21.9378 17.7147 21.8481C17.3682 21.6577 17.0665 21.3888 16.7982 21.1311C16.2506 20.5933 15.9041 19.921 15.6918 19.26C15.4682 18.5877 15.5018 17.893 15.6024 17.2768C15.7588 16.6718 15.9824 16.1452 16.2953 15.7306C16.8988 14.9015 17.6141 14.4534 18.1506 14.2965C18.6759 14.1284 18.9888 14.1621 19 14.2293C19.0112 14.1508 19.3241 14.1284 19.8494 14.2965C20.3747 14.4646 21.1012 14.9015 21.7047 15.7306C22.0176 16.1452 22.2412 16.6718 22.3976 17.2768C22.4871 17.8818 22.5318 18.5877 22.3082 19.26C22.0959 19.921 21.7494 20.6045 21.2018 21.1311C20.9335 21.4 20.6318 21.6577 20.2853 21.8481C20.1065 21.9378 19.95 22.061 19.7488 22.1282L19 22.3859ZM19 14.2741C18.9218 14.487 17.8265 14.8455 17.0776 16.2236C16.8765 16.5822 16.7535 17.0079 16.6753 17.4561C16.6529 17.9155 16.6529 18.3972 16.8429 18.879C17.0218 19.3496 17.29 19.8426 17.7035 20.2123C17.9047 20.4028 18.1171 20.5933 18.3741 20.7165C18.4971 20.7725 18.62 20.8734 18.7541 20.907L18.9553 20.9742L18.9888 20.9854C18.9888 20.9854 18.9888 20.9854 19.0224 20.9742L19.2235 20.907C19.3576 20.8734 19.4694 20.7725 19.6035 20.7165C19.8494 20.5933 20.0729 20.4028 20.2741 20.2123C20.6876 19.8314 20.9559 19.3496 21.1347 18.879C21.3359 18.3972 21.3247 17.9155 21.3024 17.4561C21.2241 17.0079 21.1012 16.571 20.9 16.2236C20.1512 14.8455 19.0559 14.487 18.9776 14.2741H19ZM19 14.2741C19 14.2741 19 14.2405 19 14.2293C19 14.2405 19 14.2629 19 14.2741Z" fill="#F6F6F6"/>
</g>
<g opacity="0.6">
<path d="M19 19.0807C18.7318 18.9238 18.4971 18.4644 18.4412 17.893C18.3629 17.1759 18.5976 16.5597 18.9553 16.5149C18.9665 16.5149 18.9888 16.5149 19 16.5149C19.0112 16.5149 19.0335 16.5149 19.0447 16.5149C19.4024 16.5485 19.6371 17.1647 19.5588 17.893C19.5029 18.4532 19.2682 18.9238 19 19.0807Z" fill="#F6F6F6"/>
</g>
<path opacity="0.4" d="M16.463 13.9604C16.6418 13.9604 16.7871 15.2713 16.8765 17.6242C16.9212 18.8007 16.9659 20.246 16.9882 21.9154C16.9882 22.7557 17.0106 23.6521 17.0218 24.5932C17.0218 25.5568 17.0777 26.4867 16.9547 27.6968C16.8318 28.8284 16.5635 30.0385 15.9153 31.2149C15.2782 32.3689 14.3282 33.3661 13.2218 34.1728C12.1153 34.9683 10.8635 35.5957 9.53354 36.0551C9.19825 36.1672 8.86295 36.2792 8.51648 36.3688L8.00237 36.5033L7.74531 36.5705C7.74531 36.5705 7.68942 36.6041 7.6559 36.6265C7.42119 36.7162 7.19766 36.9402 7.19766 37.2091C7.18648 37.2091 7.17531 37.2988 7.16413 37.3884L7.14178 37.6461L7.09707 38.1727C7.06354 38.52 7.04119 38.8786 7.00766 39.2371C6.95178 39.943 6.88472 40.6712 6.82884 41.3883C6.77295 42.0157 6.72825 42.6432 6.67237 43.2818C6.67237 43.293 6.68354 43.3042 6.69472 43.3042L6.61648 43.2482C6.61648 43.2482 6.68354 43.2818 6.7059 43.3042L6.9406 43.4499C7.09707 43.5507 7.22001 43.674 7.34295 43.8196C7.60001 44.0885 7.76766 44.4246 7.8906 44.772C7.95766 44.94 7.96884 45.1305 7.99119 45.321C8.01354 45.5114 8.02472 45.7131 8.01354 45.7691V46.3406L7.96884 47.4946C7.94648 48.2677 7.92413 49.0408 7.90178 49.8251C7.85707 51.3936 7.80119 52.9734 7.74531 54.5756C7.3206 67.4156 6.78413 79.0456 6.27001 87.4487C6.12472 89.5439 6.00178 91.4486 5.89001 93.118C5.87884 93.3309 5.85648 93.5326 5.84531 93.7343C5.82295 93.936 5.83413 94.104 5.74472 94.4513C5.68884 94.7651 5.51001 95.0004 5.30884 95.2468C5.1859 95.3701 5.0406 95.4709 4.90648 95.5606C4.78354 95.639 4.72766 95.639 4.62707 95.6838L4.34766 95.7958C4.34766 95.7958 4.26942 95.8183 4.22472 95.8295C4.16884 95.8855 4.05707 95.9415 4.0459 95.9751C4.02354 96.0087 3.94531 96.0087 3.92295 96.2104L3.9006 96.3224V96.3785L3.87825 96.4009V96.4233C3.88942 96.2552 3.87825 96.3785 3.87825 96.3448V96.5689C3.7106 98.9218 3.53178 100.221 3.35295 100.221C3.17413 100.221 2.99531 98.9218 2.83884 96.5689V96.3448L2.85001 96.0311C2.83884 95.9191 2.92825 95.639 3.07354 95.3813C3.20766 95.1348 3.38648 94.9891 3.58766 94.8211C3.76648 94.7314 3.94531 94.6306 4.13531 94.541C4.20237 94.5074 4.32531 94.4625 4.34766 94.4177C4.34766 94.3841 4.34766 94.3729 4.34766 94.3617C4.34766 94.3057 4.43707 94.2273 4.41472 94.1488C4.4259 94.1152 4.43707 93.8911 4.4259 93.6895C4.4259 93.4878 4.4259 93.2861 4.4259 93.0732C4.4259 91.3926 4.4259 89.4879 4.4259 87.3815C4.4706 78.9559 4.70531 67.326 5.13001 54.4748C5.24178 51.4161 5.34237 48.4245 5.44295 45.5339C5.43178 45.5339 5.44295 45.5114 5.43178 45.5114C5.43178 45.5114 5.46531 45.5114 5.39825 45.489L5.1859 45.377C5.02942 45.2874 4.88413 45.1865 4.76119 45.0521C4.62707 44.94 4.51531 44.8056 4.41472 44.6599C4.22472 44.3574 4.13531 44.0101 4.13531 43.6628C4.12413 43.4835 4.13531 43.3042 4.15766 43.125L4.19119 42.8112L4.24707 42.2622C4.2806 41.8925 4.32531 41.534 4.35884 41.1642C4.43707 40.436 4.50413 39.7189 4.58237 39.013C4.6159 38.6545 4.6606 38.3072 4.69413 37.9598L4.75001 37.4332L4.77237 37.1755C4.77237 37.0971 4.79472 36.9963 4.82825 36.8506C4.97354 35.719 5.83413 34.7666 6.85119 34.4193L7.23119 34.2848L7.4659 34.2288L7.92413 34.1168C8.2259 34.0384 8.52766 33.9599 8.81825 33.8703C9.99178 33.5118 11.0647 33.0076 11.9812 32.4025C12.8977 31.7863 13.6465 31.0356 14.1718 30.2065C14.6859 29.3886 14.9653 28.4026 15.1218 27.4727C15.2782 26.5876 15.2894 25.512 15.3565 24.582C15.4124 23.6409 15.4682 22.7445 15.5241 21.9042C15.6359 20.2348 15.7477 18.7895 15.8594 17.6242C16.0718 15.2713 16.2841 13.9717 16.463 13.9829V13.9604Z" fill="white"/>
</svg>
