<svg width="27" height="107" viewBox="0 0 27 107" fill="none" xmlns="http://www.w3.org/2000/svg">
<g clip-path="url(#clip0_351_4162)">
<path d="M17.8931 6.47021V9.27934H9.10692V6.48173L17.8931 6.47021Z" fill="#B2B2B2"/>
<path d="M27 48.5494V103.995C27 105.653 25.6712 107 24.0102 107H2.98982C1.32881 107 0 105.653 0 103.995V48.5494C0 44.1746 1.3059 39.9033 3.76877 36.2998L5.18922 34.216L5.45269 33.813C5.5787 33.6288 5.70471 33.4446 5.81926 33.2489C6.62113 31.971 7.23971 30.601 7.67501 29.1619C7.78956 28.7819 7.89266 28.402 7.9843 28.0106C8.28214 26.7557 8.43106 25.4663 8.43106 24.1538V8.55396H18.5689V24.1538C18.5689 25.4663 18.7179 26.7557 19.0157 28.0106C19.1073 28.402 19.2104 28.7819 19.325 29.1619C19.7488 30.5895 20.3789 31.9595 21.1922 33.2374C21.2953 33.4331 21.4213 33.6288 21.5473 33.813L21.8108 34.216L23.2312 36.2998C25.6941 39.9033 27 44.1746 27 48.5494Z" fill="#404040"/>
<path d="M6.02546 35.022L4.7081 36.9561C2.37123 40.3869 1.13407 44.3934 1.13407 48.5495V103.995C1.13407 105.02 1.95885 105.849 2.97836 105.849C6.47221 104.007 9.97751 103.155 13.4943 103.189C17.011 103.155 20.5163 104.007 24.0102 105.849C25.0297 105.849 25.8545 105.02 25.8545 103.995V48.5495C25.8545 44.3934 24.6173 40.3869 22.2804 36.9561L20.9631 35.022H6.02546Z" fill="#FFF7ED"/>
<path d="M18.5689 7.41425H8.43106C7.88121 4.97353 7.88121 2.44071 8.43106 0H18.5689C19.1073 2.44071 19.1073 4.97353 18.5689 7.41425Z" fill="#FFF7ED"/>
<path d="M0.5 90.5662V55.8535H26.5V90.5662H0.5Z" fill="#FFF7ED" stroke="black"/>
<path d="M25.8545 60.8682H1.14552V85.5516H25.8545V60.8682Z" fill="#F6F6F6"/>
<path d="M27 56.7695H0V60.8681H27V56.7695Z" fill="#404040"/>
<path d="M27 85.2639H0V89.3625H27V85.2639Z" fill="#404040"/>
<path d="M23.4832 62.8828H3.52821V63.7463H23.4832V62.8828Z" fill="#B2B2B2"/>
<path d="M23.4832 61.7317H3.52821V62.0886H23.4832V61.7317Z" fill="#B2B2B2"/>
<path d="M23.4832 82.823H3.52821V83.1799H23.4832V82.823Z" fill="#B2B2B2"/>
<path d="M23.4832 83.9744H3.52821V84.3313H23.4832V83.9744Z" fill="#B2B2B2"/>
<path d="M8.46542 82.1669C9.24991 82.1669 9.88587 81.5278 9.88587 80.7394C9.88587 79.9509 9.24991 79.3118 8.46542 79.3118C7.68093 79.3118 7.04497 79.9509 7.04497 80.7394C7.04497 81.5278 7.68093 82.1669 8.46542 82.1669Z" fill="#FFF7ED"/>
<path d="M18.5346 82.1669C19.3191 82.1669 19.955 81.5278 19.955 80.7394C19.955 79.9509 19.3191 79.3118 18.5346 79.3118C17.7501 79.3118 17.1141 79.9509 17.1141 80.7394C17.1141 81.5278 17.7501 82.1669 18.5346 82.1669Z" fill="#FFF7ED"/>
<path d="M13.2193 80.7394C13.2193 81.5222 12.5893 82.1669 11.7989 82.1669C11.0085 82.1669 10.3784 81.5337 10.3784 80.7394C10.3784 79.945 11.0085 79.3118 11.7989 79.3118C12.5893 79.3118 13.2193 79.945 13.2193 80.7394Z" fill="#FFF7ED"/>
<path d="M15.2011 82.1669C15.9856 82.1669 16.6216 81.5278 16.6216 80.7394C16.6216 79.9509 15.9856 79.3118 15.2011 79.3118C14.4166 79.3118 13.7807 79.9509 13.7807 80.7394C13.7807 81.5278 14.4166 82.1669 15.2011 82.1669Z" fill="#FFF7ED"/>
<path d="M8.88927 76.6293H3.95206L5.31523 74.9254L3.95206 73.21H8.88927V76.6293Z" fill="#404040"/>
<path d="M18.0993 76.6293H23.0479L21.6848 74.9254L23.0479 73.21H18.0993V76.6293Z" fill="#404040"/>
<path d="M20.4705 74.7642H6.52949V78.0798H20.4705V74.7642Z" fill="#FFF7ED"/>
<path d="M13.4828 74.0733C10.9741 74.0273 8.94654 71.9435 8.94654 69.4222C8.94654 66.9009 10.9856 64.817 13.4828 64.771C13.4828 64.771 13.4828 64.771 13.4943 64.771C13.5057 64.771 13.4943 64.771 13.5057 64.771C16.0144 64.817 18.042 66.9009 18.042 69.4222C18.042 71.9435 16.003 74.0273 13.5057 74.0733H13.4828ZM13.4943 65.9223C13.4943 65.9223 13.4943 65.9223 13.4828 65.9223C11.6156 65.9568 10.0921 67.5341 10.0921 69.4222C10.0921 71.3103 11.6156 72.876 13.4943 72.9221C15.3729 72.876 16.8965 71.3103 16.8965 69.4222C16.8965 67.5341 15.3615 65.9568 13.5057 65.9223C13.5057 65.9223 13.5057 65.9223 13.4943 65.9223Z" fill="#404040"/>
<path d="M21.8108 34.2161C16.2664 37.0138 10.7336 37.0138 5.18922 34.2161L5.45269 33.8132C5.5787 33.629 5.70471 33.4448 5.81926 33.2491C6.62113 31.9711 7.23971 30.6011 7.67501 29.162C7.78956 28.7821 7.89266 28.4022 7.9843 28.0107H19.0157C19.1073 28.4022 19.2104 28.7821 19.325 29.162C19.7488 30.5896 20.3789 31.9596 21.1922 33.2376C21.2953 33.4333 21.4213 33.629 21.5473 33.8132L21.8108 34.2161Z" fill="#FFF7ED"/>
<path d="M21.1922 33.2374C18.6148 34.5153 16.0373 35.16 13.4943 35.16C10.9512 35.16 8.37378 34.5153 5.81926 33.2489C6.62113 31.971 7.23971 30.601 7.67501 29.1619H19.325C19.7488 30.5895 20.3789 31.9595 21.1922 33.2374Z" fill="#404040"/>
<path d="M15.7624 32.0517C15.7624 33.3066 14.7543 34.3197 13.5057 34.3197C12.2571 34.3197 11.249 33.3066 11.249 32.0517C11.249 30.7968 12.2571 29.7837 13.5057 29.7837C14.7543 29.7837 15.7624 30.7968 15.7624 32.0517Z" fill="#FFF7ED"/>
<path d="M17.8931 6.91425H17.3931V7.41425V8.55401V9.05401H17.8931H18.0689V18.0702H8.93106V9.05401H9.10692H9.60692V8.55401V7.41425V6.91425H9.10692H8.83593C8.41292 4.7972 8.41292 2.61705 8.83593 0.5H18.1623C18.5762 2.61705 18.5762 4.7972 18.1623 6.91425H17.8931Z" fill="#FFF7ED" stroke="#404040"/>
<path d="M17.8931 7.41431H9.10692V8.55407H17.8931V7.41431Z" fill="#FFF7ED"/>
<path opacity="0.4" d="M11.8676 19.1458C12.0509 19.1458 12.2342 20.3201 12.3946 22.4614C12.5664 24.5107 12.7955 27.9185 11.4209 31.6602C11.2605 32.1322 11.0887 32.6157 10.9168 33.1108C10.6877 33.5828 10.4472 34.0548 10.2066 34.5384C9.74841 35.5285 9.11837 36.5071 8.5227 37.4281C8.21341 37.9001 7.90412 38.3836 7.58337 38.8672C7.3199 39.3392 7.05643 39.8228 6.7815 40.3178L6.36911 41.0546C6.24311 41.3079 6.16292 41.5842 6.05982 41.849C5.85363 42.3901 5.65889 42.9312 5.45269 43.4723C4.84557 45.7864 4.67374 48.1005 4.76538 50.9326C4.76538 53.6727 4.78829 56.5163 4.78829 59.4291C4.78829 71.0685 4.63937 81.6142 4.39881 89.2472C4.15825 96.8802 3.81459 101.6 3.44803 101.6C3.08146 101.6 2.7378 96.8802 2.49724 89.2472C2.25668 81.6142 2.10776 71.0685 2.10776 59.4291C2.10776 56.5163 2.13067 53.6727 2.13067 50.9326C2.13067 50.2418 2.13067 49.5626 2.14213 48.8948C2.14213 48.2271 2.24523 47.4788 2.29105 46.788L2.38269 45.7403C2.42851 45.3949 2.53161 45.0611 2.60034 44.7272C2.76071 44.0595 2.90963 43.3917 3.09291 42.7355C3.34493 42.1138 3.59695 41.4921 3.84896 40.8819C3.98642 40.5826 4.07807 40.2717 4.23844 39.9839C4.39881 39.7076 4.57064 39.4313 4.73101 39.155C5.06322 38.6139 5.38396 38.0843 5.70471 37.5547C6.03691 37.0827 6.36911 36.6222 6.68986 36.1732C7.35426 35.2407 7.93848 34.4232 8.39669 33.5483C8.64871 33.1223 8.88927 32.6963 9.11837 32.2819C9.30165 31.8444 9.47348 31.4184 9.64531 30.9924C9.81714 30.5665 10.0004 30.1635 10.1493 29.7606C10.2753 29.3461 10.4014 28.9432 10.5159 28.5402C10.6763 27.7343 10.8825 26.9745 10.997 26.2607C11.0772 25.5354 11.1574 24.8561 11.2261 24.2344C11.272 23.5897 11.3063 23.0025 11.3521 22.4614C11.5125 20.3316 11.6843 19.1458 11.8791 19.1458H11.8676Z" fill="#FFF7ED"/>
</g>
<defs>
<clipPath id="clip0_351_4162">
<rect width="27" height="107" fill="white"/>
</clipPath>
</defs>
</svg>
