<svg width="53" height="103" viewBox="0 0 53 103" fill="none" xmlns="http://www.w3.org/2000/svg">
<path d="M39.606 78.1891C39.6774 78.1891 39.7369 78.1891 39.7963 78.1891C39.8677 78.1891 39.9272 78.1891 39.9866 78.1891C53.2362 77.9869 52.1539 67.6989 50.0249 61.0503H29.5678C27.4031 67.6751 26.2018 77.9869 39.606 78.1772V78.1891ZM30.3171 61.3952H32.1725C27.8551 74.5734 36.811 77.9037 36.811 77.9037C36.811 77.9037 25.3098 76.8808 30.3171 61.3952Z" fill="#404040"/>
<path d="M47.563 57.5655C47.7533 57.506 47.7889 57.0898 47.6343 56.6259C47.4797 56.162 47.218 55.8409 47.0277 55.9123C46.8374 55.9836 46.8018 56.388 46.9564 56.8519C47.111 57.3157 47.3727 57.6369 47.563 57.5774V57.5655Z" fill="#404040"/>
<path d="M48.1698 58.3987C48.277 58.363 48.2889 58.1369 48.2056 57.8869C48.1222 57.6369 47.9794 57.4583 47.8723 57.4941C47.7651 57.5298 47.7532 57.7559 47.8365 58.0059C47.9199 58.2559 48.0627 58.4345 48.1698 58.3987Z" fill="#404040"/>
<path d="M41.4495 100.621C41.4495 100.621 39.832 86.5266 40.9143 79.5688C61.2882 78.5816 48.5025 54.8418 48.5025 54.8418H31.0782C31.0782 54.8418 18.1379 78.8671 39.047 79.5807C40.1293 86.5504 38.5118 100.621 38.5118 100.621C38.5118 100.621 37.7506 101.751 27.5458 101.751V102.179H52.4036V101.751C42.2107 101.751 41.4376 100.621 41.4376 100.621H41.4495ZM39.1778 101.037C38.9875 101.239 36.8586 101.418 36.8586 101.418C36.8586 101.418 38.3691 101.037 38.6188 100.763C38.8686 100.478 39.1065 96.3627 39.1065 96.3627C39.1065 96.3627 39.3681 100.835 39.1778 101.049V101.037ZM31.5659 55.151H48.0267C48.0267 55.151 60.4676 78.2367 39.9985 78.5459C39.9271 78.5459 39.8677 78.5459 39.7963 78.5459C39.7249 78.5459 39.6655 78.5459 39.5941 78.5459C19.1251 78.2367 31.5659 55.151 31.5659 55.151ZM40.7478 101.203C39.1897 97.0288 40.3672 79.8424 40.3672 79.8424C40.3672 79.8424 39.9985 79.8424 39.4395 79.6164C40.0818 79.7591 40.8786 79.5688 40.7121 79.6164C40.7121 79.6164 40.3791 82.3163 40.3315 85.9319C40.2602 90.7608 40.5456 97.2191 41.3187 100.977C41.7231 101.322 43.6856 101.596 43.6856 101.596C43.6856 101.596 40.9738 101.525 40.7478 101.215V101.203Z" fill="#404040"/>
<path d="M14.9862 1.10611C14.9862 0.499536 14.3201 0 13.4876 0H10.1811C9.36045 0 8.6825 0.499536 8.6825 1.10611V8.84892H14.9743V1.10611H14.9862ZM9.12257 2.90206C9.12257 2.40253 9.52695 1.99814 10.0265 1.99814C10.526 1.99814 10.9304 2.40253 10.9304 2.90206C10.9304 3.4016 10.526 3.80599 10.0265 3.80599C9.52695 3.80599 9.12257 3.4016 9.12257 2.90206ZM10.0265 7.19569C9.77672 7.19569 9.56264 6.9935 9.56264 6.73184C9.56264 6.47017 9.76483 6.26798 10.0265 6.26798C10.2882 6.26798 10.4903 6.47017 10.4903 6.73184C10.4903 6.9935 10.2882 7.19569 10.0265 7.19569ZM11.1207 5.74466C10.7996 5.74466 10.5379 5.483 10.5379 5.16187C10.5379 4.84074 10.7996 4.57908 11.1207 4.57908C11.4418 4.57908 11.7035 4.84074 11.7035 5.16187C11.7035 5.483 11.4418 5.74466 11.1207 5.74466ZM11.8462 1.5105C11.8462 1.23695 12.0603 1.02286 12.3339 1.02286C12.6074 1.02286 12.8215 1.23695 12.8215 1.5105C12.8215 1.78406 12.6074 1.99814 12.3339 1.99814C12.0603 1.99814 11.8462 1.78406 11.8462 1.5105ZM12.429 3.74652C12.429 3.28266 12.8096 2.90206 13.2735 2.90206C13.7373 2.90206 14.1179 3.28266 14.1179 3.74652C14.1179 4.21037 13.7373 4.59097 13.2735 4.59097C12.8096 4.59097 12.429 4.21037 12.429 3.74652ZM13.7254 7.57629C13.2259 7.57629 12.8096 7.1719 12.8096 6.66047C12.8096 6.14904 13.214 5.74466 13.7254 5.74466C14.2369 5.74466 14.6413 6.14904 14.6413 6.66047C14.6413 7.1719 14.2369 7.57629 13.7254 7.57629Z" fill="#404040"/>
<path d="M20.3977 79.2954H3.67517V85.9321H20.3977V79.2954Z" fill="#404040"/>
<path d="M20.1123 57.946H3.67517V60.634H20.1123V57.946Z" fill="#404040"/>
<path d="M15.9257 37.8815V15.2953H16.4728C16.9604 15.2953 17.3529 14.9028 17.3529 14.4152V11.3347C17.3529 10.8471 16.9604 10.4546 16.4728 10.4546H7.23137C6.74373 10.4546 6.35123 10.8471 6.35123 11.3347V14.4152C6.35123 14.9028 6.74373 15.2953 7.23137 15.2953H7.77847V37.8815C7.77847 37.8815 0 40.284 0 48.0625V99.6217C0 100.502 0.713624 101.204 1.58186 101.204H22.1104C22.9905 101.204 23.6923 100.49 23.6923 99.6217V48.0625C23.6923 40.284 15.9138 37.8815 15.9138 37.8815H15.9257ZM18.7326 40.1889C18.911 40.0699 19.3392 40.4148 19.696 40.95C20.0528 41.4853 20.2074 42.0205 20.029 42.1275C19.8506 42.2465 19.4224 41.9015 19.0656 41.3663C18.7088 40.8311 18.5542 40.2959 18.7326 40.1889ZM8.55158 17.0437H9.87176L9.11056 37.7744H8.55158V17.0437ZM1.43913 98.8843V47.7057C1.43913 47.7057 1.5105 42.1989 8.56346 38.4643C3.4016 42.7698 3.33022 48.229 3.33022 48.229L3.36592 55.0798H2.52146V87.169H3.50864L3.55621 98.8724H1.45103L1.43913 98.8843ZM20.921 86.61H3.06858V55.6388H20.921V86.61ZM20.921 42.2702C21.1351 42.6271 21.2065 42.972 21.0875 43.0433C20.9686 43.1147 20.7069 42.8768 20.5047 42.5081C20.3025 42.1394 20.2193 41.8064 20.3382 41.735C20.4572 41.6637 20.7188 41.9015 20.921 42.2702Z" fill="#404040"/>
<path d="M5.89917 67.0566V78.1891H13.6301V68.9358H11.7033V67.0566H5.89917Z" fill="#404040"/>
<path d="M17.8287 61.7402H12.2625V68.032H17.8287V61.7402Z" fill="#404040"/>
</svg>
