<svg width="55" height="88" viewBox="0 0 55 88" fill="none" xmlns="http://www.w3.org/2000/svg">
<path d="M32.9156 29.9127C33.6637 26.2182 32.3747 13.6616 32.3747 13.6616H23.0407C23.0407 13.6616 21.7516 26.2182 22.4997 29.9127C23.478 30.0623 6.6055 34.2286 4.82157 36.4154C3.25632 38.3259 1.77162 75.8805 0.862393 85.3756C0.747301 86.5381 1.66803 87.5394 2.83046 87.5394H52.5849C53.7473 87.5394 54.668 86.5381 54.5529 85.3756C53.6437 75.8805 52.159 38.3144 50.5938 36.4154C48.8098 34.2286 31.9373 30.0623 32.9156 29.9127ZM31.5115 40.973H42.4222V79.4714H31.5115C30.1764 80.1159 28.7608 80.4727 27.2876 80.4727C25.8144 80.4727 24.3988 80.1159 23.0637 79.4714H12.1529V40.973H23.0637C24.3988 40.3285 25.8144 39.9717 27.2876 39.9717C28.7608 39.9717 30.1764 40.3285 31.5115 40.973ZM24.3527 16.5274C24.5599 16.8497 24.0765 19.9687 24.0765 24.2156C24.0765 28.4625 24.2491 30.983 24.3527 31.9038C23.6967 31.4434 23.409 28.4625 23.409 24.2156C23.409 19.9687 23.6277 17.3216 24.3527 16.5274ZM7.85999 38.0612C9.51732 36.0816 23.409 32.5943 23.409 32.5943C23.409 32.5943 12.8895 35.5407 9.25263 38.5906C5.81137 42.9526 4.86759 80.7835 6.38681 82.2797C7.90603 83.7759 31.6611 84.3053 31.6611 84.3053C31.6611 84.3053 5.75381 84.5585 4.67195 83.5342C3.59008 82.5098 6.20266 40.0408 7.85999 38.0612ZM30.959 86.9639H3.08367C1.7601 86.9639 1.36879 85.18 1.89822 84.9843C2.02482 86.446 18.1838 86.8603 30.959 86.9639H46.2318C46.2318 86.9639 39.3262 87.033 30.959 86.9639ZM47.4863 41.56C47.2791 41.606 47.0259 41.2492 46.9338 40.7774C46.8418 40.3055 46.9338 39.8912 47.141 39.8451C47.3482 39.7991 47.6014 40.1559 47.6935 40.6278C47.7855 41.0996 47.6935 41.5255 47.4863 41.56ZM47.9236 39.3733C47.6244 39.4308 47.2676 38.9359 47.1295 38.2569C46.9914 37.5778 47.1295 36.9793 47.4287 36.9218C47.728 36.8642 48.0848 37.3591 48.2229 38.0382C48.361 38.7172 48.2229 39.3157 47.9236 39.3733Z" fill="#404040"/>
<path d="M32.9154 1.05885C32.9154 0.471876 32.3169 0 31.5803 0H23.8346C23.098 0 22.4995 0.471876 22.4995 1.05885V5.16764H32.9154V1.05885ZM32.1328 4.8684H31.4307L31.3846 1.43865C31.3846 1.17394 31.1199 0.94376 30.7862 0.920742L23.5814 0.310745L31.6494 0.448859C31.9141 0.448859 32.1328 0.633003 32.1328 0.840169V4.8684Z" fill="#404040"/>
<path d="M32.9154 5.43237H22.4995V13.0745H32.9154V5.43237ZM24.4676 12.4645H23.029V5.76613H24.4676V12.4645ZM32.1328 12.4645H31.4767V5.76613H32.1328V12.4645Z" fill="#404040"/>
<path d="M40.9028 60.2163V42.6763H34.0779C38.1521 46.1751 40.9028 52.7123 40.9028 60.2163Z" fill="#404040"/>
<path d="M20.5087 42.6763H13.6837V60.2163C13.6837 52.7123 16.4344 46.1751 20.5087 42.6763Z" fill="#404040"/>
<path d="M13.6837 77.3075H20.0138C16.2157 73.7166 13.6837 67.4096 13.6837 60.2163V77.3075Z" fill="#404040"/>
<path d="M40.903 77.3075V60.2163C40.903 67.4096 38.3709 73.7166 34.5729 77.3075H40.903Z" fill="#404040"/>
<path d="M27.2876 43.2288C22.1199 43.2288 17.9305 49.4668 17.9305 57.1664H36.6561C36.6561 49.4668 32.4667 43.2288 27.2991 43.2288H27.2876ZM27.2876 48.0166C30.3605 48.0166 32.8465 51.7226 32.8465 56.2917H21.7286C21.7286 51.7226 24.2146 48.0166 27.2876 48.0166Z" fill="#404040"/>
<path d="M27.2876 77.5492C32.4552 77.5492 36.6446 71.3112 36.6446 63.6116H17.9191C17.9191 71.3112 22.1084 77.5492 27.2761 77.5492H27.2876ZM27.2876 72.911C24.1686 72.911 21.648 69.1475 21.648 64.5208H32.9271C32.9271 69.159 30.4066 72.911 27.2876 72.911Z" fill="#404040"/>
<path d="M37.715 57.8225H16.6301V62.8866H37.715V57.8225Z" fill="#404040"/>
<path d="M14.9496 60.32C14.9496 70.5517 20.4855 78.8729 27.2875 78.8729C34.0894 78.8729 39.6254 70.5517 39.6254 60.32C39.6254 50.0883 34.0894 41.7671 27.2875 41.7671C20.4855 41.7671 14.9496 50.0883 14.9496 60.32ZM27.2875 42.2965C33.8017 42.2965 39.096 50.376 39.096 60.32C39.096 70.264 33.8017 78.3434 27.2875 78.3434C20.7733 78.3434 15.479 70.264 15.479 60.32C15.479 50.376 20.7733 42.2965 27.2875 42.2965Z" fill="#404040"/>
</svg>
