<svg width="55.000000" height="102.000000" viewBox="0 0 55 102" fill="none" xmlns="http://www.w3.org/2000/svg" xmlns:xlink="http://www.w3.org/1999/xlink">
	<desc>
			Created with Pixso.
	</desc>
	<defs>
		<clipPath id="clip7_178">
			<rect id="img-1-10" width="55.000000" height="102.000000" fill="white" fill-opacity="0"/>
		</clipPath>
	</defs>
	<g clip-path="url(#clip7_178)">
		<path id="path" d="M41.56 72.9C41.63 72.9 41.69 72.9 41.75 72.9C41.81 72.9 41.88 72.9 41.94 72.9C56.48 72.69 54 56.8 51.58 48.17C51.56 48.09 31.91 48.17 31.91 48.17C29.48 56.79 27.01 72.69 41.56 72.9ZM33.02 48.69L35.3 48.69C29.75 66.66 38.83 72.26 38.83 72.26C38.83 72.26 27.55 69.67 33.02 48.69Z" fill="#B49571" fill-opacity="1.000000" fill-rule="nonzero"/>
		<path id="path" d="M49.53 44.55C49.72 44.49 49.76 44.07 49.6 43.6C49.46 43.13 49.18 42.8 48.99 42.86C48.79 42.92 48.76 43.34 48.91 43.81C49.06 44.28 49.34 44.62 49.53 44.55Z" fill="#B49571" fill-opacity="1.000000" fill-rule="nonzero"/>
		<path id="path" d="M50.29 45.48C50.4 45.44 50.41 45.21 50.33 44.96C50.24 44.71 50.1 44.52 49.99 44.56C49.88 44.6 49.87 44.83 49.95 45.08C50.04 45.33 50.18 45.51 50.29 45.48Z" fill="#B49571" fill-opacity="1.000000" fill-rule="nonzero"/>
		<path id="path" d="M43.43 99.43C43.43 99.43 41.79 81.55 42.88 74.48C63.54 73.48 50.58 41.79 50.58 41.79L32.91 41.79C32.91 41.79 19.79 73.77 40.99 74.5C42.09 81.56 40.45 99.43 40.45 99.43C40.45 99.43 39.68 100.57 29.33 100.57L29.33 101.01L54.54 101.01L54.54 100.57C44.2 100.57 43.43 99.43 43.43 99.43ZM41.12 99.85C40.93 100.05 38.77 100.23 38.77 100.23C38.77 100.23 40.3 99.85 40.56 99.57C40.81 99.28 41.05 95.11 41.05 95.11C41.05 95.11 41.32 99.63 41.12 99.85ZM33.4 42.1L50.1 42.1C50.1 42.1 62.71 73.13 41.96 73.45C41.88 73.45 41.82 73.45 41.75 73.45C41.68 73.45 41.62 73.45 41.55 73.45C20.79 73.13 33.4 42.1 33.4 42.1ZM42.72 100.02C41.14 95.78 42.33 74.76 42.33 74.76C42.33 74.76 41.96 74.76 41.39 74.53C42.04 74.68 42.85 74.48 42.68 74.53C42.68 74.53 42.34 80.86 42.29 84.53C42.22 89.43 42.51 95.98 43.29 99.79C43.7 100.14 45.69 100.42 45.69 100.42C45.69 100.42 42.94 100.33 42.72 100.02Z" fill="#B49571" fill-opacity="1.000000" fill-rule="nonzero"/>
		<path id="path" d="M15.18 1.12C15.18 0.5 14.5 0 13.66 0L10.31 0C9.47 0 8.79 0.5 8.79 1.12L8.79 9.13L15.17 9.13L15.18 1.12ZM9.23 2.95C9.23 2.44 9.64 2.03 10.15 2.03C10.66 2.03 11.07 2.44 11.07 2.95C11.07 3.46 10.66 3.87 10.15 3.87C9.64 3.87 9.23 3.46 9.23 2.95ZM10.16 7.3C9.91 7.3 9.69 7.1 9.69 6.83C9.69 6.57 9.9 6.36 10.16 6.36C10.43 6.36 10.63 6.57 10.63 6.83C10.63 7.1 10.43 7.3 10.16 7.3ZM11.26 5.83C10.93 5.83 10.67 5.57 10.67 5.24C10.67 4.92 10.93 4.65 11.26 4.65C11.59 4.65 11.85 4.92 11.85 5.24C11.85 5.57 11.59 5.83 11.26 5.83ZM12 1.53C12 1.25 12.21 1.03 12.49 1.03C12.77 1.03 12.98 1.25 12.98 1.53C12.98 1.8 12.77 2.02 12.49 2.02C12.21 2.02 12 1.8 12 1.53ZM12.59 3.81C12.59 3.34 12.97 2.95 13.44 2.95C13.91 2.95 14.3 3.34 14.3 3.81C14.3 4.28 13.91 4.66 13.44 4.66C12.97 4.66 12.59 4.28 12.59 3.81ZM13.9 7.68C13.39 7.68 12.97 7.27 12.97 6.75C12.97 6.23 13.38 5.82 13.9 5.82C14.42 5.82 14.83 6.23 14.83 6.75C14.83 7.27 14.42 7.68 13.9 7.68Z" fill="#B49571" fill-opacity="1.000000" fill-rule="nonzero"/>
		<path id="path" d="M18.91 78.36L5.74 78.36L5.74 83.6L18.91 83.6L18.91 78.36Z" fill="#B49571" fill-opacity="1.000000" fill-rule="nonzero"/>
		<path id="path" d="M19.81 55.38L4.02 55.38L4.02 58.27L19.81 58.27L19.81 55.38Z" fill="#B49571" fill-opacity="1.000000" fill-rule="nonzero"/>
		<path id="path" d="M19.8 73.87L4.63 73.87L4.63 77.63L19.8 77.63L19.8 73.87Z" fill="#B49571" fill-opacity="1.000000" fill-rule="nonzero"/>
		<path id="path" d="M12.01 70.61C16.08 70.61 19.39 68.84 19.39 66.64C19.39 64.57 16.42 62.87 12.66 62.69C15.84 62.86 18.32 64.3 18.32 66.07C18.32 67.93 15.49 69.45 12.01 69.45C8.52 69.45 5.7 67.93 5.7 66.07C5.7 64.3 8.18 62.86 11.36 62.69C7.58 62.87 4.63 64.57 4.63 66.64C4.63 68.84 7.93 70.61 12.01 70.61Z" fill="#B49571" fill-opacity="1.000000" fill-rule="nonzero"/>
		<path id="path" d="M6.88 65.88C6.88 67.26 9.19 68.37 12.02 68.37C14.85 68.37 17.16 67.26 17.16 65.88C17.16 64.51 14.85 63.4 12.02 63.4C9.19 63.4 6.88 64.51 6.88 65.88Z" fill="#B49571" fill-opacity="1.000000" fill-rule="nonzero"/>
		<path id="path" d="M19.39 58.78L13.85 58.78L13.85 59.9C17.06 59.9 19.39 61.99 19.39 61.99L19.39 58.78Z" fill="#B49571" fill-opacity="1.000000" fill-rule="nonzero"/>
		<path id="path" d="M10.16 58.78L4.63 58.78L4.63 61.99C4.63 61.99 6.95 59.9 10.16 59.9L10.16 58.78Z" fill="#B49571" fill-opacity="1.000000" fill-rule="nonzero"/>
		<path id="path" d="M13.32 58.78L10.63 58.78L10.63 61.74L13.32 61.74L13.32 58.78Z" fill="#B49571" fill-opacity="1.000000" fill-rule="nonzero"/>
		<path id="path" d="M12.8 71.42L11.14 71.42L11.14 73.25L12.8 73.25L12.8 71.42Z" fill="#B49571" fill-opacity="1.000000" fill-rule="nonzero"/>
		<path id="path" d="M16.14 35.8L16.14 15.41L16.7 15.41C17.19 15.41 17.59 15.01 17.59 14.52L17.59 11.39C17.59 10.9 17.19 10.5 16.7 10.5L7.33 10.5C6.83 10.5 6.44 10.9 6.44 11.39L6.44 14.52C6.44 15.01 6.83 15.41 7.33 15.41L7.88 15.41L7.88 35.8C7.88 35.8 0 38.24 0 46.13L0 98.41C0 99.31 0.72 100.02 1.6 100.02L22.42 100.02C23.31 100.02 24.02 99.29 24.02 98.41L24.02 46.13C24.02 38.24 16.14 35.8 16.14 35.8ZM18.98 38.14C19.16 38.02 19.59 38.37 19.96 38.92C20.32 39.46 20.47 40 20.29 40.11C20.11 40.23 19.68 39.88 19.32 39.34C18.95 38.8 18.8 38.25 18.98 38.14ZM8.8 15.93L10.14 15.93L9.37 35.61L8.8 35.61L8.8 15.93ZM1.44 97.67L1.44 45.77C1.44 45.77 1.51 40.18 8.67 36.4C3.43 40.76 3.36 46.3 3.36 46.3L3.4 53.24L2.54 53.24L2.54 85.79L3.54 85.79L3.59 97.65L1.44 97.67ZM21.2 85.22L3.09 85.22L3.09 53.81L21.2 53.81L21.2 85.22ZM21.2 40.25C21.42 40.62 21.49 40.97 21.37 41.04C21.25 41.11 20.98 40.87 20.78 40.5C20.56 40.13 20.49 39.78 20.61 39.71C20.73 39.64 20.99 39.88 21.2 40.25Z" fill="#B49571" fill-opacity="1.000000" fill-rule="nonzero"/>
	</g>
</svg>
