<svg width="29" height="29" viewBox="0 0 29 29" fill="none" xmlns="http://www.w3.org/2000/svg">
<path d="M14.5 28C12.7272 28 10.9717 27.6508 9.33377 26.9724C7.69588 26.2939 6.20765 25.2995 4.95406 24.0459C3.70047 22.7924 2.70607 21.3041 2.02763 19.6662C1.34919 18.0283 1 16.2728 1 14.5C1 12.7272 1.34919 10.9717 2.02763 9.33377C2.70607 7.69588 3.70047 6.20765 4.95406 4.95406C6.20765 3.70047 7.69588 2.70606 9.33377 2.02763C10.9717 1.34919 12.7272 1 14.5 1C18.0804 1 21.5142 2.42232 24.0459 4.95406C26.5777 7.4858 28 10.9196 28 14.5C28 18.0804 26.5777 21.5142 24.0459 24.0459C21.5142 26.5777 18.0804 28 14.5 28ZM14.5 28V12.5714C14.5 11.5485 14.9064 10.5674 15.6297 9.84402C16.3531 9.12066 17.3342 8.71429 18.3571 8.71429H19.3214M9.67857 16.4286H19.3214" stroke="black" stroke-width="1.5"/>
</svg>
