<svg width="58" height="58" viewBox="0 0 58 58" fill="none" xmlns="http://www.w3.org/2000/svg">
<path d="M5.4375 33.6279H52.5625M49.9042 33.6279C49.9042 22.0835 40.5456 12.7238 29 12.7238C17.4544 12.7238 8.09583 22.0835 8.09583 33.6279" stroke="#B49571" stroke-width="2" stroke-linecap="round" stroke-linejoin="round"/>
<path d="M20.294 17.8012C18.1342 19.2101 16.3491 21.1229 15.0925 23.3747C13.8359 25.6265 13.1453 28.15 13.0802 30.7279M29 12.7238V9.99292M30.1358 41.7479C36.4168 41.6718 37.2215 41.4096 48.8348 38.4613C49.5658 38.2764 50.1084 38.651 50.2679 39.0763C50.431 39.5113 50.3645 40.2822 49.3725 40.5396C47.415 41.0471 35.2108 46.6779 32.4317 46.6779C29.6525 46.6779 21.5567 46.0738 18.5117 46.0738C15.4667 46.0738 11.9142 48.0071 11.9142 48.0071C9.47333 45.7354 7.92667 41.9654 7.51583 37.8813H37.6758C38.9204 37.8813 39.3192 39.6212 38.2558 40.1046C36.679 40.8211 34.0025 41.7479 30.1358 41.7479Z" stroke="#B49571" stroke-width="2" stroke-linecap="round" stroke-linejoin="round"/>
</svg>
