<svg width="16" height="17" viewBox="0 0 16 17" fill="none" xmlns="http://www.w3.org/2000/svg">
<g clip-path="url(#clip0_73_3331)">
<path d="M3.76526 6.29581C3.99951 8.28631 5.80576 10.0311 8.00151 10.0311C10.3565 10.0311 12.2653 8.02506 12.2653 5.86031C12.2653 5.84181 12.264 5.82381 12.2638 5.80606C9.83426 5.47631 6.73901 7.24156 3.76526 6.29581Z" fill="black"/>
<path d="M13.5 5.8759C13.5 3.02515 12.073 1.26515 12.0728 1.26465H3.927C3.927 1.26465 2.5 3.02765 2.5 5.8759C2.5 8.5829 4.814 11.0974 7.72375 11.2481C7.68975 12.8201 7.556 14.4571 7.171 15.0241C6.62875 15.8231 4.72825 15.4126 4.72825 16.2646H11.2725C11.2725 15.4124 9.37125 15.8231 8.829 15.0241C8.444 14.4571 8.31025 12.8204 8.27625 11.2481C11.1852 11.0976 13.5 8.5829 13.5 5.8759ZM8 10.5781C5.5515 10.5781 3.5375 8.6329 3.2765 6.41365C3.25691 6.25263 3.24681 6.0906 3.24625 5.9284C3.24625 3.4659 4.4795 1.9424 4.4795 1.9424H11.5203C11.5205 1.94315 12.7317 3.43965 12.752 5.8679C12.7522 5.8879 12.7537 5.90765 12.7537 5.9284C12.7537 8.34165 10.6255 10.5781 8 10.5781Z" fill="black"/>
</g>
<defs>
<clipPath id="clip0_73_3331">
<rect width="16" height="16" fill="white" transform="translate(0 0.764648)"/>
</clipPath>
</defs>
</svg>
