<svg width="41" height="32" viewBox="0 0 41 32" fill="none" xmlns="http://www.w3.org/2000/svg">
<path d="M8.87653 12.2363C8.88422 11.4163 8.87653 10.6038 8.87653 9.7851V7.33385C8.87653 7.24385 8.90472 7.1951 8.97647 7.14635C9.79519 6.59135 10.6921 6.30635 11.6953 6.3751C12.5845 6.4376 13.3109 6.86135 13.6953 7.8826C13.9298 8.5001 13.9874 9.14635 13.9874 9.80635C13.9874 10.4101 13.9375 11.0076 13.7453 11.5838C13.3391 12.8201 12.4141 13.2988 11.2046 13.2438C10.3718 13.2088 9.64528 12.8963 8.97006 12.4313C8.906 12.3763 8.86884 12.3201 8.87653 12.2363ZM19.9017 13.2501C20.2284 13.3751 20.5628 13.3888 20.9049 13.3538C21.7313 13.2701 22.4642 12.9576 23.133 12.4863C23.1971 12.4451 23.2253 12.3963 23.2253 12.3126C23.2176 12.0413 23.2253 11.7638 23.2253 11.4938C23.2253 11.2163 23.2176 10.9388 23.2253 10.6601C23.2253 10.5626 23.1971 10.5213 23.0971 10.5076C22.5987 10.4451 22.108 10.3551 21.6096 10.3063C21.1112 10.2651 20.6128 10.2851 20.1285 10.4376C19.6518 10.5901 19.2957 10.8688 19.1534 11.3476C19.0394 11.7226 19.0394 12.0976 19.1598 12.4726C19.2095 12.651 19.3028 12.815 19.4318 12.9504C19.5608 13.0859 19.7216 13.1887 19.9004 13.2501H19.9017ZM41 3.7776V28.2226C40.9997 29.1067 40.6396 29.9544 39.9988 30.5795C39.3581 31.2047 38.4891 31.556 37.5829 31.5563H3.41584C2.50968 31.556 1.64073 31.2047 0.999969 30.5795C0.359213 29.9544 -0.000909735 29.1067 -0.00124931 28.2226V3.7776C-0.000909735 2.89353 0.359213 2.04577 0.999969 1.42065C1.64073 0.795519 2.50968 0.444179 3.41584 0.443848H37.5829C38.4891 0.444179 39.3581 0.795519 39.9988 1.42065C40.6396 2.04577 40.9997 2.89353 41 3.7776ZM26.2298 5.4376C26.258 5.55635 26.2938 5.67385 26.3438 5.79135C27.5187 8.61135 28.6859 11.4376 29.8673 14.2563C29.9672 14.4988 29.9877 14.7013 29.8813 14.9438C29.6815 15.3738 29.5328 15.8188 29.3266 16.2426C29.1408 16.6251 28.8499 16.9026 28.422 17.0201C28.1218 17.0929 27.811 17.1141 27.5033 17.0826C27.3534 17.0688 27.2048 17.0338 27.0549 17.0276C26.855 17.0138 26.7564 17.1038 26.7487 17.3051C26.741 17.4971 26.741 17.6893 26.7487 17.8813C26.7551 18.2001 26.8627 18.3463 27.1894 18.4026C27.5238 18.4576 27.8582 18.5138 28.2003 18.5201C29.2177 18.5413 30.03 18.1451 30.5566 17.2763C30.7628 16.9363 30.955 16.5751 31.1049 16.2076C32.5143 12.7288 33.916 9.2426 35.319 5.75635C35.3612 5.6526 35.3971 5.5476 35.4112 5.43635C35.4394 5.2701 35.3612 5.18635 35.1908 5.1801C34.7924 5.17385 34.4003 5.1801 34.0018 5.1801C33.7815 5.1801 33.6252 5.2776 33.547 5.47885C33.5188 5.5551 33.4829 5.63885 33.4548 5.7151L31.383 11.5276C31.2331 11.9513 31.0844 12.3676 30.9204 12.8188L30.8641 12.6876L28.5578 6.45135C28.4356 6.12138 28.3101 5.79261 28.1811 5.4651C28.1171 5.29135 27.9889 5.1876 27.7967 5.1876C27.3411 5.17822 26.8854 5.17572 26.4297 5.1801C26.2733 5.1801 26.1952 5.29135 26.2298 5.43635V5.4376ZM17.2546 12.5276C17.3763 13.3401 17.7953 13.9726 18.5359 14.3751C19.2406 14.7576 20.0093 14.8051 20.7922 14.6938C21.6967 14.5626 22.4937 14.1863 23.1983 13.6176C23.2265 13.5963 23.2547 13.5763 23.2983 13.5476C23.3342 13.7701 23.3623 13.9776 23.4046 14.1863C23.4405 14.3676 23.5545 14.4851 23.7249 14.4926C24.0517 14.4988 24.372 14.4988 24.7 14.4926C24.864 14.4851 24.9703 14.3813 24.9844 14.2213C24.9921 14.1663 24.9921 14.1101 24.9921 14.0613V7.8951C24.9921 7.6451 24.978 7.3951 24.9421 7.1451C24.8281 6.3951 24.5014 5.7776 23.8108 5.38135C23.4109 5.16272 22.9707 5.02339 22.5154 4.97135C22.3015 4.94385 22.0888 4.9226 21.8671 4.8951H21.1547C21.0984 4.90135 21.0407 4.9151 20.9767 4.9151C20.3955 4.93656 19.8183 5.01785 19.2547 5.1576C18.8921 5.2476 18.5423 5.3801 18.1874 5.4976C17.9734 5.5676 17.8671 5.7201 17.8748 5.94885C17.8812 6.14385 17.8671 6.3376 17.8748 6.5251C17.8812 6.8101 18.0029 6.88635 18.2809 6.8101C18.7434 6.6926 19.2137 6.5676 19.6826 6.47635C20.4155 6.3451 21.156 6.28885 21.8966 6.3926C22.281 6.4476 22.6436 6.55885 22.8998 6.87885C23.1202 7.15635 23.1983 7.4901 23.2137 7.8301C23.2355 8.30885 23.2278 8.7951 23.2355 9.2751C23.2355 9.3026 23.2291 9.32385 23.2214 9.35885C23.1932 9.35885 23.165 9.35885 23.1432 9.3526C22.5174 9.20185 21.8789 9.10646 21.2355 9.0676C20.559 9.0326 19.8902 9.0751 19.2495 9.2901C18.4808 9.55385 17.8619 10.0051 17.4981 10.7351C17.2059 11.3113 17.1701 11.9151 17.2559 12.5263L17.2546 12.5276ZM7.02513 5.64635V17.8201C7.02513 17.8751 7.02513 17.9376 7.03281 17.9938C7.04691 18.1676 7.15325 18.2788 7.32494 18.2851C7.74519 18.2926 8.16544 18.2926 8.58569 18.2851C8.76378 18.2851 8.87013 18.1676 8.87781 18.0001C8.8855 17.9451 8.8855 17.8826 8.8855 17.8263V13.6113C8.94956 13.6601 8.98544 13.6951 9.02003 13.7226C10.0873 14.5901 11.3122 14.8751 12.6575 14.6188C13.8747 14.3826 14.7139 13.6538 15.27 12.5913C15.6825 11.7863 15.8606 10.9176 15.8888 10.0213C15.9247 9.02885 15.8171 8.04885 15.4045 7.1251C14.8997 5.98635 14.0592 5.22885 12.792 4.97885C12.5998 4.9376 12.4 4.9226 12.2078 4.8951H11.7094C11.6235 4.90885 11.539 4.9151 11.4531 4.9301C10.6335 5.02804 9.85388 5.33167 9.19044 5.81135C9.04822 5.90885 8.91241 6.0201 8.77019 6.12385C8.76378 6.08885 8.74841 6.06885 8.742 6.0401C8.71381 5.8801 8.69203 5.7201 8.66384 5.56135C8.62156 5.2901 8.48575 5.17885 8.209 5.1726H7.51841C7.09816 5.1651 7.02769 5.2426 7.02769 5.6451L7.02513 5.64635ZM35.1345 21.7638C34.9423 21.7151 34.7719 21.7638 34.5938 21.8338C30.5177 23.4983 26.1623 24.4165 21.7454 24.5426C19.8517 24.5894 17.9572 24.4895 16.0797 24.2438C14.8113 24.0771 13.5523 23.8477 12.3077 23.5563C9.67825 22.9457 7.12969 22.0414 4.71247 20.8613C4.08594 20.5563 3.4735 20.2151 2.85466 19.8888C2.58431 19.7426 2.41263 19.7851 2.27041 20.0351V20.1526C2.35625 20.2638 2.42672 20.3888 2.53434 20.4863C5.09684 22.7226 7.98606 24.4101 11.2187 25.5488C12.7779 26.0976 14.3795 26.5001 16.0093 26.7638C17.0061 26.9238 18.0029 27.0276 19.0138 27.0763C19.2278 27.0838 19.4404 27.0901 19.6544 27.1038C19.7044 27.1038 19.7543 27.1176 19.8043 27.1251H21.0638C21.1138 27.1188 21.1637 27.1038 21.2137 27.1038C22.2746 27.0763 23.3354 26.9788 24.3886 26.8263C25.9069 26.6054 27.4041 26.2639 28.8653 25.8051C30.973 25.1388 32.973 24.2501 34.8013 23.0201C35.0012 22.8876 35.2075 22.7563 35.3702 22.5888C35.6764 22.2838 35.5342 21.8663 35.1358 21.7626L35.1345 21.7638ZM38.722 19.8401C38.6656 19.5488 38.4375 19.4376 38.1813 19.3538C37.7747 19.2283 37.3539 19.1514 36.9282 19.1251C36.1485 19.0613 35.3635 19.0987 34.5938 19.2363C33.7392 19.3888 32.9282 19.6601 32.2094 20.1463C32.1208 20.1989 32.0455 20.2703 31.989 20.3551C31.9488 20.4272 31.9361 20.5109 31.9531 20.5913C31.9749 20.6813 32.0748 20.7026 32.1671 20.6951C32.2094 20.6951 32.2529 20.6951 32.2952 20.6876L33.6828 20.5413C34.3657 20.4788 35.0499 20.4376 35.7328 20.4863C36.0249 20.5076 36.3094 20.5701 36.5874 20.6388C36.8936 20.7151 37.0282 20.9438 37.0422 21.2426C37.064 21.7076 36.9564 22.1526 36.836 22.5963C36.5874 23.4926 36.2453 24.3601 35.8891 25.2213C35.8673 25.2763 35.8392 25.3388 35.8328 25.3951C35.8046 25.5688 35.9045 25.6726 36.0749 25.6376C36.1815 25.6147 36.2798 25.5642 36.3593 25.4913C36.6233 25.2413 36.8936 24.9913 37.114 24.7138C37.8763 23.7551 38.3235 22.6576 38.5874 21.4776C38.6374 21.2688 38.6733 21.0538 38.7079 20.8463C38.722 20.5201 38.722 20.1801 38.722 19.8388V19.8401Z" fill="#B49571"/>
</svg>
