<svg width="21" height="21" viewBox="0 0 21 21" fill="none" xmlns="http://www.w3.org/2000/svg">
<path d="M16.9033 11.8125H13.5126C13.0633 11.8125 12.6323 11.9904 12.3138 12.3074C11.9954 12.6244 11.8155 13.0546 11.8134 13.5039V16.8945C11.8134 17.3452 11.9924 17.7774 12.3111 18.0961C12.6297 18.4147 13.062 18.5938 13.5126 18.5938H16.9033C17.3524 18.5914 17.7824 18.4114 18.0991 18.093C18.4159 17.7745 18.5938 17.3437 18.5938 16.8945V13.5039C18.5938 13.0555 18.4156 12.6255 18.0986 12.3085C17.7816 11.9915 17.3516 11.8134 16.9033 11.8134M7.48738 11.8125H4.09675C3.64752 11.815 3.21755 11.9953 2.9008 12.3138C2.58404 12.6324 2.40624 13.0634 2.40625 13.5126V16.9033C2.40625 17.3516 2.58436 17.7816 2.90139 18.0986C3.21842 18.4156 3.6484 18.5938 4.09675 18.5938H7.48738C7.93653 18.5938 8.36742 18.4159 8.68584 18.0991C9.00426 17.7824 9.18431 17.3524 9.18662 16.9033V13.5126C9.18662 13.062 9.0076 12.6297 8.68893 12.3111C8.37026 11.9924 7.93804 11.8134 7.48738 11.8134M7.48738 2.40625H4.09675C3.87475 2.40625 3.65492 2.44998 3.44982 2.53493C3.24472 2.61989 3.05836 2.74441 2.90139 2.90139C2.74441 3.05836 2.61989 3.24472 2.53493 3.44982C2.44998 3.65492 2.40625 3.87475 2.40625 4.09675V7.48738C2.40624 7.93653 2.58407 8.36742 2.90085 8.68584C3.21763 9.00426 3.6476 9.18431 4.09675 9.18662H7.48738C7.93804 9.18662 8.37026 9.0076 8.68893 8.68893C9.0076 8.37026 9.18662 7.93804 9.18662 7.48738V4.09675C9.18431 3.6476 9.00426 3.21763 8.68584 2.90085C8.36742 2.58407 7.93653 2.40624 7.48738 2.40625ZM16.9033 2.40625H13.5126C13.0635 2.40624 12.6326 2.58407 12.3142 2.90085C11.9957 3.21763 11.8157 3.6476 11.8134 4.09675V7.48738C11.8136 7.93797 11.9927 8.37005 12.3113 8.68867C12.63 9.00729 13.062 9.18639 13.5126 9.18662H16.9033C17.3524 9.18431 17.7824 9.00426 18.0991 8.68584C18.4159 8.36742 18.5938 7.93653 18.5938 7.48738V4.09675C18.5938 3.6484 18.4156 3.21842 18.0986 2.90139C17.7816 2.58436 17.3516 2.40625 16.9033 2.40625Z" stroke="black" stroke-linecap="round" stroke-linejoin="round"/>
</svg>
