<svg width="22" height="23" viewBox="0 0 22 23" fill="none" xmlns="http://www.w3.org/2000/svg">
<path d="M8.39026 5.2219C9.55168 3.13923 10.1319 2.0979 11 2.0979C11.8681 2.0979 12.4483 3.13923 13.6098 5.2219L13.9104 5.7609C14.2404 6.35307 14.4054 6.64915 14.6621 6.8444C14.9188 7.03965 15.2396 7.11207 15.8813 7.2569L16.4643 7.3889C18.7193 7.89948 19.8458 8.15432 20.1144 9.0169C20.3821 9.87857 19.6139 10.7778 18.0767 12.5754L17.6788 13.0402C17.2425 13.5507 17.0234 13.8065 16.9253 14.1218C16.8273 14.4381 16.8603 14.7791 16.9263 15.4601L16.9868 16.0807C17.2187 18.4796 17.3351 19.6786 16.6329 20.2112C15.9308 20.7447 14.8748 20.258 12.7646 19.2863L12.2173 19.0351C11.6178 18.7583 11.3181 18.6208 11 18.6208C10.6819 18.6208 10.3822 18.7583 9.78268 19.0351L9.23635 19.2863C7.12526 20.258 6.06926 20.7438 5.36801 20.2121C4.66493 19.6786 4.78135 18.4796 5.01326 16.0807L5.07376 15.4611C5.13976 14.7791 5.17276 14.4381 5.07376 14.1227C4.9766 13.8065 4.75751 13.5507 4.32118 13.0411L3.92335 12.5754C2.3861 10.7787 1.61793 9.87948 1.8856 9.0169C2.15418 8.15432 3.28168 7.89857 5.53668 7.3889L6.11968 7.2569C6.76043 7.11207 7.08035 7.03965 7.33793 6.8444C7.5946 6.64915 7.7596 6.35307 8.0896 5.7609L8.39026 5.2219Z" stroke="black"/>
</svg>
