<svg width="31" height="22" viewBox="0 0 31 22" fill="none" xmlns="http://www.w3.org/2000/svg">
<g clip-path="url(#clip0_213_3512)">
<path d="M25.9896 18.5741C25.9896 18.9082 25.7426 19.1486 25.3871 19.1486C25.0209 19.1486 24.7845 18.8932 24.7845 18.5741C24.7845 18.255 25.0209 17.9995 25.3871 17.9995C25.7426 17.9995 25.9896 18.255 25.9896 18.5741ZM9.26221 17.9995C8.87955 17.9995 8.65965 18.255 8.65965 18.5741C8.65965 18.8932 8.88052 19.1486 9.26221 19.1486C9.61193 19.1486 9.8483 18.9082 9.8483 18.5741C9.84249 18.255 9.61193 17.9995 9.26221 17.9995ZM15.5862 17.9854C15.2956 17.9854 15.1173 18.1569 15.0747 18.4123H16.1026C16.0541 18.1321 15.8662 17.9854 15.5862 17.9854ZM21.3881 17.9995C21.0219 17.9995 20.802 18.255 20.802 18.5741C20.802 18.8932 21.0228 19.1486 21.3881 19.1486C21.7542 19.1486 21.9906 18.9082 21.9906 18.5741C21.9906 18.255 21.7533 17.9995 21.3881 17.9995ZM27.0872 19.2812C27.0872 19.2962 27.1037 19.3059 27.1037 19.3351C27.1037 19.3501 27.0872 19.3599 27.0872 19.389C27.0707 19.404 27.0707 19.4138 27.0601 19.4279C27.0436 19.4429 27.033 19.4527 27.001 19.4527C26.9845 19.4677 26.9739 19.4677 26.9419 19.4677C26.9254 19.4677 26.9148 19.4677 26.8828 19.4527C26.8663 19.4527 26.8557 19.4376 26.8402 19.4279C26.8237 19.4129 26.8131 19.4032 26.8131 19.389C26.7966 19.3643 26.7966 19.3501 26.7966 19.3351C26.7966 19.3104 26.7966 19.2962 26.8131 19.2812C26.8131 19.2564 26.8295 19.2423 26.8402 19.2273C26.8566 19.2122 26.8673 19.2122 26.8828 19.2025C26.9099 19.1875 26.9254 19.1875 26.9419 19.1875C26.969 19.1875 26.9845 19.1875 27.001 19.2025C27.0281 19.2167 27.0436 19.2167 27.0601 19.2273C27.0766 19.2379 27.0707 19.2564 27.0872 19.2812ZM26.969 19.3501C26.9961 19.3501 26.9961 19.3351 27.0116 19.3351C27.0281 19.3201 27.0281 19.3104 27.0281 19.2962C27.0281 19.2821 27.0281 19.2715 27.0116 19.2573C26.9961 19.2573 26.9845 19.2423 26.9526 19.2423H26.8663V19.4138H26.909V19.3448H26.9254L26.9845 19.4138H27.0271L26.969 19.3501ZM31 2.40421V19.6895C30.9997 20.3147 30.7274 20.9141 30.243 21.3562C29.7585 21.7982 29.1015 22.0466 28.4163 22.0469H2.58268C1.89753 22.0466 1.24052 21.7982 0.756042 21.3562C0.271568 20.9141 -0.000719808 20.3147 -0.000976562 19.6895V2.40421C-0.000719808 1.77908 0.271568 1.17962 0.756042 0.73758C1.24052 0.295545 1.89753 0.0471093 2.58268 0.046875H28.4163C29.1015 0.0471093 29.7585 0.295545 30.243 0.73758C30.7274 1.17962 30.9997 1.77908 31 2.40421ZM3.44487 9.25877C3.44487 13.0153 6.78705 16.0594 10.8984 16.0594C12.3626 16.0556 13.7937 15.6614 15.0156 14.9254C11.0922 12.0139 11.1193 6.51871 15.0156 3.6063C13.7949 2.86792 12.363 2.47354 10.8984 2.47227C6.78705 2.46785 3.44487 5.51638 3.44487 9.25877ZM15.5 14.6019C19.2946 11.9007 19.2781 6.63715 15.5 3.92184C11.7219 6.63715 11.7054 11.906 15.5 14.6019ZM7.84105 18.3487C7.84105 17.9218 7.53396 17.6416 7.04958 17.6265C6.80159 17.6265 6.53808 17.6955 6.3608 17.9456C6.23196 17.7441 6.01109 17.6265 5.70399 17.6265C5.5924 17.625 5.48209 17.6483 5.38264 17.6945C5.28319 17.7408 5.19763 17.8084 5.1334 17.8917V17.676H4.69262V19.4783H5.1334C5.1334 18.5502 4.99874 17.9951 5.61777 17.9951C6.16705 17.9951 6.05952 18.4963 6.05952 19.4783H6.4848C6.4848 18.5794 6.35015 17.9951 6.96918 17.9951C7.51846 17.9951 7.40996 18.4866 7.40996 19.4783H7.85171V18.3487H7.84105ZM10.2581 17.676H9.8328V17.8917C9.75753 17.806 9.66146 17.7375 9.55219 17.6915C9.44291 17.6455 9.32341 17.6232 9.20312 17.6265C8.64899 17.6265 8.22371 18.0296 8.22371 18.5741C8.22371 19.1239 8.64899 19.5216 9.20312 19.5216C9.48309 19.5216 9.68749 19.4279 9.8328 19.2564V19.4827H10.2581V17.676ZM12.4378 18.9329C12.4378 18.1967 11.2055 18.5299 11.2055 18.186C11.2055 17.9059 11.8459 17.9509 12.2014 18.1321L12.3787 17.813C11.873 17.5134 10.7531 17.5187 10.7531 18.2161C10.7531 18.9179 11.9854 18.6236 11.9854 18.9524C11.9854 19.2617 11.2588 19.237 10.8713 18.9913L10.6834 19.3006C11.2859 19.6736 12.4378 19.595 12.4378 18.932V18.9329ZM14.3433 19.389L14.2251 19.0549C14.0207 19.1574 13.5683 19.2706 13.5683 18.8534V18.0384H14.2736V17.6752H13.5683V17.1254H13.1266V17.6752H12.7177V18.034H13.1266V18.8543C13.1266 19.7187 14.0575 19.5614 14.3433 19.389ZM15.0582 18.7314H16.5385C16.5385 17.9359 16.1403 17.6212 15.6017 17.6212C15.0311 17.6212 14.6223 18.0093 14.6223 18.5688C14.6223 19.5755 15.8391 19.7426 16.4416 19.2662L16.2372 18.9718C15.8177 19.2865 15.1822 19.2564 15.0582 18.7314ZM18.2396 17.676C17.9926 17.5779 17.6157 17.5877 17.422 17.8917V17.676H16.9802V19.4783H17.422V18.4618C17.422 17.8917 17.9335 17.966 18.1108 18.049L18.2396 17.676ZM18.8102 18.5741C18.8102 18.0137 19.4351 17.8325 19.9243 18.1613L20.1287 17.8422C19.5038 17.3959 18.3685 17.6407 18.3685 18.5785C18.3685 19.5508 19.5736 19.747 20.1287 19.3148L19.9243 18.9957C19.4292 19.3148 18.8102 19.1239 18.8102 18.5732V18.5741ZM22.3994 17.676H21.9577V17.8917C21.5111 17.3517 20.3486 17.6566 20.3486 18.5741C20.3486 19.5172 21.5537 19.7868 21.9577 19.2564V19.4827H22.3994V17.676ZM24.2129 17.676C24.0841 17.6168 23.621 17.5337 23.3953 17.8917V17.676H22.97V19.4783H23.3953V18.4618C23.3953 17.9218 23.8797 17.9562 24.0841 18.049L24.2129 17.676ZM26.382 16.9442H25.9567V17.8917C25.5149 17.357 24.3476 17.6416 24.3476 18.5741C24.3476 19.5269 25.5585 19.7815 25.9567 19.2564V19.4827H26.382V16.9442ZM26.7917 13.2566V13.4829H26.8344V13.2566H26.9361V13.2177H26.6881V13.2566H26.7917ZM27.1463 19.3351C27.1463 19.3104 27.1463 19.2812 27.1308 19.2564C27.1143 19.2414 27.1037 19.2175 27.0882 19.2025C27.0727 19.1875 27.0455 19.1778 27.0291 19.1636C27.002 19.1636 26.97 19.1486 26.9429 19.1486C26.9264 19.1486 26.9002 19.1636 26.8673 19.1636C26.8461 19.1745 26.8262 19.1876 26.8082 19.2025C26.7811 19.2167 26.7656 19.2414 26.7656 19.2564C26.7491 19.2812 26.7491 19.3104 26.7491 19.3351C26.7491 19.3501 26.7491 19.374 26.7656 19.404C26.7656 19.4191 26.7821 19.4429 26.8082 19.458C26.8246 19.4747 26.8447 19.488 26.8673 19.4969C26.8944 19.511 26.9264 19.511 26.9429 19.511C26.97 19.511 27.002 19.511 27.0291 19.4969C27.0455 19.4818 27.0717 19.4721 27.0882 19.458C27.1046 19.4438 27.1153 19.4191 27.1308 19.404C27.1463 19.3749 27.1463 19.3501 27.1463 19.3351ZM27.3187 13.2124H27.2432L27.157 13.3839L27.0707 13.2124H26.9952V13.4776H27.0378V13.276L27.124 13.4475H27.1831L27.2587 13.276V13.4776H27.3178L27.3187 13.2124ZM27.5551 9.25877C27.5551 5.51638 24.2129 2.46785 20.1016 2.46785C18.6373 2.4712 17.2061 2.8654 15.9844 3.60188C19.8652 6.51429 19.9243 12.0236 15.9844 14.921C17.2058 15.658 18.6372 16.0523 20.1016 16.055C24.2129 16.0603 27.5551 13.0153 27.5551 9.25877Z" fill="#6B6B6B"/>
</g>
<defs>
<clipPath id="clip0_213_3512">
<rect width="31" height="22" fill="white"/>
</clipPath>
</defs>
</svg>
