<svg width="45" height="30" viewBox="0 0 45 30" fill="none" xmlns="http://www.w3.org/2000/svg">
<g clip-path="url(#clip0_73_3234)">
<path d="M42 30H3C2.20435 30 1.44129 29.6839 0.87868 29.1213C0.316071 28.5587 0 27.7957 0 27L0 3C0 2.20435 0.316071 1.44129 0.87868 0.87868C1.44129 0.316071 2.20435 0 3 0L42 0C42.7956 0 43.5587 0.316071 44.1213 0.87868C44.6839 1.44129 45 2.20435 45 3V27C45 27.7957 44.6839 28.5587 44.1213 29.1213C43.5587 29.6839 42.7956 30 42 30ZM17.54 12.9062C17.5058 12.9067 17.4721 12.9148 17.4414 12.9299C17.4107 12.9451 17.3837 12.9669 17.3625 12.9938C17.3133 13.0439 17.2851 13.111 17.2837 13.1812C17.2837 13.2075 17.4062 13.5812 17.6688 14.3475L18.2362 16.005L18.5 16.7775C18.7958 17.6442 18.9504 18.105 18.9637 18.16C18.3818 18.8805 17.8557 19.6444 17.39 20.445L17.3425 20.5325L17.34 20.5638C17.34 20.6888 17.4412 20.7912 17.5675 20.7912L17.6012 20.7887H17.6H19.1225C19.1935 20.7883 19.2632 20.7698 19.3251 20.7351C19.3869 20.7003 19.439 20.6504 19.4762 20.59L19.4775 20.5888L24.5175 13.315C24.544 13.2801 24.5585 13.2376 24.5588 13.1938L24.5575 13.175V13.1763C24.5558 13.1061 24.5277 13.0391 24.4788 12.9887C24.4577 12.962 24.431 12.9402 24.4005 12.9251C24.37 12.9099 24.3365 12.9018 24.3025 12.9012H22.7787C22.7076 12.9017 22.6377 12.9202 22.5757 12.9549C22.5136 12.9897 22.4613 13.0396 22.4237 13.1L22.4225 13.1012L20.3225 16.1838L19.4538 13.2188C19.4315 13.1284 19.3796 13.0481 19.3065 12.9906C19.2333 12.933 19.1431 12.9016 19.05 12.9012L19.0175 12.9025H19.0187L17.54 12.9062ZM35.0125 12.7675H34.98C34.0325 12.7675 33.1813 13.1787 32.5938 13.8312L32.5913 13.8338C31.9487 14.4983 31.59 15.3869 31.5913 16.3112V16.345V16.3438C31.5888 16.38 31.5887 16.4237 31.5887 16.4663C31.5887 17.1375 31.85 17.7488 32.275 18.2025L32.2738 18.2013C32.5155 18.4367 32.8033 18.6198 33.119 18.7389C33.4348 18.8581 33.7717 18.9108 34.1087 18.8937H34.1025C34.5238 18.8888 34.9238 18.8025 35.2887 18.6475L35.2687 18.655C35.6375 18.5163 35.95 18.3 36.1963 18.025L36.1987 18.0225C36.1862 18.0938 36.1725 18.1537 36.1562 18.2113L36.1587 18.1987C36.1364 18.2753 36.123 18.3541 36.1188 18.4338V18.4362C36.1188 18.6462 36.205 18.7525 36.3763 18.7525H37.74C37.7933 18.7573 37.8469 18.7513 37.8978 18.735C37.9488 18.7187 37.9959 18.6923 38.0364 18.6575C38.077 18.6227 38.1101 18.58 38.1339 18.5322C38.1577 18.4843 38.1717 18.4321 38.175 18.3787V18.3775L38.985 13.2188C38.9926 13.1798 38.9913 13.1397 38.9811 13.1013C38.971 13.063 38.9522 13.0275 38.9263 12.9975C38.9038 12.9665 38.8742 12.9413 38.8401 12.9239C38.806 12.9066 38.7683 12.8975 38.73 12.8975H37.2262C37.0425 12.8975 36.9263 13.1163 36.8887 13.55C36.6687 13.2677 36.3794 13.0471 36.0488 12.9098C35.7183 12.7724 35.3578 12.723 35.0025 12.7663L35.0125 12.765V12.7675ZM12.5588 12.7675H12.5238C11.5775 12.7675 10.7262 13.1787 10.1412 13.8312L10.1388 13.8338C9.4962 14.4983 9.13754 15.3869 9.13875 16.3112V16.345V16.3438C9.12219 16.6835 9.17432 17.0231 9.29202 17.3423C9.40971 17.6614 9.59056 17.9536 9.82375 18.2013L9.8225 18.2C10.265 18.63 10.87 18.895 11.5375 18.895L11.6575 18.8925H11.6512C12.0662 18.8862 12.46 18.8 12.8188 18.6462L12.7987 18.6538C13.1725 18.5112 13.49 18.2962 13.7463 18.0225L13.7475 18.0212C13.7013 18.1437 13.6725 18.2862 13.6688 18.4338V18.4362C13.6688 18.6462 13.7562 18.7525 13.9262 18.7525H15.2887C15.342 18.7573 15.3957 18.7513 15.4466 18.735C15.4975 18.7187 15.5446 18.6923 15.5852 18.6575C15.6257 18.6227 15.6589 18.58 15.6827 18.5322C15.7065 18.4843 15.7205 18.4321 15.7238 18.3787V18.3775L16.535 13.2188C16.5418 13.1801 16.54 13.1405 16.5296 13.1026C16.5192 13.0648 16.5006 13.0297 16.475 13C16.4525 12.969 16.423 12.9438 16.3889 12.9264C16.3548 12.9091 16.317 12.9 16.2787 12.9H14.775C14.5912 12.9 14.475 13.1187 14.4387 13.5525C14.2164 13.2724 13.9266 13.0535 13.5964 12.9162C13.2662 12.7788 12.9066 12.7277 12.5513 12.7675L12.5612 12.7663L12.5588 12.7675ZM40.765 10L40.745 9.99875C40.6853 9.99854 40.6278 10.0208 40.5838 10.0611C40.5397 10.1014 40.5125 10.1568 40.5075 10.2163L39.2225 18.44C39.212 18.4796 39.2118 18.5212 39.2221 18.5609C39.2324 18.6005 39.2528 18.6368 39.2812 18.6663C39.3049 18.6942 39.3344 18.7167 39.3676 18.732C39.4009 18.7474 39.4371 18.7552 39.4738 18.755H40.7863L40.8262 18.7575C40.9257 18.7575 41.0211 18.718 41.0914 18.6477C41.1617 18.5773 41.2012 18.482 41.2012 18.3825V18.38L42.4837 10.2987L42.485 10.2712C42.4849 10.2 42.4617 10.1307 42.4188 10.0737V10.075C42.3963 10.0511 42.3692 10.0319 42.3391 10.0188C42.309 10.0057 42.2766 9.99889 42.2437 9.99875L42.225 10H40.765ZM26.1775 10C26.1238 9.99296 26.0693 9.99731 26.0174 10.0128C25.9656 10.0282 25.9176 10.0544 25.8765 10.0897C25.8355 10.125 25.8023 10.1685 25.7792 10.2174C25.7561 10.2664 25.7436 10.3196 25.7425 10.3737L24.4587 18.4388C24.4521 18.4771 24.454 18.5164 24.4641 18.554C24.4743 18.5916 24.4925 18.6265 24.5175 18.6562C24.5396 18.6874 24.5688 18.7127 24.6028 18.7301C24.6367 18.7475 24.6744 18.7565 24.7125 18.7563H26.3438C26.417 18.7562 26.4879 18.7307 26.5444 18.6842C26.6009 18.6377 26.6396 18.5731 26.6537 18.5012V18.4987L27.01 16.2062C27.0206 16.1059 27.0705 16.0138 27.1488 15.95C27.234 15.8811 27.3377 15.8366 27.4463 15.8212H27.45C27.5512 15.8025 27.6675 15.7925 27.7863 15.7913C27.8913 15.7913 28.0175 15.7975 28.1625 15.8113C28.321 15.8295 28.4805 15.8378 28.64 15.8362C29.5558 15.8377 30.4383 15.4925 31.11 14.87L31.1075 14.8725C31.4424 14.5173 31.7011 14.0973 31.8675 13.6383C32.0339 13.1793 32.1045 12.6911 32.075 12.2037V12.2137C32.1019 11.8915 32.0466 11.5676 31.9144 11.2725C31.7821 10.9774 31.5772 10.7206 31.3188 10.5262L31.3138 10.5225C30.7173 10.1453 30.0185 9.96233 29.3138 9.99875H29.3213L26.1775 10ZM3.7 10C3.64771 9.99439 3.59483 9.99984 3.54478 10.016C3.49473 10.0322 3.44865 10.0587 3.40951 10.0938C3.37037 10.1289 3.33906 10.1719 3.31761 10.2199C3.29616 10.2679 3.28505 10.3199 3.285 10.3725V10.375L2 18.44C1.9933 18.4783 1.99509 18.5177 2.00524 18.5553C2.01539 18.5928 2.03365 18.6277 2.05875 18.6575C2.08083 18.6886 2.11008 18.7139 2.14403 18.7313C2.17797 18.7487 2.21561 18.7577 2.25375 18.7575H3.75875C3.81241 18.7645 3.86694 18.7602 3.91881 18.7447C3.97067 18.7293 4.01869 18.7031 4.05973 18.6678C4.10078 18.6325 4.13393 18.589 4.15702 18.5401C4.18011 18.4911 4.19263 18.4379 4.19375 18.3837L4.55 16.21C4.56083 16.11 4.61014 16.0181 4.6875 15.9537C4.77279 15.8848 4.87642 15.8403 4.985 15.825H4.98875C5.09936 15.8055 5.21143 15.7955 5.32375 15.795H5.325C5.43 15.795 5.555 15.8013 5.7 15.815C5.85808 15.8332 6.01714 15.8415 6.17625 15.84C7.13 15.84 7.9975 15.4738 8.6475 14.8738L8.645 14.8763C8.97983 14.521 9.23839 14.1009 9.40478 13.6419C9.57117 13.183 9.64186 12.6948 9.6125 12.2075V12.2175C9.6394 11.8952 9.58414 11.5714 9.45189 11.2763C9.31963 10.9812 9.1147 10.7244 8.85625 10.53L8.85125 10.5262C8.25737 10.1504 7.56197 9.96711 6.86 10.0013H6.8675L3.7 10ZM34.93 17.2938L34.87 17.295C34.5506 17.2953 34.2415 17.1824 33.9975 16.9762L34 16.9775C33.8872 16.8736 33.7972 16.7474 33.7356 16.6069C33.6741 16.4664 33.6424 16.3146 33.6425 16.1612L33.6438 16.105V16.0713C33.6438 15.6038 33.8325 15.18 34.1388 14.8725C34.44 14.5637 34.86 14.3725 35.325 14.3725H35.3662H35.3638L35.4062 14.3713C35.7425 14.3713 36.0488 14.495 36.2838 14.6987L36.2825 14.6975C36.3986 14.805 36.4911 14.9353 36.5544 15.0803C36.6176 15.2253 36.6502 15.3818 36.65 15.54L36.6488 15.6V15.5975V15.6275C36.6488 16.0887 36.4575 16.5063 36.1488 16.8025C35.9928 16.9579 35.8078 17.081 35.6042 17.1649C35.4007 17.2487 35.1826 17.2917 34.9625 17.2913H34.9313L34.93 17.2938ZM12.4563 17.2938L12.3938 17.295C12.0662 17.295 11.765 17.175 11.535 16.9762L11.5363 16.9775C11.4263 16.8724 11.3389 16.7461 11.2791 16.6062C11.2194 16.4664 11.1887 16.3158 11.1888 16.1637L11.19 16.105V16.0713C11.19 15.6038 11.3787 15.18 11.685 14.8725C11.9862 14.5637 12.405 14.3725 12.87 14.3725H12.9138H12.9113L12.9537 14.3713C13.29 14.3713 13.5962 14.495 13.8312 14.6987L13.83 14.6975C13.9458 14.8049 14.038 14.9351 14.1011 15.0798C14.1641 15.2246 14.1965 15.3809 14.1963 15.5387L14.195 15.6V15.5975V15.6412C14.195 16.1025 14.0038 16.5175 13.695 16.8138C13.3746 17.1221 12.9471 17.2941 12.5025 17.2938H12.4563ZM27.34 14.0938L27.6763 11.98C27.6789 11.9489 27.6877 11.9186 27.7021 11.8909C27.7165 11.8632 27.7362 11.8385 27.7601 11.8185C27.7841 11.7984 27.8117 11.7832 27.8415 11.7738C27.8713 11.7644 27.9026 11.761 27.9338 11.7638H28.2887L28.365 11.7625C28.5812 11.7625 28.795 11.7775 29.0037 11.8062L28.98 11.8038C29.1737 11.8387 29.3425 11.9262 29.475 12.0512C29.5505 12.1226 29.6106 12.2087 29.6517 12.3041C29.6927 12.3995 29.7139 12.5024 29.7137 12.6062L29.7125 12.6538V12.6513C29.7388 12.8601 29.713 13.0722 29.6376 13.2686C29.5621 13.4651 29.4393 13.6399 29.28 13.7775L29.2788 13.7787C28.8804 14.0061 28.4238 14.1105 27.9662 14.0787H27.9737L27.3425 14.0988L27.34 14.0938ZM4.86625 14.0938L5.2025 11.98C5.20501 11.9488 5.21369 11.9184 5.22803 11.8906C5.24238 11.8628 5.2621 11.8382 5.28605 11.8181C5.31001 11.7979 5.33772 11.7828 5.36758 11.7735C5.39744 11.7641 5.42885 11.7608 5.46 11.7638H5.83375C6.23396 11.7344 6.63458 11.8148 6.9925 11.9963L6.98 11.99C7.21625 12.1412 7.29625 12.4625 7.2175 12.9475C7.21147 13.1286 7.16198 13.3055 7.07323 13.4635C6.98447 13.6214 6.85903 13.7557 6.7075 13.855L6.70375 13.8575C6.11128 14.0757 5.47691 14.156 4.84875 14.0925L4.86625 14.0938Z" fill="#B49571"/>
</g>
<defs>
<clipPath id="clip0_73_3234">
<rect width="45" height="30" fill="white"/>
</clipPath>
</defs>
</svg>
