<svg width="31" height="22" viewBox="0 0 31 22" fill="none" xmlns="http://www.w3.org/2000/svg">
<g clip-path="url(#clip0_213_3514)">
<path d="M25.3005 9.78705C25.3005 9.78705 25.7095 11.6138 25.801 11.9969H24.0035C24.1811 11.5598 24.8646 9.86071 24.8646 9.86071C24.8538 9.87545 25.0422 9.41384 25.1498 9.12902L25.3005 9.78705ZM31 2.35714V19.6429C31 20.9442 29.8429 22 28.4167 22H2.58333C1.15712 22 0 20.9442 0 19.6429V2.35714C0 1.0558 1.15712 0 2.58333 0H28.4167C29.8429 0 31 1.0558 31 2.35714ZM8.20747 14.6929L11.6089 7.07143H9.32153L7.20642 12.2768L6.975 11.221L6.22153 7.71473C6.09774 7.22857 5.71562 7.09107 5.24201 7.07143H1.7599L1.72222 7.22366C2.57257 7.42009 3.33142 7.70491 3.9934 8.06339L5.92014 14.6929H8.20747ZM13.288 14.7027L14.6443 7.07143H12.4807L11.1299 14.7027H13.288ZM20.8174 12.208C20.8281 11.3388 20.2469 10.6759 19.0036 10.1308C18.2448 9.78214 17.7819 9.54643 17.7819 9.18795C17.7927 8.86384 18.1748 8.52991 19.0252 8.52991C19.7302 8.51518 20.2469 8.66741 20.6344 8.81964L20.8281 8.90312L21.1241 7.25312C20.699 7.10089 20.0208 6.92902 19.1866 6.92902C17.05 6.92902 15.5484 7.97009 15.5377 9.45312C15.5215 10.5482 16.6141 11.1571 17.4321 11.5254C18.2663 11.8987 18.5516 12.1442 18.5516 12.4732C18.5408 12.9839 17.8734 13.2196 17.2545 13.2196C16.3934 13.2196 15.9306 13.0969 15.2255 12.8121L14.9403 12.6893L14.6389 14.4031C15.1448 14.6143 16.0812 14.8009 17.05 14.8107C19.3212 14.8156 20.8012 13.7893 20.8174 12.208ZM28.4167 14.7027L26.6729 7.07143H24.9991C24.4825 7.07143 24.0896 7.20893 23.8689 7.70491L20.6559 14.7027H22.9271C22.9271 14.7027 23.2984 13.7598 23.3792 13.5585H26.1562C26.2208 13.8286 26.4146 14.7027 26.4146 14.7027H28.4167Z" fill="#6B6B6B"/>
</g>
<defs>
<clipPath id="clip0_213_3514">
<rect width="31" height="22" fill="white"/>
</clipPath>
</defs>
</svg>
