<svg width="43" height="30" viewBox="0 0 43 30" fill="none" xmlns="http://www.w3.org/2000/svg">
<path d="M35.0943 13.3598C35.0943 13.3598 35.6616 15.8301 35.7885 16.348H33.2951C33.5415 15.757 34.4896 13.4594 34.4896 13.4594C34.4747 13.4793 34.7359 12.8551 34.8852 12.4699L35.0943 13.3598ZM43 3.3125V26.6875C43 28.4473 41.395 29.875 39.4167 29.875H3.58333C1.60503 29.875 0 28.4473 0 26.6875V3.3125C0 1.55273 1.60503 0.125 3.58333 0.125H39.4167C41.395 0.125 43 1.55273 43 3.3125ZM11.3845 19.9938L16.1026 9.6875H12.9299L9.99601 16.7266L9.675 15.2988L8.62986 10.5574C8.45816 9.9 7.92812 9.71406 7.27118 9.6875H2.44115L2.38889 9.89336C3.5684 10.159 4.62101 10.5441 5.53924 11.0289L8.21181 19.9938H11.3845ZM18.4318 20.007L20.313 9.6875H17.312L15.4382 20.007H18.4318ZM28.8757 16.6336C28.8906 15.4582 28.0844 14.5617 26.3599 13.8246C25.3073 13.3531 24.6653 13.0344 24.6653 12.5496C24.6802 12.1113 25.2102 11.6598 26.3898 11.6598C27.3677 11.6398 28.0844 11.8457 28.6219 12.0516L28.8906 12.1645L29.3012 9.9332C28.7115 9.72734 27.7708 9.49492 26.6137 9.49492C23.65 9.49492 21.5672 10.9027 21.5523 12.9082C21.5299 14.3891 23.0453 15.2125 24.18 15.7105C25.3372 16.2152 25.7328 16.5473 25.7328 16.9922C25.7179 17.6828 24.7922 18.0016 23.9337 18.0016C22.7392 18.0016 22.0972 17.8355 21.1193 17.4504L20.7236 17.2844L20.3056 19.602C21.0073 19.8875 22.3062 20.1398 23.65 20.1531C26.8003 20.1598 28.8533 18.7719 28.8757 16.6336ZM39.4167 20.007L36.9979 9.6875H34.6762C33.9595 9.6875 33.4146 9.87344 33.1085 10.5441L28.6517 20.007H31.8021C31.8021 20.007 32.3172 18.732 32.4292 18.4598H36.2812C36.3708 18.825 36.6396 20.007 36.6396 20.007H39.4167Z" fill="#B49571"/>
</svg>
