<svg width="30" height="30" viewBox="0 0 30 30" fill="none" xmlns="http://www.w3.org/2000/svg">
<g clip-path="url(#clip0_73_3356)">
<path d="M16.6101 3.20216L12.919 3.20216C12.7923 3.20663 12.6722 3.26012 12.5842 3.35135C12.4961 3.44258 12.4469 3.56443 12.4469 3.69123C12.4469 3.81803 12.4961 3.93989 12.5842 4.03112C12.6722 4.12235 12.7923 4.17583 12.919 4.18031L13.2777 4.18031L12.4484 9.96962L10.6645 12.6463C10.6106 12.7264 10.5821 12.8208 10.5826 12.9173L10.5838 22.5293C10.5838 23.0051 10.7729 23.4615 11.1093 23.798C11.4458 24.1344 11.9022 24.3235 12.378 24.3235L17.1511 24.3235C17.627 24.3235 18.0833 24.1344 18.4198 23.798C18.7563 23.4615 18.9453 23.0051 18.9453 22.5293L18.9448 12.9191C18.9453 12.8225 18.9167 12.7281 18.8629 12.648L17.079 9.97135L16.2497 4.18204L16.6084 4.18204C16.7351 4.17756 16.8552 4.12408 16.9432 4.03285C17.0313 3.94162 17.0805 3.81976 17.0805 3.69296C17.0805 3.56616 17.0313 3.44431 16.9432 3.35308C16.8552 3.26185 16.7351 3.20836 16.6084 3.20389L16.6101 3.20216ZM17.966 22.5293C17.966 22.7456 17.8801 22.953 17.7271 23.1059C17.5742 23.2588 17.3668 23.3448 17.1505 23.3448L12.3786 23.3448C12.1623 23.3448 11.9549 23.2588 11.802 23.1059C11.649 22.953 11.5631 22.7456 11.5631 22.5293L11.5631 21.7138L17.966 21.7138L17.966 22.5293ZM17.966 20.7345H11.5631V15.2543L17.966 15.2543L17.966 20.7345ZM16.1257 10.2199C16.1358 10.2922 16.1622 10.3612 16.2029 10.4218L17.9637 13.065L17.966 14.275L11.5631 14.275L11.5654 13.065L13.3285 10.4195C13.3692 10.3589 13.3956 10.2899 13.4058 10.2176L14.2686 4.178L15.2652 4.178L16.1257 10.2199Z" fill="black"/>
</g>
<defs>
<clipPath id="clip0_73_3356">
<rect width="20.8802" height="20.8802" fill="white" transform="translate(0 14.7646) rotate(-45)"/>
</clipPath>
</defs>
</svg>
