<svg width="46" height="30" viewBox="0 0 46 30" fill="none" xmlns="http://www.w3.org/2000/svg">
<g clip-path="url(#clip0_73_3228)">
<path d="M42.9333 29.9999H3.06667C2.25334 29.9999 1.47332 29.6839 0.898206 29.1213C0.323094 28.5587 0 27.7956 0 26.9999L0 14.3799H2.20928L2.70761 13.1999H3.82311L4.32017 14.3749H8.66717V13.4812L9.05561 14.3812H11.3122L11.7006 13.4662V14.3787H22.5017V12.4487H22.7061C22.8518 12.4537 22.8939 12.4662 22.8939 12.7037V14.3812H28.4817V13.9324C29.0528 14.2162 29.7262 14.3824 30.4405 14.3824L30.5619 14.3812H30.5555H32.9066L33.4101 13.2062H34.5256L35.0175 14.3812H39.5485V13.2637L40.2334 14.3812H43.8572V7.00119H40.2704V7.87244L39.7683 7.00119H36.0806V7.87244L35.6193 7.00119H30.6398C29.8854 6.96389 29.1337 7.11578 28.4561 7.44244L28.4829 7.43119V7.00119H25.0483V7.43119C24.6325 7.11063 24.1075 6.95729 23.5801 7.00244H23.5878H11.0362L10.1941 8.90869L9.32906 7.00244H5.37561V7.87369L4.93989 7.00244H1.56656L0.00383333 10.5024V3.00244C0.00383333 2.20679 0.326928 1.44373 0.902039 0.881121C1.47715 0.318512 2.25717 0.00244141 3.0705 0.00244141H42.9372C43.7505 0.00244141 44.5305 0.318512 45.1056 0.881121C45.6807 1.44373 46.0038 2.20679 46.0038 3.00244V16.1024H43.6106C43.5722 16.0999 43.5262 16.0999 43.4815 16.0999C42.9269 16.0999 42.412 16.2624 41.9827 16.5412L41.9929 16.5349V16.1024H38.4534C37.9005 16.0725 37.3534 16.2263 36.9009 16.5387L36.9086 16.5337V16.1012H30.5887V16.5337C30.0714 16.2483 29.4871 16.0992 28.8931 16.1012H28.8433H28.8458H24.6764V16.5337C24.1317 16.1923 23.4853 16.0404 22.8416 16.1024L22.8531 16.1012H18.1879L17.1197 17.2312L16.1204 16.1012H9.15144V23.4862H15.9901L17.0903 22.3387L18.1266 23.4862H22.3419V21.7574H22.9297C23.4949 21.7791 24.0586 21.6867 24.5857 21.4862L24.5576 21.4962V23.4887H28.0332V21.5649H28.2006C28.4127 21.5649 28.4344 21.5724 28.4344 21.7824V23.4899H38.9965L39.1256 23.4924C39.7312 23.4924 40.296 23.3149 40.7662 23.0112L40.7547 23.0174V23.4899H44.1051L44.2648 23.4924C44.8922 23.4924 45.4889 23.3662 46.0307 23.1374L46.0013 23.1487V27.0012C46.0013 27.7968 45.6782 28.5599 45.1031 29.1225C44.528 29.6851 43.7479 30.0012 42.9346 30.0012L42.9333 29.9999ZM26.9675 22.4512H25.6667V17.1574H28.6516C29.1907 17.1086 29.7335 17.1973 30.2271 17.4149L30.2067 17.4074C30.6066 17.6224 30.8737 18.0324 30.8737 18.5024L30.8711 18.5862V18.5824L30.8724 18.6299C30.8724 19.2374 30.498 19.7599 29.9613 19.9874L29.9511 19.9912C30.2079 20.0812 30.4226 20.2349 30.5823 20.4337L30.5849 20.4362C30.7653 20.7283 30.8408 21.071 30.7996 21.4099L30.8008 21.4024V22.4499H29.5026V21.7874C29.5641 21.4267 29.4901 21.0565 29.2943 20.7449L29.2982 20.7512C29.1633 20.651 29.009 20.5787 28.8448 20.5385C28.6805 20.4983 28.5096 20.4912 28.3424 20.5174L28.3501 20.5162H26.9675V22.4499V22.4512ZM26.9675 18.2512V19.4399H28.5392C28.7611 19.46 28.9845 19.4211 29.1857 19.3274L29.1781 19.3312C29.2603 19.2792 29.3279 19.208 29.3748 19.1239C29.4216 19.0399 29.4463 18.9457 29.4464 18.8499L29.4451 18.8212C29.4515 18.7257 29.43 18.6316 29.3831 18.5475C29.3363 18.4634 29.2661 18.394 29.1806 18.3474L29.1781 18.3462C28.9841 18.2614 28.7711 18.2269 28.5596 18.2462H28.5647L26.9675 18.2512ZM15.4356 22.4499H10.3155V17.1574H15.5161L17.1069 18.8924L18.7514 17.1574H22.8824C24.3493 17.1574 25.0623 17.7287 25.0623 18.9012C25.0623 20.0949 24.3251 20.6749 22.8134 20.6749H21.1971V22.4487H18.6837L17.0916 20.6999L15.4356 22.4499ZM19.9091 17.7249L17.9234 19.8124L19.9091 21.9674V17.7249ZM11.6048 20.2937V21.3462H14.7839L16.2533 19.7937L14.8401 18.2512H11.6035V19.2137H14.4427V20.2924L11.6048 20.2937ZM21.1971 18.2524V19.5999H22.8671C23.3782 19.5999 23.6721 19.3449 23.6721 18.8999C23.6721 18.4749 23.3987 18.2512 22.8812 18.2512L21.1971 18.2524ZM44.2456 22.4524H41.7488V21.3149H44.2354C44.4214 21.34 44.6101 21.2924 44.7606 21.1824L44.7593 21.1837C44.8073 21.1401 44.8456 21.0873 44.8717 21.0286C44.8979 20.9699 44.9114 20.9065 44.9113 20.8424V20.8224C44.9114 20.7592 44.8974 20.6966 44.8703 20.6392C44.8431 20.5818 44.8035 20.5308 44.7542 20.4899C44.6219 20.3965 44.4588 20.3546 44.2967 20.3724H44.2993L44.0603 20.3649C42.8924 20.3349 41.5699 20.2999 41.5699 18.7337C41.5699 17.9712 42.0581 17.1574 43.424 17.1574H46.0013V18.2849H43.6438C43.4617 18.265 43.2777 18.3008 43.1173 18.3874L43.1224 18.3849C43.0594 18.4256 43.0086 18.482 42.9756 18.5485C42.9425 18.6149 42.9284 18.6888 42.9346 18.7624V18.7612V18.7749C42.9346 18.8592 42.9618 18.9412 43.0123 19.0095C43.0627 19.0777 43.1339 19.1286 43.2157 19.1549L43.2183 19.1562C43.3803 19.2051 43.5499 19.2254 43.7192 19.2162H43.7153L44.4168 19.2337C44.9456 19.1821 45.4739 19.3361 45.8876 19.6624L45.8837 19.6599C45.9221 19.6899 45.9553 19.7224 45.9847 19.7587L45.9859 19.7599L46.0013 21.7749C45.7864 22.0206 45.513 22.2107 45.2053 22.3287C44.8976 22.4466 44.5649 22.4887 44.2367 22.4512L44.2456 22.4524ZM39.1997 22.4524H36.6799V21.3149H39.1869C39.3745 21.339 39.5643 21.2915 39.7172 21.1824L39.7146 21.1837C39.7623 21.14 39.8003 21.0871 39.8263 21.0284C39.8522 20.9697 39.8655 20.9064 39.8654 20.8424V20.8299C39.8653 20.7656 39.8513 20.702 39.8242 20.6434C39.7971 20.5848 39.7576 20.5325 39.7082 20.4899C39.5736 20.3964 39.4085 20.3545 39.2444 20.3724H39.2469L39.0093 20.3649C37.8452 20.3349 36.524 20.2999 36.524 18.7337C36.524 17.9712 37.0096 17.1574 38.3729 17.1574H40.9643V18.2849H38.5927C38.4119 18.2652 38.2292 18.301 38.0701 18.3874L38.0752 18.3849C38.0081 18.4301 37.9547 18.4922 37.9207 18.5646C37.8866 18.6371 37.8732 18.7171 37.8819 18.7964C37.8905 18.8756 37.9209 18.9511 37.9697 19.0149C38.0186 19.0787 38.0842 19.1284 38.1596 19.1587L38.1621 19.1599C38.3262 19.2092 38.498 19.2295 38.6694 19.2199H38.6656L39.3619 19.2374C39.8935 19.1873 40.4242 19.3415 40.8416 19.6674L40.8378 19.6637C40.9782 19.8151 41.085 19.9934 41.1514 20.1872C41.2178 20.3811 41.2424 20.5863 41.2237 20.7899V20.7837C41.2275 21.8874 40.5439 22.4499 39.1958 22.4499L39.1997 22.4524ZM35.9056 22.4524H31.5867V17.1562H35.9017V18.2499H32.8772V19.2124H35.8314V20.2912H32.8772V21.3437L35.9056 21.3487V22.4487V22.4524ZM38.4228 13.3449H35.7893L35.2858 12.1649H32.5999L32.1118 13.3449H30.5989C29.9195 13.38 29.2505 13.1706 28.7181 12.7562L28.7244 12.7599C28.4715 12.4868 28.2795 12.1652 28.1607 11.8154C28.0419 11.4657 27.9989 11.0956 28.0344 10.7287L28.0332 10.7387C28.0003 10.365 28.0454 9.98875 28.1657 9.63269C28.2861 9.27662 28.4792 8.94822 28.7334 8.66744L28.7308 8.66994C28.9992 8.44042 29.3129 8.26738 29.6525 8.16157C29.9922 8.05577 30.3504 8.01947 30.705 8.05494L30.6948 8.05369H31.947V9.18244H30.7203C30.5408 9.15982 30.3585 9.17621 30.1862 9.23044C30.0139 9.28468 29.856 9.37541 29.7237 9.49619L29.7249 9.49494C29.4517 9.8372 29.3191 10.267 29.3531 10.6999V10.6937C29.3124 11.1385 29.4402 11.5825 29.7122 11.9412L29.7083 11.9362C29.9624 12.1393 30.2875 12.2371 30.6143 12.2087H30.6092H31.1893L33.0178 8.04619H34.96L37.1488 13.0462V8.04619H39.1179L41.3898 11.7312V8.04619H42.7187V13.3362H40.8736L38.4202 9.36369V13.3362L38.4228 13.3449ZM33.9518 8.94744L33.0612 11.0574H34.8463L33.9518 8.94744ZM21.4309 13.3424H20.1378V8.04994H23.1124C23.6555 7.99482 24.2036 8.08512 24.6982 8.31119L24.679 8.30369C24.8779 8.41128 25.0437 8.56899 25.1592 8.76045C25.2747 8.95191 25.3356 9.17013 25.3358 9.39244L25.3332 9.47994V9.47619V9.51494C25.3333 9.80363 25.2483 10.0862 25.0882 10.3288C24.9282 10.5714 24.7001 10.7636 24.4311 10.8824L24.4209 10.8862C24.6777 10.9812 24.8937 11.1337 25.0585 11.3287L25.0611 11.3312C25.2434 11.6244 25.3186 11.9695 25.2744 12.3099L25.2757 12.3024V13.3412H23.9711L23.966 12.6737V12.5737C24.0124 12.2473 23.9386 11.9154 23.7577 11.6374L23.7616 11.6437C23.6262 11.5464 23.4725 11.4764 23.3094 11.4375C23.1462 11.3987 22.9768 11.3919 22.8109 11.4174L22.8186 11.4162H21.4322V13.3412L21.4309 13.3424ZM21.4309 9.15119V10.3262H23C23.2217 10.3497 23.4456 10.3107 23.6453 10.2137L23.6389 10.2162C23.7207 10.1675 23.7884 10.0991 23.8354 10.0174C23.8824 9.93575 23.9071 9.84365 23.9072 9.74994L23.9059 9.71494C23.9124 9.61996 23.8904 9.52645 23.8425 9.44359C23.7946 9.36074 23.7229 9.29342 23.6363 9.24994L23.6338 9.24869C23.4393 9.16708 23.2276 9.13277 23.0166 9.14869H23.0204L21.4309 9.15119ZM7.73822 13.3424H5.11111L4.61406 12.1624H1.9205L1.41961 13.3424H0.0140556L2.33067 8.04994H4.25117L6.45022 13.0587V8.04994H8.55983L10.2516 11.6387L11.8067 8.04994H13.9597V13.3399H12.6308L12.6283 9.19994L10.7538 13.3412H9.61911L7.7395 9.19369V13.3412L7.73822 13.3424ZM3.26089 8.94744L2.3805 11.0574H4.14639L3.26089 8.94744ZM27.3956 13.3412H26.0769V8.04994H27.3968V13.3399L27.3956 13.3412ZM19.2357 13.3412H14.9244V8.04994H19.2433V9.14994H16.2176V10.1037H19.1705V11.1899H16.215V12.2474H19.2408V13.3399L19.2357 13.3412Z" fill="#B49571"/>
</g>
<defs>
<clipPath id="clip0_73_3228">
<rect width="46" height="30" fill="white"/>
</clipPath>
</defs>
</svg>
