<svg width="22" height="22" viewBox="0 0 22 22" fill="none" xmlns="http://www.w3.org/2000/svg">
<path d="M4.42857 3H16.5714C17.9169 3 19 4.08314 19 5.42857V17.5714C19 18.9169 17.9169 20 16.5714 20H4.42857C3.08314 20 2 18.9169 2 17.5714V5.42857C2 4.08314 3.08314 3 4.42857 3Z" stroke="black" stroke-linecap="round" stroke-linejoin="round"/>
<path d="M5.64453 6.64307H6.85882" stroke="black" stroke-linecap="round" stroke-linejoin="round"/>
<path d="M8.07087 7.85728C7.74882 7.85728 7.43996 7.72935 7.21224 7.50163C6.98452 7.2739 6.85658 6.96505 6.85658 6.643C6.85658 6.32095 6.98452 6.01209 7.21224 5.78437C7.43996 5.55664 7.74882 5.42871 8.07087 5.42871C8.23033 5.42871 8.38823 5.46012 8.53556 5.52114C8.68288 5.58217 8.81674 5.67161 8.9295 5.78437C9.04226 5.89712 9.1317 6.03099 9.19272 6.17831C9.25375 6.32563 9.28516 6.48353 9.28516 6.643C9.28516 6.80246 9.25375 6.96036 9.19272 7.10768C9.1317 7.25501 9.04226 7.38887 8.9295 7.50163C8.81674 7.61438 8.68288 7.70383 8.53556 7.76485C8.38823 7.82587 8.23033 7.85728 8.07087 7.85728Z" stroke="black" stroke-linecap="round" stroke-linejoin="round"/>
<path d="M9.28516 6.64309L15.3566 6.64307" stroke="black" stroke-linecap="round" stroke-linejoin="round"/>
<path d="M15.3588 11.5H14.1445" stroke="black" stroke-linecap="round" stroke-linejoin="round"/>
<path d="M12.9291 12.7142C13.2512 12.7142 13.56 12.5863 13.7878 12.3586C14.0155 12.1308 14.1434 11.822 14.1434 11.4999C14.1434 11.1779 14.0155 10.869 13.7878 10.6413C13.56 10.4136 13.2512 10.2856 12.9291 10.2856C12.6071 10.2856 12.2982 10.4136 12.0705 10.6413C11.8428 10.869 11.7148 11.1779 11.7148 11.4999C11.7148 11.822 11.8428 12.1308 12.0705 12.3586C12.2982 12.5863 12.6071 12.7142 12.9291 12.7142Z" stroke="black" stroke-linecap="round" stroke-linejoin="round"/>
<path d="M11.716 11.5L5.64453 11.5" stroke="black" stroke-linecap="round" stroke-linejoin="round"/>
<path d="M5.64453 16.3569H6.85882" stroke="black" stroke-linecap="round" stroke-linejoin="round"/>
<path d="M8.07087 17.5716C7.74882 17.5716 7.43996 17.4437 7.21224 17.216C6.98452 16.9883 6.85658 16.6794 6.85658 16.3574C6.85658 16.0353 6.98452 15.7264 7.21224 15.4987C7.43996 15.271 7.74882 15.1431 8.07087 15.1431C8.23033 15.1431 8.38823 15.1745 8.53556 15.2355C8.68288 15.2965 8.81674 15.386 8.9295 15.4987C9.04226 15.6115 9.1317 15.7453 9.19272 15.8927C9.25375 16.04 9.28516 16.1979 9.28516 16.3574C9.28516 16.5168 9.25375 16.6747 9.19272 16.822C9.1317 16.9694 9.04226 17.1032 8.9295 17.216C8.81674 17.3287 8.68288 17.4182 8.53556 17.4792C8.38823 17.5402 8.23033 17.5716 8.07087 17.5716Z" stroke="black" stroke-linecap="round" stroke-linejoin="round"/>
<path d="M9.28516 16.357L15.3566 16.3569" stroke="black" stroke-linecap="round" stroke-linejoin="round"/>
</svg>
