<svg width="39.000000" height="103.000000" viewBox="0 0 39 103" fill="none" xmlns="http://www.w3.org/2000/svg" xmlns:xlink="http://www.w3.org/1999/xlink">
	<desc>
			Created with Pixso.
	</desc>
	<defs>
		<clipPath id="clip7_13">
			<rect id="img-1-3" width="39.000000" height="103.000000" fill="white" fill-opacity="0"/>
		</clipPath>
	</defs>
	<g clip-path="url(#clip7_13)">
		<mask id="mask7_16" mask-type="alpha" maskUnits="userSpaceOnUse" x="0.000000" y="0.000000" width="39.000000" height="103.000000">
			<rect id="rect" width="39.000000" height="103.000000" fill="#000000" fill-opacity="1.000000"/>
		</mask>
		<g mask="url(#mask7_16)">
			<path id="path" d="M38.48 93.96L39 96.85C39 100.49 36.79 103 34.06 103L4.93 103C2.2 103 0 100.49 0 96.85L0.51 93.96L0.51 55.29L0 54.45C0 51.14 1.5 48.03 4.08 45.97L10.16 41.13C11.07 40.41 11.54 39.26 11.38 38.1C11.16 36.41 11.02 34.62 10.99 32.78C10.95 31.75 10.94 30.72 10.98 29.67C11.04 27.44 11.2 25.18 11.48 22.95C11.49 22.86 11.49 22.77 11.5 22.68C11.6 21.99 11.69 21.31 11.81 20.63C11.81 20.57 11.82 20.51 11.83 20.45C12.1 18.78 12.43 17.14 12.82 15.55C12.92 15.11 12.75 14.66 12.38 14.37C12.01 14.09 11.8 13.64 11.83 13.16L12.38 6.19L26.61 6.19L27.16 13.16C27.19 13.64 26.98 14.09 26.61 14.37C26.24 14.66 26.07 15.11 26.17 15.55C26.3 16.06 26.42 16.59 26.52 17.11C26.68 17.81 26.8 18.51 26.93 19.21C27.02 19.61 27.09 20.02 27.16 20.44C27.17 20.51 27.18 20.57 27.18 20.63C27.24 20.97 27.3 21.31 27.33 21.66C27.38 22 27.44 22.34 27.49 22.68C27.49 22.78 27.51 22.86 27.51 22.95C27.6 23.77 27.7 24.6 27.77 25.42C27.8 25.8 27.84 26.2 27.87 26.59L27.94 27.89C27.98 28.49 28 29.07 28.01 29.67C28.05 30.72 28.04 31.75 28 32.78C27.97 34.62 27.83 36.41 27.61 38.1C27.45 39.26 27.92 40.41 28.83 41.13L34.91 45.97C37.49 48.03 39 51.14 39 54.45L38.48 55.29L38.48 93.96Z" fill="#B49571" fill-opacity="1.000000" fill-rule="nonzero"/>
			<path id="path" d="M26.36 0L12.62 0C12.15 0 11.77 0.37 11.77 0.84L11.77 5.33C11.77 5.8 12.15 6.18 12.62 6.18L26.36 6.18C26.83 6.18 27.2 5.8 27.2 5.33L27.2 0.84C27.2 0.37 26.83 0 26.36 0Z" fill="#B49571" fill-opacity="1.000000" fill-rule="nonzero"/>
			<path id="path" d="M28.01 29.67L10.98 29.67C11.04 27.44 11.2 25.18 11.48 22.95C11.49 22.86 11.49 22.77 11.5 22.68C11.6 21.99 11.69 21.31 11.81 20.63C11.81 20.57 11.82 20.51 11.83 20.45C12.1 18.78 12.43 17.14 12.82 15.55C12.92 15.11 12.75 14.66 12.38 14.37C12.01 14.09 11.8 13.64 11.83 13.16L12.38 6.19L26.61 6.19L27.16 13.16C27.19 13.64 26.98 14.09 26.61 14.37C26.24 14.66 26.07 15.11 26.17 15.55C26.3 16.06 26.42 16.59 26.52 17.11C26.68 17.81 26.8 18.51 26.93 19.21C27.02 19.61 27.09 20.02 27.16 20.44C27.17 20.51 27.18 20.57 27.18 20.63C27.24 20.97 27.3 21.31 27.33 21.66C27.38 22 27.44 22.34 27.49 22.68C27.49 22.78 27.51 22.86 27.51 22.95C27.6 23.77 27.7 24.6 27.77 25.42C27.8 25.8 27.84 26.2 27.87 26.59L27.94 27.89C27.98 28.49 28 29.07 28.01 29.67Z" fill="#B49571" fill-opacity="1.000000" fill-rule="nonzero"/>
			<path id="path" d="M19.5 57.19L2 56.73L1.09 54.25C1.17 51.35 2.45 48.59 4.72 46.78L9.48 42.99L29.5 42.99L34.25 46.78C36.53 48.59 37.87 51.26 37.95 54.15L36.98 56.73L19.5 57.19Z" fill="#FFF7ED" fill-opacity="1.000000" fill-rule="nonzero"/>
			<path id="path" d="M19.5 99.69C14.61 99.68 9.77 100.43 4.93 101.97C2.73 101.97 1.06 99.81 1.04 96.94L1.95 91.84L19.51 93.39L37.06 91.84L37.97 96.94C37.94 99.81 36.27 101.97 34.08 101.97C29.25 100.43 24.36 99.68 19.5 99.69Z" fill="#FFF7ED" fill-opacity="1.000000" fill-rule="nonzero"/>
			<path id="path" d="M38.48 55.29L0.51 55.29L0.51 93.97L38.48 93.97L38.48 55.29Z" fill="#B49571" fill-opacity="1.000000" fill-rule="nonzero"/>
			<path id="path" d="M16.55 59.42C16.55 59.42 16.63 59.54 16.57 59.76C16.51 59.98 16.26 60.27 15.82 60.37C15.61 60.43 15.34 60.43 15.06 60.31C14.77 60.18 14.56 59.91 14.44 59.59C14.23 58.95 14.47 58.04 15.31 57.65C16.08 57.29 17.11 57.47 17.79 58.17C18.47 58.81 18.85 59.98 18.37 61C17.97 62.01 16.76 62.75 15.62 62.63C15.06 62.61 14.51 62.43 14.04 62.2C13.52 61.99 13.11 61.71 12.68 61.43C11 60.34 9.48 59.16 8.01 58.64C6.53 58.11 5.05 58.54 4.48 59.5C3.83 60.44 4.35 61.41 4.86 61.79C5.39 62.17 5.81 62.1 5.83 62.22C5.86 62.27 5.39 62.55 4.62 62.2C4.25 62.01 3.84 61.67 3.6 61.1C3.35 60.54 3.36 59.74 3.74 59.07C4.41 57.64 6.55 56.95 8.35 57.57C10.17 58.17 11.7 59.35 13.36 60.42C13.77 60.68 14.17 60.94 14.56 61.11C14.94 61.32 15.33 61.44 15.71 61.46C16.47 61.53 17.07 61.14 17.36 60.57C17.66 60.01 17.48 59.32 17.09 58.9C16.73 58.45 16.09 58.32 15.67 58.47C15.26 58.6 15.05 59.08 15.12 59.43C15.19 59.79 15.47 59.95 15.78 59.93C16.41 59.89 16.46 59.4 16.55 59.42Z" fill="#FFF7ED" fill-opacity="1.000000" fill-rule="nonzero"/>
			<path id="path" d="M22.44 59.42C22.44 59.42 22.36 59.54 22.42 59.76C22.48 59.98 22.73 60.27 23.17 60.37C23.38 60.43 23.65 60.43 23.93 60.31C24.22 60.18 24.43 59.91 24.55 59.59C24.76 58.95 24.52 58.04 23.68 57.65C22.91 57.29 21.88 57.47 21.2 58.17C20.52 58.81 20.14 59.98 20.62 61C21.02 62.01 22.23 62.75 23.37 62.63C23.93 62.61 24.48 62.43 24.95 62.2C25.47 61.99 25.88 61.71 26.31 61.43C27.99 60.34 29.51 59.16 30.98 58.64C32.46 58.11 33.94 58.54 34.51 59.5C35.16 60.44 34.64 61.41 34.13 61.79C33.6 62.17 33.18 62.1 33.16 62.22C33.13 62.27 33.6 62.55 34.37 62.2C34.74 62.01 35.15 61.67 35.39 61.1C35.64 60.54 35.63 59.74 35.25 59.07C34.58 57.64 32.44 56.95 30.64 57.57C28.82 58.17 27.29 59.35 25.63 60.42C25.22 60.68 24.82 60.94 24.43 61.11C24.05 61.32 23.66 61.44 23.28 61.46C22.52 61.53 21.92 61.14 21.63 60.57C21.33 60.01 21.51 59.32 21.9 58.9C22.26 58.45 22.9 58.32 23.32 58.47C23.73 58.6 23.94 59.08 23.87 59.43C23.8 59.79 23.52 59.95 23.21 59.93C22.58 59.89 22.53 59.4 22.44 59.42Z" fill="#FFF7ED" fill-opacity="1.000000" fill-rule="nonzero"/>
			<path id="path" d="M19.5 89.41C16.4 89.41 13.39 90.69 10.14 90.68C8.52 90.72 6.89 90.28 5.56 89.36C4.2 88.49 3.32 86.86 3.29 85.31C3.25 83.76 3.7 82.36 4.22 81.12C4.74 79.87 5.29 78.73 5.6 77.58C6.4 75.27 5.39 73.21 4.29 71.4C3.2 69.62 2.27 67.64 2.62 65.79C2.79 64.9 3.26 64.08 3.94 63.64C4.29 63.44 4.64 63.26 5.03 63.23C5.4 63.2 5.76 63.29 6.07 63.42C6.67 63.7 7.09 64.26 7.07 64.82C7.05 65.35 6.79 65.73 6.52 65.94C5.94 66.38 5.52 66.14 5.56 66.14C5.56 66.07 5.93 66.18 6.35 65.77C6.55 65.57 6.73 65.23 6.71 64.84C6.71 64.46 6.37 64.06 5.88 63.87C5.64 63.79 5.37 63.74 5.09 63.78C4.82 63.81 4.55 63.98 4.28 64.13C3.76 64.5 3.41 65.17 3.29 65.93C3.17 66.69 3.32 67.54 3.63 68.39C3.95 69.25 4.45 70.09 5.02 70.99C5.3 71.44 5.57 71.93 5.85 72.42C5.97 72.68 6.1 72.95 6.23 73.22C6.35 73.49 6.48 73.76 6.54 74.07C6.98 75.25 6.91 76.64 6.57 77.89C5.93 80.41 4.28 82.71 4.41 85.31C4.45 86.57 5.1 87.74 6.21 88.46C7.32 89.2 8.7 89.6 10.14 89.54C13.04 89.56 16.08 88.28 19.5 88.25C22.91 88.26 25.95 89.56 28.85 89.54C30.28 89.6 31.67 89.2 32.78 88.46C33.89 87.74 34.54 86.57 34.58 85.31C34.7 82.71 33.06 80.42 32.42 77.89C32.08 76.64 32.01 75.25 32.45 74.07C32.51 73.76 32.64 73.49 32.76 73.22C32.89 72.95 33.01 72.68 33.14 72.42C33.42 71.94 33.7 71.44 33.97 70.99C34.54 70.09 35.04 69.26 35.36 68.39C35.67 67.54 35.82 66.69 35.7 65.93C35.59 65.18 35.23 64.5 34.71 64.13C34.45 63.97 34.18 63.81 33.9 63.78C33.62 63.74 33.35 63.79 33.11 63.87C32.64 64.06 32.3 64.46 32.28 64.84C32.26 65.23 32.44 65.58 32.64 65.77C33.05 66.18 33.43 66.07 33.43 66.14C33.47 66.14 33.05 66.38 32.47 65.94C32.2 65.73 31.94 65.36 31.92 64.82C31.9 64.27 32.31 63.71 32.92 63.42C33.22 63.29 33.57 63.2 33.96 63.23C34.35 63.25 34.7 63.44 35.05 63.64C35.75 64.08 36.2 64.9 36.37 65.79C36.73 67.64 35.79 69.62 34.7 71.4C33.61 73.21 32.6 75.28 33.39 77.58C33.7 78.73 34.25 79.87 34.77 81.12C35.28 82.37 35.75 83.77 35.7 85.31C35.67 86.86 34.79 88.49 33.43 89.36C32.1 90.28 30.47 90.72 28.85 90.68C25.6 90.68 22.59 89.4 19.5 89.41Z" fill="#FFF7ED" fill-opacity="1.000000" fill-rule="nonzero"/>
			<path id="path" d="M17.3 26.33C17.3 26.33 17.24 26.33 17.16 26.28C17.08 26.24 16.95 26.14 16.88 25.97C16.83 25.89 16.77 25.79 16.77 25.67C16.75 25.56 16.73 25.43 16.77 25.29C16.8 25.15 16.83 25 16.95 24.87C17.03 24.71 17.18 24.62 17.34 24.53C17.64 24.37 18.12 24.29 18.51 24.56C18.9 24.82 19.08 25.3 19.07 25.78C19.07 26.26 18.77 26.78 18.32 27.04C17.88 27.31 17.35 27.38 16.83 27.33C15.79 27.14 15.06 26.48 14.49 25.96C13.93 25.43 13.31 25.1 12.9 25.38C12.49 25.63 12.44 26.13 12.58 26.39C12.71 26.66 12.89 26.75 12.85 26.81C12.85 26.83 12.62 26.81 12.37 26.52C12.12 26.26 12.03 25.49 12.65 25.03C12.96 24.8 13.42 24.76 13.8 24.9C14.19 25.03 14.52 25.28 14.84 25.53C15.44 26.05 16.12 26.59 16.9 26.73C17.29 26.78 17.7 26.73 17.99 26.54C18.3 26.35 18.46 26.08 18.49 25.77C18.51 25.45 18.39 25.14 18.19 25C17.99 24.83 17.71 24.87 17.5 24.94C17.04 25.14 16.98 25.63 17.09 25.9C17.16 26.19 17.35 26.27 17.3 26.33Z" fill="#FFF7ED" fill-opacity="1.000000" fill-rule="nonzero"/>
			<path id="path" d="M21.69 26.33C21.69 26.33 21.75 26.33 21.83 26.28C21.91 26.24 22.04 26.14 22.11 25.97C22.16 25.89 22.22 25.79 22.22 25.67C22.24 25.56 22.26 25.43 22.22 25.29C22.19 25.15 22.16 25 22.04 24.87C21.96 24.71 21.81 24.62 21.65 24.53C21.35 24.37 20.87 24.29 20.48 24.56C20.09 24.82 19.91 25.3 19.92 25.78C19.92 26.26 20.22 26.78 20.67 27.04C21.11 27.31 21.64 27.38 22.16 27.33C23.2 27.14 23.93 26.48 24.5 25.96C25.06 25.43 25.68 25.1 26.09 25.38C26.5 25.63 26.55 26.13 26.41 26.39C26.28 26.66 26.1 26.75 26.14 26.81C26.14 26.83 26.37 26.81 26.62 26.52C26.88 26.26 26.96 25.49 26.34 25.03C26.03 24.8 25.57 24.76 25.19 24.9C24.8 25.03 24.47 25.28 24.15 25.53C23.55 26.05 22.87 26.59 22.09 26.73C21.7 26.78 21.29 26.73 21 26.54C20.69 26.35 20.53 26.08 20.5 25.77C20.48 25.45 20.6 25.14 20.8 25C21 24.83 21.28 24.87 21.49 24.94C21.95 25.14 22.01 25.63 21.9 25.9C21.83 26.19 21.64 26.27 21.69 26.33Z" fill="#FFF7ED" fill-opacity="1.000000" fill-rule="nonzero"/>
			<path id="path" d="M27.51 22.95C27.51 22.95 27.39 22.88 27.32 22.85C27.12 22.78 26.88 22.79 26.59 22.9C26.3 22.99 26 23.19 25.57 23.36C25.19 23.53 24.52 23.53 24.08 23.2C23.65 22.92 23.25 22.56 22.89 22.63C22.5 22.64 22.08 23.23 21.31 23.31C20.6 23.37 19.95 23 19.5 22.96C19.04 23 18.39 23.37 17.68 23.31C16.91 23.23 16.49 22.64 16.1 22.63C15.74 22.56 15.34 22.92 14.91 23.2C14.47 23.53 13.8 23.53 13.42 23.36C13 23.19 12.69 22.99 12.4 22.9C12.12 22.79 11.87 22.78 11.67 22.85C11.6 22.88 11.53 22.91 11.48 22.95C11.49 22.86 11.49 22.77 11.5 22.68C11.73 22.55 12.16 22.48 12.5 22.57C12.84 22.65 13.19 22.84 13.56 22.95C13.93 23.05 14.27 23.05 14.64 22.78C14.84 22.63 15.04 22.49 15.25 22.33C15.47 22.17 15.81 22.03 16.17 22.07C16.9 22.2 17.27 22.72 17.74 22.71C18.22 22.76 18.71 22.47 19.5 22.34C20.28 22.47 20.77 22.76 21.25 22.71C21.72 22.72 22.09 22.2 22.82 22.07C23.18 22.03 23.52 22.17 23.74 22.33C23.95 22.49 24.15 22.63 24.35 22.78C24.72 23.05 25.06 23.05 25.43 22.95C25.8 22.84 26.15 22.65 26.49 22.57C26.83 22.48 27.18 22.5 27.4 22.63C27.4 22.74 27.51 22.86 27.51 22.95Z" fill="#FFF7ED" fill-opacity="1.000000" fill-rule="nonzero"/>
			<path id="path" d="M27.18 20.63C27.13 20.67 27.06 20.72 26.99 20.77C26.8 20.89 26.55 20.96 26.25 21.07C25.96 21.14 25.6 21.21 25.2 21.19C24.38 21.25 23.53 20.64 22.69 20.84C22.25 20.93 21.76 21.15 21.14 21.2C20.83 21.2 20.54 21.17 20.25 21.11C20 21.05 19.75 20.98 19.5 20.92C19.24 20.98 18.99 21.05 18.74 21.11C18.45 21.17 18.16 21.21 17.85 21.2C17.23 21.15 16.74 20.93 16.3 20.84C15.46 20.64 14.61 21.25 13.79 21.19C13.39 21.21 13.03 21.14 12.74 21.07C12.44 20.96 12.19 20.89 12 20.77C11.93 20.72 11.86 20.67 11.81 20.63C11.81 20.57 11.82 20.51 11.83 20.45C12.2 20.6 12.84 20.86 13.76 20.77C13.93 20.73 14.12 20.71 14.3 20.67C14.5 20.62 14.68 20.55 14.9 20.49C15.29 20.35 15.85 20.17 16.4 20.29C16.93 20.38 17.41 20.58 17.88 20.6C18.11 20.6 18.36 20.57 18.62 20.52C18.9 20.44 19.2 20.36 19.5 20.29C19.79 20.36 20.09 20.44 20.37 20.52C20.63 20.57 20.88 20.6 21.11 20.6C21.58 20.58 22.06 20.38 22.59 20.29C23.14 20.17 23.7 20.35 24.09 20.49C24.31 20.55 24.49 20.62 24.69 20.67C24.87 20.71 25.06 20.73 25.23 20.77C26.15 20.86 26.79 20.6 27.16 20.45C27.17 20.51 27.18 20.57 27.18 20.63Z" fill="#FFF7ED" fill-opacity="1.000000" fill-rule="nonzero"/>
			<path id="path" d="M19.5 71.86C15.89 71.86 12.29 72.28 8.77 73.12C8.31 71.2 7.84 69.28 7.39 67.36C11.36 66.41 15.44 65.93 19.5 65.93C23.55 65.93 27.63 66.41 31.6 67.36C31.15 69.28 30.68 71.2 30.22 73.12C26.69 72.28 23.1 71.86 19.5 71.86Z" fill="#FFF7ED" fill-opacity="1.000000" fill-rule="nonzero"/>
			<path id="path" d="M26.89 75.78C26.79 76.16 23.5 75.55 19.5 75.31C15.49 75.54 12.2 76.16 12.1 75.78C12.03 75.51 15.22 74.34 19.5 74.1C23.77 74.34 26.96 75.51 26.89 75.78Z" fill="#FFF7ED" fill-opacity="1.000000" fill-rule="nonzero"/>
			<path id="path" d="M26.51 79.2C26.43 79.58 23.32 79.2 19.5 79.13C15.67 79.2 12.56 79.58 12.48 79.2C12.41 78.92 15.52 77.98 19.5 77.91C23.47 77.98 26.58 78.92 26.51 79.2Z" fill="#FFF7ED" fill-opacity="1.000000" fill-rule="nonzero"/>
			<path id="path" d="M28.13 82.98C28.07 83.16 27.09 82.96 25.55 82.66C24 82.39 21.85 82.08 19.48 82.02C17.11 82.08 14.97 82.39 13.42 82.66C11.88 82.96 10.91 83.15 10.84 82.98C10.78 82.84 11.67 82.35 13.21 81.82C14.75 81.32 16.97 80.88 19.48 80.8C21.99 80.86 24.21 81.32 25.76 81.82C27.3 82.35 28.18 82.84 28.13 82.98Z" fill="#FFF7ED" fill-opacity="1.000000" fill-rule="nonzero"/>
			<path id="path" d="M28.47 86.3C28.41 86.47 27.39 86.3 25.78 85.98C24.19 85.7 21.9 85.36 19.5 85.18C17.09 85.35 14.8 85.7 13.21 85.98C11.6 86.29 10.58 86.46 10.52 86.3C10.47 86.14 11.4 85.68 13 85.15C14.61 84.65 16.84 84.15 19.5 83.97C22.13 84.15 24.38 84.63 26 85.15C27.59 85.68 28.53 86.14 28.47 86.3Z" fill="#FFF7ED" fill-opacity="1.000000" fill-rule="nonzero"/>
			<g opacity="0.400000">
				<path id="path" d="M6.3 99.53C6.3 99.62 6.07 99.7 5.6 99.74C5.16 99.72 4.34 99.54 3.73 98.76C2.46 97.23 2.53 94.48 2.45 91.84C2 86.04 2.17 78.08 2.18 69.36C2.14 67.2 2.12 65.07 2.08 63.03C2.02 60.99 1.9 58.98 1.95 57.01C2.01 55.04 2.22 53.13 2.79 51.37C2.95 50.93 3.09 50.5 3.27 50.09C3.5 49.68 3.73 49.28 3.95 48.9C4.47 48.19 5.02 47.53 5.6 47.05C6.75 46.01 7.81 45.3 8.71 44.61C9.15 44.27 9.55 43.94 9.92 43.65C10.27 43.33 10.59 43.04 10.88 42.78C12 41.69 12.58 41.01 12.77 41.13C12.91 41.21 12.63 42.1 11.69 43.49C11.45 43.81 11.18 44.2 10.85 44.59C10.5 44.96 10.12 45.36 9.72 45.78C8.9 46.59 7.88 47.46 6.98 48.44C6.05 49.45 5.31 50.5 4.97 52.02C4.59 53.51 4.47 55.21 4.48 57.03C4.48 58.86 4.66 60.83 4.76 62.91C4.81 65 4.85 67.15 4.91 69.35C4.9 78.17 4.43 86.06 4.37 91.74C4.34 93.32 4.14 94.51 4.16 95.61C4.15 96.68 4.3 97.56 4.59 98.15C4.89 98.74 5.35 99 5.7 99.19C6.06 99.31 6.3 99.44 6.3 99.53Z" fill="#FFFFFF" fill-opacity="1.000000" fill-rule="nonzero"/>
			</g>
			<g opacity="0.300000">
				<path id="path" d="M14.61 12.92C14.84 12.83 15.65 14.28 15.52 16.79C15.48 18.02 15.26 19.45 14.99 20.97C14.74 22.49 14.57 24.14 14.29 25.87C14.23 26.75 14.18 27.61 14.12 28.43C14.07 29.26 13.96 30.05 14 30.82C14.04 32.34 13.95 33.72 14 34.88C14.13 37.19 14.07 38.67 13.79 38.72C13.51 38.78 13.05 37.37 12.55 35.02C12.3 33.85 12.24 32.42 12.1 30.83C12.01 30.03 12.08 29.2 12.1 28.33C12.15 27.47 12.19 26.58 12.23 25.65C12.51 23.84 12.76 22.09 13.12 20.57C13.5 19.05 13.86 17.74 14.06 16.62C14.53 14.41 14.31 13.02 14.61 12.92Z" fill="#FFFFFF" fill-opacity="1.000000" fill-rule="nonzero"/>
			</g>
		</g>
	</g>
</svg>
