<svg width="55.000000" height="102.000000" viewBox="0 0 55 102" fill="none" xmlns="http://www.w3.org/2000/svg" xmlns:xlink="http://www.w3.org/1999/xlink">
	<desc>
			Created with Pixso.
	</desc>
	<defs>
		<clipPath id="clip7_194">
			<rect id="img-1-11" width="55.000000" height="102.000000" fill="white" fill-opacity="0"/>
		</clipPath>
	</defs>
	<g clip-path="url(#clip7_194)">
		<path id="path" d="M2.08 67.84C1.6 76.97 1.67 84.4 1.8 91.58C1.84 93.56 28.43 93.56 28.47 91.58C28.6 84.4 28.67 76.97 28.19 67.84C27.88 61.98 2.39 61.98 2.08 67.84ZM24.17 85.77C14.83 89.08 6.21 85.77 6.21 85.77L6.21 82.45L24.17 82.45L24.17 85.77ZM21.09 71.83C21.09 73.46 20.43 74.94 19.36 76.02L26.45 76.02L26.45 81.16L3.93 81.16L3.93 76.02L10.92 76.02C9.85 74.94 9.19 73.46 9.19 71.83C9.19 68.54 11.85 65.88 15.13 65.88C18.41 65.88 21.09 68.55 21.09 71.83Z" fill="#B49571" fill-opacity="1.000000" fill-rule="nonzero"/>
		<path id="path" d="M10.64 71.8C10.64 74.29 12.66 76.31 15.15 76.31C17.63 76.31 19.65 74.29 19.65 71.8C19.65 69.32 17.63 67.3 15.15 67.3C12.66 67.3 10.64 69.32 10.64 71.8ZM18.22 71.86C18.22 73.57 16.84 74.94 15.15 74.94C13.45 74.94 12.07 73.56 12.07 71.86C12.07 70.17 13.45 68.79 15.15 68.79C16.84 68.79 18.22 70.17 18.22 71.86Z" fill="#B49571" fill-opacity="1.000000" fill-rule="nonzero"/>
		<path id="path" d="M15.13 33.89C13.43 33.89 12.06 36.33 12.06 39.33C12.06 42.34 13.44 44.78 15.13 44.78C16.83 44.78 18.21 42.34 18.21 39.33C18.21 36.33 16.83 33.89 15.13 33.89ZM15.13 43.02C13.99 43.02 13.08 41.4 13.08 39.38C13.08 37.36 14 35.74 15.13 35.74C16.26 35.74 17.19 37.36 17.19 39.38C17.19 41.4 16.26 43.02 15.13 43.02Z" fill="#B49571" fill-opacity="1.000000" fill-rule="nonzero"/>
		<path id="path" d="M10.78 40.07C10.9 43.88 12.81 46.91 15.15 46.91C17.48 46.91 19.43 43.79 19.51 39.91C20.86 39.15 21.64 37.97 21.19 36.36C20.05 32.33 19.31 25.83 19.42 13.54L20.19 13.54C20.84 13.54 21.36 13.09 21.36 12.51L21.36 2.45C21.36 1.09 20.12 0 18.59 0L11.69 0C10.16 0 8.92 1.09 8.92 2.45L8.92 12.51C8.92 13.08 9.45 13.54 10.09 13.54L10.86 13.54C10.97 26.13 10.2 32.64 9.01 36.64C8.54 38.22 9.37 39.36 10.78 40.07ZM19.03 39.33C19.03 42.84 17.32 45.59 15.13 45.59C12.95 45.59 11.24 42.84 11.24 39.33C11.24 35.83 12.95 33.08 15.13 33.08C17.32 33.08 19.03 35.83 19.03 39.33ZM10.72 3L10.02 7.48L10.02 2.25C10.02 1.6 10.53 1.09 11.18 1.09L17.82 1.09L11.83 1.92C11.27 2 10.82 2.43 10.72 3ZM11.69 15.36L13.13 15.36C13.13 31.32 9.88 37.89 9.88 37.89C9.88 37.89 12.03 27.61 11.69 15.36Z" fill="#B49571" fill-opacity="1.000000" fill-rule="nonzero"/>
		<path id="path" d="M50.39 39.32L36.2 39.36C36.15 40.02 36.12 40.73 36.07 41.48L50.51 41.48C50.47 40.72 50.44 39.98 50.39 39.32Z" fill="#B49571" fill-opacity="1.000000" fill-rule="nonzero"/>
		<path id="path" d="M44.62 100.14C44.62 100.14 43.18 80.33 44.12 74.07C55.04 72.25 50.81 33.8 50.81 33.8L35.78 33.8C35.78 33.8 31.55 72.25 42.47 74.07C43.4 80.32 41.97 100.14 41.97 100.14C41.97 100.14 41.27 101.11 32.03 101.11L32.03 101.49L54.56 101.49L54.56 101.11C45.32 101.11 44.62 100.14 44.62 100.14ZM42.58 100.69C42.41 100.87 40.19 100.9 40.19 100.9C40.19 100.9 42 100.56 42.23 100.32C42.45 100.08 42.58 96.45 42.58 96.45C42.58 96.45 42.75 100.51 42.58 100.69ZM36.15 34.42L50.44 34.42C50.44 34.42 54.65 72.76 43.3 72.76C31.95 72.76 36.15 34.42 36.15 34.42ZM44.24 100.69C42.91 92.22 43.64 74.12 43.64 74.12C43.64 74.12 43.3 74.12 42.8 73.93C43.21 74.01 43.67 73.97 43.88 73.93C43.6 75.19 43.59 88.62 43.71 91.54C43.89 95.71 44.43 100.3 44.63 100.45C45.01 100.75 46.65 100.98 46.65 100.98C46.65 100.98 44.45 100.96 44.24 100.69Z" fill="#B49571" fill-opacity="1.000000" fill-rule="nonzero"/>
		<path id="path" d="M49.84 38.65C50.09 38.63 50.24 38.1 50.18 37.47C50.14 36.84 49.88 36.34 49.64 36.37C49.4 36.39 49.24 36.92 49.3 37.54C49.34 38.18 49.6 38.67 49.84 38.65Z" fill="#B49571" fill-opacity="1.000000" fill-rule="nonzero"/>
		<path id="path" d="M50.11 36.37C50.23 36.37 50.32 36.09 50.29 35.78C50.27 35.47 50.15 35.21 50.02 35.23C49.9 35.23 49.81 35.5 49.84 35.81C49.86 36.13 49.98 36.38 50.11 36.37Z" fill="#B49571" fill-opacity="1.000000" fill-rule="nonzero"/>
		<path id="path" d="M22.09 38.82C21.79 39.47 21.3 40.06 20.61 40.54C20.32 44.79 17.99 48.04 15.13 48.04C12.27 48.04 10.02 44.94 9.68 40.74C9.39 40.56 9.15 40.36 8.92 40.14C8.92 43.03 6.63 44.72 4.94 51.54C4.48 53.38 4 56.49 3.54 60.63C3.53 60.76 2.4 61.3 1.93 61.79C2.34 57.3 2.9 53.28 3.66 50.37C5.27 44.66 7.57 44.7 8.92 40.14C8.57 39.8 8.3 39.43 8.11 39.02C6.5 42.51 4.45 43.73 2.77 48.66C-0.16 57.23 0.44 89.35 0.68 98.83C0.72 100.31 1.93 101.47 3.41 101.47L26.89 101.47C28.37 101.47 29.58 100.31 29.62 98.83C29.86 89.35 30.46 57.23 27.53 48.66C25.81 43.65 23.72 42.47 22.09 38.82ZM25.28 45.11C25.51 45.04 25.87 45.48 26.08 46.11C26.28 46.73 26.27 47.3 26.04 47.38C25.81 47.47 25.45 47.01 25.25 46.39C25.04 45.76 25.06 45.2 25.28 45.11ZM26.12 49.28C25.98 49.33 25.76 49.05 25.63 48.67C25.5 48.28 25.51 47.94 25.66 47.89C25.8 47.84 26.02 48.12 26.15 48.5C26.28 48.88 26.27 49.23 26.12 49.28ZM2.58 98.12C2.23 97.81 1.94 96.48 1.72 94.46C1.74 94.55 3.35 94.84 3.37 94.93C3.55 95.67 3.69 96.03 3.93 96.56C5.78 98.88 26.08 99.24 26.08 99.24C26.08 99.24 4.54 99.88 2.58 98.12ZM29.01 64.04C29.51 73.75 29.44 85.59 29.31 93.21C29.27 94.94 10.26 95.25 3.41 94.13C3.33 94.12 2 93.85 1.63 93.73C1.21 93.57 0.97 93.4 0.97 93.21C0.84 85.59 0.75 73.75 1.27 64.04C1.3 63.54 1.51 63.08 1.86 62.66C2.65 61.89 3.58 61.36 3.64 61.34C10.29 58.01 28.73 58.9 29.01 64.04Z" fill="#B49571" fill-opacity="1.000000" fill-rule="nonzero"/>
		<path id="path" d="M50.56 41.88L36.03 41.88C35.47 52.56 35.41 71.82 43.3 71.82C51.19 71.82 51.13 52.56 50.56 41.88ZM44.05 67.09C43.91 67.09 43.81 66.99 43.81 66.85C43.81 66.72 43.91 66.61 44.05 66.61C44.18 66.61 44.29 66.72 44.29 66.85C44.29 66.99 44.18 67.09 44.05 67.09ZM45.31 57.06C45.06 57.06 44.85 56.86 44.85 56.61C44.85 56.36 45.06 56.15 45.31 56.15C45.56 56.15 45.76 56.36 45.76 56.61C45.76 56.86 45.56 57.06 45.31 57.06ZM48.47 54.6C48.26 54.6 48.11 54.43 48.11 54.24C48.11 54.05 48.27 53.88 48.47 53.88C48.66 53.88 48.83 54.05 48.83 54.24C48.83 54.43 48.66 54.6 48.47 54.6ZM48.53 51.07C48.84 51.07 49.09 51.32 49.09 51.64C49.09 51.95 48.84 52.2 48.53 52.2C48.21 52.2 47.96 51.95 47.96 51.64C47.96 51.32 48.21 51.07 48.53 51.07ZM47.41 59.67C47.66 59.67 47.87 59.88 47.87 60.13C47.87 60.38 47.66 60.58 47.41 60.58C47.16 60.58 46.95 60.38 46.95 60.13C46.95 59.88 47.16 59.67 47.41 59.67ZM46.56 65.38C46.71 65.38 46.83 65.5 46.83 65.65C46.83 65.81 46.71 65.93 46.56 65.93C46.4 65.93 46.28 65.81 46.28 65.65C46.28 65.5 46.4 65.38 46.56 65.38ZM45.58 45.18C45.9 45.18 46.15 45.44 46.15 45.75C46.15 46.06 45.9 46.31 45.58 46.31C45.27 46.31 45.02 46.06 45.02 45.75C45.02 45.44 45.27 45.18 45.58 45.18ZM45 47.59C45.2 47.59 45.37 47.76 45.37 47.96C45.37 48.16 45.2 48.33 45 48.33C44.79 48.33 44.62 48.16 44.62 47.96C44.62 47.76 44.79 47.59 45 47.59ZM44.23 51.48C44.43 51.48 44.59 51.65 44.59 51.84C44.59 52.03 44.42 52.2 44.23 52.2C44.03 52.2 43.87 52.03 43.87 51.84C43.87 51.65 44.03 51.48 44.23 51.48ZM43.85 61.45C44.11 61.45 44.32 61.65 44.32 61.92C44.32 62.18 44.12 62.39 43.85 62.39C43.59 62.39 43.39 62.18 43.39 61.92C43.39 61.65 43.59 61.45 43.85 61.45ZM41.75 58.63C41.75 58.78 41.62 58.91 41.46 58.91C41.31 58.91 41.18 58.78 41.18 58.63C41.18 58.47 41.31 58.34 41.46 58.34C41.62 58.34 41.75 58.47 41.75 58.63ZM40.8 46.45C41.12 46.45 41.37 46.7 41.37 47.01C41.37 47.32 41.12 47.58 40.8 47.58C40.49 47.58 40.24 47.32 40.24 47.01C40.24 46.7 40.49 46.45 40.8 46.45ZM40.83 54.04C40.83 54.28 40.63 54.47 40.39 54.47C40.15 54.47 39.96 54.28 39.96 54.04C39.96 53.8 40.15 53.61 40.39 53.61C40.63 53.61 40.83 53.8 40.83 54.04ZM39.67 50.15C39.99 50.15 40.24 50.4 40.24 50.71C40.24 51.02 39.99 51.27 39.67 51.27C39.36 51.27 39.11 51.02 39.11 50.71C39.11 50.4 39.36 50.15 39.67 50.15ZM37.25 42.52L38.94 42.52C36.96 63.83 42.81 71.37 42.81 71.37C42.81 71.37 35.52 69.15 37.25 42.52ZM42.75 54.95C42.75 54.72 42.93 54.54 43.16 54.54C43.39 54.54 43.57 54.72 43.57 54.95C43.57 55.18 43.39 55.36 43.16 55.36C42.93 55.36 42.75 55.18 42.75 54.95Z" fill="#B49571" fill-opacity="1.000000" fill-rule="nonzero"/>
	</g>
</svg>
