<svg width="55" height="102" viewBox="0 0 55 102" fill="none" xmlns="http://www.w3.org/2000/svg">
<path d="M41.5625 72.909C41.6349 72.909 41.6952 72.909 41.7555 72.909C41.8158 72.909 41.8882 72.909 41.9485 72.909C56.482 72.6919 54.0095 56.8075 51.5852 48.1718C51.5611 48.0994 31.9137 48.1718 31.9137 48.1718C29.4894 56.7955 27.0048 72.6919 41.5504 72.909H41.5625ZM33.0233 48.6904H35.3028C29.7547 66.6614 38.8367 72.2698 38.8367 72.2698C38.8367 72.2698 27.5596 69.6767 33.0233 48.6904Z" fill="#404040"/>
<path d="M49.5348 44.5536C49.7278 44.4933 49.7639 44.0712 49.6071 43.6008C49.4624 43.1304 49.185 42.8048 48.992 42.8651C48.799 42.9254 48.7629 43.3475 48.9197 43.8179C49.0644 44.2883 49.3418 44.6139 49.5348 44.5416V44.5536Z" fill="#404040"/>
<path d="M50.2947 45.4823C50.4033 45.4461 50.4153 45.2169 50.3309 44.9637C50.2465 44.7104 50.1017 44.5295 49.9932 44.5656C49.8846 44.6018 49.8726 44.831 49.957 45.0843C50.0414 45.3376 50.1862 45.5185 50.2947 45.4823Z" fill="#404040"/>
<path d="M43.4318 99.4313C43.4318 99.4313 41.7915 81.5568 42.8891 74.489C63.5497 73.488 50.5841 41.7915 50.5841 41.7915H32.9146C32.9146 41.7915 19.7921 73.7774 40.9955 74.5011C42.093 81.5689 40.4527 99.4313 40.4527 99.4313C40.4527 99.4313 39.6809 100.577 29.3325 100.577V101.011H54.5401V100.577C44.2037 100.577 43.4198 99.4313 43.4198 99.4313H43.4318ZM41.1282 99.8534C40.9352 100.058 38.7763 100.239 38.7763 100.239C38.7763 100.239 40.308 99.8535 40.5613 99.576C40.8146 99.2866 41.0558 95.1134 41.0558 95.1134C41.0558 95.1134 41.3212 99.6484 41.1282 99.8655V99.8534ZM33.4091 42.1051H50.1016C50.1016 42.1051 62.7174 73.1382 41.9604 73.4518C41.888 73.4518 41.8277 73.4518 41.7553 73.4518C41.683 73.4518 41.6227 73.4518 41.5503 73.4518C20.7932 73.1382 33.4091 42.1051 33.4091 42.1051ZM42.7202 100.022C41.1402 95.7889 42.3343 74.7664 42.3343 74.7664C42.3343 74.7664 41.9604 74.7664 41.3935 74.5373C42.0448 74.682 42.8529 74.489 42.684 74.5373C42.684 74.5373 42.3464 80.8693 42.2981 84.5359C42.2257 89.4327 42.5152 95.9818 43.2992 99.7931C43.7092 100.143 45.6993 100.42 45.6993 100.42C45.6993 100.42 42.9494 100.348 42.7202 100.034V100.022Z" fill="#404040"/>
<path d="M15.1848 1.12168C15.1848 0.506564 14.5094 0 13.6651 0H10.3122C9.47995 0 8.79248 0.506564 8.79248 1.12168V9.13022H15.1728V1.12168H15.1848ZM9.23873 2.95496C9.23873 2.4484 9.64882 2.03832 10.1554 2.03832C10.662 2.03832 11.072 2.4484 11.072 2.95496C11.072 3.46152 10.662 3.8716 10.1554 3.8716C9.64882 3.8716 9.23873 3.46152 9.23873 2.95496ZM10.1674 7.309C9.91416 7.309 9.69706 7.10396 9.69706 6.83862C9.69706 6.57328 9.9021 6.36824 10.1674 6.36824C10.4328 6.36824 10.6378 6.57328 10.6378 6.83862C10.6378 7.10396 10.4328 7.309 10.1674 7.309ZM11.265 5.83755C10.9394 5.83755 10.674 5.57221 10.674 5.24656C10.674 4.92091 10.9394 4.65557 11.265 4.65557C11.5907 4.65557 11.856 4.92091 11.856 5.24656C11.856 5.57221 11.5907 5.83755 11.265 5.83755ZM12.0007 1.53175C12.0007 1.25435 12.2178 1.03725 12.4952 1.03725C12.7726 1.03725 12.9897 1.25435 12.9897 1.53175C12.9897 1.80916 12.7726 2.02626 12.4952 2.02626C12.2178 2.02626 12.0007 1.80916 12.0007 1.53175ZM12.5917 3.8113C12.5917 3.34091 12.9777 2.95496 13.4481 2.95496C13.9184 2.95496 14.3044 3.34091 14.3044 3.8113C14.3044 4.28168 13.9184 4.66763 13.4481 4.66763C12.9777 4.66763 12.5917 4.28168 12.5917 3.8113ZM13.9064 7.6829C13.3998 7.6829 12.9777 7.27282 12.9777 6.75419C12.9777 6.23557 13.3878 5.82549 13.9064 5.82549C14.425 5.82549 14.8351 6.23557 14.8351 6.75419C14.8351 7.27282 14.425 7.6829 13.9064 7.6829Z" fill="#404040"/>
<path d="M18.9118 78.3606H5.74109V83.6072H18.9118V78.3606Z" fill="#404040"/>
<path d="M19.8164 55.3845H4.02844V58.2792H19.8164V55.3845Z" fill="#404040"/>
<path d="M19.8043 73.874H4.63147V77.6371H19.8043V73.874Z" fill="#404040"/>
<path d="M12.0128 70.6175C16.0895 70.6175 19.3942 68.8445 19.3942 66.6494C19.3942 64.5749 16.4272 62.8743 12.6641 62.6934C15.8483 62.8622 18.3208 64.3095 18.3208 66.0705C18.3208 67.9399 15.4985 69.4596 12.0128 69.4596C8.52719 69.4596 5.7049 67.9399 5.7049 66.0705C5.7049 64.3095 8.18948 62.8622 11.3615 62.6934C7.58643 62.8743 4.63147 64.5749 4.63147 66.6494C4.63147 68.8445 7.93619 70.6175 12.0128 70.6175Z" fill="#404040"/>
<path d="M6.88696 65.8896C6.88696 67.2646 9.19062 68.3742 12.025 68.3742C14.8593 68.3742 17.163 67.2646 17.163 65.8896C17.163 64.5146 14.8593 63.405 12.025 63.405C9.19062 63.405 6.88696 64.5146 6.88696 65.8896Z" fill="#404040"/>
<path d="M19.3942 58.7856H13.8582V59.9073C17.0664 59.9073 19.3942 61.9939 19.3942 61.9939V58.7856Z" fill="#404040"/>
<path d="M10.1675 58.7856H4.63147V61.9939C4.63147 61.9939 6.95925 59.9073 10.1675 59.9073V58.7856Z" fill="#404040"/>
<path d="M13.3276 58.7856H10.6379V61.7406H13.3276V58.7856Z" fill="#404040"/>
<path d="M12.8088 71.4255H11.1444V73.2588H12.8088V71.4255Z" fill="#404040"/>
<path d="M16.1498 35.8092V15.414H16.7046C17.1991 15.414 17.5971 15.016 17.5971 14.5215V11.3976C17.5971 10.9031 17.1991 10.5051 16.7046 10.5051H7.33311C6.83861 10.5051 6.4406 10.9031 6.4406 11.3976V14.5215C6.4406 15.016 6.83861 15.414 7.33311 15.414H7.88793V35.8092C7.88793 35.8092 0 38.2456 0 46.1335V98.4182C0 99.3107 0.723647 100.022 1.6041 100.022H22.4215C23.314 100.022 24.0256 99.2987 24.0256 98.4182V46.1335C24.0256 38.2456 16.1377 35.8092 16.1377 35.8092H16.1498ZM18.9841 38.1491C19.165 38.0285 19.5992 38.3782 19.961 38.921C20.3229 39.4637 20.4797 40.0065 20.2987 40.115C20.1178 40.2356 19.6836 39.8859 19.3218 39.3431C18.96 38.8004 18.8032 38.2576 18.9841 38.1491ZM8.80456 15.9326H10.1433L9.37143 35.6163H8.80456V15.9326ZM1.44732 97.6704V45.7717C1.44732 45.7717 1.51968 40.1874 8.67189 36.4002C3.43739 40.7663 3.36503 46.3024 3.36503 46.3024L3.40121 53.2495H2.54487V85.7903H3.54594L3.59419 97.6583H1.45938L1.44732 97.6704ZM21.2033 85.2234H3.09968V53.8164H21.2033V85.2234ZM21.2033 40.2598C21.4204 40.6216 21.4928 40.9714 21.3722 41.0437C21.2516 41.1161 20.9862 40.8749 20.7812 40.501C20.5641 40.1392 20.4917 39.7894 20.6123 39.717C20.733 39.6447 20.9983 39.8859 21.2033 40.2598Z" fill="#404040"/>
</svg>
