<svg width="32.000000" height="111.000000" viewBox="0 0 32 111" fill="none" xmlns="http://www.w3.org/2000/svg" xmlns:xlink="http://www.w3.org/1999/xlink">
	<desc>
			Created with Pixso.
	</desc>
	<defs>
		<clipPath id="clip7_134">
			<rect id="img-1-7" width="32.000000" height="111.000000" fill="white" fill-opacity="0"/>
		</clipPath>
	</defs>
	<g clip-path="url(#clip7_134)">
		<mask id="mask7_137" mask-type="alpha" maskUnits="userSpaceOnUse" x="0.000000" y="0.000000" width="32.000000" height="111.000000">
			<rect id="rect" width="32.000000" height="111.000000" fill="#000000" fill-opacity="1.000000"/>
		</mask>
		<g mask="url(#mask7_137)">
			<path id="path" d="M4.26 111C1.9 111 0 109.36 0 107.34L0 49.84C0 46.35 1.41 42.95 3.98 40.23L6.07 38.05C8.44 35.56 9.76 32.43 9.76 29.19L9.76 8.46C9.76 8.33 9.63 8.23 9.5 8.23C9.19 8.23 8.93 8.02 8.93 7.75L8.93 5.89C8.93 5.66 9.15 5.48 9.42 5.48C9.61 5.48 9.76 5.34 9.76 5.2L9.76 4.37C9.76 4.22 9.61 4.09 9.44 4.09C9.16 4.09 8.93 3.9 8.93 3.67L8.93 0.7C8.93 0.3 9.3 0 9.76 0L22.23 0C22.69 0 23.06 0.31 23.06 0.7L23.06 3.65C23.06 3.88 22.83 4.06 22.55 4.06C22.38 4.06 22.23 4.2 22.23 4.34L22.23 5.17C22.23 5.32 22.38 5.45 22.57 5.45C22.84 5.45 23.06 5.63 23.06 5.87L23.06 7.73C23.06 8 22.8 8.2 22.49 8.2C22.36 8.2 22.23 8.31 22.23 8.44L22.23 29.16C22.23 32.39 23.55 35.53 25.92 38.03L28.01 40.21C30.58 42.93 32 46.32 32 49.82L32 107.32C32 109.34 30.09 110.97 27.73 110.97L4.26 111Z" fill="#B49571" fill-opacity="1.000000" fill-rule="nonzero"/>
			<path id="path" d="M25.02 38.89L6.99 38.87L4.89 41.07C2.53 43.56 1.23 46.68 1.23 49.86L1.23 107.35C1.23 108.69 2.58 109.79 4.26 109.79C11.97 104.11 19.78 102.97 27.73 109.79C29.41 109.79 30.76 108.69 30.76 107.35L30.76 49.86C30.76 46.69 29.46 43.57 27.1 41.09L25.02 38.89Z" fill="#FFF7ED" fill-opacity="1.000000" fill-rule="nonzero"/>
			<path id="path" d="M1.23 91.33L1.23 59.28C11.07 53.38 20.92 53.38 30.76 59.28L30.76 91.33L1.23 91.33Z" fill="#B49571" fill-opacity="1.000000" fill-rule="nonzero"/>
			<path id="path" d="M3.53 89.08L3.53 60.59C7.7 58.28 11.89 57.11 16 57.11C20.11 57.11 24.3 58.28 28.48 60.59L28.48 89.08L3.53 89.08Z" fill="#B49571" fill-opacity="1.000000" fill-rule="nonzero"/>
			<path id="path" d="M21.73 5.18C21.73 5.67 22.18 5.96 22.56 5.96L22.56 7.7C22.19 7.7 21.73 8.01 21.73 8.46L21.73 23.18L10.26 23.18L10.26 8.46C10.26 8.01 9.87 7.72 9.5 7.72L9.43 5.96C9.81 5.96 10.26 5.68 10.26 5.18L10.26 4.36C10.26 3.84 9.8 3.58 9.43 3.57L9.43 0.7C9.43 0.66 9.44 0.62 9.49 0.58C9.54 0.54 9.63 0.5 9.76 0.5L22.23 0.5C22.35 0.5 22.44 0.54 22.5 0.58C22.55 0.62 22.56 0.66 22.56 0.7L22.56 3.57C22.19 3.57 21.73 3.85 21.73 4.36L21.73 5.18Z" fill="#FFF7ED" fill-opacity="1.000000" fill-rule="nonzero"/>
			<path id="path" d="M22.56 5.96L22.56 7.7C22.19 7.7 21.73 8.01 21.73 8.46L21.73 23.18L10.26 23.18L10.26 8.46C10.26 8.01 9.87 7.72 9.5 7.72L9.43 5.96C9.81 5.96 10.26 5.68 10.26 5.18L10.26 4.36C10.26 3.84 9.8 3.58 9.43 3.57L9.43 0.7C9.43 0.66 9.44 0.62 9.49 0.58C9.54 0.54 9.63 0.5 9.76 0.5L22.23 0.5C22.35 0.5 22.44 0.54 22.5 0.58C22.55 0.62 22.56 0.66 22.56 0.7L22.56 3.57C22.19 3.57 21.73 3.85 21.73 4.36L21.73 5.18C21.73 5.67 22.18 5.96 22.56 5.96Z" stroke="#B49571" stroke-opacity="1.000000" stroke-width="1.000000"/>
			<path id="path" d="M23.06 0.7L23.06 3.65C23.06 3.88 22.83 4.07 22.55 4.07C22.38 4.07 22.23 4.2 22.23 4.36L22.23 5.16L9.76 5.16L9.76 4.36C9.76 4.2 9.61 4.07 9.42 4.07C9.15 4.07 8.93 3.88 8.93 3.65L8.93 0.7C8.93 0.3 9.29 0 9.76 0L22.23 0C22.69 0 23.06 0.3 23.06 0.7Z" fill="#B49571" fill-opacity="1.000000" fill-rule="nonzero"/>
			<g opacity="0.500000">
				<path id="path" d="M16 60.85C13.25 60.85 10.82 61.37 9.11 61.93C7.44 62.53 6.41 63.02 6.35 62.91C6.31 62.85 7.24 62.21 8.93 61.45C10.64 60.76 13.16 60.14 15.99 60.14C18.83 60.14 21.35 60.74 23.05 61.45C24.74 62.19 25.68 62.85 25.63 62.91C25.57 63.02 24.55 62.53 22.86 61.93C21.15 61.37 18.75 60.85 16 60.85Z" fill="#F6F6F6" fill-opacity="1.000000" fill-rule="nonzero"/>
			</g>
			<g opacity="0.500000">
				<path id="path" d="M16 63.48C13.36 63.45 11.02 63.79 9.34 64.15C7.66 64.56 6.64 64.87 6.59 64.76C6.55 64.69 7.53 64.2 9.2 63.67C10.88 63.17 13.31 62.73 16 62.77C18.69 62.73 21.12 63.17 22.8 63.67C24.48 64.2 25.45 64.69 25.42 64.76C25.37 64.87 24.34 64.56 22.67 64.15C20.98 63.79 18.64 63.45 16 63.48Z" fill="#F6F6F6" fill-opacity="1.000000" fill-rule="nonzero"/>
			</g>
			<g opacity="0.500000">
				<path id="path" d="M16 75.68L13.1 75.68C11.19 72.73 11.19 68.95 13.1 66.01L18.9 66.01C20.81 68.95 20.81 72.72 18.9 75.68L16 75.68Z" fill="#F6F6F6" fill-opacity="1.000000" fill-rule="nonzero"/>
			</g>
			<g opacity="0.500000">
				<path id="path" d="M8.34 79.91L5.67 79.91L7.17 82.09L5.67 84.03L11.24 84.03L11.24 82.09L8.34 82.09L8.34 79.91Z" fill="#DADADA" fill-opacity="1.000000" fill-rule="nonzero"/>
			</g>
			<g opacity="0.500000">
				<path id="path" d="M23.65 79.91L26.32 79.91L24.82 82.09L26.32 84.03L20.75 84.03L20.75 82.09L23.65 82.09L23.65 79.91Z" fill="#DADADA" fill-opacity="1.000000" fill-rule="nonzero"/>
			</g>
			<g opacity="0.500000">
				<path id="path" d="M8.34 77.73L8.34 82.09L11.24 82.09L20.75 82.09L23.65 82.09L23.65 77.73L8.34 77.73Z" fill="#F6F6F6" fill-opacity="1.000000" fill-rule="nonzero"/>
			</g>
			<g opacity="0.500000">
				<path id="path" d="M11.26 75.16C11.18 75.21 10.86 74.84 10.5 74.15C10.15 73.46 9.82 72.41 9.74 71.21C9.7 70.01 9.91 68.93 10.18 68.2C10.46 67.47 10.74 67.07 10.82 67.1C11.03 67.19 10.35 68.93 10.48 71.16C10.6 73.39 11.45 75.05 11.26 75.16Z" fill="#F6F6F6" fill-opacity="1.000000" fill-rule="nonzero"/>
			</g>
			<g opacity="0.500000">
				<path id="path" d="M20.73 75.16C20.81 75.21 21.13 74.84 21.49 74.15C21.84 73.46 22.17 72.41 22.25 71.21C22.29 70.01 22.08 68.93 21.81 68.2C21.53 67.47 21.25 67.07 21.17 67.1C20.96 67.19 21.64 68.93 21.51 71.16C21.39 73.39 20.54 75.05 20.73 75.16Z" fill="#F6F6F6" fill-opacity="1.000000" fill-rule="nonzero"/>
			</g>
			<g opacity="0.500000">
				<path id="path" d="M8.85 74.34C8.7 74.42 7.97 73.34 7.74 71.77C7.58 70.18 8.02 68.95 8.18 69C8.41 69.05 8.31 70.24 8.46 71.67C8.67 73.09 9.05 74.24 8.85 74.34Z" fill="#F6F6F6" fill-opacity="1.000000" fill-rule="nonzero"/>
			</g>
			<g opacity="0.500000">
				<path id="path" d="M23.14 74.34C23.29 74.42 24.02 73.34 24.25 71.77C24.41 70.18 23.97 68.95 23.81 69C23.58 69.05 23.68 70.24 23.53 71.67C23.32 73.09 22.94 74.24 23.14 74.34Z" fill="#F6F6F6" fill-opacity="1.000000" fill-rule="nonzero"/>
			</g>
		</g>
	</g>
</svg>
