<svg width="14" height="14" viewBox="0 0 14 14" fill="none" xmlns="http://www.w3.org/2000/svg">
<path d="M13.9483 5.07866C13.8858 4.88649 13.7678 4.71712 13.6092 4.59188C13.4506 4.46665 13.2585 4.39116 13.0571 4.37491L9.36955 4.07741L7.9458 0.634288C7.86881 0.446674 7.73776 0.286193 7.56932 0.173249C7.40089 0.0603055 7.20267 0 6.99987 0C6.79707 0 6.59885 0.0603055 6.43041 0.173249C6.26197 0.286193 6.13093 0.446674 6.05393 0.634288L4.63143 4.07679L0.942054 4.37491C0.740289 4.39198 0.548047 4.4682 0.389413 4.59404C0.230778 4.71988 0.112807 4.88973 0.0502791 5.08232C-0.0122488 5.27491 -0.0165525 5.48167 0.0379073 5.67669C0.0923671 5.87172 0.203168 6.04633 0.356429 6.17866L3.16893 8.60554L2.31205 12.2343C2.26413 12.4314 2.27587 12.6384 2.34577 12.8288C2.41567 13.0193 2.54058 13.1847 2.70465 13.304C2.86873 13.4234 3.06456 13.4913 3.26729 13.4991C3.47002 13.5069 3.67051 13.4544 3.8433 13.348L6.99955 11.4055L10.1577 13.348C10.3305 13.4531 10.5306 13.5047 10.7327 13.4962C10.9348 13.4878 11.1299 13.4198 11.2934 13.3007C11.4569 13.1816 11.5816 13.0168 11.6516 12.8271C11.7217 12.6373 11.734 12.431 11.6871 12.2343L10.8271 8.60491L13.6396 6.17804C13.7941 6.04593 13.9059 5.87093 13.9608 5.67522C14.0158 5.47951 14.0114 5.27189 13.9483 5.07866ZM12.9896 5.42054L9.9458 8.04554C9.87639 8.10537 9.82476 8.18312 9.79654 8.27031C9.76832 8.35749 9.76461 8.45076 9.7858 8.53991L10.7158 12.4649C10.7182 12.4703 10.7185 12.4764 10.7165 12.482C10.7145 12.4876 10.7105 12.4922 10.7052 12.4949C10.6939 12.5037 10.6908 12.5018 10.6814 12.4949L7.26143 10.3918C7.18266 10.3434 7.09202 10.3177 6.99955 10.3177C6.90709 10.3177 6.81644 10.3434 6.73768 10.3918L3.31768 12.4962C3.3083 12.5018 3.3058 12.5037 3.29393 12.4962C3.28865 12.4935 3.28461 12.4889 3.28263 12.4833C3.28066 12.4777 3.2809 12.4716 3.2833 12.4662L4.2133 8.54116C4.2345 8.45201 4.23079 8.35874 4.20257 8.27156C4.17435 8.18437 4.12272 8.10662 4.0533 8.04679L1.00955 5.42179C1.00205 5.41554 0.995179 5.40991 1.00143 5.39054C1.00768 5.37116 1.01268 5.37366 1.02205 5.37241L5.01705 5.04991C5.10869 5.04205 5.19637 5.00907 5.27047 4.9546C5.34457 4.90013 5.40221 4.82628 5.43705 4.74116L6.9758 1.01554C6.9808 1.00491 6.98268 0.999913 6.99768 0.999913C7.01268 0.999913 7.01455 1.00491 7.01956 1.01554L8.56205 4.74116C8.59722 4.82631 8.65523 4.90008 8.72967 4.95434C8.80412 5.00861 8.89211 5.04125 8.98393 5.04866L12.9789 5.37116C12.9883 5.37116 12.9939 5.37116 12.9996 5.38929C13.0052 5.40741 12.9996 5.41429 12.9896 5.42054Z" fill="#B49571"/>
</svg>
