<svg width="14" height="14" viewBox="0 0 14 14" fill="none" xmlns="http://www.w3.org/2000/svg">
<path d="M13.9483 5.07866C13.8858 4.88649 13.7678 4.71712 13.6092 4.59188C13.4506 4.46665 13.2585 4.39116 13.0571 4.37491L9.36955 4.07741L7.9458 0.634288C7.86881 0.446674 7.73776 0.286193 7.56932 0.173249C7.40089 0.0603055 7.20267 0 6.99987 0C6.79707 0 6.59885 0.0603055 6.43041 0.173249C6.26197 0.286193 6.13093 0.446674 6.05393 0.634288L4.63143 4.07679L0.942054 4.37491C0.740289 4.39198 0.548047 4.4682 0.389413 4.59404C0.230778 4.71988 0.112807 4.88973 0.0502791 5.08232C-0.0122488 5.27491 -0.0165525 5.48167 0.0379073 5.67669C0.0923671 5.87172 0.203168 6.04633 0.356429 6.17866L3.16893 8.60554L2.31205 12.2343C2.26413 12.4314 2.27587 12.6384 2.34577 12.8288C2.41567 13.0193 2.54058 13.1847 2.70465 13.304C2.86873 13.4234 3.06456 13.4913 3.26729 13.4991C3.47002 13.5069 3.67051 13.4544 3.8433 13.348L6.99955 11.4055L10.1577 13.348C10.3305 13.4531 10.5306 13.5047 10.7327 13.4962C10.9348 13.4878 11.1299 13.4198 11.2934 13.3007C11.4569 13.1816 11.5816 13.0168 11.6516 12.8271C11.7217 12.6373 11.734 12.431 11.6871 12.2343L10.8271 8.60491L13.6396 6.17804C13.7941 6.04593 13.9059 5.87093 13.9608 5.67522C14.0158 5.47951 14.0114 5.27189 13.9483 5.07866Z" fill="#B49571"/>
</svg>
